<svg viewBox="0 0 48 48" fill="currentColor" xmlns="http://www.w3.org/2000/svg">
<path d="M29.9999 27.36H31.4399V38.16H29.9999V27.36ZM28.4399 19.68H26.7599V15.72H28.4399C29.6399 15.72 30.1199 16.2 30.1199 17.64C30.2399 19.2 29.6399 19.68 28.4399 19.68ZM28.4399 14.52H25.3199V25.32H26.6399V21H28.3199C30.3599 21 31.4399 20.04 31.4399 17.76C31.5599 15.48 30.5999 14.52 28.4399 14.52ZM24.4799 32.76H22.7999V28.56H24.4799C25.6799 28.56 26.1599 29.04 26.1599 30.48C26.1599 32.04 25.5599 32.76 24.4799 32.76ZM25.7999 33.72C26.8799 33.36 27.4799 32.28 27.4799 30.6C27.4799 28.32 26.3999 27.36 24.3599 27.36H21.2399V38.16H22.6799V33.96H24.3599L26.7599 38.16H28.3199L25.7999 33.72ZM18.8399 38.16V31.68H16.0799V32.88H17.5199V36.84H15.4799C14.0399 36.84 13.4399 36.24 13.4399 34.92V30.36C13.4399 29.16 14.1599 28.44 15.4799 28.44H18.9599V27.24H15.4799C13.1999 27.24 11.9999 28.32 11.9999 30.36V34.92C11.9999 36.96 13.1999 38.04 15.4799 38.04H18.8399V38.16ZM33.7199 14.52V25.32H39.9599V24.12H35.1599V14.52H33.7199ZM39.2399 35.04C39.2399 36.24 38.5199 36.96 37.1999 36.96H35.1599V28.68H37.1999C38.6399 28.68 39.2399 29.28 39.2399 30.6V35.04ZM37.1999 27.36H33.7199V38.16H37.1999C39.4799 38.16 40.6799 37.08 40.6799 35.04V30.48C40.6799 28.44 39.4799 27.36 37.1999 27.36ZM9.59993 23.28L2.15993 22.32L2.27993 25.32H7.43993L9.59993 23.28ZM27.4799 12.12H34.6799L36.9599 9.84001L25.4399 10.2L27.4799 12.12ZM22.9199 22.8V7.32001L21.7199 3.60001L18.3599 4.68001L20.7599 24.96L22.9199 22.8ZM25.0799 9.48001L37.0799 9.24001V6.60001L25.0799 7.80001V9.48001ZM45.1199 19.56L39.4799 20.4L41.6399 22.56H45.3599L45.1199 19.56ZM45.8399 26.76L45.4799 23.64L42.7199 26.28L45.8399 26.76ZM43.6799 6.00001L39.2399 6.48001V19.8L44.9999 18.96L43.6799 6.00001ZM45.8399 27.36L42.7199 26.88V41.88L46.5599 34.2L45.8399 27.36ZM20.0399 25.2L17.6399 4.92001L11.8799 6.84001V22.8L14.2799 25.2H20.0399ZM38.3999 40.32H14.1599L21.7199 43.56L41.5199 42.48L38.3999 40.32ZM27.5999 46.08L41.7599 47.28V43.08L23.0399 44.16L27.5999 46.08ZM2.27993 27.36L2.39993 30.72L9.83993 29.76L7.43993 27.36H2.27993ZM2.51993 33.24L9.83993 37.68V30.48L2.39993 31.32L2.51993 33.24ZM9.83993 7.44001L1.67993 10.08L2.15993 21.6L9.83993 22.56V7.44001Z" />
</svg>
