<svg viewBox="0 0 85 32" fill="currentColor" xmlns="http://www.w3.org/2000/svg">
<path d="M53.2259 24.8235V20.7647H54.8141C55.2553 20.7647 55.6082 20.7647 55.8729 20.6764C56.1376 20.5 56.3141 20.147 56.3141 19.8823C56.3141 19.4411 55.9612 18.9117 55.2553 18.2058L54.7259 17.6764C54.1965 17.147 53.8435 16.6176 53.5788 16.0882C53.3141 15.5588 53.2259 14.9411 53.2259 14.3235C53.2259 13 53.667 11.9411 54.6376 11.0588C55.52 10.1764 56.7553 9.82349 58.2553 9.82349C58.7847 9.82349 59.4906 9.73525 60.1965 9.82349V13.8823H58.6965C57.9023 13.8823 57.6376 14.0588 57.6376 14.5882C57.6376 15.0294 57.9906 15.3823 58.6965 16C58.9612 16.2647 59.2259 16.4411 59.3141 16.5294C59.8435 17.0588 60.2847 17.5882 60.6376 18.2058C60.9023 18.8235 61.0788 19.5294 61.0788 20.2353C61.0788 21.7353 60.5494 22.8823 59.5788 23.6764C58.3435 24.4705 57.02 24.8235 55.2553 24.8235H53.2259ZM42.9023 24.8235V20.7647H44.4906C44.9318 20.7647 45.2847 20.7647 45.5494 20.6764C45.8141 20.5 45.9906 20.147 45.9906 19.8823C45.9906 19.4411 45.6376 18.9117 44.9318 18.2058L44.4023 17.6764C43.8729 17.147 43.52 16.6176 43.2553 16.0882C42.9906 15.5588 42.9023 14.9411 42.9023 14.3235C42.9023 13 43.3435 11.9411 44.3141 11.0588C45.1965 10.1764 46.4318 9.82349 47.9318 9.82349C48.4612 9.82349 49.167 9.73525 49.8729 9.82349V13.8823H48.3729C47.5788 13.8823 47.3141 14.0588 47.3141 14.5882C47.3141 15.0294 47.667 15.3823 48.3729 16C48.6376 16.2647 48.9023 16.4411 48.9906 16.5294C49.52 17.0588 49.9612 17.5882 50.3141 18.2058C50.5788 18.8235 50.7553 19.5294 50.7553 20.2353C50.7553 21.7353 50.2259 22.8823 49.2553 23.6764C48.2847 24.4705 46.9612 24.9117 45.1965 24.9117C44.4023 24.8235 43.6082 24.8235 42.9023 24.8235ZM39.3729 24.8235H38.2259C35.9318 24.8235 34.0788 24.1176 32.5788 22.7941C31.167 21.3823 30.4612 19.6176 30.4612 17.4117C30.4612 15.2058 31.167 13.3529 32.667 11.8529C34.167 10.4411 36.02 9.73525 38.3141 9.73525H39.3729V13.7941H38.3141C37.167 13.7941 36.1965 14.147 35.4906 14.7647C34.7847 15.3823 34.4318 16.2647 34.4318 17.2352C34.4318 18.2058 34.7847 19.0882 35.4906 19.7058C36.1965 20.4117 37.0788 20.6764 38.2259 20.6764H39.4612L39.3729 24.8235ZM22.7847 17.0588H23.3141C23.9318 17.0588 24.4612 16.8823 24.7259 16.6176C25.0788 16.3529 25.2553 15.9117 25.2553 15.2941C25.2553 14.6764 25.0788 14.2353 24.7259 13.9705C24.3729 13.6176 23.9318 13.5294 23.2259 13.5294H22.7847V17.0588ZM51.6376 5.41172C54.5494 5.67643 57.3729 6.02937 59.9318 6.47055L66.02 2.41172C63.1082 1.6176 57.9906 1.08819 51.7259 1.08819C52.2553 1.6176 52.6082 2.41172 52.6082 3.20584C52.6965 4.08819 52.2553 4.88231 51.6376 5.41172ZM8.49058 10.4411C15.6376 7.17643 27.6376 4.97054 41.3141 4.97054C43.167 4.97054 45.02 4.97055 46.8729 5.05878C46.4318 4.52937 46.167 3.82349 46.167 3.1176C46.167 2.32349 46.4318 1.6176 46.9612 1.08819C37.7847 1.3529 27.1082 2.58819 18.1082 4.97054C14.0494 6.02937 10.4318 7.26466 7.43175 8.67643C8.0494 9.1176 8.40234 9.73525 8.49058 10.4411ZM5.75528 8.94113C6.81411 8.94113 7.69646 9.73525 7.69646 10.7941C7.69646 11.8529 6.81411 12.647 5.75528 12.647C4.69646 12.647 3.81411 11.8529 3.81411 10.7941C3.81411 9.82349 4.69646 8.94113 5.75528 8.94113ZM49.4318 0.823486C50.7553 0.823486 51.9023 1.88231 51.9023 3.20584C51.9023 4.52937 50.8435 5.58819 49.4318 5.58819C48.1082 5.58819 46.9612 4.52937 46.9612 3.20584C46.9612 1.88231 48.1082 0.823486 49.4318 0.823486ZM19.0788 27.4705C8.66705 25.2647 1.78469 21.5588 1.78469 17.3235C1.78469 15.8235 2.66705 14.4117 4.25528 13C3.72587 12.647 3.28469 12.1176 3.10822 11.4117C1.16705 13.0882 0.108223 14.9411 0.108223 17.147C0.108223 22.2647 7.51999 26.7647 18.7259 29.4117C18.7259 29.2352 18.6376 29.0588 18.6376 28.8823C18.6376 28.3529 18.8141 27.9117 19.0788 27.4705ZM20.9318 30.3823C21.7259 30.3823 22.4318 29.6764 22.4318 28.8823C22.4318 28.0882 21.7259 27.3823 20.9318 27.3823C20.1376 27.3823 19.4318 28.0882 19.4318 28.8823C19.4318 29.7647 20.1376 30.3823 20.9318 30.3823ZM69.1082 7.26466C66.1965 6.73525 63.1082 6.47055 60.02 6.47055C63.02 6.99996 65.7553 7.6176 68.2259 8.32349C68.4906 7.88231 68.7553 7.6176 69.1082 7.26466ZM72.8141 27.2058C79.6965 24.5588 84.02 21.0294 84.5494 17.147C84.9023 14.5882 83.2259 12.4705 79.8729 10.7058C79.6965 11.5882 79.1671 12.3823 78.4612 13C80.0494 14.3235 80.9318 15.7352 80.9318 17.2352C80.9318 20.147 77.5788 22.8823 72.1082 25C72.5494 25.6176 72.8141 26.4117 72.8141 27.2058ZM69.1965 24.4705C70.7847 24.4705 72.02 25.7058 72.02 27.2058C72.02 28.7058 70.7847 29.9411 69.1965 29.9411C67.6082 29.9411 66.3729 28.7058 66.3729 27.2058C66.2847 25.7058 67.6082 24.4705 69.1965 24.4705ZM70.4317 7.26466C70.52 7.3529 71.1376 7.70584 71.2259 7.70584C71.2259 7.6176 71.4906 7.26466 71.4906 7.17643C71.5788 7.08819 71.5788 6.99996 71.667 6.91172L71.8435 6.64702L71.667 6.73525C71.5788 6.73525 71.5788 6.73525 71.4906 6.82349C71.4023 6.82349 71.2259 6.91172 71.1376 6.99996C70.8729 6.99996 70.6965 7.17643 70.4317 7.26466ZM72.02 7.97055C72.2847 8.05878 72.4612 8.05878 72.7259 8.14702C72.9023 8.14702 73.2553 8.23525 73.52 8.23525V6.55878C73.4317 6.55878 73.0788 6.73525 72.9906 6.82349C72.8141 6.91172 72.7259 6.99996 72.5494 7.17643C72.4612 7.3529 72.2847 7.44113 72.1965 7.6176C72.2847 7.52937 72.02 7.88231 72.02 7.97055ZM74.3141 8.14702C74.5788 8.14702 74.8435 8.14702 75.1082 8.05878C75.1965 8.05878 75.3729 8.05878 75.4612 7.97055C75.5494 7.97055 75.7259 7.88231 75.8141 7.88231C75.8141 7.79407 75.6376 7.52937 75.5494 7.44113C75.4612 7.3529 75.3729 7.08819 75.1965 6.99996L74.8435 6.64702C74.7553 6.55878 74.4906 6.38231 74.4023 6.38231L74.3141 8.14702ZM76.6082 7.70584L76.9612 7.52937C77.0494 7.52937 77.2259 7.3529 77.3141 7.3529C77.3141 7.26466 76.2553 6.73525 76.0788 6.73525C76.167 6.91172 76.2553 6.99996 76.3435 7.17643C76.3435 7.26466 76.4318 7.3529 76.4318 7.44113C76.4318 7.52937 76.6082 7.70584 76.6082 7.70584ZM68.5788 9.55878H70.7847C70.7847 9.38231 70.8729 9.1176 70.8729 9.02937C70.8729 8.8529 70.9612 8.67643 70.9612 8.49996C70.7847 8.49996 70.4318 8.23525 70.3435 8.14702C70.2553 8.05878 70.1671 8.05878 70.0788 7.97055C69.9906 7.88231 69.9023 7.79407 69.8141 7.79407L69.4612 8.14702C69.3729 8.23525 69.1965 8.41172 69.1082 8.58819C69.02 8.76466 68.9318 8.94113 68.8435 9.02937C68.7553 9.1176 68.5788 9.47054 68.5788 9.55878ZM71.5788 9.55878L73.52 9.64702V9.02937C73.167 9.02937 72.9023 8.94113 72.5494 8.94113C72.3729 8.94113 72.2847 8.8529 72.1082 8.8529C72.02 8.8529 71.9318 8.8529 71.9318 8.76466L71.7553 8.67643C71.7553 8.76466 71.7553 8.8529 71.667 8.8529V9.02937C71.5788 9.20584 71.5788 9.47054 71.5788 9.55878ZM75.9023 9.64702H76.2553V9.55878C76.2553 9.29408 76.167 8.94113 76.0788 8.67643C75.9906 8.67643 75.8141 8.76466 75.6376 8.76466C75.4612 8.76466 75.3729 8.8529 75.1965 8.8529C74.9318 8.8529 74.5788 8.94113 74.3141 8.94113V9.55878H74.4023L75.9023 9.64702ZM76.8729 8.49996C76.8729 8.58819 76.8729 8.67643 76.9612 8.76466C76.9612 8.8529 76.9612 8.94113 77.0494 9.02937C77.0494 9.1176 77.1376 9.47054 77.1376 9.64702H79.167C79.167 9.47054 79.0788 9.20584 78.9906 9.1176C78.9023 8.94113 78.8141 8.76466 78.7259 8.67643C78.6376 8.49996 78.5494 8.41172 78.3729 8.23525L78.02 7.88231C77.9318 7.97054 77.8435 7.97054 77.7553 8.05878C77.667 8.14702 77.5788 8.14702 77.4906 8.23525C77.4023 8.32349 77.3141 8.32349 77.2259 8.41172C77.0494 8.41172 76.9612 8.41172 76.8729 8.49996ZM77.9317 12.4705C78.1082 12.2941 78.5494 11.8529 78.7259 11.5882L78.9906 11.0588C78.9906 10.9705 79.0788 10.8823 79.0788 10.7941C79.0788 10.7058 79.167 10.5294 79.167 10.4411H77.0494C77.0494 10.7058 76.9612 10.9705 76.9612 11.147C76.9612 11.2353 76.8729 11.4117 76.8729 11.5C76.8729 11.5882 76.7847 11.7647 76.7847 11.8529C76.8729 11.9411 76.9612 11.9411 77.0494 12.0294C77.1376 12.1176 77.2259 12.1176 77.3141 12.2058C77.4023 12.2941 77.4906 12.2941 77.5788 12.3823C77.6671 12.3823 77.8435 12.4705 77.9317 12.4705ZM71.7553 11.5C71.8435 11.5 72.02 11.4117 72.1965 11.4117C72.3729 11.4117 72.4612 11.4117 72.6376 11.3235C72.9023 11.3235 73.2553 11.2353 73.6082 11.2353V10.3529H71.667C71.5788 10.7941 71.667 11.2353 71.7553 11.5ZM75.9906 11.5882C75.9906 11.5 76.0788 11.4117 76.0788 11.3235C76.0788 11.2353 76.0788 11.147 76.167 11.0588C76.167 10.9705 76.2553 10.6176 76.2553 10.4411H74.4023V11.3235C74.667 11.3235 75.02 11.4117 75.2847 11.4117C75.3729 11.4117 75.5494 11.5 75.7259 11.5C75.6376 11.5 75.9906 11.5882 75.9906 11.5882ZM75.9023 13.5294C76.0788 13.5294 76.4317 13.3529 76.6082 13.2647C76.6965 13.1764 76.7847 13.1764 76.9612 13.0882C77.0494 13.0882 77.2259 12.9117 77.2259 12.9117C77.1376 12.8235 76.6082 12.5588 76.52 12.5588C76.52 12.647 76.3435 13 76.2553 13.0882C76.1671 13.1764 76.167 13.2647 76.0788 13.3529L75.9023 13.5294ZM74.3141 13.7941C74.4023 13.7941 74.7553 13.6176 74.7553 13.5294C74.9318 13.4411 75.02 13.3529 75.1082 13.1764C75.3729 12.9117 75.5494 12.647 75.7259 12.2941C75.7259 12.2941 75.4612 12.2058 75.3729 12.2058C75.2847 12.2058 75.1082 12.2058 75.02 12.1176C74.8435 12.1176 74.4906 12.0294 74.3141 12.0294H74.2259L74.3141 13.7941ZM73.52 12.1176C73.167 12.1176 72.7259 12.2058 72.4612 12.2058H72.1082C72.02 12.2058 72.02 12.2058 72.1082 12.2941C72.1965 12.4705 72.1965 12.5588 72.2847 12.647C72.4612 12.9117 72.6376 13.0882 72.8141 13.2647C72.9023 13.3529 73.0788 13.4411 73.1671 13.5294C73.2553 13.5294 73.52 13.7058 73.52 13.7058V12.1176ZM68.5788 10.4411C68.5788 10.6176 68.6671 10.9705 68.7553 11.0588L69.02 11.5882C69.1082 11.6764 69.1082 11.7647 69.1965 11.8529C69.2847 11.9411 69.2847 12.0294 69.3729 12.0294L69.5494 12.2058L69.7259 12.3823C69.8141 12.3823 69.9023 12.2058 69.9906 12.2058C70.0788 12.1176 70.167 12.1176 70.2553 12.0294C70.3435 11.9411 70.4318 11.9411 70.6082 11.8529C70.6965 11.8529 70.8729 11.7647 70.9612 11.6764C70.9612 11.5882 70.8729 11.4117 70.8729 11.4117C70.8729 11.3235 70.8729 11.2353 70.7847 11.147C70.7847 11.0588 70.6965 10.6176 70.6965 10.5294V10.4411H68.5788ZM70.4317 12.9117C70.4317 13 70.9612 13.2647 71.1376 13.2647C71.2259 13.3529 71.4023 13.3529 71.4906 13.4411C71.5788 13.4411 71.5788 13.4411 71.667 13.5294C71.7553 13.5294 71.8435 13.5294 71.8435 13.6176C71.8435 13.6176 71.667 13.4411 71.667 13.3529C71.5788 13.2647 71.5788 13.1764 71.4906 13.0882C71.4023 13 71.2259 12.647 71.2259 12.5588C71.1376 12.5588 70.8729 12.7353 70.7847 12.7353C70.6965 12.7353 70.6082 12.8235 70.6082 12.8235C70.52 12.8235 70.4317 12.9117 70.4317 12.9117ZM42.3729 31.9705C51.3729 31.9705 59.4906 31 66.1965 29.3235C65.7553 28.7058 65.4906 28 65.4906 27.2941V27.1176C58.7847 28.7058 50.4023 29.6764 41.3141 29.6764C34.7847 29.6764 28.52 29.147 23.1376 28.2647C23.2259 28.4411 23.2259 28.7058 23.2259 28.8823C23.2259 29.4117 23.0494 29.8529 22.7847 30.2941C28.6082 31.3529 35.3141 31.9705 42.3729 31.9705ZM18.9906 13.4411V9.91172H22.7847C24.9023 9.91172 26.4023 10.3529 27.4612 11.2353C28.52 12.1176 28.9612 13.4411 28.9612 15.2058C28.9612 16.9705 28.4318 18.2941 27.4612 19.2647C26.4906 20.2353 25.0788 20.6764 23.3141 20.6764H22.7847V24.647H18.9906V17.0588V13.4411Z" />
</svg>
