<svg role="img" viewBox="0 0 464 151" fill="none" xmlns="http://www.w3.org/2000/svg">
<title>Logotyp Unii Eurpejskiej z Europejskim Funduszem Rozwoju Regionalnego</title>
<g clip-path="url(#clip0_115_366)">
<path d="M166.504 121.172H30.4561V30.4719H166.504V121.172Z" fill="#074EA2"/>
<path d="M95.5807 50.241L98.458 48.1436L101.326 50.241L100.229 46.853L103.149 44.7583H99.554L98.458 41.3303L97.3607 44.7583H93.7554L96.666 46.853L95.5807 50.241Z" fill="#FFF200"/>
<path d="M80.722 54.2271L83.5994 52.1297L86.4674 54.2271L85.3727 50.8417L88.29 48.7444H84.6954L83.5927 45.3071L82.4954 48.7537L78.9087 48.7444L81.8194 50.8417L80.722 54.2271Z" fill="#FFF200"/>
<path d="M72.7209 56.2078L71.6236 59.6478L68.0303 59.6398L70.9409 61.7371L69.8529 65.1238L72.7209 63.0344L75.5983 65.1238L74.5036 61.7371L77.4236 59.6398H73.8263L72.7209 56.2078Z" fill="#FFF200"/>
<path d="M68.7425 77.8548L71.6011 79.9614L70.5131 76.5734L73.4331 74.4788H69.8398L68.7425 71.0414L67.6278 74.4868L64.0398 74.4788L66.9505 76.5734L65.8651 79.9614L68.7425 77.8548Z" fill="#FFF200"/>
<path d="M73.8253 89.3572L72.72 85.9292L71.6253 89.3572H68.0293L70.94 91.4625L69.852 94.8398L72.72 92.7425L75.5973 94.8398L74.5026 91.4625L77.4213 89.3572H73.8253Z" fill="#FFF200"/>
<path d="M84.7116 100.249L83.6143 96.821L82.509 100.258L78.9143 100.249L81.8343 102.346L80.7463 105.732L83.6143 103.634L86.4916 105.732L85.397 102.346L88.317 100.249H84.7116Z" fill="#FFF200"/>
<path d="M99.5523 104.195L98.4563 100.758L97.359 104.195H93.7563L96.675 106.286L95.579 109.678L98.4563 107.58L101.332 109.678L100.227 106.286L103.158 104.195H99.5523Z" fill="#FFF200"/>
<path d="M114.393 100.249L113.288 96.821L112.181 100.258L108.604 100.249L111.508 102.346L110.42 105.732L113.288 103.634L116.165 105.732L115.068 102.346L117.999 100.249H114.393Z" fill="#FFF200"/>
<path d="M125.288 89.3572L124.183 85.9292L123.088 89.3572H119.499L122.411 91.4625L121.305 94.8398L124.183 92.7425L127.06 94.8398L125.963 91.4625L128.884 89.3572H125.288Z" fill="#FFF200"/>
<path d="M132.821 74.4358H129.225L128.137 70.9985L127.024 74.4358H123.441L126.357 76.5331L125.25 79.9185L128.137 77.8211L131.005 79.9185L129.91 76.5331L132.821 74.4358Z" fill="#FFF200"/>
<path d="M121.307 65.0723L124.184 62.9869L127.062 65.0723L125.964 61.6869L128.884 59.6003H125.29L124.184 56.1563L123.09 59.6096L119.5 59.6003L122.412 61.6869L121.307 65.0723Z" fill="#FFF200"/>
<path d="M113.331 45.308L112.245 48.7533L108.64 48.7453L111.559 50.8413L110.472 54.2346L113.349 52.128L116.208 54.2346L115.12 50.8413L118.031 48.7453H114.436L113.331 45.308Z" fill="#FFF200"/>
<path d="M196.848 89.5127V74.5434H205.985V76.3367H198.944V80.786H205.208V82.5367H198.944V87.7194H206.525V89.5127H196.848Z" fill="#231F20"/>
<mask id="mask0_115_366" style="mask-type:luminance" maskUnits="userSpaceOnUse" x="-30" y="-30" width="524" height="212">
<path d="M-30 -30H493.935V181.644H-30V-30Z" fill="white"/>
</mask>
<g mask="url(#mask0_115_366)">
<path d="M217.476 88.9511C217.015 89.0671 216.407 89.1885 215.651 89.3178C214.895 89.4471 214.02 89.5125 213.027 89.5125C212.163 89.5125 211.435 89.3871 210.844 89.1351C210.255 88.8831 209.779 88.5271 209.419 88.0658C209.059 87.6045 208.8 87.0618 208.642 86.4351C208.483 85.8085 208.404 85.1138 208.404 84.3511V78.0431H210.414V83.9191C210.414 85.2871 210.628 86.2658 211.062 86.8565C211.494 87.4471 212.22 87.7418 213.243 87.7418C213.459 87.7418 213.682 87.7351 213.912 87.7205C214.143 87.7058 214.359 87.6871 214.56 87.6658C214.762 87.6445 214.946 87.6231 215.111 87.6018C215.276 87.5805 215.395 87.5551 215.467 87.5258V78.0431H217.476V88.9511Z" fill="#231F20"/>
<path d="M224.971 78.0434C225.144 78.0434 225.342 78.054 225.566 78.0754C225.788 78.098 226.008 78.126 226.224 78.162C226.44 78.198 226.638 78.234 226.818 78.27C226.998 78.306 227.131 78.338 227.218 78.3674L226.872 80.1167C226.714 80.0594 226.451 79.99 226.084 79.9114C225.716 79.8327 225.244 79.7927 224.668 79.7927C224.294 79.7927 223.923 79.8327 223.556 79.9114C223.19 79.99 222.947 80.0447 222.832 80.0727V89.5127H220.824V78.7567C221.299 78.5834 221.89 78.4207 222.595 78.27C223.3 78.1194 224.092 78.0434 224.971 78.0434Z" fill="#231F20"/>
<path d="M236.872 83.6379C236.872 82.3713 236.588 81.3659 236.019 80.6246C235.451 79.8833 234.676 79.5126 233.697 79.5126C232.717 79.5126 231.944 79.8833 231.376 80.6246C230.807 81.3659 230.521 82.3713 230.521 83.6379C230.521 84.9046 230.807 85.9099 231.376 86.6513C231.944 87.3926 232.717 87.7633 233.697 87.7633C234.676 87.7633 235.451 87.3926 236.019 86.6513C236.588 85.9099 236.872 84.9046 236.872 83.6379ZM238.968 83.6379C238.968 84.5299 238.839 85.3366 238.579 86.0566C238.319 86.7766 237.956 87.3966 237.488 87.9139C237.02 88.4326 236.461 88.8326 235.815 89.1126C235.165 89.3939 234.46 89.5339 233.697 89.5339C232.933 89.5339 232.228 89.3939 231.58 89.1126C230.932 88.8326 230.373 88.4326 229.907 87.9139C229.439 87.3966 229.075 86.7766 228.816 86.0566C228.556 85.3366 228.427 84.5299 228.427 83.6379C228.427 82.7593 228.556 81.9566 228.816 81.2286C229.075 80.5019 229.439 79.8793 229.907 79.3606C230.373 78.8419 230.932 78.4433 231.58 78.1619C232.228 77.8819 232.933 77.7406 233.697 77.7406C234.46 77.7406 235.165 77.8819 235.815 78.1619C236.461 78.4433 237.02 78.8419 237.488 79.3606C237.956 79.8793 238.319 80.5019 238.579 81.2286C238.839 81.9566 238.968 82.7593 238.968 83.6379Z" fill="#231F20"/>
<path d="M249.487 83.9186C249.487 82.6093 249.163 81.5999 248.515 80.8946C247.867 80.1893 247.003 79.8359 245.923 79.8359C245.319 79.8359 244.847 79.8586 244.508 79.9013C244.169 79.9439 243.9 79.9946 243.699 80.0519V87.1359C243.943 87.3386 244.295 87.5333 244.756 87.7199C245.217 87.9079 245.721 88.0013 246.268 88.0013C246.844 88.0013 247.337 87.8959 247.748 87.6879C248.159 87.4786 248.493 87.1906 248.752 86.8239C249.012 86.4559 249.199 86.0253 249.315 85.5279C249.429 85.0306 249.487 84.4946 249.487 83.9186ZM251.583 83.9186C251.583 84.7679 251.471 85.5533 251.247 86.2733C251.024 86.9933 250.696 87.6119 250.264 88.1306C249.832 88.6493 249.303 89.0519 248.677 89.3399C248.051 89.6279 247.333 89.7719 246.528 89.7719C245.88 89.7719 245.307 89.6853 244.811 89.5133C244.313 89.3399 243.943 89.1746 243.699 89.0159V93.5093H241.689V78.6266C242.164 78.5119 242.759 78.3853 243.471 78.2479C244.184 78.1119 245.008 78.0439 245.944 78.0439C246.808 78.0439 247.587 78.1799 248.277 78.4533C248.968 78.7266 249.559 79.1159 250.048 79.6199C250.537 80.1239 250.916 80.7399 251.183 81.4666C251.449 82.1933 251.583 83.0119 251.583 83.9186Z" fill="#231F20"/>
<path d="M261.387 82.5578C261.403 81.6498 261.177 80.9058 260.707 80.3218C260.239 79.7391 259.595 79.4471 258.775 79.4471C258.314 79.4471 257.909 79.5378 257.554 79.7178C257.202 79.8978 256.903 80.1311 256.658 80.4191C256.414 80.7071 256.223 81.0378 256.085 81.4125C255.947 81.7871 255.859 82.1685 255.814 82.5578H261.387ZM253.677 83.6591C253.677 82.6658 253.821 81.7978 254.109 81.0565C254.398 80.3151 254.778 79.6991 255.254 79.2098C255.729 78.7205 256.275 78.3538 256.895 78.1085C257.515 77.8631 258.147 77.7405 258.797 77.7405C260.309 77.7405 261.469 78.2125 262.273 79.1551C263.081 80.0991 263.483 81.5351 263.483 83.4645V83.8005C263.483 83.9365 263.475 84.0618 263.463 84.1778H255.773C255.859 85.3445 256.197 86.2298 256.789 86.8338C257.377 87.4391 258.299 87.7418 259.551 87.7418C260.257 87.7418 260.851 87.6805 261.335 87.5578C261.817 87.4365 262.179 87.3165 262.423 87.2018L262.705 88.8858C262.461 89.0165 262.033 89.1525 261.421 89.2965C260.809 89.4418 260.114 89.5125 259.335 89.5125C258.357 89.5125 257.513 89.3645 256.799 89.0698C256.085 88.7751 255.499 88.3685 255.038 87.8498C254.578 87.3311 254.234 86.7165 254.013 86.0031C253.789 85.2898 253.677 84.5085 253.677 83.6591Z" fill="#231F20"/>
<path d="M267.263 76.2504C266.903 76.2504 266.598 76.1318 266.345 75.8944C266.094 75.6571 265.967 75.3358 265.967 74.9331C265.967 74.5291 266.094 74.2091 266.345 73.9718C266.598 73.7344 266.903 73.6144 267.263 73.6144C267.623 73.6144 267.93 73.7344 268.181 73.9718C268.434 74.2091 268.561 74.5291 268.561 74.9331C268.561 75.3358 268.434 75.6571 268.181 75.8944C267.93 76.1318 267.623 76.2504 267.263 76.2504ZM264.434 93.5518C264.261 93.5518 264.038 93.5304 263.765 93.4878C263.491 93.4438 263.261 93.3864 263.073 93.3144L263.333 91.6731C263.477 91.7158 263.642 91.7518 263.83 91.7811C264.015 91.8091 264.189 91.8238 264.347 91.8238C265.039 91.8238 265.531 91.6104 265.827 91.1864C266.123 90.7624 266.27 90.1384 266.27 89.3184V78.2811H268.279V89.2971C268.279 90.7371 267.951 91.8051 267.295 92.5038C266.641 93.2024 265.686 93.5518 264.434 93.5518Z" fill="#231F20"/>
<path d="M274.239 87.8065C275.06 87.8065 275.668 87.6985 276.064 87.4825C276.46 87.2665 276.657 86.9212 276.657 86.4465C276.657 85.9559 276.464 85.5679 276.075 85.2799C275.687 84.9919 275.045 84.6679 274.153 84.3079C273.72 84.1345 273.307 83.9585 272.911 83.7785C272.515 83.5985 272.172 83.3865 271.884 83.1412C271.597 82.8958 271.367 82.6012 271.193 82.2545C271.021 81.9092 270.933 81.4852 270.933 80.9812C270.933 79.9878 271.301 79.1985 272.036 78.6158C272.769 78.0318 273.771 77.7412 275.039 77.7412C275.355 77.7412 275.672 77.7585 275.988 77.7945C276.305 77.8305 276.6 77.8745 276.875 77.9238C277.148 77.9745 277.388 78.0292 277.599 78.0865C277.807 78.1439 277.969 78.1945 278.084 78.2372L277.716 79.9665C277.5 79.8505 277.161 79.7319 276.701 79.6092C276.24 79.4865 275.687 79.4252 275.039 79.4252C274.477 79.4252 273.987 79.5372 273.569 79.7599C273.152 79.9839 272.943 80.3332 272.943 80.8078C272.943 81.0532 272.989 81.2692 273.084 81.4558C273.177 81.6425 273.32 81.8119 273.516 81.9639C273.711 82.1145 273.951 82.2545 274.239 82.3852C274.527 82.5145 274.873 82.6518 275.276 82.7958C275.809 82.9972 276.284 83.1959 276.701 83.3892C277.119 83.5839 277.476 83.8105 277.771 84.0692C278.065 84.3292 278.292 84.6412 278.451 85.0092C278.609 85.3759 278.689 85.8265 278.689 86.3599C278.689 87.3959 278.304 88.1812 277.533 88.7132C276.763 89.2465 275.664 89.5132 274.239 89.5132C273.245 89.5132 272.468 89.4305 271.907 89.2639C271.344 89.0985 270.963 88.9732 270.763 88.8865L271.129 87.1585C271.359 87.2452 271.725 87.3745 272.231 87.5479C272.735 87.7199 273.404 87.8065 274.239 87.8065Z" fill="#231F20"/>
<path d="M285.213 83.3351C285.645 83.6671 286.102 84.0778 286.583 84.5658C287.067 85.0565 287.542 85.5845 288.01 86.1538C288.477 86.7231 288.919 87.2991 289.338 87.8818C289.755 88.4658 290.109 89.0085 290.397 89.5125H288.042C287.739 89.0085 287.39 88.4938 286.994 87.9685C286.598 87.4431 286.185 86.9391 285.753 86.4565C285.321 85.9751 284.881 85.5311 284.435 85.1285C283.989 84.7245 283.563 84.3858 283.161 84.1125V89.5125H281.151V73.0965L283.161 72.7511V82.9898C283.506 82.6445 283.887 82.2631 284.305 81.8445C284.723 81.4271 285.133 81.0031 285.537 80.5698C285.939 80.1378 286.321 79.7245 286.682 79.3285C287.041 78.9325 287.351 78.5831 287.61 78.2805H289.965C289.633 78.6418 289.273 79.0365 288.885 79.4685C288.495 79.9005 288.093 80.3365 287.675 80.7765C287.257 81.2151 286.837 81.6538 286.41 82.0925C285.986 82.5325 285.586 82.9458 285.213 83.3351Z" fill="#231F20"/>
<path d="M294.327 89.5134H292.317V78.2814H294.327V89.5134ZM293.312 76.2508C292.952 76.2508 292.647 76.1308 292.393 75.8948C292.143 75.6561 292.016 75.3361 292.016 74.9321C292.016 74.5294 292.143 74.2094 292.393 73.9721C292.647 73.7348 292.952 73.6148 293.312 73.6148C293.671 73.6148 293.979 73.7348 294.229 73.9721C294.483 74.2094 294.608 74.5294 294.608 74.9321C294.608 75.3361 294.483 75.6561 294.229 75.8948C293.979 76.1308 293.671 76.2508 293.312 76.2508Z" fill="#231F20"/>
<path d="M302.687 89.5129V74.5436H311.715V76.3369H304.781V80.8516H310.937V82.6223H304.781V89.5129H302.687Z" fill="#231F20"/>
<path d="M322.45 88.9511C321.988 89.0671 321.38 89.1885 320.624 89.3178C319.87 89.4471 318.994 89.5125 318 89.5125C317.136 89.5125 316.408 89.3871 315.818 89.1351C315.228 88.8831 314.754 88.5271 314.392 88.0658C314.034 87.6045 313.774 87.0618 313.615 86.4351C313.456 85.8085 313.378 85.1138 313.378 84.3511V78.0431H315.386V83.9191C315.386 85.2871 315.602 86.2658 316.035 86.8565C316.467 87.4471 317.194 87.7418 318.215 87.7418C318.431 87.7418 318.655 87.7351 318.886 87.7205C319.115 87.7058 319.331 87.6871 319.532 87.6658C319.735 87.6445 319.919 87.6231 320.084 87.6018C320.25 87.5805 320.37 87.5551 320.44 87.5258V78.0431H322.45V88.9511Z" fill="#231F20"/>
<path d="M325.797 78.6047C326.259 78.49 326.871 78.3674 327.633 78.238C328.396 78.1087 329.275 78.0434 330.269 78.0434C331.161 78.0434 331.903 78.17 332.493 78.4207C333.084 78.674 333.555 79.026 333.908 79.4794C334.261 79.934 334.509 80.4767 334.655 81.11C334.797 81.7434 334.869 82.442 334.869 83.206V89.5127H332.861V83.638C332.861 82.946 332.815 82.3554 332.72 81.866C332.627 81.3767 332.472 80.9807 332.256 80.678C332.04 80.3767 331.752 80.1567 331.392 80.0194C331.032 79.882 330.585 79.814 330.052 79.814C329.836 79.814 329.613 79.822 329.383 79.8354C329.153 79.8514 328.933 79.8687 328.724 79.89C328.515 79.9114 328.328 79.9367 328.163 79.966C327.996 79.994 327.879 80.0167 327.807 80.03V89.5127H325.797V78.6047Z" fill="#231F20"/>
<path d="M345.345 80.3977C345.1 80.1963 344.748 80.0017 344.287 79.815C343.825 79.627 343.321 79.5337 342.775 79.5337C342.199 79.5337 341.707 79.639 341.296 79.847C340.884 80.0563 340.549 80.3443 340.291 80.711C340.032 81.0777 339.844 81.5137 339.729 82.0177C339.613 82.5217 339.556 83.0617 339.556 83.6377C339.556 84.9483 339.88 85.959 340.529 86.6723C341.176 87.3857 342.041 87.7417 343.12 87.7417C343.667 87.7417 344.125 87.7163 344.492 87.6657C344.86 87.6163 345.144 87.5617 345.345 87.5043V80.3977ZM345.345 72.8377L347.355 72.4923V88.9297C346.893 89.059 346.303 89.1883 345.583 89.319C344.863 89.4483 344.035 89.5137 343.099 89.5137C342.235 89.5137 341.457 89.3763 340.765 89.103C340.075 88.8297 339.484 88.4403 338.995 87.9363C338.505 87.4323 338.127 86.8163 337.861 86.0897C337.593 85.363 337.461 84.5443 337.461 83.6377C337.461 82.7737 337.573 81.9817 337.796 81.2617C338.019 80.5417 338.347 79.923 338.779 79.4043C339.211 78.8857 339.74 78.483 340.367 78.195C340.992 77.907 341.708 77.7617 342.516 77.7617C343.163 77.7617 343.736 77.8483 344.233 78.0217C344.729 78.195 345.1 78.3603 345.345 78.519V72.8377Z" fill="#231F20"/>
<path d="M359.645 88.9511C359.184 89.0671 358.576 89.1885 357.82 89.3178C357.064 89.4471 356.189 89.5125 355.196 89.5125C354.332 89.5125 353.604 89.3871 353.013 89.1351C352.424 88.8831 351.949 88.5271 351.588 88.0658C351.229 87.6045 350.969 87.0618 350.81 86.4351C350.652 85.8085 350.573 85.1138 350.573 84.3511V78.0431H352.581V83.9191C352.581 85.2871 352.797 86.2658 353.23 86.8565C353.662 87.4471 354.389 87.7418 355.41 87.7418C355.626 87.7418 355.85 87.7351 356.081 87.7205C356.31 87.7058 356.526 87.6871 356.728 87.6658C356.93 87.6445 357.114 87.6231 357.28 87.6018C357.445 87.5805 357.564 87.5551 357.636 87.5258V78.0431H359.645V88.9511Z" fill="#231F20"/>
<path d="M365.606 87.8065C366.427 87.8065 367.035 87.6985 367.431 87.4825C367.827 87.2665 368.025 86.9212 368.025 86.4465C368.025 85.9559 367.831 85.5679 367.442 85.2799C367.054 84.9919 366.413 84.6679 365.521 84.3079C365.087 84.1345 364.674 83.9585 364.278 83.7785C363.882 83.5985 363.539 83.3865 363.251 83.1412C362.965 82.8958 362.734 82.6012 362.561 82.2545C362.389 81.9092 362.301 81.4852 362.301 80.9812C362.301 79.9878 362.669 79.1985 363.403 78.6158C364.137 78.0318 365.138 77.7412 366.406 77.7412C366.722 77.7412 367.039 77.7585 367.355 77.7945C367.673 77.8305 367.967 77.8745 368.242 77.9238C368.515 77.9745 368.755 78.0292 368.966 78.0865C369.174 78.1439 369.337 78.1945 369.451 78.2372L369.083 79.9665C368.867 79.8505 368.529 79.7319 368.069 79.6092C367.607 79.4865 367.054 79.4252 366.406 79.4252C365.845 79.4252 365.354 79.5372 364.937 79.7599C364.519 79.9839 364.31 80.3332 364.31 80.8078C364.31 81.0532 364.358 81.2692 364.451 81.4558C364.545 81.6425 364.687 81.8119 364.883 81.9639C365.077 82.1145 365.318 82.2545 365.606 82.3852C365.894 82.5145 366.241 82.6518 366.643 82.7958C367.177 82.9972 367.651 83.1959 368.069 83.3892C368.486 83.5839 368.843 83.8105 369.138 84.0692C369.433 84.3292 369.659 84.6412 369.818 85.0092C369.977 85.3759 370.057 85.8265 370.057 86.3599C370.057 87.3959 369.671 88.1812 368.901 88.7132C368.13 89.2465 367.031 89.5132 365.606 89.5132C364.613 89.5132 363.835 89.4305 363.274 89.2639C362.711 89.0985 362.33 88.9732 362.13 88.8865L362.497 87.1585C362.726 87.2452 363.093 87.3745 363.598 87.5479C364.102 87.7199 364.771 87.8065 365.606 87.8065Z" fill="#231F20"/>
<path d="M379.969 79.7927C379.667 80.1247 379.268 80.5927 378.772 81.1967C378.275 81.802 377.741 82.4714 377.172 83.206C376.604 83.9394 376.035 84.7114 375.465 85.5167C374.896 86.3234 374.396 87.094 373.965 87.8274H380.143V89.5127H371.567V88.174C371.913 87.5407 372.337 86.842 372.841 86.078C373.345 85.3154 373.875 84.5554 374.429 83.7994C374.984 83.0434 375.524 82.33 376.049 81.6607C376.575 80.9914 377.032 80.4274 377.421 79.966H371.869V78.2807H379.969V79.7927Z" fill="#231F20"/>
<path d="M200.995 102.696C200.103 102.696 199.418 102.717 198.943 102.76V108.399H200.434C201.154 108.399 201.802 108.363 202.378 108.291C202.954 108.219 203.439 108.081 203.835 107.88C204.231 107.679 204.538 107.393 204.754 107.027C204.97 106.66 205.078 106.173 205.078 105.568C205.078 105.007 204.97 104.539 204.754 104.165C204.538 103.791 204.247 103.495 203.879 103.279C203.513 103.063 203.081 102.912 202.583 102.825C202.086 102.739 201.557 102.696 200.995 102.696ZM204.17 109.716C204.401 110.004 204.693 110.383 205.046 110.849C205.398 111.317 205.762 111.836 206.137 112.405C206.511 112.973 206.882 113.568 207.249 114.187C207.615 114.807 207.929 115.404 208.189 115.98H205.899C205.61 115.433 205.298 114.879 204.959 114.316C204.621 113.755 204.278 113.219 203.934 112.708C203.587 112.196 203.245 111.717 202.907 111.271C202.569 110.825 202.262 110.436 201.99 110.105C201.802 110.119 201.611 110.127 201.417 110.127H200.823H198.943V115.98H196.849V101.227C197.439 101.083 198.098 100.987 198.825 100.936C199.551 100.885 200.218 100.86 200.823 100.86C202.925 100.86 204.527 101.256 205.629 102.048C206.73 102.84 207.281 104.021 207.281 105.591C207.281 106.584 207.018 107.433 206.493 108.139C205.967 108.845 205.193 109.371 204.17 109.716Z" fill="#231F20"/>
<path d="M218.016 110.105C218.016 108.838 217.732 107.833 217.163 107.091C216.595 106.35 215.82 105.979 214.841 105.979C213.861 105.979 213.088 106.35 212.52 107.091C211.951 107.833 211.665 108.838 211.665 110.105C211.665 111.371 211.951 112.377 212.52 113.118C213.088 113.859 213.861 114.23 214.841 114.23C215.82 114.23 216.595 113.859 217.163 113.118C217.732 112.377 218.016 111.371 218.016 110.105ZM220.112 110.105C220.112 110.997 219.983 111.803 219.723 112.523C219.464 113.245 219.1 113.863 218.632 114.382C218.164 114.899 217.605 115.299 216.959 115.581C216.309 115.861 215.604 116.001 214.841 116.001C214.077 116.001 213.372 115.861 212.724 115.581C212.076 115.299 211.519 114.899 211.051 114.382C210.583 113.863 210.219 113.245 209.96 112.523C209.7 111.803 209.571 110.997 209.571 110.105C209.571 109.226 209.7 108.423 209.96 107.695C210.219 106.969 210.583 106.346 211.051 105.827C211.519 105.309 212.076 104.91 212.724 104.629C213.372 104.349 214.077 104.207 214.841 104.207C215.604 104.207 216.309 104.349 216.959 104.629C217.605 104.91 218.164 105.309 218.632 105.827C219.1 106.346 219.464 106.969 219.723 107.695C219.983 108.423 220.112 109.226 220.112 110.105Z" fill="#231F20"/>
<path d="M229.853 106.259C229.55 106.591 229.152 107.059 228.654 107.663C228.158 108.269 227.625 108.938 227.056 109.673C226.488 110.406 225.918 111.178 225.349 111.983C224.781 112.79 224.281 113.561 223.849 114.294H230.026V115.979H221.45V114.641C221.797 114.007 222.221 113.309 222.725 112.545C223.229 111.782 223.758 111.022 224.313 110.266C224.868 109.51 225.406 108.797 225.933 108.127C226.458 107.458 226.916 106.894 227.305 106.433H221.753V104.747H229.853V106.259Z" fill="#231F20"/>
<path d="M241.647 115.98C241.243 114.942 240.815 113.758 240.362 112.426C239.908 111.094 239.494 109.709 239.12 108.269C238.744 109.709 238.335 111.094 237.888 112.426C237.442 113.758 237.016 114.942 236.614 115.98H234.864C234.202 114.497 233.554 112.805 232.92 110.904C232.287 109.004 231.69 106.952 231.127 104.748H233.287C233.431 105.425 233.604 106.16 233.806 106.952C234.008 107.742 234.22 108.536 234.443 109.326C234.667 110.12 234.9 110.882 235.146 111.617C235.39 112.35 235.62 112.992 235.836 113.538C236.082 112.862 236.322 112.146 236.559 111.39C236.798 110.634 237.024 109.87 237.24 109.1C237.456 108.33 237.662 107.574 237.856 106.832C238.051 106.09 238.219 105.396 238.364 104.748H240.027C240.156 105.396 240.315 106.09 240.502 106.832C240.688 107.574 240.891 108.33 241.107 109.1C241.323 109.87 241.55 110.634 241.787 111.39C242.024 112.146 242.266 112.862 242.511 113.538C242.727 112.992 242.954 112.35 243.191 111.617C243.428 110.882 243.663 110.12 243.892 109.326C244.123 108.536 244.339 107.742 244.54 106.952C244.743 106.16 244.915 105.425 245.059 104.748H247.134C246.571 106.952 245.974 109.004 245.34 110.904C244.707 112.805 244.059 114.497 243.396 115.98H241.647Z" fill="#231F20"/>
<path d="M256.702 110.105C256.702 108.838 256.418 107.833 255.848 107.091C255.281 106.35 254.508 105.979 253.526 105.979C252.548 105.979 251.773 106.35 251.205 107.091C250.636 107.833 250.352 108.838 250.352 110.105C250.352 111.371 250.636 112.377 251.205 113.118C251.773 113.859 252.548 114.23 253.526 114.23C254.508 114.23 255.281 113.859 255.848 113.118C256.418 112.377 256.702 111.371 256.702 110.105ZM258.796 110.105C258.796 110.997 258.669 111.803 258.408 112.523C258.15 113.245 257.785 113.863 257.317 114.382C256.85 114.899 256.29 115.299 255.642 115.581C254.997 115.861 254.29 116.001 253.526 116.001C252.764 116.001 252.058 115.861 251.41 115.581C250.762 115.299 250.204 114.899 249.736 114.382C249.268 113.863 248.904 113.245 248.645 112.523C248.386 111.803 248.256 110.997 248.256 110.105C248.256 109.226 248.386 108.423 248.645 107.695C248.904 106.969 249.268 106.346 249.736 105.827C250.204 105.309 250.762 104.91 251.41 104.629C252.058 104.349 252.764 104.207 253.526 104.207C254.29 104.207 254.997 104.349 255.642 104.629C256.29 104.91 256.85 105.309 257.317 105.827C257.785 106.346 258.15 106.969 258.408 107.695C258.669 108.423 258.796 109.226 258.796 110.105Z" fill="#231F20"/>
<path d="M262.512 102.717C262.152 102.717 261.847 102.599 261.595 102.361C261.343 102.124 261.216 101.803 261.216 101.4C261.216 100.997 261.343 100.676 261.595 100.439C261.847 100.201 262.152 100.081 262.512 100.081C262.872 100.081 263.179 100.201 263.431 100.439C263.683 100.676 263.81 100.997 263.81 101.4C263.81 101.803 263.683 102.124 263.431 102.361C263.179 102.599 262.872 102.717 262.512 102.717ZM259.683 120.019C259.51 120.019 259.287 119.997 259.014 119.955C258.74 119.911 258.51 119.853 258.322 119.781L258.582 118.14C258.726 118.183 258.891 118.219 259.079 118.248C259.264 118.276 259.438 118.291 259.598 118.291C260.288 118.291 260.78 118.077 261.076 117.653C261.372 117.229 261.519 116.607 261.519 115.785V104.748H263.528V115.764C263.528 117.204 263.2 118.273 262.544 118.971C261.89 119.669 260.935 120.019 259.683 120.019Z" fill="#231F20"/>
<path d="M275.818 115.418C275.357 115.534 274.749 115.655 273.993 115.785C273.237 115.915 272.362 115.979 271.369 115.979C270.505 115.979 269.777 115.854 269.186 115.602C268.597 115.35 268.121 114.994 267.761 114.533C267.402 114.071 267.142 113.529 266.983 112.902C266.825 112.275 266.746 111.581 266.746 110.818V104.51H268.754V110.386C268.754 111.754 268.97 112.733 269.402 113.323C269.835 113.914 270.562 114.209 271.583 114.209C271.799 114.209 272.023 114.202 272.254 114.187C272.483 114.173 272.699 114.154 272.901 114.133C273.103 114.111 273.287 114.09 273.453 114.069C273.618 114.047 273.737 114.022 273.809 113.993V104.51H275.818V115.418Z" fill="#231F20"/>
<path d="M288.323 102.696C287.43 102.696 286.746 102.717 286.271 102.76V108.399H287.761C288.481 108.399 289.13 108.363 289.705 108.291C290.282 108.219 290.767 108.081 291.163 107.88C291.559 107.679 291.865 107.393 292.081 107.027C292.298 106.66 292.406 106.173 292.406 105.568C292.406 105.007 292.298 104.539 292.081 104.165C291.865 103.791 291.574 103.495 291.206 103.279C290.839 103.063 290.409 102.912 289.91 102.825C289.413 102.739 288.885 102.696 288.323 102.696ZM291.498 109.716C291.729 110.004 292.021 110.383 292.373 110.849C292.726 111.317 293.089 111.836 293.465 112.405C293.838 112.973 294.209 113.568 294.577 114.187C294.943 114.807 295.257 115.404 295.517 115.98H293.226C292.938 115.433 292.625 114.879 292.287 114.316C291.949 113.755 291.606 113.219 291.261 112.708C290.914 112.196 290.573 111.717 290.235 111.271C289.897 110.825 289.59 110.436 289.317 110.105C289.13 110.119 288.938 110.127 288.743 110.127H288.15H286.271V115.98H284.177V101.227C284.766 101.083 285.425 100.987 286.153 100.936C286.879 100.885 287.545 100.86 288.15 100.86C290.253 100.86 291.854 101.256 292.957 102.048C294.058 102.84 294.609 104.021 294.609 105.591C294.609 106.584 294.346 107.433 293.821 108.139C293.295 108.845 292.521 109.371 291.498 109.716Z" fill="#231F20"/>
<path d="M304.61 109.025C304.625 108.117 304.398 107.373 303.93 106.789C303.462 106.206 302.817 105.914 301.997 105.914C301.535 105.914 301.13 106.005 300.777 106.185C300.423 106.365 300.125 106.598 299.879 106.886C299.635 107.174 299.445 107.505 299.307 107.879C299.17 108.254 299.081 108.635 299.037 109.025H304.61ZM296.899 110.126C296.899 109.133 297.042 108.265 297.331 107.523C297.619 106.782 298.001 106.166 298.475 105.677C298.951 105.187 299.498 104.821 300.118 104.575C300.737 104.33 301.37 104.207 302.019 104.207C303.53 104.207 304.69 104.679 305.495 105.622C306.303 106.566 306.705 108.002 306.705 109.931V110.267C306.705 110.403 306.698 110.529 306.685 110.645H298.994C299.081 111.811 299.418 112.697 300.01 113.302C300.599 113.906 301.522 114.209 302.774 114.209C303.479 114.209 304.074 114.147 304.557 114.025C305.038 113.903 305.402 113.783 305.646 113.669L305.927 115.353C305.683 115.483 305.254 115.619 304.642 115.763C304.03 115.909 303.335 115.979 302.558 115.979C301.579 115.979 300.734 115.831 300.021 115.537C299.307 115.242 298.721 114.835 298.259 114.317C297.799 113.798 297.457 113.183 297.234 112.47C297.011 111.757 296.899 110.975 296.899 110.126Z" fill="#231F20"/>
<path d="M316.511 106.519C316.309 106.461 316.04 106.408 315.701 106.356C315.363 106.307 314.905 106.281 314.329 106.281C313.251 106.281 312.419 106.635 311.835 107.34C311.252 108.045 310.96 108.981 310.96 110.148C310.96 110.796 311.043 111.351 311.209 111.811C311.375 112.272 311.599 112.653 311.877 112.956C312.159 113.259 312.484 113.481 312.851 113.625C313.217 113.769 313.596 113.841 313.984 113.841C314.517 113.841 315.007 113.765 315.453 113.615C315.899 113.464 316.252 113.287 316.511 113.085V106.519ZM316.533 114.856C316.36 114.972 316.025 115.12 315.529 115.299C315.032 115.48 314.452 115.569 313.789 115.569C313.112 115.569 312.476 115.461 311.877 115.245C311.28 115.029 310.759 114.695 310.312 114.241C309.867 113.787 309.513 113.223 309.255 112.545C308.995 111.868 308.865 111.063 308.865 110.127C308.865 109.305 308.987 108.553 309.232 107.869C309.477 107.185 309.833 106.595 310.301 106.097C310.768 105.601 311.341 105.212 312.019 104.932C312.696 104.651 313.459 104.511 314.308 104.511C315.244 104.511 316.061 104.579 316.76 104.715C317.459 104.852 318.044 104.979 318.52 105.093V115.116C318.52 116.844 318.073 118.096 317.181 118.875C316.288 119.652 314.933 120.04 313.12 120.04C312.415 120.04 311.749 119.983 311.123 119.868C310.495 119.752 309.952 119.616 309.491 119.457L309.859 117.708C310.263 117.865 310.756 118.007 311.337 118.129C311.921 118.251 312.529 118.312 313.163 118.312C314.359 118.312 315.219 118.075 315.745 117.6C316.269 117.124 316.533 116.368 316.533 115.332V114.856Z" fill="#231F20"/>
<path d="M323.877 115.98H321.868V104.748H323.877V115.98ZM322.861 102.717C322.501 102.717 322.196 102.597 321.943 102.361C321.692 102.124 321.565 101.803 321.565 101.4C321.565 100.996 321.692 100.676 321.943 100.439C322.196 100.201 322.501 100.081 322.861 100.081C323.22 100.081 323.528 100.201 323.779 100.439C324.032 100.676 324.157 100.996 324.157 101.4C324.157 101.803 324.032 102.124 323.779 102.361C323.528 102.597 323.22 102.717 322.861 102.717Z" fill="#231F20"/>
<path d="M335.043 110.105C335.043 108.838 334.759 107.833 334.19 107.091C333.622 106.35 332.849 105.979 331.869 105.979C330.889 105.979 330.115 106.35 329.546 107.091C328.977 107.833 328.693 108.838 328.693 110.105C328.693 111.371 328.977 112.377 329.546 113.118C330.115 113.859 330.889 114.23 331.869 114.23C332.849 114.23 333.622 113.859 334.19 113.118C334.759 112.377 335.043 111.371 335.043 110.105ZM337.138 110.105C337.138 110.997 337.01 111.803 336.75 112.523C336.491 113.245 336.126 113.863 335.659 114.382C335.191 114.899 334.633 115.299 333.985 115.581C333.338 115.861 332.631 116.001 331.869 116.001C331.105 116.001 330.401 115.861 329.751 115.581C329.103 115.299 328.546 114.899 328.077 114.382C327.61 113.863 327.246 113.245 326.987 112.523C326.729 111.803 326.598 110.997 326.598 110.105C326.598 109.226 326.729 108.423 326.987 107.695C327.246 106.969 327.61 106.346 328.077 105.827C328.546 105.309 329.103 104.91 329.751 104.629C330.401 104.349 331.105 104.207 331.869 104.207C332.631 104.207 333.338 104.349 333.985 104.629C334.633 104.91 335.191 105.309 335.659 105.827C336.126 106.346 336.491 106.969 336.75 107.695C337.01 108.423 337.138 109.226 337.138 110.105Z" fill="#231F20"/>
<path d="M339.86 105.071C340.321 104.957 340.933 104.834 341.696 104.705C342.459 104.575 343.337 104.51 344.332 104.51C345.224 104.51 345.965 104.637 346.556 104.887C347.147 105.141 347.617 105.493 347.971 105.946C348.324 106.401 348.572 106.943 348.717 107.577C348.86 108.211 348.932 108.909 348.932 109.673V115.979H346.924V110.105C346.924 109.413 346.877 108.823 346.783 108.333C346.689 107.843 346.535 107.447 346.319 107.145C346.103 106.843 345.815 106.623 345.455 106.486C345.095 106.349 344.648 106.281 344.115 106.281C343.899 106.281 343.676 106.289 343.445 106.302C343.216 106.318 342.996 106.335 342.787 106.357C342.577 106.378 342.391 106.403 342.227 106.433C342.06 106.461 341.941 106.483 341.869 106.497V115.979H339.86V105.071Z" fill="#231F20"/>
<path d="M355.952 114.316C356.427 114.316 356.848 114.305 357.215 114.284C357.583 114.261 357.888 114.223 358.134 114.165V110.817C357.99 110.745 357.756 110.684 357.431 110.633C357.107 110.583 356.715 110.557 356.255 110.557C355.952 110.557 355.631 110.58 355.294 110.623C354.955 110.665 354.646 110.756 354.364 110.893C354.084 111.029 353.85 111.216 353.662 111.455C353.475 111.692 353.382 112.005 353.382 112.395C353.382 113.115 353.611 113.615 354.074 113.895C354.532 114.176 355.159 114.316 355.952 114.316ZM355.779 104.251C356.586 104.251 357.266 104.355 357.82 104.564C358.374 104.773 358.82 105.068 359.159 105.449C359.498 105.831 359.739 106.285 359.883 106.811C360.027 107.336 360.099 107.916 360.099 108.549V115.569C359.926 115.597 359.686 115.637 359.375 115.688C359.066 115.739 358.716 115.785 358.328 115.828C357.939 115.871 357.518 115.911 357.064 115.947C356.611 115.983 356.16 116.001 355.714 116.001C355.08 116.001 354.498 115.936 353.966 115.807C353.431 115.677 352.971 115.472 352.583 115.191C352.194 114.911 351.891 114.54 351.675 114.079C351.459 113.619 351.351 113.064 351.351 112.416C351.351 111.796 351.476 111.263 351.73 110.817C351.98 110.371 352.323 110.011 352.756 109.737C353.187 109.464 353.691 109.261 354.267 109.132C354.843 109.003 355.447 108.937 356.082 108.937C356.283 108.937 356.491 108.949 356.707 108.971C356.923 108.992 357.13 109.021 357.323 109.057C357.518 109.092 357.687 109.125 357.831 109.153C357.975 109.183 358.076 109.204 358.134 109.219V108.657C358.134 108.325 358.096 107.999 358.026 107.675C357.954 107.351 357.823 107.063 357.638 106.811C357.45 106.559 357.195 106.356 356.871 106.205C356.546 106.055 356.124 105.979 355.606 105.979C354.944 105.979 354.364 106.025 353.867 106.119C353.371 106.213 353 106.311 352.756 106.411L352.518 104.748C352.776 104.632 353.208 104.52 353.814 104.412C354.419 104.305 355.074 104.251 355.779 104.251Z" fill="#231F20"/>
<path d="M366.687 115.98C365.448 115.952 364.569 115.685 364.051 115.18C363.533 114.676 363.273 113.892 363.273 112.826V99.3477L365.283 99.0024V112.502C365.283 112.833 365.312 113.106 365.369 113.322C365.427 113.538 365.52 113.712 365.651 113.841C365.779 113.97 365.952 114.068 366.168 114.133C366.384 114.197 366.651 114.252 366.968 114.294L366.687 115.98Z" fill="#231F20"/>
<path d="M369.106 105.071C369.567 104.957 370.179 104.834 370.942 104.705C371.705 104.575 372.583 104.51 373.577 104.51C374.47 104.51 375.211 104.637 375.802 104.887C376.393 105.141 376.863 105.493 377.217 105.946C377.57 106.401 377.818 106.943 377.963 107.577C378.106 108.211 378.178 108.909 378.178 109.673V115.979H376.17V110.105C376.17 109.413 376.123 108.823 376.029 108.333C375.935 107.843 375.781 107.447 375.565 107.145C375.349 106.843 375.061 106.623 374.701 106.486C374.341 106.349 373.894 106.281 373.361 106.281C373.145 106.281 372.922 106.289 372.691 106.302C372.462 106.318 372.242 106.335 372.033 106.357C371.823 106.378 371.637 106.403 371.471 106.433C371.305 106.461 371.187 106.483 371.115 106.497V115.979H369.106V105.071Z" fill="#231F20"/>
<path d="M388.481 109.025C388.496 108.117 388.269 107.373 387.801 106.789C387.333 106.206 386.688 105.914 385.868 105.914C385.406 105.914 385.001 106.005 384.648 106.185C384.294 106.365 383.996 106.598 383.75 106.886C383.506 107.174 383.316 107.505 383.178 107.879C383.041 108.254 382.952 108.635 382.908 109.025H388.481ZM380.77 110.126C380.77 109.133 380.913 108.265 381.202 107.523C381.49 106.782 381.872 106.166 382.346 105.677C382.822 105.187 383.369 104.821 383.989 104.575C384.608 104.33 385.241 104.207 385.89 104.207C387.401 104.207 388.561 104.679 389.366 105.622C390.174 106.566 390.576 108.002 390.576 109.931V110.267C390.576 110.403 390.569 110.529 390.556 110.645H382.865C382.952 111.811 383.289 112.697 383.881 113.302C384.47 113.906 385.393 114.209 386.645 114.209C387.35 114.209 387.945 114.147 388.428 114.025C388.909 113.903 389.273 113.783 389.517 113.669L389.798 115.353C389.554 115.483 389.125 115.619 388.513 115.763C387.901 115.909 387.206 115.979 386.429 115.979C385.45 115.979 384.605 115.831 383.892 115.537C383.178 115.242 382.592 114.835 382.13 114.317C381.67 113.798 381.328 113.183 381.105 112.47C380.882 111.757 380.77 110.975 380.77 110.126Z" fill="#231F20"/>
<path d="M400.382 106.519C400.181 106.461 399.91 106.408 399.573 106.356C399.234 106.307 398.777 106.281 398.201 106.281C397.122 106.281 396.29 106.635 395.706 107.34C395.123 108.045 394.831 108.981 394.831 110.148C394.831 110.796 394.915 111.351 395.079 111.811C395.245 112.272 395.469 112.653 395.749 112.956C396.03 113.259 396.354 113.481 396.722 113.625C397.089 113.769 397.467 113.841 397.855 113.841C398.389 113.841 398.878 113.765 399.325 113.615C399.77 113.464 400.123 113.287 400.382 113.085V106.519ZM400.405 114.856C400.231 114.972 399.897 115.12 399.401 115.299C398.903 115.48 398.323 115.569 397.661 115.569C396.983 115.569 396.347 115.461 395.749 115.245C395.151 115.029 394.63 114.695 394.183 114.241C393.738 113.787 393.385 113.223 393.126 112.545C392.866 111.868 392.737 111.063 392.737 110.127C392.737 109.305 392.858 108.553 393.103 107.869C393.349 107.185 393.705 106.595 394.173 106.097C394.639 105.601 395.213 105.212 395.89 104.932C396.567 104.651 397.33 104.511 398.179 104.511C399.115 104.511 399.933 104.579 400.631 104.715C401.33 104.852 401.915 104.979 402.391 105.093V115.116C402.391 116.844 401.945 118.096 401.053 118.875C400.159 119.652 398.805 120.04 396.991 120.04C396.286 120.04 395.621 119.983 394.994 119.868C394.366 119.752 393.823 119.616 393.362 119.457L393.73 117.708C394.134 117.865 394.627 118.007 395.209 118.129C395.793 118.251 396.401 118.312 397.034 118.312C398.23 118.312 399.09 118.075 399.617 117.6C400.141 117.124 400.405 116.368 400.405 115.332V114.856Z" fill="#231F20"/>
<path d="M413.558 110.105C413.558 108.838 413.274 107.833 412.705 107.091C412.137 106.35 411.362 105.979 410.383 105.979C409.403 105.979 408.63 106.35 408.061 107.091C407.491 107.833 407.207 108.838 407.207 110.105C407.207 111.371 407.491 112.377 408.061 113.118C408.63 113.859 409.403 114.23 410.383 114.23C411.362 114.23 412.137 113.859 412.705 113.118C413.274 112.377 413.558 111.371 413.558 110.105ZM415.653 110.105C415.653 110.997 415.525 111.803 415.265 112.523C415.006 113.245 414.641 113.863 414.174 114.382C413.706 114.899 413.147 115.299 412.499 115.581C411.853 115.861 411.146 116.001 410.383 116.001C409.619 116.001 408.915 115.861 408.266 115.581C407.618 115.299 407.061 114.899 406.591 114.382C406.125 113.863 405.761 113.245 405.502 112.523C405.243 111.803 405.113 110.997 405.113 110.105C405.113 109.226 405.243 108.423 405.502 107.695C405.761 106.969 406.125 106.346 406.591 105.827C407.061 105.309 407.618 104.91 408.266 104.629C408.915 104.349 409.619 104.207 410.383 104.207C411.146 104.207 411.853 104.349 412.499 104.629C413.147 104.91 413.706 105.309 414.174 105.827C414.641 106.346 415.006 106.969 415.265 107.695C415.525 108.423 415.653 109.226 415.653 110.105Z" fill="#231F20"/>
<path d="M205.765 59.3176C204.216 59.3176 202.885 59.095 201.772 58.647C200.66 58.2003 199.737 57.5723 199.007 56.7643C198.275 55.9576 197.736 55.0083 197.387 53.9176C197.037 52.8256 196.863 51.6256 196.863 50.3163V36.1443H201.019V49.9243C201.019 50.9496 201.133 51.8283 201.363 52.559C201.592 53.2896 201.92 53.8843 202.345 54.343C202.771 54.8003 203.272 55.139 203.851 55.3576C204.429 55.575 205.077 55.6843 205.797 55.6843C206.517 55.6843 207.173 55.575 207.763 55.3576C208.351 55.139 208.859 54.8003 209.284 54.343C209.709 53.8843 210.037 53.2896 210.265 52.559C210.495 51.8283 210.609 50.9496 210.609 49.9243V36.1443H214.765V50.3163C214.765 51.6256 214.587 52.8256 214.227 53.9176C213.867 55.0083 213.32 55.9576 212.589 56.7643C211.859 57.5723 210.925 58.2003 209.792 58.647C208.656 59.095 207.315 59.3176 205.765 59.3176Z" fill="#231F20"/>
<path d="M219.643 42.7231C220.407 42.5058 221.399 42.2978 222.622 42.1018C223.843 41.9044 225.196 41.8071 226.68 41.8071C228.076 41.8071 229.244 41.9978 230.182 42.3791C231.12 42.7618 231.868 43.2964 232.424 43.9831C232.982 44.6698 233.374 45.5004 233.603 46.4711C233.832 47.4418 233.947 48.5058 233.947 49.6618V59.2844H229.986V50.2844C229.986 49.3671 229.926 48.5871 229.806 47.9431C229.686 47.3004 229.49 46.7764 229.216 46.3724C228.944 45.9698 228.572 45.6751 228.104 45.4884C227.635 45.3044 227.062 45.2111 226.386 45.2111C225.883 45.2111 225.36 45.2431 224.815 45.3084C224.268 45.3738 223.866 45.4284 223.603 45.4724V59.2844H219.643V42.7231Z" fill="#231F20"/>
<path d="M242.587 59.2854H238.625V42.1681H242.587V59.2854ZM243.012 37.1587C243.012 37.9014 242.772 38.4894 242.292 38.9267C241.812 39.3627 241.244 39.5814 240.591 39.5814C239.913 39.5814 239.335 39.3627 238.855 38.9267C238.376 38.4894 238.135 37.9014 238.135 37.1587C238.135 36.3961 238.376 35.7947 238.855 35.3587C239.335 34.9227 239.913 34.7041 240.591 34.7041C241.244 34.7041 241.812 34.9227 242.292 35.3587C242.772 35.7947 243.012 36.3961 243.012 37.1587Z" fill="#231F20"/>
<path d="M253.454 56.1757C254.675 56.1757 255.602 56.1104 256.235 55.9797V51.5944C256.016 51.5277 255.702 51.4624 255.284 51.397C254.87 51.3317 254.412 51.2984 253.912 51.2984C253.475 51.2984 253.032 51.3317 252.586 51.397C252.138 51.4624 251.734 51.5824 251.374 51.757C251.014 51.9317 250.726 52.1784 250.507 52.493C250.288 52.8104 250.179 53.209 250.179 53.6877C250.179 54.6264 250.475 55.2757 251.064 55.6357C251.652 55.9957 252.45 56.1757 253.454 56.1757ZM253.126 41.4144C254.435 41.4144 255.536 41.5784 256.43 41.905C257.326 42.233 258.039 42.6904 258.576 43.2797C259.11 43.869 259.492 44.5837 259.722 45.4237C259.951 46.2637 260.066 47.1864 260.066 48.189V58.565C259.454 58.6957 258.532 58.8544 257.298 59.0397C256.066 59.225 254.675 59.3184 253.126 59.3184C252.099 59.3184 251.162 59.2197 250.311 59.0237C249.459 58.8264 248.734 58.5117 248.134 58.0744C247.534 57.6384 247.064 57.0704 246.726 56.373C246.388 55.6744 246.219 54.813 246.219 53.7864C246.219 52.805 246.41 51.9757 246.792 51.2984C247.174 50.6237 247.692 50.0717 248.347 49.6464C249.002 49.221 249.759 48.9157 250.622 48.7304C251.483 48.5437 252.383 48.4517 253.32 48.4517C253.759 48.4517 254.216 48.4797 254.696 48.533C255.175 48.5877 255.688 48.681 256.235 48.8117V48.157C256.235 47.6984 256.18 47.2624 256.071 46.8477C255.962 46.433 255.771 46.0677 255.498 45.7517C255.224 45.4344 254.866 45.189 254.418 45.0144C253.972 44.841 253.41 44.753 252.732 44.753C251.816 44.753 250.976 44.8184 250.212 44.949C249.448 45.0797 248.827 45.233 248.347 45.4077L247.856 42.1997C248.358 42.025 249.088 41.8504 250.048 41.6757C251.01 41.5024 252.035 41.4144 253.126 41.4144Z" fill="#231F20"/>
<path d="M272.338 59.2852V36.6025H286.903V40.1052H276.463V45.7012H285.758V49.1385H276.463V55.7838H287.69V59.2852H272.338Z" fill="#231F20"/>
<path d="M304.61 58.4016C303.847 58.5976 302.854 58.8003 301.633 59.007C300.41 59.215 299.069 59.3176 297.606 59.3176C296.231 59.3176 295.081 59.1216 294.153 58.7283C293.226 58.3363 292.483 57.791 291.927 57.0923C291.37 56.3936 290.971 55.559 290.733 54.5883C290.493 53.6176 290.373 52.5536 290.373 51.3976V41.807H294.333V50.775C294.333 52.6083 294.599 53.9176 295.135 54.703C295.67 55.4883 296.602 55.8803 297.933 55.8803C298.414 55.8803 298.919 55.859 299.455 55.8163C299.99 55.7723 300.389 55.7176 300.65 55.6523V41.807H304.61V58.4016Z" fill="#231F20"/>
<path d="M319.207 45.7342C318.881 45.6249 318.427 45.5116 317.849 45.3916C317.271 45.2716 316.601 45.2102 315.837 45.2102C315.401 45.2102 314.937 45.2556 314.446 45.3422C313.954 45.4289 313.611 45.5049 313.414 45.5702V59.2849H309.454V42.9849C310.218 42.7022 311.173 42.4342 312.318 42.1836C313.463 41.9329 314.734 41.8062 316.131 41.8062C316.394 41.8062 316.698 41.8236 317.047 41.8556C317.397 41.8889 317.746 41.9329 318.095 41.9862C318.445 42.0409 318.783 42.1076 319.11 42.1836C319.437 42.2596 319.699 42.3302 319.895 42.3956L319.207 45.7342Z" fill="#231F20"/>
<path d="M333.87 50.2843C333.87 48.5816 333.506 47.235 332.774 46.2416C332.044 45.2496 331.024 44.7523 329.714 44.7523C328.405 44.7523 327.385 45.2496 326.654 46.2416C325.922 47.235 325.558 48.5816 325.558 50.2843C325.558 52.0083 325.922 53.3723 326.654 54.375C327.385 55.379 328.405 55.8803 329.714 55.8803C331.024 55.8803 332.044 55.379 332.774 54.375C333.506 53.3723 333.87 52.0083 333.87 50.2843ZM337.929 50.2843C337.929 51.6376 337.733 52.8696 337.34 53.983C336.948 55.095 336.392 56.0443 335.67 56.8296C334.95 57.6163 334.084 58.227 333.069 58.663C332.054 59.1003 330.936 59.3176 329.714 59.3176C328.492 59.3176 327.38 59.1003 326.376 58.663C325.372 58.227 324.509 57.6163 323.789 56.8296C323.069 56.0443 322.508 55.095 322.105 53.983C321.7 52.8696 321.5 51.6376 321.5 50.2843C321.5 48.931 321.7 47.7043 322.105 46.6016C322.508 45.5003 323.074 44.5563 323.806 43.771C324.537 42.9843 325.404 42.379 326.408 41.9536C327.412 41.5283 328.513 41.315 329.714 41.315C330.913 41.315 332.021 41.5283 333.036 41.9536C334.052 42.379 334.918 42.9843 335.638 43.771C336.358 44.5563 336.92 45.5003 337.324 46.6016C337.726 47.7043 337.929 48.931 337.929 50.2843Z" fill="#231F20"/>
<path d="M353.182 50.8078C353.182 49.0398 352.783 47.6652 351.987 46.6838C351.191 45.7012 349.908 45.2105 348.142 45.2105C347.77 45.2105 347.383 45.2265 346.98 45.2598C346.575 45.2932 346.178 45.3638 345.784 45.4718V55.2585C346.134 55.4985 346.596 55.7225 347.175 55.9305C347.754 56.1372 348.371 56.2412 349.026 56.2412C350.466 56.2412 351.518 55.7492 352.183 54.7678C352.848 53.7865 353.182 52.4665 353.182 50.8078ZM357.24 50.7425C357.24 52.0518 357.071 53.2518 356.734 54.3425C356.395 55.4345 355.91 56.3718 355.276 57.1572C354.644 57.9425 353.852 58.5532 352.903 58.9905C351.955 59.4265 350.879 59.6452 349.679 59.6452C348.871 59.6452 348.13 59.5465 347.454 59.3505C346.778 59.1545 346.22 58.9358 345.784 58.6958V65.3398H341.824V42.7225C342.631 42.5052 343.624 42.2985 344.803 42.1012C345.982 41.9052 347.224 41.8065 348.535 41.8065C349.887 41.8065 351.099 42.0145 352.167 42.4292C353.236 42.8438 354.148 43.4385 354.9 44.2132C355.652 44.9878 356.231 45.9252 356.635 47.0265C357.038 48.1292 357.24 49.3678 357.24 50.7425Z" fill="#231F20"/>
<path d="M371.675 48.6477C371.675 48.1024 371.598 47.5837 371.446 47.093C371.292 46.6024 371.07 46.1757 370.774 45.8157C370.48 45.457 370.12 45.173 369.695 44.965C369.268 44.7584 368.762 44.6544 368.172 44.6544C367.562 44.6544 367.027 44.769 366.568 44.9984C366.11 45.2277 365.723 45.5277 365.407 45.8984C365.09 46.269 364.844 46.6957 364.67 47.1744C364.495 47.6544 364.375 48.1464 364.311 48.6477H371.675ZM360.187 50.4157C360.187 48.909 360.41 47.5904 360.858 46.4544C361.304 45.3197 361.899 44.3757 362.642 43.6237C363.382 42.8704 364.234 42.3037 365.195 41.921C366.154 41.5397 367.136 41.349 368.14 41.349C370.496 41.349 372.334 42.0797 373.655 43.5424C374.975 45.0037 375.635 47.1864 375.635 50.0877C375.635 50.3064 375.63 50.5517 375.619 50.8237C375.607 51.0984 375.592 51.3424 375.57 51.561H364.278C364.386 52.9357 364.871 53.9997 365.734 54.7517C366.595 55.505 367.846 55.881 369.482 55.881C370.442 55.881 371.319 55.7944 372.116 55.6197C372.914 55.445 373.54 55.2584 373.998 55.0637L374.523 58.3037C374.304 58.413 374.003 58.5277 373.622 58.6477C373.24 58.7664 372.804 58.8757 372.314 58.9744C371.822 59.0717 371.292 59.1544 370.726 59.2197C370.158 59.285 369.58 59.3184 368.99 59.3184C367.484 59.3184 366.176 59.0944 365.063 58.6477C363.95 58.1997 363.035 57.5784 362.314 56.781C361.594 55.985 361.059 55.0464 360.71 53.9664C360.362 52.8864 360.187 51.7037 360.187 50.4157Z" fill="#231F20"/>
<path d="M384.015 37.1592C384.015 37.9006 383.773 38.4899 383.295 38.9259C382.815 39.3632 382.248 39.5806 381.593 39.5806C380.916 39.5806 380.337 39.3632 379.859 38.9259C379.377 38.4899 379.139 37.9006 379.139 37.1592C379.139 36.3952 379.377 35.7952 379.859 35.3579C380.337 34.9219 380.916 34.7046 381.593 34.7046C382.248 34.7046 382.815 34.9219 383.295 35.3579C383.773 35.7952 384.015 36.3952 384.015 37.1592ZM377.435 65.3726C377.151 65.3726 376.755 65.3459 376.241 65.2912C375.728 65.2366 375.275 65.1326 374.883 64.9806L375.407 61.7406C375.887 61.8926 376.465 61.9686 377.141 61.9686C378.057 61.9686 378.701 61.7019 379.072 61.1672C379.443 60.6312 379.629 59.8299 379.629 58.7619V42.1672H383.589V58.8272C383.589 61.0526 383.06 62.6992 382.001 63.7699C380.943 64.8379 379.421 65.3726 377.435 65.3726Z" fill="#231F20"/>
<path d="M392.721 56.0448C393.767 56.0448 394.53 55.9194 395.011 55.6688C395.491 55.4181 395.731 54.9874 395.731 54.3754C395.731 53.8088 395.474 53.3394 394.962 52.9674C394.449 52.5981 393.603 52.1941 392.425 51.7568C391.705 51.4954 391.045 51.2168 390.446 50.9221C389.845 50.6274 389.327 50.2848 388.89 49.8914C388.454 49.4981 388.11 49.0234 387.859 48.4674C387.609 47.9114 387.483 47.2301 387.483 46.4221C387.483 44.8514 388.061 43.6128 389.218 42.7074C390.374 41.8021 391.945 41.3488 393.931 41.3488C394.934 41.3488 395.895 41.4421 396.811 41.6274C397.729 41.8128 398.415 41.9928 398.873 42.1674L398.153 45.3741C397.717 45.1781 397.161 44.9981 396.483 44.8341C395.807 44.6701 395.021 44.5888 394.127 44.5888C393.319 44.5888 392.666 44.7261 392.163 44.9981C391.662 45.2714 391.41 45.6914 391.41 46.2581C391.41 46.5421 391.461 46.7928 391.558 47.0114C391.657 47.2301 391.825 47.4314 392.066 47.6168C392.305 47.8021 392.622 47.9874 393.015 48.1728C393.407 48.3581 393.887 48.5488 394.455 48.7461C395.393 49.0954 396.19 49.4381 396.845 49.7768C397.499 50.1154 398.038 50.4968 398.465 50.9221C398.89 51.3474 399.201 51.8341 399.398 52.3794C399.593 52.9248 399.691 53.5794 399.691 54.3434C399.691 55.9794 399.086 57.2181 397.875 58.0581C396.665 58.8981 394.934 59.3181 392.687 59.3181C391.182 59.3181 389.97 59.1928 389.054 58.9408C388.137 58.6901 387.494 58.4888 387.123 58.3354L387.81 55.0301C388.399 55.2701 389.103 55.4994 389.921 55.7168C390.741 55.9368 391.673 56.0448 392.721 56.0448Z" fill="#231F20"/>
<path d="M407.154 48.8436C407.655 48.3196 408.19 47.7582 408.758 47.1582C409.325 46.5582 409.882 45.9582 410.427 45.3582C410.973 44.7582 411.491 44.1796 411.982 43.6236C412.473 43.0662 412.893 42.5822 413.242 42.1676H417.922C416.831 43.3889 415.681 44.6542 414.469 45.9636C413.258 47.2729 412.042 48.5489 410.821 49.7929C411.474 50.3396 412.162 50.9996 412.882 51.7729C413.602 52.5476 414.299 53.3716 414.977 54.2449C415.653 55.1182 416.286 55.9902 416.875 56.8636C417.463 57.7356 417.955 58.5436 418.349 59.2849H413.766C413.373 58.6089 412.919 57.8996 412.407 57.1569C411.895 56.4156 411.345 55.6956 410.754 54.9969C410.166 54.2996 409.566 53.6396 408.955 53.0169C408.343 52.3956 407.743 51.8662 407.154 51.4289V59.2849H403.194V37.2569L407.154 36.6022V48.8436Z" fill="#231F20"/>
<path d="M427.055 56.1757C428.277 56.1757 429.203 56.1104 429.837 55.9797V51.5944C429.619 51.5277 429.303 51.4624 428.887 51.397C428.474 51.3317 428.015 51.2984 427.514 51.2984C427.077 51.2984 426.635 51.3317 426.189 51.397C425.741 51.4624 425.337 51.5824 424.977 51.757C424.617 51.9317 424.327 52.1784 424.109 52.493C423.891 52.8104 423.782 53.209 423.782 53.6877C423.782 54.6264 424.077 55.2757 424.666 55.6357C425.254 55.9957 426.051 56.1757 427.055 56.1757ZM426.727 41.4144C428.037 41.4144 429.138 41.5784 430.033 41.905C430.927 42.233 431.643 42.6904 432.178 43.2797C432.711 43.869 433.094 44.5837 433.323 45.4237C433.553 46.2637 433.667 47.1864 433.667 48.189V58.565C433.055 58.6957 432.134 58.8544 430.901 59.0397C429.667 59.225 428.277 59.3184 426.727 59.3184C425.702 59.3184 424.763 59.2197 423.914 59.0237C423.062 58.8264 422.337 58.5117 421.737 58.0744C421.137 57.6384 420.667 57.0704 420.329 56.373C419.99 55.6744 419.821 54.813 419.821 53.7864C419.821 52.805 420.013 51.9757 420.394 51.2984C420.775 50.6237 421.295 50.0717 421.949 49.6464C422.603 49.221 423.362 48.9157 424.223 48.7304C425.086 48.5437 425.986 48.4517 426.923 48.4517C427.361 48.4517 427.818 48.4797 428.299 48.533C428.778 48.5877 429.291 48.681 429.837 48.8117V48.157C429.837 47.6984 429.782 47.2624 429.674 46.8477C429.565 46.433 429.373 46.0677 429.101 45.7517C428.827 45.4344 428.469 45.189 428.021 45.0144C427.574 44.841 427.011 44.753 426.335 44.753C425.419 44.753 424.579 44.8184 423.814 44.949C423.05 45.0797 422.429 45.233 421.949 45.4077L421.458 42.1997C421.961 42.025 422.691 41.8504 423.651 41.6757C424.611 41.5024 425.637 41.4144 426.727 41.4144Z" fill="#231F20"/>
</g>
</g>
<defs>
<clipPath id="clip0_115_366">
<rect width="464" height="151" fill="white"/>
</clipPath>
</defs>
</svg>
