<svg role="img" viewBox="0 0 456 148" fill="none" xmlns="http://www.w3.org/2000/svg">
<title>Logotype of the European Union with the European Regional Development Fund</title>
<g clip-path="url(#clip0_114_150)">
<path d="M428.889 118.172H292.841V27.4719H428.889V118.172Z" fill="#074EA2"/>
<path d="M357.965 47.2407L360.843 45.1434L363.711 47.2407L362.615 43.8527L365.533 41.7581H361.939L360.843 38.3301L359.745 41.7581H356.14L359.051 43.8527L357.965 47.2407Z" fill="#FFF200"/>
<path d="M343.107 51.2271L345.984 49.1297L348.852 51.2271L347.757 47.8417L350.675 45.7444H347.08L345.977 42.3071L344.88 45.7537L341.293 45.7444L344.204 47.8417L343.107 51.2271Z" fill="#FFF200"/>
<path d="M335.105 53.2078L334.008 56.6478L330.415 56.6411L333.325 58.7371L332.237 62.1238L335.105 60.0344L337.983 62.1238L336.888 58.7371L339.808 56.6411H336.211L335.105 53.2078Z" fill="#FFF200"/>
<path d="M331.127 74.8545L333.986 76.9612L332.898 73.5732L335.818 71.4785H332.223L331.127 68.0412L330.012 71.4865L326.424 71.4785L329.335 73.5732L328.25 76.9612L331.127 74.8545Z" fill="#FFF200"/>
<path d="M336.21 86.3569L335.104 82.9289L334.01 86.3569H330.414L333.324 88.4623L332.236 91.8396L335.104 89.7423L337.982 91.8396L336.887 88.4623L339.806 86.3569H336.21Z" fill="#FFF200"/>
<path d="M347.096 97.249L345.999 93.821L344.893 97.2584L341.299 97.249L344.219 99.3464L343.131 102.732L345.999 100.634L348.876 102.732L347.781 99.3464L350.701 97.249H347.096Z" fill="#FFF200"/>
<path d="M361.937 101.195L360.841 97.7575L359.744 101.195H356.141L359.06 103.285L357.964 106.677L360.841 104.58L363.717 106.677L362.612 103.285L365.542 101.195H361.937Z" fill="#FFF200"/>
<path d="M376.778 97.249L375.672 93.821L374.566 97.2584L370.988 97.249L373.892 99.3464L372.804 102.732L375.672 100.634L378.55 102.732L377.452 99.3464L380.383 97.249H376.778Z" fill="#FFF200"/>
<path d="M387.672 86.3569L386.567 82.9289L385.472 86.3569H381.883L384.795 88.4623L383.69 91.8396L386.567 89.7423L389.443 91.8396L388.347 88.4623L391.268 86.3569H387.672Z" fill="#FFF200"/>
<path d="M395.205 71.4358H391.609L390.521 67.9985L389.408 71.4358H385.825L388.741 73.5331L387.635 76.9185L390.521 74.8211L393.389 76.9185L392.295 73.5331L395.205 71.4358Z" fill="#FFF200"/>
<path d="M383.692 62.072L386.569 59.9867L389.445 62.072L388.349 58.6867L391.268 56.6H387.674L386.569 53.156L385.474 56.6094L381.885 56.6L384.797 58.6867L383.692 62.072Z" fill="#FFF200"/>
<path d="M375.715 42.308L374.63 45.7533L371.024 45.7453L373.944 47.8413L372.856 51.2346L375.734 49.128L378.592 51.2346L377.504 47.8413L380.415 45.7453H376.82L375.715 42.308Z" fill="#FFF200"/>
<path d="M82.2705 86.5134V71.5441H91.4078V73.3374H84.3665V77.7868H90.6305V79.5374H84.3665V84.7201H91.9478V86.5134H82.2705Z" fill="#231F20"/>
<mask id="mask0_114_150" style="mask-type:luminance" maskUnits="userSpaceOnUse" x="-33" y="-33" width="523" height="212">
<path d="M-33 -33H489.361V178.644H-33V-33Z" fill="white"/>
</mask>
<g mask="url(#mask0_114_150)">
<path d="M102.899 85.9516C102.438 86.0676 101.83 86.1889 101.074 86.3183C100.318 86.4489 99.4429 86.5129 98.4496 86.5129C97.5856 86.5129 96.8576 86.3876 96.2669 86.1356C95.6762 85.8836 95.2016 85.5276 94.8416 85.0663C94.4816 84.6049 94.2229 84.0623 94.0642 83.4356C93.9056 82.8089 93.8269 82.1143 93.8269 81.3516V75.0436H95.8362V80.9196C95.8362 82.2876 96.0509 83.2663 96.4842 83.8569C96.9162 84.4476 97.6429 84.7423 98.6656 84.7423C98.8816 84.7423 99.1042 84.7356 99.3349 84.7209C99.5656 84.7063 99.7816 84.6876 99.9829 84.6663C100.184 84.6449 100.368 84.6236 100.534 84.6023C100.699 84.5809 100.818 84.5556 100.89 84.5263V75.0436H102.899V85.9516Z" fill="#231F20"/>
<path d="M110.394 75.0441C110.567 75.0441 110.764 75.0548 110.988 75.0761C111.211 75.0988 111.431 75.1268 111.647 75.1628C111.863 75.1988 112.06 75.2348 112.24 75.2708C112.42 75.3068 112.554 75.3388 112.64 75.3681L112.295 77.1174C112.136 77.0601 111.874 76.9908 111.507 76.9121C111.139 76.8334 110.667 76.7934 110.092 76.7934C109.716 76.7934 109.346 76.8334 108.979 76.9121C108.612 76.9908 108.371 77.0454 108.256 77.0734V86.5134H106.247V75.7574C106.722 75.5841 107.312 75.4214 108.018 75.2708C108.723 75.1201 109.515 75.0441 110.394 75.0441Z" fill="#231F20"/>
<path d="M122.295 80.6384C122.295 79.3718 122.011 78.3664 121.441 77.6251C120.873 76.8838 120.099 76.5131 119.12 76.5131C118.14 76.5131 117.367 76.8838 116.799 77.6251C116.229 78.3664 115.944 79.3718 115.944 80.6384C115.944 81.9051 116.229 82.9104 116.799 83.6518C117.367 84.3931 118.14 84.7638 119.12 84.7638C120.099 84.7638 120.873 84.3931 121.441 83.6518C122.011 82.9104 122.295 81.9051 122.295 80.6384ZM124.391 80.6384C124.391 81.5318 124.261 82.3384 124.001 83.0584C123.741 83.7784 123.379 84.3971 122.911 84.9158C122.443 85.4331 121.884 85.8331 121.237 86.1144C120.588 86.3944 119.883 86.5344 119.12 86.5344C118.356 86.5344 117.651 86.3944 117.003 86.1144C116.355 85.8331 115.796 85.4331 115.329 84.9158C114.861 84.3971 114.497 83.7784 114.237 83.0584C113.979 82.3384 113.849 81.5318 113.849 80.6384C113.849 79.7598 113.979 78.9571 114.237 78.2291C114.497 77.5038 114.861 76.8798 115.329 76.3624C115.796 75.8424 116.355 75.4438 117.003 75.1624C117.651 74.8824 118.356 74.7411 119.12 74.7411C119.883 74.7411 120.588 74.8824 121.237 75.1624C121.884 75.4438 122.443 75.8424 122.911 76.3624C123.379 76.8798 123.741 77.5038 124.001 78.2291C124.261 78.9571 124.391 79.7598 124.391 80.6384Z" fill="#231F20"/>
<path d="M134.909 80.9191C134.909 79.6098 134.585 78.6004 133.937 77.8951C133.289 77.1898 132.425 76.8364 131.345 76.8364C130.74 76.8364 130.269 76.8591 129.931 76.9018C129.592 76.9444 129.321 76.9951 129.121 77.0524V84.1378C129.365 84.3391 129.717 84.5338 130.179 84.7204C130.64 84.9084 131.144 85.0018 131.691 85.0018C132.267 85.0018 132.76 84.8964 133.171 84.6884C133.581 84.4791 133.916 84.1911 134.175 83.8244C134.433 83.4564 134.621 83.0258 134.737 82.5284C134.852 82.0324 134.909 81.4951 134.909 80.9191ZM137.005 80.9191C137.005 81.7684 136.893 82.5538 136.669 83.2738C136.447 83.9938 136.119 84.6124 135.687 85.1311C135.255 85.6498 134.725 86.0524 134.1 86.3404C133.473 86.6284 132.756 86.7724 131.951 86.7724C131.303 86.7724 130.729 86.6858 130.233 86.5138C129.736 86.3404 129.365 86.1751 129.121 86.0164V90.5098H127.112V75.6271C127.587 75.5124 128.181 75.3858 128.893 75.2484C129.607 75.1124 130.431 75.0444 131.367 75.0444C132.231 75.0444 133.009 75.1804 133.7 75.4538C134.391 75.7271 134.981 76.1164 135.471 76.6204C135.96 77.1244 136.339 77.7404 136.605 78.4671C136.872 79.1938 137.005 80.0124 137.005 80.9191Z" fill="#231F20"/>
<path d="M146.81 79.5585C146.825 78.6505 146.598 77.9065 146.13 77.3225C145.662 76.7398 145.018 76.4479 144.197 76.4479C143.736 76.4479 143.329 76.5385 142.976 76.7185C142.624 76.8985 142.325 77.1318 142.081 77.4198C141.836 77.7078 141.645 78.0385 141.508 78.4132C141.37 78.7878 141.281 79.1705 141.238 79.5585H146.81ZM139.1 80.6598C139.1 79.6665 139.244 78.7985 139.532 78.0572C139.82 77.3158 140.201 76.6998 140.676 76.2105C141.152 75.7212 141.698 75.3545 142.318 75.1092C142.937 74.8639 143.57 74.7412 144.218 74.7412C145.732 74.7412 146.89 75.2132 147.697 76.1558C148.502 77.0998 148.906 78.5358 148.906 80.4652V80.8012C148.906 80.9372 148.898 81.0625 148.885 81.1785H141.194C141.281 82.3452 141.62 83.2305 142.21 83.8359C142.8 84.4399 143.722 84.7425 144.974 84.7425C145.68 84.7425 146.274 84.6812 146.757 84.5585C147.238 84.4372 147.602 84.3172 147.848 84.2025L148.128 85.8879C147.884 86.0172 147.454 86.1532 146.842 86.2972C146.232 86.4425 145.537 86.5132 144.76 86.5132C143.78 86.5132 142.933 86.3652 142.221 86.0705C141.508 85.7758 140.921 85.3692 140.46 84.8505C140 84.3319 139.657 83.7172 139.434 83.0039C139.21 82.2905 139.1 81.5092 139.1 80.6598Z" fill="#231F20"/>
<path d="M155.493 84.8501C155.968 84.8501 156.389 84.8394 156.757 84.8181C157.124 84.7967 157.431 84.7567 157.675 84.6994V81.3514C157.531 81.2794 157.297 81.2181 156.973 81.1674C156.649 81.1167 156.257 81.0914 155.796 81.0914C155.493 81.0914 155.173 81.1141 154.835 81.1567C154.497 81.1994 154.187 81.2901 153.907 81.4274C153.625 81.5634 153.391 81.7501 153.204 81.9887C153.017 82.2261 152.923 82.5394 152.923 82.9287C152.923 83.6487 153.153 84.1487 153.615 84.4287C154.076 84.7101 154.701 84.8501 155.493 84.8501ZM155.321 74.7847C156.128 74.7847 156.808 74.8887 157.361 75.0981C157.916 75.3074 158.363 75.6021 158.701 75.9834C159.04 76.3647 159.28 76.8194 159.425 77.3447C159.569 77.8701 159.641 78.4501 159.641 79.0834V86.1034C159.468 86.1327 159.227 86.1714 158.917 86.2221C158.607 86.2727 158.259 86.3194 157.869 86.3621C157.481 86.4061 157.06 86.4447 156.607 86.4807C156.152 86.5167 155.703 86.5354 155.256 86.5354C154.623 86.5354 154.039 86.4701 153.507 86.3407C152.973 86.2114 152.513 86.0061 152.124 85.7247C151.736 85.4447 151.433 85.0741 151.216 84.6127C151.001 84.1527 150.893 83.5981 150.893 82.9501C150.893 82.3301 151.019 81.7967 151.271 81.3514C151.523 80.9047 151.865 80.5447 152.297 80.2714C152.729 79.9981 153.233 79.7967 153.809 79.6661C154.385 79.5367 154.989 79.4714 155.624 79.4714C155.825 79.4714 156.033 79.4834 156.249 79.5047C156.465 79.5261 156.671 79.5554 156.865 79.5914C157.06 79.6274 157.229 79.6594 157.373 79.6874C157.517 79.7167 157.617 79.7394 157.675 79.7527V79.1914C157.675 78.8594 157.639 78.5327 157.568 78.2087C157.495 77.8847 157.365 77.5967 157.179 77.3447C156.992 77.0927 156.736 76.8901 156.412 76.7394C156.088 76.5887 155.667 76.5127 155.148 76.5127C154.485 76.5127 153.907 76.5594 153.409 76.6527C152.912 76.7474 152.541 76.8447 152.297 76.9447L152.059 75.2821C152.319 75.1661 152.751 75.0541 153.355 74.9461C153.96 74.8394 154.615 74.7847 155.321 74.7847Z" fill="#231F20"/>
<path d="M162.859 75.6052C163.32 75.4905 163.932 75.3679 164.695 75.2385C165.458 75.1079 166.336 75.0439 167.331 75.0439C168.223 75.0439 168.964 75.1705 169.555 75.4212C170.146 75.6745 170.616 76.0265 170.97 76.4799C171.323 76.9345 171.571 77.4772 171.715 78.1105C171.859 78.7438 171.931 79.4425 171.931 80.2065V86.5132H169.922V80.6385C169.922 79.9465 169.875 79.3559 169.782 78.8665C169.688 78.3772 169.534 77.9812 169.318 77.6785C169.102 77.3772 168.814 77.1572 168.454 77.0199C168.094 76.8825 167.647 76.8145 167.114 76.8145C166.898 76.8145 166.675 76.8225 166.444 76.8359C166.215 76.8519 165.995 76.8692 165.786 76.8905C165.578 76.9118 165.39 76.9372 165.224 76.9665C165.059 76.9945 164.94 77.0172 164.868 77.0305V86.5132H162.859V75.6052Z" fill="#231F20"/>
<path d="M184.307 73.2297C183.415 73.2297 182.73 73.251 182.255 73.2937V78.9323H183.746C184.466 78.9323 185.114 78.8963 185.69 78.8243C186.266 78.7523 186.751 78.615 187.147 78.4137C187.543 78.2123 187.85 77.927 188.066 77.5603C188.282 77.1937 188.39 76.707 188.39 76.1017C188.39 75.5403 188.282 75.0723 188.066 74.699C187.85 74.3243 187.558 74.0283 187.191 73.8123C186.824 73.5963 186.391 73.4457 185.895 73.359C185.398 73.2723 184.868 73.2297 184.307 73.2297ZM187.482 80.2497C187.712 80.5377 188.004 80.9163 188.358 81.383C188.71 81.851 189.074 82.3697 189.448 82.939C189.823 83.507 190.194 84.1017 190.56 84.7203C190.927 85.3403 191.24 85.9377 191.5 86.5137H189.211C188.922 85.967 188.61 85.4123 188.271 84.8497C187.932 84.2883 187.59 83.7523 187.246 83.2417C186.899 82.731 186.556 82.251 186.219 81.8043C185.88 81.359 185.574 80.9697 185.302 80.639C185.114 80.6523 184.923 80.6603 184.728 80.6603H184.135H182.255V86.5137H180.16V71.7603C180.751 71.6163 181.41 71.5203 182.136 71.4697C182.863 71.419 183.53 71.3937 184.135 71.3937C186.236 71.3937 187.839 71.7897 188.94 72.5817C190.042 73.3737 190.592 74.555 190.592 76.1243C190.592 77.1177 190.33 77.967 189.804 78.6737C189.279 79.379 188.504 79.9043 187.482 80.2497Z" fill="#231F20"/>
<path d="M200.593 79.5585C200.608 78.6505 200.381 77.9065 199.913 77.3225C199.445 76.7398 198.801 76.4479 197.98 76.4479C197.519 76.4479 197.112 76.5385 196.759 76.7185C196.407 76.8985 196.108 77.1318 195.864 77.4198C195.619 77.7078 195.428 78.0385 195.291 78.4132C195.153 78.7878 195.064 79.1705 195.021 79.5585H200.593ZM192.883 80.6598C192.883 79.6665 193.027 78.7985 193.315 78.0572C193.603 77.3158 193.984 76.6998 194.46 76.2105C194.935 75.7212 195.481 75.3545 196.101 75.1092C196.72 74.8639 197.353 74.7412 198.001 74.7412C199.515 74.7412 200.673 75.2132 201.48 76.1558C202.285 77.0998 202.689 78.5358 202.689 80.4652V80.8012C202.689 80.9372 202.681 81.0625 202.668 81.1785H194.977C195.064 82.3452 195.403 83.2305 195.993 83.8359C196.583 84.4399 197.505 84.7425 198.757 84.7425C199.463 84.7425 200.057 84.6812 200.54 84.5585C201.021 84.4372 201.385 84.3172 201.631 84.2025L201.911 85.8879C201.667 86.0172 201.237 86.1532 200.627 86.2972C200.015 86.4425 199.319 86.5132 198.543 86.5132C197.563 86.5132 196.716 86.3652 196.004 86.0705C195.291 85.7758 194.704 85.3692 194.243 84.8505C193.783 84.3319 193.44 83.7172 193.217 83.0039C192.993 82.2905 192.883 81.5092 192.883 80.6598Z" fill="#231F20"/>
<path d="M212.495 77.0526C212.294 76.9953 212.023 76.942 211.686 76.89C211.347 76.8406 210.889 76.8153 210.314 76.8153C209.234 76.8153 208.402 77.1686 207.819 77.874C207.235 78.5793 206.943 79.5153 206.943 80.682C206.943 81.33 207.026 81.8846 207.193 82.3446C207.358 82.806 207.581 83.1873 207.862 83.49C208.143 83.7926 208.467 84.0153 208.834 84.1593C209.201 84.3033 209.579 84.3753 209.969 84.3753C210.501 84.3753 210.99 84.2993 211.437 84.1486C211.883 83.9966 212.237 83.8206 212.495 83.6193V77.0526ZM212.517 85.39C212.345 85.506 212.009 85.654 211.513 85.8326C211.015 86.014 210.437 86.1033 209.774 86.1033C209.097 86.1033 208.459 85.9953 207.862 85.7793C207.265 85.5633 206.742 85.2286 206.297 84.7753C205.85 84.3206 205.497 83.7566 205.238 83.0793C204.978 82.402 204.849 81.5966 204.849 80.6606C204.849 79.8393 204.971 79.0873 205.215 78.4033C205.461 77.7193 205.817 77.1286 206.285 76.6313C206.753 76.134 207.326 75.746 208.002 75.466C208.679 75.1846 209.442 75.0446 210.293 75.0446C211.227 75.0446 212.045 75.1126 212.743 75.2486C213.442 75.386 214.029 75.5126 214.503 75.6273V85.65C214.503 87.378 214.058 88.63 213.165 89.4086C212.273 90.186 210.918 90.574 209.103 90.574C208.398 90.574 207.733 90.5166 207.106 90.402C206.479 90.286 205.937 90.15 205.475 89.9913L205.842 88.242C206.246 88.3993 206.739 88.5406 207.322 88.6633C207.906 88.7846 208.514 88.846 209.147 88.846C210.342 88.846 211.202 88.6086 211.729 88.134C212.254 87.658 212.517 86.902 212.517 85.866V85.39Z" fill="#231F20"/>
<path d="M219.86 86.5134H217.851V75.2814H219.86V86.5134ZM218.845 73.2508C218.485 73.2508 218.179 73.1321 217.927 72.8948C217.675 72.6574 217.549 72.3374 217.549 71.9334C217.549 71.5308 217.675 71.2094 217.927 70.9721C218.179 70.7348 218.485 70.6161 218.845 70.6161C219.205 70.6161 219.511 70.7348 219.763 70.9721C220.015 71.2094 220.141 71.5308 220.141 71.9334C220.141 72.3374 220.015 72.6574 219.763 72.8948C219.511 73.1321 219.205 73.2508 218.845 73.2508Z" fill="#231F20"/>
<path d="M231.027 80.6384C231.027 79.3718 230.743 78.3664 230.174 77.6251C229.606 76.8838 228.831 76.5131 227.852 76.5131C226.872 76.5131 226.099 76.8838 225.531 77.6251C224.962 78.3664 224.676 79.3718 224.676 80.6384C224.676 81.9051 224.962 82.9104 225.531 83.6518C226.099 84.3931 226.872 84.7638 227.852 84.7638C228.831 84.7638 229.606 84.3931 230.174 83.6518C230.743 82.9104 231.027 81.9051 231.027 80.6384ZM233.123 80.6384C233.123 81.5318 232.994 82.3384 232.734 83.0584C232.475 83.7784 232.111 84.3971 231.643 84.9158C231.175 85.4331 230.616 85.8331 229.97 86.1144C229.32 86.3944 228.615 86.5344 227.852 86.5344C227.088 86.5344 226.383 86.3944 225.735 86.1144C225.087 85.8331 224.53 85.4331 224.062 84.9158C223.594 84.3971 223.23 83.7784 222.971 83.0584C222.711 82.3384 222.582 81.5318 222.582 80.6384C222.582 79.7598 222.711 78.9571 222.971 78.2291C223.23 77.5038 223.594 76.8798 224.062 76.3624C224.53 75.8424 225.087 75.4438 225.735 75.1624C226.383 74.8824 227.088 74.7411 227.852 74.7411C228.615 74.7411 229.32 74.8824 229.97 75.1624C230.616 75.4438 231.175 75.8424 231.643 76.3624C232.111 76.8798 232.475 77.5038 232.734 78.2291C232.994 78.9571 233.123 79.7598 233.123 80.6384Z" fill="#231F20"/>
<path d="M235.844 75.6052C236.306 75.4905 236.918 75.3679 237.68 75.2385C238.443 75.1079 239.322 75.0439 240.316 75.0439C241.208 75.0439 241.95 75.1705 242.54 75.4212C243.131 75.6745 243.602 76.0265 243.955 76.4799C244.308 76.9345 244.556 77.4772 244.7 78.1105C244.844 78.7438 244.916 79.4425 244.916 80.2065V86.5132H242.907V80.6385C242.907 79.9465 242.86 79.3559 242.767 78.8665C242.674 78.3772 242.519 77.9812 242.303 77.6785C242.087 77.3772 241.799 77.1572 241.439 77.0199C241.079 76.8825 240.632 76.8145 240.099 76.8145C239.883 76.8145 239.66 76.8225 239.43 76.8359C239.2 76.8519 238.98 76.8692 238.771 76.8905C238.563 76.9118 238.375 76.9372 238.21 76.9665C238.044 76.9945 237.926 77.0172 237.854 77.0305V86.5132H235.844V75.6052Z" fill="#231F20"/>
<path d="M251.935 84.8501C252.41 84.8501 252.831 84.8394 253.199 84.8181C253.566 84.7967 253.873 84.7567 254.117 84.6994V81.3514C253.973 81.2794 253.739 81.2181 253.415 81.1674C253.091 81.1167 252.699 81.0914 252.238 81.0914C251.935 81.0914 251.615 81.1141 251.277 81.1567C250.938 81.1994 250.629 81.2901 250.349 81.4274C250.067 81.5634 249.833 81.7501 249.646 81.9887C249.459 82.2261 249.365 82.5394 249.365 82.9287C249.365 83.6487 249.595 84.1487 250.057 84.4287C250.517 84.7101 251.143 84.8501 251.935 84.8501ZM251.763 74.7847C252.57 74.7847 253.25 74.8887 253.803 75.0981C254.358 75.3074 254.805 75.6021 255.143 75.9834C255.482 76.3647 255.722 76.8194 255.867 77.3447C256.011 77.8701 256.083 78.4501 256.083 79.0834V86.1034C255.91 86.1327 255.669 86.1714 255.359 86.2221C255.049 86.2727 254.701 86.3194 254.311 86.3621C253.923 86.4061 253.502 86.4447 253.047 86.4807C252.594 86.5167 252.145 86.5354 251.698 86.5354C251.065 86.5354 250.481 86.4701 249.949 86.3407C249.415 86.2114 248.955 86.0061 248.566 85.7247C248.178 85.4447 247.875 85.0741 247.658 84.6127C247.443 84.1527 247.335 83.5981 247.335 82.9501C247.335 82.3301 247.461 81.7967 247.713 81.3514C247.965 80.9047 248.307 80.5447 248.738 80.2714C249.171 79.9981 249.675 79.7967 250.251 79.6661C250.826 79.5367 251.431 79.4714 252.066 79.4714C252.266 79.4714 252.475 79.4834 252.691 79.5047C252.907 79.5261 253.113 79.5554 253.307 79.5914C253.502 79.6274 253.671 79.6594 253.815 79.6874C253.959 79.7167 254.059 79.7394 254.117 79.7527V79.1914C254.117 78.8594 254.081 78.5327 254.01 78.2087C253.937 77.8847 253.807 77.5967 253.621 77.3447C253.433 77.0927 253.178 76.8901 252.854 76.7394C252.53 76.5887 252.109 76.5127 251.59 76.5127C250.927 76.5127 250.349 76.5594 249.851 76.6527C249.354 76.7474 248.983 76.8447 248.738 76.9447L248.501 75.2821C248.761 75.1661 249.193 75.0541 249.797 74.9461C250.402 74.8394 251.057 74.7847 251.763 74.7847Z" fill="#231F20"/>
<path d="M262.671 86.5134C261.432 86.4854 260.555 86.2188 260.035 85.7134C259.518 85.2094 259.258 84.4254 259.258 83.3601V69.8814L261.267 69.5361V83.0361C261.267 83.3668 261.295 83.6401 261.354 83.8561C261.411 84.0721 261.504 84.2454 261.634 84.3748C261.763 84.5041 261.936 84.6014 262.152 84.6668C262.368 84.7321 262.635 84.7854 262.951 84.8281L262.671 86.5134Z" fill="#231F20"/>
<path d="M84.322 111.144C86.31 111.144 87.7926 110.636 88.7713 109.622C89.7513 108.607 90.2406 107.184 90.2406 105.355C90.2406 103.527 89.7513 102.104 88.7713 101.09C87.7926 100.074 86.31 99.5669 84.322 99.5669C83.7313 99.5669 83.274 99.5736 82.9513 99.5882C82.6273 99.6029 82.4006 99.6162 82.27 99.6309V111.079C82.4006 111.094 82.6273 111.108 82.9513 111.123C83.274 111.138 83.7313 111.144 84.322 111.144ZM92.4646 105.355C92.4646 106.651 92.2633 107.779 91.8606 108.736C91.458 109.694 90.8886 110.486 90.154 111.112C89.4193 111.738 88.542 112.206 87.5193 112.516C86.4966 112.826 85.374 112.98 84.15 112.98C83.5446 112.98 82.878 112.955 82.1513 112.904C81.4246 112.855 80.766 112.758 80.1753 112.614V98.0976C80.766 97.9536 81.4246 97.8562 82.1513 97.8069C82.878 97.7549 83.5446 97.7309 84.15 97.7309C85.374 97.7309 86.4966 97.8856 87.5193 98.1949C88.542 98.5042 89.4193 98.9722 90.154 99.5989C90.8886 100.226 91.458 101.018 91.8606 101.975C92.2633 102.932 92.4646 104.06 92.4646 105.355Z" fill="#231F20"/>
<path d="M102.423 106.025C102.438 105.117 102.211 104.373 101.743 103.789C101.275 103.207 100.631 102.915 99.8097 102.915C99.3484 102.915 98.9417 103.005 98.5897 103.185C98.2364 103.365 97.9377 103.599 97.6937 103.887C97.4484 104.175 97.2577 104.505 97.1204 104.88C96.9831 105.255 96.8937 105.636 96.8511 106.025H102.423ZM94.7124 107.127C94.7124 106.133 94.8564 105.265 95.1444 104.524C95.4324 103.783 95.8137 103.167 96.2884 102.677C96.7644 102.188 97.3111 101.821 97.9311 101.576C98.5497 101.331 99.1831 101.208 99.8311 101.208C101.343 101.208 102.503 101.68 103.31 102.623C104.115 103.567 104.519 105.003 104.519 106.932V107.268C104.519 107.404 104.511 107.529 104.498 107.645H96.8071C96.8937 108.812 97.2324 109.697 97.8231 110.301C98.4124 110.907 99.3351 111.209 100.587 111.209C101.292 111.209 101.887 111.148 102.37 111.025C102.851 110.904 103.215 110.784 103.46 110.669L103.74 112.355C103.496 112.484 103.067 112.62 102.455 112.764C101.843 112.909 101.148 112.98 100.371 112.98C99.3924 112.98 98.5457 112.832 97.8337 112.537C97.1204 112.243 96.5337 111.836 96.0724 111.317C95.6124 110.799 95.2697 110.184 95.0471 109.471C94.8231 108.757 94.7124 107.976 94.7124 107.127Z" fill="#231F20"/>
<path d="M116.074 101.748C115.513 103.851 114.854 105.867 114.098 107.796C113.342 109.726 112.61 111.454 111.906 112.98H110.091C109.385 111.454 108.655 109.726 107.899 107.796C107.142 105.867 106.483 103.851 105.922 101.748H108.082C108.255 102.454 108.461 103.206 108.698 104.006C108.935 104.804 109.187 105.596 109.454 106.382C109.719 107.166 109.99 107.926 110.265 108.66C110.537 109.395 110.797 110.05 111.042 110.626C111.286 110.05 111.546 109.395 111.819 108.66C112.093 107.926 112.362 107.166 112.629 106.382C112.895 105.596 113.147 104.804 113.385 104.006C113.623 103.206 113.827 102.454 114.001 101.748H116.074Z" fill="#231F20"/>
<path d="M124.822 106.025C124.837 105.117 124.61 104.373 124.142 103.789C123.674 103.207 123.03 102.915 122.209 102.915C121.747 102.915 121.341 103.005 120.987 103.185C120.635 103.365 120.337 103.599 120.093 103.887C119.847 104.175 119.657 104.505 119.519 104.88C119.382 105.255 119.293 105.636 119.25 106.025H124.822ZM117.111 107.127C117.111 106.133 117.255 105.265 117.543 104.524C117.831 103.783 118.213 103.167 118.687 102.677C119.163 102.188 119.71 101.821 120.33 101.576C120.949 101.331 121.582 101.208 122.23 101.208C123.743 101.208 124.902 101.68 125.709 102.623C126.514 103.567 126.918 105.003 126.918 106.932V107.268C126.918 107.404 126.91 107.529 126.897 107.645H119.206C119.293 108.812 119.631 109.697 120.222 110.301C120.811 110.907 121.734 111.209 122.986 111.209C123.691 111.209 124.286 111.148 124.769 111.025C125.25 110.904 125.614 110.784 125.859 110.669L126.139 112.355C125.895 112.484 125.466 112.62 124.854 112.764C124.243 112.909 123.549 112.98 122.77 112.98C121.791 112.98 120.945 112.832 120.233 112.537C119.519 112.243 118.933 111.836 118.471 111.317C118.011 110.799 117.669 110.184 117.446 109.471C117.222 108.757 117.111 107.976 117.111 107.127Z" fill="#231F20"/>
<path d="M133.073 112.98C131.835 112.952 130.957 112.686 130.437 112.18C129.92 111.676 129.66 110.892 129.66 109.827V96.3482L131.669 96.0029V109.503C131.669 109.834 131.697 110.107 131.756 110.323C131.813 110.539 131.907 110.712 132.036 110.842C132.165 110.971 132.339 111.068 132.555 111.134C132.771 111.199 133.037 111.252 133.353 111.295L133.073 112.98Z" fill="#231F20"/>
<path d="M143.311 107.105C143.311 105.839 143.027 104.833 142.458 104.092C141.89 103.351 141.115 102.98 140.136 102.98C139.156 102.98 138.383 103.351 137.815 104.092C137.246 104.833 136.96 105.839 136.96 107.105C136.96 108.372 137.246 109.377 137.815 110.119C138.383 110.86 139.156 111.231 140.136 111.231C141.115 111.231 141.89 110.86 142.458 110.119C143.027 109.377 143.311 108.372 143.311 107.105ZM145.407 107.105C145.407 107.997 145.278 108.804 145.018 109.524C144.758 110.244 144.395 110.864 143.927 111.383C143.459 111.9 142.9 112.3 142.254 112.58C141.604 112.861 140.899 113.001 140.136 113.001C139.372 113.001 138.667 112.861 138.019 112.58C137.371 112.3 136.814 111.9 136.346 111.383C135.878 110.864 135.514 110.244 135.255 109.524C134.995 108.804 134.866 107.997 134.866 107.105C134.866 106.227 134.995 105.424 135.255 104.696C135.514 103.969 135.878 103.347 136.346 102.828C136.814 102.309 137.371 101.911 138.019 101.629C138.667 101.349 139.372 101.208 140.136 101.208C140.899 101.208 141.604 101.349 142.254 101.629C142.9 101.911 143.459 102.309 143.927 102.828C144.395 103.347 144.758 103.969 145.018 104.696C145.278 105.424 145.407 106.227 145.407 107.105Z" fill="#231F20"/>
<path d="M155.926 107.386C155.926 106.077 155.602 105.067 154.954 104.362C154.306 103.657 153.442 103.303 152.362 103.303C151.758 103.303 151.286 103.326 150.947 103.369C150.608 103.411 150.338 103.462 150.138 103.519V110.605C150.382 110.806 150.734 111.001 151.195 111.187C151.656 111.375 152.16 111.469 152.707 111.469C153.283 111.469 153.776 111.363 154.187 111.155C154.598 110.946 154.932 110.658 155.191 110.291C155.451 109.923 155.638 109.493 155.754 108.995C155.868 108.499 155.926 107.962 155.926 107.386ZM158.022 107.386C158.022 108.235 157.91 109.021 157.686 109.741C157.463 110.461 157.135 111.079 156.703 111.598C156.271 112.117 155.742 112.519 155.116 112.807C154.49 113.095 153.772 113.239 152.967 113.239C152.319 113.239 151.746 113.153 151.25 112.981C150.752 112.807 150.382 112.642 150.138 112.483V116.977H148.128V102.094C148.603 101.979 149.198 101.853 149.91 101.715C150.623 101.579 151.447 101.511 152.383 101.511C153.247 101.511 154.026 101.647 154.716 101.921C155.407 102.194 155.998 102.583 156.487 103.087C156.976 103.591 157.355 104.207 157.622 104.934C157.888 105.661 158.022 106.479 158.022 107.386Z" fill="#231F20"/>
<path d="M160.742 102.072C161.203 101.957 161.811 101.835 162.567 101.705C163.323 101.576 164.198 101.511 165.191 101.511C165.911 101.511 166.517 101.608 167.006 101.803C167.495 101.996 167.906 102.281 168.237 102.655C168.338 102.584 168.497 102.483 168.713 102.353C168.929 102.224 169.195 102.097 169.511 101.975C169.829 101.852 170.182 101.744 170.57 101.651C170.959 101.557 171.377 101.511 171.823 101.511C172.686 101.511 173.393 101.637 173.939 101.888C174.487 102.141 174.915 102.497 175.225 102.959C175.534 103.419 175.743 103.965 175.851 104.599C175.959 105.233 176.014 105.924 176.014 106.673V112.98H174.005V107.105C174.005 106.443 173.971 105.875 173.907 105.399C173.842 104.924 173.719 104.528 173.541 104.211C173.359 103.895 173.115 103.66 172.806 103.509C172.495 103.357 172.097 103.281 171.607 103.281C170.93 103.281 170.373 103.372 169.933 103.552C169.493 103.732 169.195 103.895 169.037 104.037C169.151 104.412 169.238 104.823 169.295 105.269C169.353 105.715 169.382 106.183 169.382 106.673V112.98H167.374V107.105C167.374 106.443 167.337 105.875 167.266 105.399C167.193 104.924 167.067 104.528 166.887 104.211C166.707 103.895 166.462 103.66 166.153 103.509C165.843 103.357 165.451 103.281 164.975 103.281C164.774 103.281 164.558 103.289 164.327 103.303C164.098 103.319 163.878 103.336 163.669 103.357C163.459 103.379 163.269 103.404 163.097 103.433C162.923 103.461 162.809 103.484 162.751 103.497V112.98H160.742V102.072Z" fill="#231F20"/>
<path d="M186.316 106.025C186.331 105.117 186.104 104.373 185.636 103.789C185.168 103.207 184.524 102.915 183.703 102.915C183.241 102.915 182.835 103.005 182.481 103.185C182.129 103.365 181.831 103.599 181.587 103.887C181.341 104.175 181.149 104.505 181.013 104.88C180.876 105.255 180.787 105.636 180.744 106.025H186.316ZM178.605 107.127C178.605 106.133 178.749 105.265 179.037 104.524C179.325 103.783 179.707 103.167 180.181 102.677C180.657 102.188 181.204 101.821 181.824 101.576C182.443 101.331 183.076 101.208 183.724 101.208C185.236 101.208 186.396 101.68 187.203 102.623C188.008 103.567 188.412 105.003 188.412 106.932V107.268C188.412 107.404 188.404 107.529 188.391 107.645H180.7C180.787 108.812 181.124 109.697 181.716 110.301C182.305 110.907 183.228 111.209 184.48 111.209C185.185 111.209 185.78 111.148 186.263 111.025C186.744 110.904 187.108 110.784 187.353 110.669L187.633 112.355C187.389 112.484 186.96 112.62 186.348 112.764C185.736 112.909 185.041 112.98 184.264 112.98C183.285 112.98 182.439 112.832 181.727 112.537C181.013 112.243 180.427 111.836 179.965 111.317C179.505 110.799 179.163 110.184 178.94 109.471C178.716 108.757 178.605 107.976 178.605 107.127Z" fill="#231F20"/>
<path d="M191.198 102.072C191.659 101.957 192.271 101.835 193.034 101.705C193.796 101.576 194.675 101.511 195.67 101.511C196.562 101.511 197.303 101.637 197.894 101.888C198.484 102.141 198.955 102.493 199.308 102.947C199.662 103.401 199.91 103.944 200.054 104.577C200.198 105.211 200.27 105.909 200.27 106.673V112.98H198.26V107.105C198.26 106.413 198.214 105.823 198.12 105.333C198.027 104.844 197.872 104.448 197.656 104.145C197.44 103.844 197.152 103.624 196.792 103.487C196.432 103.349 195.986 103.281 195.452 103.281C195.236 103.281 195.014 103.289 194.783 103.303C194.554 103.319 194.334 103.336 194.124 103.357C193.915 103.379 193.728 103.404 193.563 103.433C193.398 103.461 193.279 103.484 193.207 103.497V112.98H191.198V102.072Z" fill="#231F20"/>
<path d="M205.368 101.489H209.622V103.173H205.368V108.357C205.368 108.92 205.41 109.384 205.497 109.751C205.584 110.119 205.713 110.407 205.886 110.615C206.058 110.824 206.274 110.971 206.534 111.057C206.793 111.144 207.096 111.187 207.441 111.187C208.046 111.187 208.532 111.12 208.898 110.983C209.266 110.845 209.522 110.748 209.666 110.691L210.054 112.353C209.853 112.455 209.5 112.58 208.996 112.732C208.492 112.883 207.917 112.959 207.268 112.959C206.505 112.959 205.874 112.861 205.378 112.667C204.881 112.472 204.482 112.181 204.18 111.792C203.877 111.404 203.665 110.925 203.542 110.356C203.42 109.787 203.358 109.128 203.358 108.379V98.3574L205.368 98.0121V101.489Z" fill="#231F20"/>
<path d="M217.074 112.98V98.0109H226.103V99.8042H219.17V104.319H225.326V106.09H219.17V112.98H217.074Z" fill="#231F20"/>
<path d="M236.838 112.418C236.377 112.534 235.769 112.656 235.013 112.785C234.257 112.916 233.382 112.98 232.389 112.98C231.525 112.98 230.797 112.854 230.206 112.602C229.617 112.35 229.141 111.994 228.781 111.533C228.421 111.072 228.162 110.529 228.004 109.902C227.845 109.276 227.766 108.581 227.766 107.818V101.51H229.776V107.386C229.776 108.754 229.99 109.733 230.424 110.324C230.856 110.914 231.582 111.209 232.605 111.209C232.821 111.209 233.044 111.202 233.274 111.188C233.505 111.173 233.721 111.154 233.922 111.133C234.124 111.112 234.308 111.09 234.473 111.069C234.638 111.048 234.757 111.022 234.829 110.993V101.51H236.838V112.418Z" fill="#231F20"/>
<path d="M240.185 102.072C240.647 101.957 241.259 101.835 242.021 101.705C242.784 101.576 243.663 101.511 244.656 101.511C245.549 101.511 246.291 101.637 246.881 101.888C247.472 102.141 247.943 102.493 248.296 102.947C248.649 103.401 248.897 103.944 249.041 104.577C249.185 105.211 249.257 105.909 249.257 106.673V112.98H247.248V107.105C247.248 106.413 247.201 105.823 247.108 105.333C247.015 104.844 246.86 104.448 246.644 104.145C246.428 103.844 246.14 103.624 245.78 103.487C245.42 103.349 244.973 103.281 244.44 103.281C244.224 103.281 244.001 103.289 243.771 103.303C243.541 103.319 243.32 103.336 243.112 103.357C242.904 103.379 242.716 103.404 242.551 103.433C242.385 103.461 242.265 103.484 242.195 103.497V112.98H240.185V102.072Z" fill="#231F20"/>
<path d="M259.733 103.865C259.488 103.664 259.136 103.469 258.675 103.282C258.213 103.094 257.709 103.001 257.163 103.001C256.587 103.001 256.093 103.106 255.683 103.314C255.273 103.524 254.937 103.81 254.679 104.178C254.42 104.545 254.232 104.981 254.117 105.485C254.001 105.989 253.944 106.529 253.944 107.105C253.944 108.416 254.268 109.426 254.916 110.14C255.565 110.853 256.428 111.209 257.509 111.209C258.056 111.209 258.513 111.184 258.88 111.133C259.247 111.082 259.532 111.029 259.733 110.972V103.865ZM259.733 96.3051L261.741 95.9597V112.397C261.281 112.526 260.691 112.656 259.971 112.785C259.251 112.916 258.423 112.98 257.487 112.98C256.623 112.98 255.845 112.844 255.153 112.57C254.463 112.297 253.872 111.908 253.383 111.404C252.893 110.9 252.515 110.284 252.249 109.556C251.983 108.83 251.849 108.012 251.849 107.105C251.849 106.241 251.96 105.449 252.184 104.729C252.407 104.009 252.735 103.389 253.167 102.872C253.599 102.353 254.128 101.95 254.755 101.662C255.381 101.374 256.097 101.229 256.904 101.229C257.552 101.229 258.124 101.316 258.621 101.489C259.117 101.662 259.488 101.828 259.733 101.986V96.3051Z" fill="#231F20"/>
<path d="M27.4724 56.2856V33.603H42.0377V37.1056H31.5964V42.7016H40.8911V46.139H31.5964V52.783H42.8231V56.2856H27.4724Z" fill="#231F20"/>
<path d="M59.7445 55.4021C58.9805 55.5981 57.9885 55.8008 56.7659 56.0074C55.5432 56.2154 54.2019 56.3181 52.7405 56.3181C51.3659 56.3181 50.2139 56.1221 49.2872 55.7288C48.3592 55.3368 47.6179 54.7914 47.0619 54.0928C46.5045 53.3941 46.1059 52.5594 45.8659 51.5888C45.6259 50.6181 45.5059 49.5541 45.5059 48.3981V38.8074H49.4672V47.7754C49.4672 49.6088 49.7339 50.9181 50.2685 51.7034C50.8032 52.4888 51.7365 52.8808 53.0672 52.8808C53.5472 52.8808 54.0539 52.8594 54.5899 52.8154C55.1245 52.7728 55.5219 52.7181 55.7845 52.6528V38.8074H59.7445V55.4021Z" fill="#231F20"/>
<path d="M74.3422 42.7347C74.0142 42.6267 73.5622 42.5107 72.9835 42.3921C72.4049 42.2721 71.7342 42.2107 70.9715 42.2107C70.5342 42.2107 70.0702 42.2561 69.5795 42.3427C69.0889 42.4294 68.7449 42.5054 68.5489 42.5707V56.2854H64.5889V39.9854C65.3515 39.7027 66.3075 39.4347 67.4529 39.1841C68.5982 38.9334 69.8689 38.8067 71.2649 38.8067C71.5275 38.8067 71.8329 38.8241 72.1822 38.8561C72.5315 38.8894 72.8795 38.9334 73.2302 38.9867C73.5782 39.0414 73.9169 39.1081 74.2435 39.1841C74.5715 39.2601 74.8329 39.3307 75.0302 39.3961L74.3422 42.7347Z" fill="#231F20"/>
<path d="M89.0055 47.285C89.0055 45.5824 88.6402 44.2357 87.9095 43.2424C87.1775 42.2504 86.1575 41.753 84.8482 41.753C83.5389 41.753 82.5189 42.2504 81.7882 43.2424C81.0575 44.2357 80.6922 45.5824 80.6922 47.285C80.6922 49.009 81.0575 50.373 81.7882 51.3757C82.5189 52.3797 83.5389 52.881 84.8482 52.881C86.1575 52.881 87.1775 52.3797 87.9095 51.3757C88.6402 50.373 89.0055 49.009 89.0055 47.285ZM93.0642 47.285C93.0642 48.6384 92.8669 49.8704 92.4749 50.9837C92.0829 52.0957 91.5255 53.045 90.8055 53.8304C90.0855 54.617 89.2189 55.2277 88.2029 55.6637C87.1895 56.101 86.0709 56.3184 84.8482 56.3184C83.6269 56.3184 82.5135 56.101 81.5095 55.6637C80.5055 55.2277 79.6442 54.617 78.9242 53.8304C78.2042 53.045 77.6429 52.0957 77.2389 50.9837C76.8349 49.8704 76.6335 48.6384 76.6335 47.285C76.6335 45.9317 76.8349 44.705 77.2389 43.6024C77.6429 42.501 78.2095 41.557 78.9415 40.7717C79.6709 39.985 80.5389 39.3797 81.5429 38.9544C82.5469 38.529 83.6482 38.3157 84.8482 38.3157C86.0482 38.3157 87.1562 38.529 88.1709 38.9544C89.1855 39.3797 90.0535 39.985 90.7735 40.7717C91.4935 41.557 92.0549 42.501 92.4589 43.6024C92.8629 44.705 93.0642 45.9317 93.0642 47.285Z" fill="#231F20"/>
<path d="M108.316 47.8083C108.316 46.0403 107.917 44.667 107.121 43.6843C106.324 42.7017 105.043 42.211 103.276 42.211C102.904 42.211 102.517 42.227 102.113 42.2603C101.709 42.2937 101.312 42.3643 100.919 42.4737V52.259C101.268 52.5003 101.732 52.7243 102.311 52.931C102.888 53.1377 103.505 53.2417 104.159 53.2417C105.6 53.2417 106.652 52.751 107.317 51.7683C107.984 50.787 108.316 49.467 108.316 47.8083ZM112.375 47.743C112.375 49.0523 112.205 50.2523 111.868 51.343C111.529 52.435 111.044 53.3723 110.411 54.1577C109.777 54.9443 108.987 55.555 108.039 55.991C107.089 56.427 106.013 56.6457 104.815 56.6457C104.007 56.6457 103.265 56.547 102.588 56.351C101.912 56.155 101.355 55.9363 100.919 55.6963V62.3403H96.9587V39.7243C97.7654 39.5057 98.7587 39.299 99.9374 39.1017C101.116 38.9057 102.359 38.807 103.668 38.807C105.021 38.807 106.232 39.015 107.301 39.4297C108.371 39.8443 109.281 40.439 110.035 41.2137C110.788 41.9883 111.365 42.9257 111.769 44.0283C112.173 45.1297 112.375 46.3683 112.375 47.743Z" fill="#231F20"/>
<path d="M126.809 45.6483C126.809 45.103 126.733 44.5843 126.581 44.0936C126.428 43.603 126.204 43.1763 125.909 42.8163C125.614 42.4563 125.254 42.1736 124.829 41.9656C124.404 41.759 123.896 41.655 123.308 41.655C122.696 41.655 122.162 41.7696 121.704 41.999C121.245 42.2283 120.857 42.5283 120.541 42.899C120.225 43.2696 119.98 43.6963 119.805 44.175C119.63 44.655 119.51 45.147 119.445 45.6483H126.809ZM115.321 47.4163C115.321 45.9096 115.544 44.591 115.992 43.455C116.438 42.3203 117.033 41.3763 117.776 40.6243C118.517 39.871 119.368 39.3043 120.329 38.9216C121.289 38.5403 122.27 38.3496 123.274 38.3496C125.632 38.3496 127.469 39.0803 128.789 40.5416C130.11 42.0043 130.77 44.187 130.77 47.0883C130.77 47.307 130.764 47.5523 130.754 47.8243C130.742 48.0976 130.726 48.343 130.704 48.5616H119.412C119.521 49.9363 120.006 51.0003 120.869 51.7523C121.73 52.5056 122.98 52.8816 124.616 52.8816C125.577 52.8816 126.454 52.795 127.252 52.6203C128.048 52.4456 128.674 52.2603 129.133 52.0643L129.657 55.3043C129.438 55.4136 129.138 55.5283 128.757 55.6483C128.374 55.767 127.938 55.8763 127.448 55.975C126.957 56.0723 126.428 56.155 125.861 56.2203C125.293 56.2856 124.714 56.3176 124.125 56.3176C122.62 56.3176 121.31 56.095 120.198 55.6483C119.085 55.2003 118.169 54.579 117.449 53.7816C116.728 52.9856 116.193 52.047 115.845 50.967C115.496 49.887 115.321 48.7043 115.321 47.4163Z" fill="#231F20"/>
<path d="M140.786 53.1763C142.007 53.1763 142.934 53.111 143.567 52.979V48.5936C143.35 48.5283 143.032 48.463 142.618 48.3976C142.203 48.3323 141.746 48.299 141.243 48.299C140.807 48.299 140.366 48.3323 139.918 48.3976C139.471 48.463 139.067 48.583 138.707 48.7576C138.347 48.9323 138.058 49.1776 137.839 49.4936C137.62 49.8096 137.512 50.2083 137.512 50.6883C137.512 51.627 137.807 52.2763 138.396 52.6363C138.986 52.9963 139.782 53.1763 140.786 53.1763ZM140.458 38.415C141.767 38.415 142.868 38.579 143.764 38.9056C144.658 39.2323 145.372 39.691 145.908 40.2803C146.442 40.8696 146.824 41.5843 147.054 42.4243C147.282 43.2643 147.396 44.187 147.396 45.1896V55.5656C146.786 55.6963 145.864 55.855 144.631 56.0403C143.399 56.2256 142.007 56.3176 140.458 56.3176C139.432 56.3176 138.494 56.2203 137.643 56.0243C136.792 55.827 136.066 55.511 135.467 55.075C134.867 54.639 134.396 54.071 134.059 53.3723C133.72 52.6736 133.552 51.8123 133.552 50.787C133.552 49.8056 133.743 48.9763 134.124 48.299C134.506 47.623 135.024 47.0723 135.679 46.6456C136.334 46.2216 137.092 45.9163 137.954 45.7296C138.816 45.5443 139.716 45.451 140.655 45.451C141.091 45.451 141.548 45.479 142.03 45.5336C142.508 45.5883 143.022 45.6803 143.567 45.8123V45.1576C143.567 44.699 143.512 44.263 143.404 43.8483C143.294 43.4336 143.103 43.0683 142.831 42.7523C142.558 42.435 142.198 42.1896 141.751 42.015C141.303 41.8403 140.742 41.7536 140.066 41.7536C139.148 41.7536 138.308 41.819 137.544 41.9496C136.782 42.0803 136.159 42.2336 135.679 42.4083L135.188 39.2003C135.69 39.0256 136.422 38.851 137.382 38.6763C138.342 38.503 139.367 38.415 140.458 38.415Z" fill="#231F20"/>
<path d="M152.044 39.7238C152.808 39.5065 153.8 39.2985 155.023 39.1025C156.244 38.9052 157.597 38.8078 159.081 38.8078C160.477 38.8078 161.645 38.9985 162.583 39.3798C163.521 39.7625 164.269 40.2972 164.825 40.9838C165.381 41.6705 165.775 42.5012 166.004 43.4718C166.233 44.4425 166.348 45.5065 166.348 46.6625V56.2852H162.387V47.2852C162.387 46.3678 162.327 45.5878 162.207 44.9438C162.087 44.3012 161.891 43.7772 161.617 43.3732C161.345 42.9705 160.973 42.6758 160.505 42.4892C160.036 42.3052 159.463 42.2118 158.787 42.2118C158.284 42.2118 157.761 42.2438 157.215 42.3092C156.669 42.3745 156.267 42.4292 156.004 42.4732V56.2852H152.044V39.7238Z" fill="#231F20"/>
<path d="M187.36 56.3181C185.81 56.3181 184.48 56.0941 183.366 55.6474C182.254 55.2008 181.332 54.5728 180.601 53.7648C179.869 52.9581 179.33 52.0088 178.981 50.9181C178.632 49.8261 178.457 48.6261 178.457 47.3168V33.1448H182.613V46.9248C182.613 47.9501 182.728 48.8288 182.957 49.5594C183.186 50.2901 183.514 50.8848 183.94 51.3434C184.365 51.8008 184.866 52.1394 185.445 52.3581C186.024 52.5754 186.672 52.6848 187.392 52.6848C188.112 52.6848 188.768 52.5754 189.357 52.3581C189.945 52.1394 190.453 51.8008 190.878 51.3434C191.304 50.8848 191.632 50.2901 191.86 49.5594C192.089 48.8288 192.204 47.9501 192.204 46.9248V33.1448H196.36V47.3168C196.36 48.6261 196.181 49.8261 195.821 50.9181C195.461 52.0088 194.914 52.9581 194.184 53.7648C193.453 54.5728 192.52 55.2008 191.386 55.6474C190.25 56.0941 188.909 56.3181 187.36 56.3181Z" fill="#231F20"/>
<path d="M201.237 39.7238C202.001 39.5065 202.993 39.2985 204.216 39.1025C205.437 38.9052 206.791 38.8078 208.275 38.8078C209.671 38.8078 210.839 38.9985 211.776 39.3798C212.715 39.7625 213.463 40.2972 214.019 40.9838C214.576 41.6705 214.968 42.5012 215.197 43.4718C215.427 44.4425 215.541 45.5065 215.541 46.6625V56.2852H211.58V47.2852C211.58 46.3678 211.52 45.5878 211.4 44.9438C211.28 44.3012 211.084 43.7772 210.811 43.3732C210.539 42.9705 210.167 42.6758 209.699 42.4892C209.229 42.3052 208.656 42.2118 207.98 42.2118C207.477 42.2118 206.955 42.2438 206.409 42.3092C205.863 42.3745 205.46 42.4292 205.197 42.4732V56.2852H201.237V39.7238Z" fill="#231F20"/>
<path d="M224.183 56.2854H220.221V39.1681H224.183V56.2854ZM224.607 34.1601C224.607 34.9014 224.367 35.4907 223.887 35.9267C223.407 36.3641 222.84 36.5814 222.185 36.5814C221.509 36.5814 220.931 36.3641 220.451 35.9267C219.971 35.4907 219.731 34.9014 219.731 34.1601C219.731 33.3961 219.971 32.7961 220.451 32.3587C220.931 31.9227 221.509 31.7054 222.185 31.7054C222.84 31.7054 223.407 31.9227 223.887 32.3587C224.367 32.7961 224.607 33.3961 224.607 34.1601Z" fill="#231F20"/>
<path d="M240.448 47.285C240.448 45.5824 240.082 44.2357 239.352 43.2424C238.62 42.2504 237.6 41.753 236.291 41.753C234.982 41.753 233.962 42.2504 233.231 43.2424C232.499 44.2357 232.135 45.5824 232.135 47.285C232.135 49.009 232.499 50.373 233.231 51.3757C233.962 52.3797 234.982 52.881 236.291 52.881C237.6 52.881 238.62 52.3797 239.352 51.3757C240.082 50.373 240.448 49.009 240.448 47.285ZM244.507 47.285C244.507 48.6384 244.31 49.8704 243.918 50.9837C243.526 52.0957 242.968 53.045 242.248 53.8304C241.528 54.617 240.662 55.2277 239.646 55.6637C238.632 56.101 237.514 56.3184 236.291 56.3184C235.07 56.3184 233.956 56.101 232.952 55.6637C231.948 55.2277 231.087 54.617 230.367 53.8304C229.647 53.045 229.084 52.0957 228.682 50.9837C228.278 49.8704 228.076 48.6384 228.076 47.285C228.076 45.9317 228.278 44.705 228.682 43.6024C229.084 42.501 229.652 41.557 230.384 40.7717C231.114 39.985 231.982 39.3797 232.986 38.9544C233.99 38.529 235.091 38.3157 236.291 38.3157C237.491 38.3157 238.599 38.529 239.614 38.9544C240.628 39.3797 241.496 39.985 242.216 40.7717C242.936 41.557 243.498 42.501 243.902 43.6024C244.306 44.705 244.507 45.9317 244.507 47.285Z" fill="#231F20"/>
<path d="M248.401 39.7238C249.165 39.5065 250.157 39.2985 251.38 39.1025C252.601 38.9052 253.955 38.8078 255.439 38.8078C256.835 38.8078 258.003 38.9985 258.94 39.3798C259.879 39.7625 260.627 40.2972 261.183 40.9838C261.739 41.6705 262.132 42.5012 262.361 43.4718C262.591 44.4425 262.704 45.5065 262.704 46.6625V56.2852H258.744V47.2852C258.744 46.3678 258.684 45.5878 258.564 44.9438C258.444 44.3012 258.248 43.7772 257.975 43.3732C257.703 42.9705 257.331 42.6758 256.863 42.4892C256.393 42.3052 255.82 42.2118 255.144 42.2118C254.641 42.2118 254.119 42.2438 253.572 42.3092C253.027 42.3745 252.624 42.4292 252.361 42.4732V56.2852H248.401V39.7238Z" fill="#231F20"/>
</g>
</g>
<defs>
<clipPath id="clip0_114_150">
<rect width="456" height="148" fill="white"/>
</clipPath>
</defs>
</svg>
