<svg role="img" viewBox="0 0 464 151" fill="none" xmlns="http://www.w3.org/2000/svg">
<title>Logotyp Unii Eurpejskiej z Europejskim Funduszem Rozwoju Regionalnego</title>
<g clip-path="url(#clip0_114_73)">
<path d="M433.463 121.172H297.415V30.4719H433.463V121.172Z" fill="#074EA2"/>
<path d="M362.539 50.241L365.417 48.1436L368.285 50.241L367.189 46.853L370.107 44.7583H366.513L365.417 41.3303L364.319 44.7583H360.714L363.625 46.853L362.539 50.241Z" fill="#FFF200"/>
<path d="M347.68 54.2271L350.558 52.1297L353.426 54.2271L352.331 50.8417L355.248 48.7444H351.654L350.551 45.3071L349.454 48.7537L345.867 48.7444L348.778 50.8417L347.68 54.2271Z" fill="#FFF200"/>
<path d="M339.679 56.2078L338.582 59.6478L334.989 59.6398L337.899 61.7371L336.811 65.1238L339.679 63.0344L342.557 65.1238L341.462 61.7371L344.382 59.6398H340.785L339.679 56.2078Z" fill="#FFF200"/>
<path d="M335.701 77.8548L338.559 79.9614L337.471 76.5734L340.391 74.4788H336.797L335.701 71.0414L334.586 74.4868L330.998 74.4788L333.909 76.5734L332.823 79.9614L335.701 77.8548Z" fill="#FFF200"/>
<path d="M340.784 89.3572L339.678 85.9292L338.584 89.3572H334.988L337.898 91.4625L336.81 94.8398L339.678 92.7425L342.556 94.8398L341.461 91.4625L344.38 89.3572H340.784Z" fill="#FFF200"/>
<path d="M351.67 100.249L350.573 96.821L349.467 100.258L345.873 100.249L348.793 102.346L347.705 105.732L350.573 103.634L353.45 105.732L352.355 102.346L355.275 100.249H351.67Z" fill="#FFF200"/>
<path d="M366.511 104.195L365.415 100.758L364.317 104.195H360.715L363.633 106.286L362.537 109.678L365.415 107.58L368.291 109.678L367.185 106.286L370.116 104.195H366.511Z" fill="#FFF200"/>
<path d="M381.351 100.249L380.246 96.821L379.139 100.258L375.562 100.249L378.466 102.346L377.378 105.732L380.246 103.634L383.123 105.732L382.026 102.346L384.957 100.249H381.351Z" fill="#FFF200"/>
<path d="M392.246 89.3572L391.141 85.9292L390.046 89.3572H386.457L389.369 91.4625L388.263 94.8398L391.141 92.7425L394.017 94.8398L392.921 91.4625L395.842 89.3572H392.246Z" fill="#FFF200"/>
<path d="M399.779 74.4358H396.183L395.095 70.9985L393.982 74.4358H390.399L393.315 76.5331L392.208 79.9185L395.095 77.8211L397.963 79.9185L396.868 76.5331L399.779 74.4358Z" fill="#FFF200"/>
<path d="M388.265 65.0723L391.143 62.9869L394.019 65.0723L392.923 61.6869L395.841 59.6003H392.248L391.143 56.1563L390.048 59.6096L386.459 59.6003L389.371 61.6869L388.265 65.0723Z" fill="#FFF200"/>
<path d="M380.289 45.308L379.203 48.7533L375.598 48.7453L378.518 50.8413L377.43 54.2346L380.307 52.128L383.166 54.2346L382.078 50.8413L384.989 48.7453H381.394L380.289 45.308Z" fill="#FFF200"/>
<path d="M83.9275 89.5129V74.5436H93.0648V76.3369H86.0235V80.7863H92.2875V82.5356H86.0235V87.7196H93.6048V89.5129H83.9275Z" fill="#231F20"/>
<mask id="mask0_114_73" style="mask-type:luminance" maskUnits="userSpaceOnUse" x="-30" y="-30" width="524" height="212">
<path d="M-30 -30H493.935V181.644H-30V-30Z" fill="white"/>
</mask>
<g mask="url(#mask0_114_73)">
<path d="M104.556 88.9511C104.095 89.0671 103.487 89.1885 102.731 89.3178C101.975 89.4471 101.1 89.5125 100.107 89.5125C99.2426 89.5125 98.5146 89.3871 97.9239 89.1351C97.3332 88.8831 96.8586 88.5271 96.4986 88.0658C96.1386 87.6045 95.8799 87.0605 95.7212 86.4351C95.5626 85.8085 95.4839 85.1138 95.4839 84.3511V78.0431H97.4932V83.9191C97.4932 85.2871 97.7079 86.2658 98.1412 86.8565C98.5732 87.4471 99.2999 87.7418 100.323 87.7418C100.539 87.7418 100.761 87.7351 100.992 87.7205C101.221 87.7058 101.439 87.6871 101.64 87.6658C101.841 87.6445 102.025 87.6231 102.191 87.6018C102.356 87.5805 102.475 87.5551 102.547 87.5258V78.0431H104.556V88.9511Z" fill="#231F20"/>
<path d="M112.051 78.0436C112.224 78.0436 112.421 78.0543 112.645 78.0756C112.868 78.0983 113.088 78.1263 113.304 78.1623C113.52 78.1983 113.717 78.2343 113.897 78.2703C114.077 78.3063 114.211 78.3383 114.297 78.3676L113.952 80.1169C113.793 80.0596 113.531 79.9916 113.163 79.9116C112.796 79.8329 112.324 79.7929 111.748 79.7929C111.373 79.7929 111.003 79.8329 110.636 79.9116C110.269 79.9916 110.027 80.0449 109.912 80.0743V89.5129H107.904V78.7569C108.379 78.5836 108.969 78.4209 109.675 78.2703C110.38 78.1196 111.172 78.0436 112.051 78.0436Z" fill="#231F20"/>
<path d="M123.952 83.6379C123.952 82.3713 123.668 81.3659 123.098 80.6246C122.53 79.8833 121.756 79.5126 120.777 79.5126C119.797 79.5126 119.024 79.8833 118.454 80.6246C117.886 81.3659 117.601 82.3713 117.601 83.6379C117.601 84.9046 117.886 85.9099 118.454 86.6513C119.024 87.3926 119.797 87.7633 120.777 87.7633C121.756 87.7633 122.53 87.3926 123.098 86.6513C123.668 85.9099 123.952 84.9046 123.952 83.6379ZM126.048 83.6379C126.048 84.5299 125.918 85.3366 125.658 86.0566C125.398 86.7779 125.036 87.3966 124.568 87.9153C124.1 88.4326 123.541 88.8326 122.893 89.1139C122.245 89.3939 121.54 89.5339 120.777 89.5339C120.013 89.5339 119.308 89.3939 118.66 89.1139C118.012 88.8326 117.453 88.4326 116.986 87.9153C116.518 87.3966 116.154 86.7779 115.896 86.0566C115.636 85.3366 115.506 84.5299 115.506 83.6379C115.506 82.7593 115.636 81.9566 115.896 81.2286C116.154 80.5019 116.518 79.8793 116.986 79.3619C117.453 78.8419 118.012 78.4433 118.66 78.1619C119.308 77.8819 120.013 77.7406 120.777 77.7406C121.54 77.7406 122.245 77.8819 122.893 78.1619C123.541 78.4433 124.1 78.8419 124.568 79.3619C125.036 79.8793 125.398 80.5019 125.658 81.2286C125.918 81.9566 126.048 82.7593 126.048 83.6379Z" fill="#231F20"/>
<path d="M136.566 83.9186C136.566 82.6079 136.242 81.5999 135.594 80.8946C134.946 80.1893 134.082 79.8359 133.002 79.8359C132.398 79.8359 131.926 79.8586 131.587 79.9013C131.249 79.9439 130.979 79.9946 130.778 80.0519V87.1359C131.022 87.3386 131.375 87.5333 131.835 87.7199C132.297 87.9079 132.801 88.0013 133.349 88.0013C133.923 88.0013 134.417 87.8959 134.827 87.6879C135.238 87.4786 135.573 87.1906 135.831 86.8239C136.091 86.4559 136.278 86.0253 136.394 85.5279C136.509 85.0306 136.566 84.4946 136.566 83.9186ZM138.662 83.9186C138.662 84.7679 138.55 85.5533 138.326 86.2733C138.103 86.9933 137.775 87.6119 137.345 88.1306C136.911 88.6493 136.382 89.0519 135.757 89.3399C135.13 89.6279 134.413 89.7719 133.607 89.7719C132.959 89.7719 132.386 89.6853 131.89 89.5133C131.393 89.3399 131.022 89.1746 130.778 89.0159V93.5093H128.769V78.6266C129.243 78.5119 129.838 78.3853 130.55 78.2479C131.263 78.1119 132.087 78.0439 133.023 78.0439C133.887 78.0439 134.666 78.1799 135.357 78.4533C136.047 78.7266 136.638 79.1159 137.127 79.6199C137.618 80.1239 137.995 80.7399 138.262 81.4666C138.529 82.1933 138.662 83.0119 138.662 83.9186Z" fill="#231F20"/>
<path d="M148.467 82.558C148.482 81.65 148.255 80.906 147.787 80.322C147.319 79.7394 146.675 79.4474 145.854 79.4474C145.393 79.4474 144.986 79.538 144.634 79.718C144.281 79.898 143.982 80.1314 143.738 80.4194C143.493 80.7074 143.302 81.038 143.165 81.4127C143.027 81.7874 142.938 82.1687 142.895 82.558H148.467ZM140.757 83.6594C140.757 82.666 140.901 81.798 141.189 81.0567C141.477 80.3154 141.858 79.6994 142.333 79.21C142.809 78.7207 143.355 78.354 143.975 78.1087C144.594 77.8634 145.227 77.7407 145.875 77.7407C147.387 77.7407 148.547 78.2127 149.354 79.1554C150.159 80.0994 150.563 81.5354 150.563 83.4647V83.8007C150.563 83.9367 150.555 84.062 150.542 84.178H142.851C142.938 85.3447 143.277 86.23 143.867 86.8354C144.457 87.4394 145.379 87.742 146.631 87.742C147.337 87.742 147.931 87.6807 148.414 87.558C148.895 87.4367 149.259 87.3167 149.505 87.202L149.785 88.8874C149.541 89.0167 149.111 89.1527 148.499 89.2967C147.887 89.442 147.193 89.5127 146.415 89.5127C145.437 89.5127 144.59 89.3647 143.878 89.07C143.165 88.7754 142.578 88.3687 142.117 87.85C141.657 87.3314 141.314 86.7167 141.091 86.0034C140.867 85.29 140.757 84.5087 140.757 83.6594Z" fill="#231F20"/>
<path d="M154.342 76.2507C153.982 76.2507 153.676 76.132 153.424 75.8947C153.172 75.6573 153.046 75.336 153.046 74.9333C153.046 74.5307 153.172 74.2093 153.424 73.972C153.676 73.7347 153.982 73.6147 154.342 73.6147C154.702 73.6147 155.008 73.7347 155.26 73.972C155.512 74.2093 155.638 74.5307 155.638 74.9333C155.638 75.336 155.512 75.6573 155.26 75.8947C155.008 76.132 154.702 76.2507 154.342 76.2507ZM151.513 93.552C151.34 93.552 151.117 93.5307 150.844 93.488C150.57 93.444 150.34 93.3867 150.152 93.3147L150.412 91.6733C150.556 91.716 150.721 91.752 150.908 91.7813C151.096 91.8093 151.268 91.824 151.426 91.824C152.117 91.824 152.61 91.612 152.906 91.1867C153.201 90.7627 153.349 90.14 153.349 89.3187V78.2813H155.358V89.2973C155.358 90.7373 155.03 91.8067 154.374 92.504C153.72 93.2027 152.765 93.552 151.513 93.552Z" fill="#231F20"/>
<path d="M161.32 87.8068C162.14 87.8068 162.749 87.6988 163.145 87.4828C163.54 87.2668 163.738 86.9214 163.738 86.4454C163.738 85.9561 163.544 85.5681 163.156 85.2788C162.766 84.9921 162.125 84.6668 161.233 84.3068C160.801 84.1348 160.386 83.9588 159.99 83.7788C159.594 83.5988 159.253 83.3854 158.965 83.1414C158.677 82.8961 158.446 82.6014 158.274 82.2548C158.101 81.9094 158.014 81.4854 158.014 80.9814C158.014 79.9881 158.382 79.1988 159.117 78.6161C159.85 78.0321 160.852 77.7414 162.118 77.7414C162.436 77.7414 162.752 77.7588 163.069 77.7948C163.385 77.8308 163.681 77.8748 163.954 77.9241C164.228 77.9748 164.469 78.0294 164.678 78.0868C164.886 78.1441 165.049 78.1948 165.164 78.2374L164.797 79.9668C164.581 79.8508 164.242 79.7321 163.782 79.6094C163.321 79.4868 162.766 79.4254 162.118 79.4254C161.557 79.4254 161.068 79.5374 160.649 79.7601C160.232 79.9841 160.024 80.3334 160.024 80.8081C160.024 81.0534 160.07 81.2694 160.164 81.4561C160.257 81.6428 160.401 81.8121 160.596 81.9641C160.79 82.1148 161.032 82.2548 161.32 82.3854C161.608 82.5148 161.953 82.6521 162.356 82.7961C162.889 82.9974 163.364 83.1948 163.782 83.3894C164.2 83.5841 164.556 83.8108 164.85 84.0694C165.146 84.3294 165.373 84.6414 165.532 85.0094C165.689 85.3761 165.769 85.8268 165.769 86.3588C165.769 87.3961 165.384 88.1814 164.613 88.7134C163.844 89.2468 162.745 89.5134 161.32 89.5134C160.326 89.5134 159.548 89.4308 158.988 89.2641C158.425 89.0988 158.044 88.9734 157.842 88.8868L158.209 87.1588C158.44 87.2454 158.806 87.3748 159.31 87.5481C159.814 87.7201 160.485 87.8068 161.32 87.8068Z" fill="#231F20"/>
<path d="M172.292 83.3354C172.724 83.666 173.182 84.078 173.663 84.566C174.146 85.0567 174.622 85.5847 175.09 86.154C175.558 86.7234 176 87.2994 176.418 87.882C176.835 88.466 177.188 89.0087 177.476 89.5127H175.122C174.819 89.0087 174.47 88.494 174.074 87.9687C173.678 87.4434 173.264 86.9394 172.832 86.4567C172.4 85.974 171.96 85.5314 171.515 85.1287C171.068 84.7247 170.643 84.386 170.24 84.1127V89.5127H168.231V73.0967L170.24 72.7514V82.99C170.586 82.6447 170.967 82.2634 171.384 81.8447C171.802 81.4274 172.212 81.002 172.616 80.57C173.019 80.138 173.402 79.7247 173.762 79.3287C174.12 78.9327 174.431 78.5834 174.69 78.2807H177.044C176.712 78.6407 176.352 79.0367 175.964 79.4687C175.575 79.9007 175.172 80.3367 174.755 80.7754C174.336 81.2154 173.915 81.654 173.491 82.0927C173.066 82.5327 172.667 82.946 172.292 83.3354Z" fill="#231F20"/>
<path d="M181.408 89.5134H179.399V78.2814H181.408V89.5134ZM180.392 76.2508C180.032 76.2508 179.725 76.1308 179.473 75.8948C179.221 75.6574 179.096 75.3361 179.096 74.9334C179.096 74.5294 179.221 74.2094 179.473 73.9721C179.725 73.7348 180.032 73.6148 180.392 73.6148C180.752 73.6148 181.057 73.7348 181.309 73.9721C181.561 74.2094 181.688 74.5294 181.688 74.9334C181.688 75.3361 181.561 75.6574 181.309 75.8948C181.057 76.1308 180.752 76.2508 180.392 76.2508Z" fill="#231F20"/>
<path d="M189.765 89.5129V74.5436H198.795V76.3369H191.861V80.8516H198.017V82.6223H191.861V89.5129H189.765Z" fill="#231F20"/>
<path d="M209.53 88.9511C209.069 89.0671 208.461 89.1885 207.705 89.3178C206.949 89.4471 206.074 89.5125 205.081 89.5125C204.217 89.5125 203.489 89.3871 202.898 89.1351C202.307 88.8831 201.833 88.5271 201.473 88.0658C201.113 87.6045 200.854 87.0605 200.695 86.4351C200.537 85.8085 200.458 85.1138 200.458 84.3511V78.0431H202.467V83.9191C202.467 85.2871 202.682 86.2658 203.115 86.8565C203.547 87.4471 204.274 87.7418 205.297 87.7418C205.513 87.7418 205.735 87.7351 205.966 87.7205C206.195 87.7058 206.413 87.6871 206.614 87.6658C206.815 87.6445 206.999 87.6231 207.165 87.6018C207.33 87.5805 207.449 87.5551 207.521 87.5258V78.0431H209.53V88.9511Z" fill="#231F20"/>
<path d="M212.877 78.6047C213.339 78.49 213.951 78.3674 214.713 78.238C215.476 78.1087 216.355 78.0434 217.349 78.0434C218.241 78.0434 218.983 78.17 219.573 78.4207C220.164 78.674 220.635 79.026 220.988 79.4794C221.341 79.934 221.589 80.4767 221.733 81.11C221.877 81.7447 221.949 82.442 221.949 83.206V89.5127H219.94V83.638C219.94 82.946 219.893 82.3567 219.8 81.866C219.707 81.3767 219.552 80.9807 219.336 80.678C219.12 80.3767 218.832 80.1567 218.472 80.0194C218.112 79.8834 217.665 79.814 217.132 79.814C216.916 79.814 216.693 79.822 216.463 79.8354C216.233 79.8514 216.013 79.8687 215.804 79.89C215.596 79.9114 215.408 79.9367 215.243 79.966C215.077 79.9954 214.959 80.0167 214.887 80.03V89.5127H212.877V78.6047Z" fill="#231F20"/>
<path d="M232.425 80.3977C232.18 80.1963 231.828 80.0017 231.366 79.815C230.905 79.627 230.401 79.5337 229.854 79.5337C229.278 79.5337 228.785 79.639 228.374 79.847C227.965 80.0563 227.629 80.343 227.37 80.711C227.112 81.0777 226.924 81.5137 226.809 82.0177C226.693 82.5217 226.636 83.0617 226.636 83.6377C226.636 84.9483 226.96 85.959 227.608 86.6723C228.257 87.3857 229.12 87.7417 230.2 87.7417C230.748 87.7417 231.204 87.7163 231.572 87.6657C231.938 87.6163 232.224 87.5617 232.425 87.5043V80.3977ZM232.425 72.8377L234.433 72.4923V88.9297C233.973 89.059 233.382 89.1883 232.662 89.3177C231.942 89.4483 231.114 89.5137 230.178 89.5137C229.314 89.5137 228.537 89.3763 227.845 89.103C227.154 88.8297 226.564 88.4403 226.074 87.9363C225.585 87.4323 225.206 86.8163 224.941 86.0897C224.673 85.363 224.541 84.5443 224.541 83.6377C224.541 82.7737 224.652 81.9817 224.876 81.2617C225.098 80.5417 225.426 79.923 225.858 79.4043C226.29 78.8857 226.82 78.483 227.446 78.195C228.073 77.907 228.789 77.7617 229.596 77.7617C230.244 77.7617 230.816 77.8483 231.312 78.0217C231.809 78.195 232.18 78.3603 232.425 78.519V72.8377Z" fill="#231F20"/>
<path d="M246.725 88.9511C246.263 89.0671 245.655 89.1885 244.899 89.3178C244.143 89.4471 243.269 89.5125 242.275 89.5125C241.411 89.5125 240.683 89.3871 240.093 89.1351C239.503 88.8831 239.027 88.5271 238.667 88.0658C238.307 87.6045 238.049 87.0605 237.89 86.4351C237.731 85.8085 237.653 85.1138 237.653 84.3511V78.0431H239.662V83.9191C239.662 85.2871 239.877 86.2658 240.31 86.8565C240.742 87.4471 241.469 87.7418 242.491 87.7418C242.707 87.7418 242.93 87.7351 243.161 87.7205C243.39 87.7058 243.607 87.6871 243.809 87.6658C244.01 87.6445 244.194 87.6231 244.359 87.6018C244.525 87.5805 244.643 87.5551 244.715 87.5258V78.0431H246.725V88.9511Z" fill="#231F20"/>
<path d="M252.685 87.8068C253.505 87.8068 254.115 87.6988 254.511 87.4828C254.905 87.2668 255.104 86.9214 255.104 86.4454C255.104 85.9561 254.909 85.5681 254.521 85.2788C254.132 84.9921 253.492 84.6668 252.599 84.3068C252.167 84.1348 251.752 83.9588 251.356 83.7788C250.96 83.5988 250.619 83.3854 250.331 83.1414C250.043 82.8961 249.812 82.6014 249.64 82.2548C249.467 81.9094 249.38 81.4854 249.38 80.9814C249.38 79.9881 249.748 79.1988 250.483 78.6161C251.216 78.0321 252.217 77.7414 253.484 77.7414C253.801 77.7414 254.117 77.7588 254.435 77.7948C254.751 77.8308 255.047 77.8748 255.32 77.9241C255.593 77.9748 255.835 78.0294 256.044 78.0868C256.252 78.1441 256.415 78.1948 256.529 78.2374L256.163 79.9668C255.947 79.8508 255.608 79.7321 255.148 79.6094C254.687 79.4868 254.132 79.4254 253.484 79.4254C252.923 79.4254 252.433 79.5374 252.015 79.7601C251.597 79.9841 251.389 80.3334 251.389 80.8081C251.389 81.0534 251.436 81.2694 251.529 81.4561C251.623 81.6428 251.768 81.8121 251.961 81.9641C252.156 82.1148 252.397 82.2548 252.685 82.3854C252.973 82.5148 253.319 82.6521 253.721 82.7961C254.255 82.9974 254.729 83.1948 255.148 83.3894C255.565 83.5841 255.921 83.8108 256.216 84.0694C256.512 84.3294 256.739 84.6414 256.897 85.0094C257.055 85.3761 257.135 85.8268 257.135 86.3588C257.135 87.3961 256.749 88.1814 255.979 88.7134C255.209 89.2468 254.111 89.5134 252.685 89.5134C251.692 89.5134 250.913 89.4308 250.353 89.2641C249.791 89.0988 249.409 88.9734 249.208 88.8868L249.575 87.1588C249.805 87.2454 250.172 87.3748 250.676 87.5481C251.18 87.7201 251.851 87.8068 252.685 87.8068Z" fill="#231F20"/>
<path d="M267.049 79.7929C266.747 80.1249 266.348 80.5929 265.851 81.1969C265.355 81.8023 264.821 82.4716 264.252 83.2063C263.684 83.9396 263.115 84.7103 262.547 85.5169C261.977 86.3236 261.477 87.0943 261.045 87.8276H267.223V89.5129H258.647V88.1743C258.993 87.5409 259.417 86.8423 259.921 86.0783C260.425 85.3156 260.955 84.5556 261.509 83.7996C262.064 83.0436 262.604 82.3303 263.129 81.6609C263.655 80.9916 264.112 80.4276 264.501 79.9663H258.949V78.2809H267.049V79.7929Z" fill="#231F20"/>
<path d="M52.2831 102.696C51.3911 102.696 50.7058 102.717 50.2325 102.76V108.399H51.7218C52.4418 108.399 53.0898 108.363 53.6658 108.291C54.2418 108.219 54.7285 108.081 55.1231 107.88C55.5191 107.679 55.8258 107.393 56.0418 107.027C56.2578 106.66 56.3658 106.173 56.3658 105.568C56.3658 105.007 56.2578 104.539 56.0418 104.165C55.8258 103.791 55.5351 103.495 55.1671 103.279C54.8005 103.063 54.3685 102.912 53.8711 102.825C53.3738 102.739 52.8445 102.696 52.2831 102.696ZM55.4578 109.716C55.6885 110.004 55.9805 110.383 56.3338 110.849C56.6858 111.317 57.0498 111.836 57.4245 112.405C57.7991 112.973 58.1698 113.568 58.5365 114.187C58.9031 114.807 59.2165 115.404 59.4765 115.98H57.1871C56.8991 115.433 56.5858 114.879 56.2471 114.316C55.9085 113.755 55.5658 113.219 55.2218 112.708C54.8751 112.197 54.5325 111.717 54.1951 111.271C53.8565 110.825 53.5498 110.436 53.2778 110.105C53.0898 110.119 52.8991 110.127 52.7045 110.127H52.1111H50.2325V115.98H48.1365V101.227C48.7271 101.083 49.3858 100.987 50.1125 100.936C50.8405 100.885 51.5058 100.86 52.1111 100.86C54.2125 100.86 55.8151 101.256 56.9165 102.048C58.0178 102.84 58.5685 104.021 58.5685 105.591C58.5685 106.584 58.3058 107.433 57.7805 108.14C57.2551 108.845 56.4818 109.371 55.4578 109.716Z" fill="#231F20"/>
<path d="M69.304 110.105C69.304 108.838 69.02 107.833 68.4506 107.091C67.8826 106.35 67.108 105.979 66.1293 105.979C65.1493 105.979 64.376 106.35 63.8066 107.091C63.2386 107.833 62.9533 108.838 62.9533 110.105C62.9533 111.371 63.2386 112.377 63.8066 113.118C64.376 113.859 65.1493 114.23 66.1293 114.23C67.108 114.23 67.8826 113.859 68.4506 113.118C69.02 112.377 69.304 111.371 69.304 110.105ZM71.4 110.105C71.4 110.997 71.2706 111.803 71.0106 112.523C70.7506 113.243 70.388 113.863 69.92 114.381C69.452 114.899 68.8933 115.299 68.2466 115.579C67.5973 115.861 66.892 116.001 66.1293 116.001C65.3653 116.001 64.66 115.861 64.012 115.579C63.364 115.299 62.8053 114.899 62.3386 114.381C61.8706 113.863 61.5066 113.243 61.248 112.523C60.988 111.803 60.8586 110.997 60.8586 110.105C60.8586 109.226 60.988 108.423 61.248 107.695C61.5066 106.969 61.8706 106.346 62.3386 105.827C62.8053 105.309 63.364 104.91 64.012 104.629C64.66 104.349 65.3653 104.207 66.1293 104.207C66.892 104.207 67.5973 104.349 68.2466 104.629C68.8933 104.91 69.452 105.309 69.92 105.827C70.388 106.346 70.7506 106.969 71.0106 107.695C71.2706 108.423 71.4 109.226 71.4 110.105Z" fill="#231F20"/>
<path d="M81.1405 106.26C80.8378 106.592 80.4391 107.06 79.9418 107.664C79.4458 108.269 78.9125 108.938 78.3431 109.673C77.7751 110.406 77.2058 111.177 76.6378 111.984C76.0685 112.79 75.5685 113.561 75.1365 114.294H81.3138V115.98H72.7378V114.641C73.0831 114.008 73.5085 113.309 74.0125 112.545C74.5165 111.782 75.0458 111.022 75.6005 110.266C76.1551 109.51 76.6938 108.797 77.2205 108.128C77.7458 107.458 78.2031 106.894 78.5925 106.433H73.0405V104.748H81.1405V106.26Z" fill="#231F20"/>
<path d="M92.9348 115.98C92.5308 114.942 92.1028 113.758 91.6495 112.426C91.1961 111.094 90.7815 109.709 90.4068 108.269C90.0321 109.709 89.6228 111.094 89.1761 112.426C88.7295 113.758 88.3041 114.942 87.9015 115.98H86.1521C85.4895 114.497 84.8415 112.805 84.2081 110.904C83.5735 109.004 82.9775 106.952 82.4148 104.748H84.5748C84.7188 105.425 84.8921 106.16 85.0935 106.952C85.2948 107.742 85.5081 108.536 85.7308 109.326C85.9548 110.118 86.1881 110.882 86.4321 111.616C86.6775 112.35 86.9081 112.992 87.1241 113.538C87.3695 112.862 87.6095 112.145 87.8481 111.39C88.0855 110.634 88.3121 109.87 88.5281 109.1C88.7441 108.33 88.9495 107.574 89.1441 106.832C89.3388 106.09 89.5068 105.396 89.6521 104.748H91.3148C91.4441 105.396 91.6028 106.09 91.7895 106.832C91.9761 107.574 92.1788 108.33 92.3948 109.1C92.6108 109.87 92.8375 110.634 93.0748 111.39C93.3121 112.145 93.5535 112.862 93.7988 113.538C94.0148 112.992 94.2415 112.35 94.4788 111.616C94.7161 110.882 94.9508 110.118 95.1815 109.326C95.4108 108.536 95.6268 107.742 95.8281 106.952C96.0308 106.16 96.2028 105.425 96.3481 104.748H98.4215C97.8588 106.952 97.2615 109.004 96.6281 110.904C95.9948 112.805 95.3468 114.497 94.6841 115.98H92.9348Z" fill="#231F20"/>
<path d="M107.99 110.105C107.99 108.838 107.706 107.833 107.136 107.091C106.568 106.35 105.794 105.979 104.815 105.979C103.835 105.979 103.062 106.35 102.492 107.091C101.924 107.833 101.639 108.838 101.639 110.105C101.639 111.371 101.924 112.377 102.492 113.118C103.062 113.859 103.835 114.23 104.815 114.23C105.794 114.23 106.568 113.859 107.136 113.118C107.706 112.377 107.99 111.371 107.99 110.105ZM110.086 110.105C110.086 110.997 109.956 111.803 109.696 112.523C109.436 113.243 109.074 113.863 108.606 114.381C108.138 114.899 107.579 115.299 106.932 115.579C106.283 115.861 105.578 116.001 104.815 116.001C104.051 116.001 103.346 115.861 102.698 115.579C102.05 115.299 101.491 114.899 101.024 114.381C100.556 113.863 100.192 113.243 99.9322 112.523C99.6735 111.803 99.5442 110.997 99.5442 110.105C99.5442 109.226 99.6735 108.423 99.9322 107.695C100.192 106.969 100.556 106.346 101.024 105.827C101.491 105.309 102.05 104.91 102.698 104.629C103.346 104.349 104.051 104.207 104.815 104.207C105.578 104.207 106.283 104.349 106.932 104.629C107.579 104.91 108.138 105.309 108.606 105.827C109.074 106.346 109.436 106.969 109.696 107.695C109.956 108.423 110.086 109.226 110.086 110.105Z" fill="#231F20"/>
<path d="M113.8 102.717C113.44 102.717 113.135 102.599 112.881 102.361C112.631 102.124 112.504 101.803 112.504 101.4C112.504 100.997 112.631 100.676 112.881 100.439C113.135 100.201 113.44 100.081 113.8 100.081C114.16 100.081 114.465 100.201 114.717 100.439C114.971 100.676 115.096 100.997 115.096 101.4C115.096 101.803 114.971 102.124 114.717 102.361C114.465 102.599 114.16 102.717 113.8 102.717ZM110.971 120.019C110.799 120.019 110.575 119.997 110.301 119.955C110.028 119.911 109.797 119.853 109.609 119.781L109.869 118.14C110.013 118.183 110.179 118.219 110.365 118.248C110.553 118.276 110.725 118.291 110.884 118.291C111.576 118.291 112.068 118.079 112.364 117.653C112.659 117.229 112.807 116.607 112.807 115.785V104.748H114.816V115.764C114.816 117.204 114.488 118.273 113.832 118.971C113.177 119.669 112.223 120.019 110.971 120.019Z" fill="#231F20"/>
<path d="M127.105 115.418C126.644 115.534 126.036 115.655 125.28 115.785C124.524 115.914 123.649 115.979 122.656 115.979C121.792 115.979 121.064 115.854 120.473 115.602C119.883 115.35 119.408 114.994 119.048 114.533C118.688 114.071 118.429 113.529 118.271 112.902C118.112 112.275 118.033 111.581 118.033 110.818V104.51H120.043V110.386C120.043 111.754 120.257 112.733 120.689 113.323C121.123 113.914 121.849 114.209 122.872 114.209C123.088 114.209 123.311 114.202 123.541 114.187C123.771 114.173 123.988 114.154 124.189 114.133C124.391 114.111 124.575 114.09 124.74 114.069C124.905 114.047 125.024 114.022 125.096 113.993V104.51H127.105V115.418Z" fill="#231F20"/>
<path d="M139.611 102.696C138.719 102.696 138.034 102.717 137.559 102.76V108.399H139.05C139.77 108.399 140.418 108.363 140.994 108.291C141.57 108.219 142.055 108.081 142.451 107.88C142.847 107.679 143.154 107.393 143.37 107.027C143.586 106.66 143.694 106.173 143.694 105.568C143.694 105.007 143.586 104.539 143.37 104.165C143.154 103.791 142.862 103.495 142.495 103.279C142.129 103.063 141.695 102.912 141.199 102.825C140.702 102.739 140.173 102.696 139.611 102.696ZM142.786 109.716C143.017 110.004 143.309 110.383 143.662 110.849C144.014 111.317 144.378 111.836 144.753 112.405C145.127 112.973 145.498 113.568 145.865 114.187C146.231 114.807 146.545 115.404 146.805 115.98H144.515C144.226 115.433 143.914 114.879 143.575 114.316C143.237 113.755 142.894 113.219 142.55 112.708C142.203 112.197 141.861 111.717 141.523 111.271C141.185 110.825 140.878 110.436 140.606 110.105C140.418 110.119 140.227 110.127 140.033 110.127H139.439H137.559V115.98H135.465V101.227C136.055 101.083 136.714 100.987 137.441 100.936C138.167 100.885 138.834 100.86 139.439 100.86C141.541 100.86 143.143 101.256 144.245 102.048C145.346 102.84 145.897 104.021 145.897 105.591C145.897 106.584 145.634 107.433 145.109 108.14C144.583 108.845 143.809 109.371 142.786 109.716Z" fill="#231F20"/>
<path d="M155.897 109.025C155.912 108.117 155.685 107.373 155.217 106.789C154.749 106.206 154.105 105.914 153.284 105.914C152.822 105.914 152.416 106.005 152.062 106.185C151.71 106.365 151.412 106.598 151.168 106.886C150.921 107.174 150.73 107.505 150.594 107.879C150.457 108.254 150.368 108.635 150.325 109.025H155.897ZM148.186 110.126C148.186 109.133 148.33 108.265 148.618 107.523C148.906 106.782 149.288 106.166 149.762 105.677C150.238 105.187 150.785 104.821 151.405 104.575C152.024 104.33 152.657 104.207 153.305 104.207C154.817 104.207 155.976 104.679 156.782 105.622C157.589 106.566 157.993 108.002 157.993 109.931V110.267C157.993 110.403 157.985 110.529 157.972 110.645H150.281C150.368 111.811 150.705 112.697 151.297 113.302C151.886 113.906 152.809 114.209 154.061 114.209C154.766 114.209 155.361 114.147 155.844 114.025C156.325 113.903 156.689 113.783 156.934 113.669L157.214 115.354C156.97 115.483 156.541 115.619 155.929 115.763C155.317 115.909 154.622 115.979 153.845 115.979C152.866 115.979 152.02 115.831 151.308 115.537C150.594 115.242 150.008 114.835 149.546 114.317C149.086 113.798 148.744 113.183 148.521 112.47C148.297 111.757 148.186 110.975 148.186 110.126Z" fill="#231F20"/>
<path d="M167.799 106.519C167.597 106.462 167.327 106.408 166.989 106.356C166.651 106.307 166.193 106.282 165.617 106.282C164.537 106.282 163.705 106.635 163.123 107.34C162.539 108.046 162.248 108.982 162.248 110.148C162.248 110.796 162.329 111.351 162.496 111.811C162.661 112.272 162.884 112.654 163.165 112.956C163.447 113.259 163.771 113.482 164.137 113.626C164.504 113.77 164.883 113.842 165.272 113.842C165.804 113.842 166.293 113.766 166.74 113.615C167.187 113.463 167.54 113.287 167.799 113.086V106.519ZM167.82 114.856C167.648 114.972 167.312 115.12 166.816 115.299C166.319 115.48 165.74 115.57 165.077 115.57C164.4 115.57 163.763 115.462 163.165 115.246C162.568 115.03 162.045 114.695 161.6 114.242C161.153 113.787 160.8 113.223 160.541 112.546C160.281 111.868 160.152 111.063 160.152 110.127C160.152 109.306 160.275 108.554 160.52 107.87C160.764 107.186 161.12 106.595 161.588 106.098C162.056 105.602 162.629 105.212 163.305 104.931C163.983 104.651 164.745 104.511 165.596 104.511C166.531 104.511 167.348 104.579 168.047 104.715C168.745 104.852 169.332 104.979 169.807 105.094V115.116C169.807 116.844 169.361 118.096 168.468 118.875C167.576 119.652 166.221 120.04 164.408 120.04C163.701 120.04 163.036 119.983 162.409 119.868C161.783 119.752 161.24 119.616 160.779 119.458L161.145 117.708C161.549 117.866 162.043 118.007 162.625 118.13C163.209 118.251 163.817 118.312 164.451 118.312C165.645 118.312 166.505 118.075 167.032 117.6C167.557 117.124 167.82 116.368 167.82 115.332V114.856Z" fill="#231F20"/>
<path d="M175.165 115.98H173.156V104.748H175.165V115.98ZM174.149 102.717C173.789 102.717 173.483 102.599 173.231 102.361C172.979 102.124 172.853 101.803 172.853 101.4C172.853 100.996 172.979 100.676 173.231 100.439C173.483 100.201 173.789 100.081 174.149 100.081C174.509 100.081 174.815 100.201 175.067 100.439C175.319 100.676 175.445 100.996 175.445 101.4C175.445 101.803 175.319 102.124 175.067 102.361C174.815 102.599 174.509 102.717 174.149 102.717Z" fill="#231F20"/>
<path d="M186.331 110.105C186.331 108.838 186.047 107.833 185.478 107.091C184.91 106.35 184.135 105.979 183.157 105.979C182.177 105.979 181.403 106.35 180.834 107.091C180.266 107.833 179.981 108.838 179.981 110.105C179.981 111.371 180.266 112.377 180.834 113.118C181.403 113.859 182.177 114.23 183.157 114.23C184.135 114.23 184.91 113.859 185.478 113.118C186.047 112.377 186.331 111.371 186.331 110.105ZM188.427 110.105C188.427 110.997 188.298 111.803 188.038 112.523C187.778 113.243 187.415 113.863 186.947 114.381C186.479 114.899 185.921 115.299 185.273 115.579C184.625 115.861 183.919 116.001 183.157 116.001C182.393 116.001 181.687 115.861 181.039 115.579C180.391 115.299 179.833 114.899 179.366 114.381C178.898 113.863 178.534 113.243 178.274 112.523C178.015 111.803 177.886 110.997 177.886 110.105C177.886 109.226 178.015 108.423 178.274 107.695C178.534 106.969 178.898 106.346 179.366 105.827C179.833 105.309 180.391 104.91 181.039 104.629C181.687 104.349 182.393 104.207 183.157 104.207C183.919 104.207 184.625 104.349 185.273 104.629C185.921 104.91 186.479 105.309 186.947 105.827C187.415 106.346 187.778 106.969 188.038 107.695C188.298 108.423 188.427 109.226 188.427 110.105Z" fill="#231F20"/>
<path d="M191.148 105.071C191.609 104.957 192.221 104.834 192.984 104.705C193.746 104.574 194.625 104.51 195.62 104.51C196.512 104.51 197.253 104.637 197.844 104.887C198.434 105.141 198.905 105.493 199.258 105.946C199.612 106.401 199.86 106.943 200.004 107.577C200.148 108.21 200.22 108.909 200.22 109.673V115.979H198.21V110.105C198.21 109.413 198.164 108.822 198.07 108.333C197.977 107.843 197.822 107.447 197.606 107.145C197.39 106.843 197.102 106.623 196.742 106.486C196.382 106.349 195.936 106.281 195.402 106.281C195.186 106.281 194.964 106.289 194.733 106.302C194.504 106.318 194.284 106.335 194.074 106.357C193.866 106.378 193.678 106.403 193.513 106.433C193.348 106.461 193.229 106.483 193.157 106.497V115.979H191.148V105.071Z" fill="#231F20"/>
<path d="M207.239 114.316C207.715 114.316 208.135 114.306 208.503 114.284C208.87 114.263 209.177 114.223 209.421 114.166V110.818C209.277 110.746 209.043 110.684 208.719 110.634C208.395 110.583 208.003 110.558 207.542 110.558C207.239 110.558 206.919 110.58 206.581 110.623C206.243 110.666 205.933 110.756 205.653 110.894C205.371 111.03 205.137 111.216 204.95 111.455C204.763 111.692 204.669 112.006 204.669 112.395C204.669 113.115 204.899 113.615 205.361 113.895C205.822 114.176 206.447 114.316 207.239 114.316ZM207.067 104.251C207.874 104.251 208.554 104.355 209.107 104.564C209.662 104.774 210.109 105.068 210.447 105.45C210.786 105.831 211.026 106.286 211.171 106.811C211.315 107.336 211.387 107.916 211.387 108.55V115.57C211.214 115.598 210.973 115.638 210.663 115.688C210.354 115.739 210.005 115.786 209.615 115.828C209.227 115.872 208.806 115.911 208.353 115.947C207.898 115.983 207.449 116.002 207.002 116.002C206.369 116.002 205.785 115.936 205.253 115.807C204.719 115.678 204.259 115.472 203.87 115.191C203.482 114.911 203.179 114.54 202.963 114.079C202.747 113.619 202.639 113.064 202.639 112.416C202.639 111.796 202.765 111.263 203.017 110.818C203.269 110.371 203.611 110.011 204.043 109.738C204.475 109.464 204.979 109.263 205.555 109.132C206.131 109.003 206.735 108.938 207.37 108.938C207.571 108.938 207.779 108.95 207.995 108.971C208.211 108.992 208.417 109.022 208.611 109.058C208.806 109.094 208.975 109.126 209.119 109.154C209.263 109.183 209.363 109.206 209.421 109.219V108.658C209.421 108.326 209.385 107.999 209.314 107.675C209.242 107.351 209.111 107.063 208.925 106.811C208.738 106.559 208.482 106.356 208.158 106.206C207.834 106.055 207.413 105.979 206.894 105.979C206.231 105.979 205.653 106.026 205.155 106.119C204.658 106.214 204.287 106.311 204.043 106.411L203.805 104.748C204.065 104.632 204.497 104.52 205.101 104.412C205.706 104.306 206.361 104.251 207.067 104.251Z" fill="#231F20"/>
<path d="M217.975 115.98C216.736 115.952 215.859 115.685 215.339 115.18C214.821 114.676 214.561 113.892 214.561 112.826V99.3477L216.571 99.0024V112.502C216.571 112.833 216.599 113.106 216.657 113.322C216.715 113.538 216.808 113.712 216.937 113.841C217.067 113.97 217.24 114.068 217.456 114.133C217.672 114.197 217.939 114.252 218.255 114.294L217.975 115.98Z" fill="#231F20"/>
<path d="M220.394 105.071C220.855 104.957 221.467 104.834 222.23 104.705C222.992 104.574 223.871 104.51 224.866 104.51C225.758 104.51 226.499 104.637 227.09 104.887C227.68 105.141 228.151 105.493 228.504 105.946C228.858 106.401 229.106 106.943 229.25 107.577C229.394 108.21 229.466 108.909 229.466 109.673V115.979H227.456V110.105C227.456 109.413 227.41 108.822 227.316 108.333C227.223 107.843 227.068 107.447 226.852 107.145C226.636 106.843 226.348 106.623 225.988 106.486C225.628 106.349 225.182 106.281 224.648 106.281C224.432 106.281 224.21 106.289 223.979 106.302C223.75 106.318 223.53 106.335 223.32 106.357C223.112 106.378 222.924 106.403 222.759 106.433C222.594 106.461 222.475 106.483 222.403 106.497V115.979H220.394V105.071Z" fill="#231F20"/>
<path d="M239.769 109.025C239.783 108.117 239.557 107.373 239.089 106.789C238.621 106.206 237.977 105.914 237.155 105.914C236.694 105.914 236.287 106.005 235.934 106.185C235.582 106.365 235.283 106.598 235.039 106.886C234.793 107.174 234.603 107.505 234.466 107.879C234.329 108.254 234.239 108.635 234.197 109.025H239.769ZM232.058 110.126C232.058 109.133 232.202 108.265 232.49 107.523C232.778 106.782 233.159 106.166 233.634 105.677C234.11 105.187 234.657 104.821 235.277 104.575C235.895 104.33 236.529 104.207 237.177 104.207C238.689 104.207 239.849 104.679 240.655 105.622C241.461 106.566 241.865 108.002 241.865 109.931V110.267C241.865 110.403 241.857 110.529 241.843 110.645H234.153C234.239 111.811 234.577 112.697 235.169 113.302C235.758 113.906 236.681 114.209 237.933 114.209C238.638 114.209 239.233 114.147 239.715 114.025C240.197 113.903 240.561 113.783 240.806 113.669L241.086 115.354C240.842 115.483 240.413 115.619 239.801 115.763C239.189 115.909 238.494 115.979 237.717 115.979C236.738 115.979 235.891 115.831 235.179 115.537C234.466 115.242 233.879 114.835 233.418 114.317C232.958 113.798 232.615 113.183 232.393 112.47C232.169 111.757 232.058 110.975 232.058 110.126Z" fill="#231F20"/>
<path d="M251.671 106.519C251.469 106.462 251.199 106.408 250.861 106.356C250.523 106.307 250.064 106.282 249.489 106.282C248.409 106.282 247.577 106.635 246.995 107.34C246.411 108.046 246.119 108.982 246.119 110.148C246.119 110.796 246.201 111.351 246.368 111.811C246.533 112.272 246.756 112.654 247.037 112.956C247.319 113.259 247.643 113.482 248.009 113.626C248.376 113.77 248.755 113.842 249.143 113.842C249.676 113.842 250.165 113.766 250.612 113.615C251.059 113.463 251.412 113.287 251.671 113.086V106.519ZM251.692 114.856C251.52 114.972 251.184 115.12 250.688 115.299C250.191 115.48 249.612 115.57 248.949 115.57C248.272 115.57 247.635 115.462 247.037 115.246C246.44 115.03 245.917 114.695 245.471 114.242C245.025 113.787 244.672 113.223 244.413 112.546C244.153 111.868 244.024 111.063 244.024 110.127C244.024 109.306 244.147 108.554 244.391 107.87C244.636 107.186 244.992 106.595 245.46 106.098C245.928 105.602 246.5 105.212 247.177 104.931C247.855 104.651 248.617 104.511 249.468 104.511C250.403 104.511 251.22 104.579 251.919 104.715C252.617 104.852 253.204 104.979 253.679 105.094V115.116C253.679 116.844 253.233 118.096 252.34 118.875C251.448 119.652 250.093 120.04 248.279 120.04C247.573 120.04 246.908 119.983 246.281 119.868C245.655 119.752 245.112 119.616 244.651 119.458L245.017 117.708C245.421 117.866 245.915 118.007 246.497 118.13C247.081 118.251 247.689 118.312 248.323 118.312C249.517 118.312 250.377 118.075 250.904 117.6C251.429 117.124 251.692 116.368 251.692 115.332V114.856Z" fill="#231F20"/>
<path d="M264.846 110.105C264.846 108.838 264.562 107.833 263.992 107.091C263.424 106.35 262.65 105.979 261.671 105.979C260.691 105.979 259.918 106.35 259.348 107.091C258.78 107.833 258.495 108.838 258.495 110.105C258.495 111.371 258.78 112.377 259.348 113.118C259.918 113.859 260.691 114.23 261.671 114.23C262.65 114.23 263.424 113.859 263.992 113.118C264.562 112.377 264.846 111.371 264.846 110.105ZM266.942 110.105C266.942 110.997 266.812 111.803 266.552 112.523C266.292 113.243 265.93 113.863 265.462 114.381C264.994 114.899 264.435 115.299 263.787 115.579C263.139 115.861 262.434 116.001 261.671 116.001C260.907 116.001 260.202 115.861 259.554 115.579C258.906 115.299 258.347 114.899 257.88 114.381C257.412 113.863 257.048 113.243 256.79 112.523C256.53 111.803 256.4 110.997 256.4 110.105C256.4 109.226 256.53 108.423 256.79 107.695C257.048 106.969 257.412 106.346 257.88 105.827C258.347 105.309 258.906 104.91 259.554 104.629C260.202 104.349 260.907 104.207 261.671 104.207C262.434 104.207 263.139 104.349 263.787 104.629C264.435 104.91 264.994 105.309 265.462 105.827C265.93 106.346 266.292 106.969 266.552 107.695C266.812 108.423 266.942 109.226 266.942 110.105Z" fill="#231F20"/>
<path d="M39.3768 59.3176C37.8275 59.3176 36.4968 59.0936 35.3835 58.647C34.2701 58.2003 33.3488 57.5723 32.6181 56.7643C31.8861 55.9576 31.3475 55.0083 30.9981 53.9176C30.6488 52.8256 30.4741 51.6256 30.4741 50.3163V36.1443H34.6301V49.9243C34.6301 50.9496 34.7448 51.8283 34.9741 52.559C35.2035 53.2896 35.5315 53.8843 35.9568 54.343C36.3821 54.8003 36.8835 55.139 37.4621 55.3576C38.0408 55.575 38.6888 55.6843 39.4088 55.6843C40.1288 55.6843 40.7848 55.575 41.3741 55.3576C41.9621 55.139 42.4701 54.8003 42.8955 54.343C43.3208 53.8843 43.6488 53.2896 43.8768 52.559C44.1061 51.8283 44.2208 50.9496 44.2208 49.9243V36.1443H48.3768V50.3163C48.3768 51.6256 48.1981 52.8256 47.8381 53.9176C47.4781 55.0083 46.9315 55.9576 46.2008 56.7643C45.4701 57.5723 44.5368 58.2003 43.4035 58.647C42.2675 59.0936 40.9261 59.3176 39.3768 59.3176Z" fill="#231F20"/>
<path d="M53.2544 42.7233C54.0184 42.506 55.0104 42.298 56.2331 42.102C57.4544 41.9047 58.8077 41.8073 60.2917 41.8073C61.6877 41.8073 62.8557 41.998 63.7931 42.3793C64.7317 42.762 65.4797 43.2967 66.0357 43.9833C66.5931 44.67 66.9851 45.5007 67.2144 46.4713C67.4437 47.442 67.5584 48.506 67.5584 49.662V59.2847H63.5971V50.2847C63.5971 49.3673 63.5371 48.5873 63.4171 47.9433C63.2971 47.3007 63.1011 46.7767 62.8277 46.3727C62.5557 45.9687 62.1837 45.6753 61.7157 45.4887C61.2464 45.3047 60.6731 45.2113 59.9971 45.2113C59.4944 45.2113 58.9717 45.2433 58.4264 45.3087C57.8797 45.374 57.4771 45.4287 57.2144 45.4727V59.2847H53.2544V42.7233Z" fill="#231F20"/>
<path d="M76.1986 59.2854H72.2373V42.1681H76.1986V59.2854ZM76.6239 37.1587C76.6239 37.9014 76.3839 38.4907 75.9039 38.9267C75.4239 39.3627 74.8559 39.5814 74.2013 39.5814C73.5253 39.5814 72.9466 39.3627 72.4666 38.9267C71.9866 38.4907 71.7466 37.9014 71.7466 37.1587C71.7466 36.3961 71.9866 35.7961 72.4666 35.3587C72.9466 34.9227 73.5253 34.7041 74.2013 34.7041C74.8559 34.7041 75.4239 34.9227 75.9039 35.3587C76.3839 35.7961 76.6239 36.3961 76.6239 37.1587Z" fill="#231F20"/>
<path d="M87.0644 56.1757C88.2857 56.1757 89.2124 56.1104 89.8457 55.9797V51.593C89.6284 51.5277 89.3111 51.4624 88.8964 51.397C88.4817 51.3317 88.0244 51.2984 87.5217 51.2984C87.0857 51.2984 86.6431 51.3317 86.1964 51.397C85.7497 51.4624 85.3457 51.5824 84.9857 51.757C84.6257 51.9317 84.3364 52.177 84.1177 52.493C83.8991 52.8104 83.7911 53.2077 83.7911 53.6877C83.7911 54.6264 84.0857 55.2757 84.6751 55.6357C85.2644 55.9957 86.0604 56.1757 87.0644 56.1757ZM86.7364 41.4144C88.0457 41.4144 89.1471 41.5784 90.0431 41.905C90.9364 42.2317 91.6511 42.6904 92.1871 43.2797C92.7204 43.869 93.1031 44.5837 93.3324 45.4237C93.5604 46.2637 93.6751 47.1864 93.6751 48.189V58.565C93.0644 58.6957 92.1431 58.8544 90.9097 59.0397C89.6764 59.225 88.2857 59.3184 86.7364 59.3184C85.7111 59.3184 84.7724 59.2197 83.9217 59.0237C83.0711 58.8264 82.3444 58.5104 81.7457 58.0744C81.1457 57.6384 80.6751 57.0704 80.3377 56.373C79.9991 55.6744 79.8311 54.813 79.8311 53.7864C79.8311 52.805 80.0217 51.9757 80.4031 51.2984C80.7844 50.6224 81.3031 50.0717 81.9577 49.6464C82.6124 49.221 83.3697 48.9157 84.2324 48.7304C85.0951 48.5437 85.9951 48.4517 86.9337 48.4517C87.3697 48.4517 87.8271 48.4797 88.3084 48.533C88.7871 48.5877 89.3004 48.6797 89.8457 48.8117V48.157C89.8457 47.6984 89.7911 47.2624 89.6831 46.8477C89.5724 46.433 89.3817 46.0677 89.1097 45.7517C88.8364 45.4344 88.4764 45.189 88.0297 45.0144C87.5817 44.841 87.0204 44.753 86.3444 44.753C85.4271 44.753 84.5871 44.8184 83.8231 44.949C83.0591 45.0797 82.4377 45.233 81.9577 45.4077L81.4671 42.1997C81.9684 42.025 82.7004 41.8504 83.6604 41.6757C84.6204 41.5024 85.6457 41.4144 86.7364 41.4144Z" fill="#231F20"/>
<path d="M105.95 59.2852V36.6025H120.515V40.1052H110.074V45.7012H119.368V49.1385H110.074V55.7838H121.3V59.2852H105.95Z" fill="#231F20"/>
<path d="M138.222 58.4016C137.458 58.5976 136.466 58.8003 135.243 59.007C134.02 59.215 132.679 59.3176 131.218 59.3176C129.843 59.3176 128.691 59.1216 127.764 58.7283C126.836 58.3363 126.095 57.791 125.539 57.0923C124.982 56.3936 124.583 55.559 124.343 54.5883C124.103 53.6176 123.983 52.5536 123.983 51.3976V41.807H127.944V50.775C127.944 52.6083 128.211 53.9176 128.746 54.703C129.28 55.4883 130.214 55.8803 131.544 55.8803C132.024 55.8803 132.532 55.859 133.067 55.8163C133.602 55.7723 133.999 55.7176 134.262 55.6523V41.807H138.222V58.4016Z" fill="#231F20"/>
<path d="M152.82 45.7345C152.492 45.6252 152.04 45.5105 151.461 45.3918C150.882 45.2718 150.212 45.2105 149.449 45.2105C149.012 45.2105 148.548 45.2558 148.057 45.3412C147.566 45.4292 147.222 45.5052 147.026 45.5705V59.2852H143.065V42.9852C143.829 42.7025 144.785 42.4345 145.93 42.1838C147.076 41.9332 148.346 41.8065 149.742 41.8065C150.005 41.8065 150.31 41.8238 150.66 41.8558C151.009 41.8892 151.357 41.9332 151.706 41.9865C152.056 42.0412 152.394 42.1078 152.721 42.1838C153.049 42.2598 153.31 42.3305 153.508 42.3958L152.82 45.7345Z" fill="#231F20"/>
<path d="M167.483 50.2845C167.483 48.5819 167.118 47.2352 166.387 46.2419C165.655 45.2499 164.635 44.7525 163.326 44.7525C162.016 44.7525 160.996 45.2499 160.266 46.2419C159.535 47.2352 159.17 48.5819 159.17 50.2845C159.17 52.0085 159.535 53.3725 160.266 54.3752C160.996 55.3792 162.016 55.8805 163.326 55.8805C164.635 55.8805 165.655 55.3792 166.387 54.3752C167.118 53.3725 167.483 52.0085 167.483 50.2845ZM171.542 50.2845C171.542 51.6379 171.344 52.8699 170.952 53.9832C170.56 55.0952 170.003 56.0445 169.283 56.8299C168.563 57.6152 167.696 58.2272 166.68 58.6632C165.667 59.1005 164.548 59.3179 163.326 59.3179C162.104 59.3179 160.991 59.1005 159.987 58.6632C158.984 58.2272 158.122 57.6152 157.402 56.8299C156.682 56.0445 156.12 55.0952 155.716 53.9832C155.312 52.8699 155.111 51.6379 155.111 50.2845C155.111 48.9312 155.312 47.7045 155.716 46.6019C156.12 45.5005 156.687 44.5565 157.419 43.7712C158.148 42.9845 159.016 42.3792 160.02 41.9539C161.024 41.5285 162.126 41.3152 163.326 41.3152C164.526 41.3152 165.634 41.5285 166.648 41.9539C167.663 42.3792 168.531 42.9845 169.251 43.7712C169.971 44.5565 170.532 45.5005 170.936 46.6019C171.34 47.7045 171.542 48.9312 171.542 50.2845Z" fill="#231F20"/>
<path d="M186.793 50.8081C186.793 49.0401 186.395 47.6668 185.599 46.6841C184.801 45.7014 183.52 45.2108 181.753 45.2108C181.381 45.2108 180.995 45.2268 180.591 45.2601C180.187 45.2934 179.789 45.3641 179.396 45.4734V55.2588C179.745 55.5001 180.209 55.7241 180.788 55.9308C181.365 56.1374 181.983 56.2414 182.636 56.2414C184.077 56.2414 185.129 55.7494 185.796 54.7681C186.461 53.7868 186.793 52.4668 186.793 50.8081ZM190.852 50.7428C190.852 52.0521 190.683 53.2521 190.345 54.3428C190.007 55.4348 189.521 56.3721 188.888 57.1574C188.255 57.9441 187.465 58.5548 186.516 58.9908C185.567 59.4268 184.492 59.6454 183.292 59.6454C182.484 59.6454 181.743 59.5468 181.065 59.3508C180.389 59.1548 179.832 58.9361 179.396 58.6961V65.3401H175.436V42.7241C176.243 42.5054 177.236 42.2988 178.415 42.1014C179.593 41.9054 180.836 41.8068 182.145 41.8068C183.499 41.8068 184.709 42.0148 185.779 42.4294C186.848 42.8441 187.759 43.4388 188.512 44.2134C189.265 44.9881 189.843 45.9254 190.247 47.0281C190.651 48.1294 190.852 49.3681 190.852 50.7428Z" fill="#231F20"/>
<path d="M205.286 48.6477C205.286 48.1024 205.21 47.5837 205.058 47.093C204.905 46.6024 204.681 46.1757 204.386 45.8157C204.091 45.4557 203.731 45.173 203.306 44.965C202.881 44.7584 202.373 44.6544 201.785 44.6544C201.173 44.6544 200.639 44.769 200.181 44.9984C199.722 45.2277 199.334 45.5277 199.018 45.8984C198.702 46.269 198.457 46.6957 198.282 47.1744C198.107 47.6544 197.987 48.1464 197.922 48.6477H205.286ZM193.798 50.4157C193.798 48.909 194.021 47.5904 194.469 46.4544C194.915 45.3197 195.51 44.3757 196.253 43.6237C196.994 42.8704 197.845 42.3037 198.806 41.921C199.766 41.5397 200.747 41.349 201.751 41.349C204.109 41.349 205.946 42.0797 207.266 43.541C208.587 45.0037 209.247 47.1864 209.247 50.0877C209.247 50.3064 209.241 50.5517 209.231 50.8237C209.219 51.097 209.203 51.3424 209.181 51.561H197.889C197.998 52.9357 198.483 53.9997 199.346 54.7517C200.207 55.505 201.457 55.881 203.093 55.881C204.054 55.881 204.931 55.7944 205.729 55.6197C206.525 55.445 207.151 55.2584 207.61 55.0637L208.134 58.3037C207.915 58.413 207.615 58.5277 207.234 58.6464C206.851 58.7664 206.415 58.8757 205.925 58.9744C205.434 59.0717 204.905 59.1544 204.338 59.2197C203.77 59.285 203.191 59.3184 202.602 59.3184C201.097 59.3184 199.787 59.0944 198.675 58.6464C197.562 58.1997 196.646 57.5784 195.926 56.781C195.205 55.985 194.67 55.0464 194.322 53.9664C193.973 52.8864 193.798 51.7024 193.798 50.4157Z" fill="#231F20"/>
<path d="M217.626 37.1595C217.626 37.9008 217.386 38.4901 216.906 38.9261C216.426 39.3635 215.858 39.5808 215.204 39.5808C214.527 39.5808 213.948 39.3635 213.468 38.9261C212.988 38.4901 212.748 37.9008 212.748 37.1595C212.748 36.3955 212.988 35.7955 213.468 35.3581C213.948 34.9221 214.527 34.7048 215.204 34.7048C215.858 34.7048 216.426 34.9221 216.906 35.3581C217.386 35.7955 217.626 36.3955 217.626 37.1595ZM211.047 65.3728C210.763 65.3728 210.366 65.3461 209.852 65.2915C209.34 65.2368 208.887 65.1328 208.494 64.9808L209.018 61.7408C209.498 61.8928 210.076 61.9688 210.752 61.9688C211.668 61.9688 212.312 61.7021 212.683 61.1675C213.054 60.6328 213.239 59.8301 213.239 58.7621V42.1675H217.2V58.8275C217.2 61.0528 216.671 62.6995 215.612 63.7701C214.554 64.8381 213.032 65.3728 211.047 65.3728Z" fill="#231F20"/>
<path d="M226.332 56.045C227.38 56.045 228.143 55.9197 228.623 55.669C229.103 55.4184 229.343 54.9864 229.343 54.3757C229.343 53.809 229.087 53.3397 228.575 52.9677C228.061 52.5984 227.216 52.1944 226.037 51.757C225.317 51.4957 224.657 51.217 224.057 50.9224C223.457 50.6277 222.939 50.285 222.503 49.8917C222.065 49.4984 221.721 49.0237 221.471 48.4677C221.221 47.9117 221.095 47.2304 221.095 46.4224C221.095 44.8504 221.673 43.613 222.831 42.7077C223.987 41.8024 225.557 41.349 227.543 41.349C228.547 41.349 229.507 41.4424 230.423 41.6264C231.34 41.813 232.027 41.993 232.485 42.1677L231.765 45.3744C231.329 45.1784 230.772 44.9984 230.096 44.8344C229.42 44.6704 228.635 44.589 227.74 44.589C226.932 44.589 226.277 44.7264 225.776 44.9984C225.273 45.2717 225.023 45.6917 225.023 46.2584C225.023 46.5424 225.072 46.793 225.169 47.0117C225.268 47.2304 225.437 47.4317 225.677 47.617C225.917 47.8024 226.233 47.9877 226.627 48.173C227.02 48.3584 227.5 48.549 228.067 48.7464C229.004 49.0957 229.801 49.4384 230.456 49.777C231.111 50.1157 231.651 50.497 232.076 50.9224C232.503 51.3477 232.812 51.8344 233.009 52.3797C233.205 52.925 233.304 53.5797 233.304 54.3437C233.304 55.9797 232.699 57.2184 231.487 58.0584C230.276 58.8984 228.547 59.3184 226.3 59.3184C224.793 59.3184 223.583 59.193 222.667 58.941C221.749 58.6904 221.107 58.489 220.735 58.3357L221.423 55.0304C222.012 55.2704 222.716 55.4997 223.533 55.717C224.352 55.9357 225.284 56.045 226.332 56.045Z" fill="#231F20"/>
<path d="M240.765 48.8438C241.268 48.3198 241.801 47.7598 242.369 47.1585C242.937 46.5585 243.493 45.9585 244.039 45.3585C244.584 44.7585 245.103 44.1798 245.593 43.6238C246.084 43.0678 246.504 42.5825 246.853 42.1678H251.535C250.443 43.3892 249.292 44.6545 248.081 45.9638C246.869 47.2732 245.653 48.5492 244.432 49.7932C245.087 50.3398 245.773 50.9998 246.493 51.7732C247.213 52.5478 247.912 53.3732 248.588 54.2452C249.264 55.1185 249.897 55.9905 250.487 56.8638C251.076 57.7358 251.567 58.5438 251.96 59.2852H247.377C246.984 58.6092 246.531 57.8998 246.019 57.1572C245.505 56.4158 244.955 55.6958 244.367 54.9972C243.777 54.2998 243.176 53.6398 242.565 53.0172C241.955 52.3958 241.355 51.8665 240.765 51.4305V59.2852H236.805V37.2572L240.765 36.6025V48.8438Z" fill="#231F20"/>
<path d="M260.666 56.1757C261.887 56.1757 262.814 56.1104 263.449 55.9797V51.593C263.23 51.5277 262.913 51.4624 262.498 51.397C262.083 51.3317 261.626 51.2984 261.123 51.2984C260.687 51.2984 260.246 51.3317 259.798 51.397C259.351 51.4624 258.947 51.5824 258.587 51.757C258.227 51.9317 257.938 52.177 257.721 52.493C257.501 52.8104 257.393 53.2077 257.393 53.6877C257.393 54.6264 257.687 55.2757 258.277 55.6357C258.866 55.9957 259.662 56.1757 260.666 56.1757ZM260.338 41.4144C261.647 41.4144 262.749 41.5784 263.645 41.905C264.538 42.2317 265.253 42.6904 265.789 43.2797C266.322 43.869 266.705 44.5837 266.934 45.4237C267.163 46.2637 267.277 47.1864 267.277 48.189V58.565C266.666 58.6957 265.745 58.8544 264.511 59.0397C263.278 59.225 261.887 59.3184 260.338 59.3184C259.313 59.3184 258.374 59.2197 257.523 59.0237C256.673 58.8264 255.946 58.5104 255.347 58.0744C254.747 57.6384 254.277 57.0704 253.939 56.373C253.601 55.6744 253.433 54.813 253.433 53.7864C253.433 52.805 253.623 51.9757 254.005 51.2984C254.387 50.6224 254.905 50.0717 255.559 49.6464C256.214 49.221 256.971 48.9157 257.834 48.7304C258.697 48.5437 259.597 48.4517 260.535 48.4517C260.971 48.4517 261.429 48.4797 261.91 48.533C262.389 48.5877 262.902 48.6797 263.449 48.8117V48.157C263.449 47.6984 263.393 47.2624 263.285 46.8477C263.174 46.433 262.983 46.0677 262.711 45.7517C262.438 45.4344 262.078 45.189 261.631 45.0144C261.183 44.841 260.622 44.753 259.946 44.753C259.029 44.753 258.189 44.8184 257.425 44.949C256.662 45.0797 256.039 45.233 255.559 45.4077L255.069 42.1997C255.57 42.025 256.302 41.8504 257.262 41.6757C258.222 41.5024 259.247 41.4144 260.338 41.4144Z" fill="#231F20"/>
</g>
</g>
<defs>
<clipPath id="clip0_114_73">
<rect width="464" height="151" fill="white"/>
</clipPath>
</defs>
</svg>
