<svg role="img" viewBox="0 0 463 151" fill="none" xmlns="http://www.w3.org/2000/svg">
<title>Logotype of the European Union with the European Regional Development Fund</title>
<g clip-path="url(#clip0_115_443)">
<path d="M166.52 121.172H30.4719V30.4719H166.52V121.172Z" fill="#074EA2"/>
<path d="M95.5971 50.241L98.4744 48.1436L101.342 50.241L100.246 46.853L103.165 44.7583H99.5704L98.4744 41.3303L97.3771 44.7583H93.7717L96.6824 46.853L95.5971 50.241Z" fill="#FFF200"/>
<path d="M80.7384 54.2271L83.6157 52.1297L86.4837 54.2271L85.389 50.8417L88.3064 48.7444H84.7117L83.609 45.3071L82.5117 48.7537L78.925 48.7444L81.8357 50.8417L80.7384 54.2271Z" fill="#FFF200"/>
<path d="M72.7373 56.2078L71.64 59.6478L68.0466 59.6398L70.9573 61.7371L69.8693 65.1238L72.7373 63.0344L75.6146 65.1238L74.52 61.7371L77.44 59.6398H73.8426L72.7373 56.2078Z" fill="#FFF200"/>
<path d="M68.7586 77.8548L71.6172 79.9614L70.5306 76.5734L73.4492 74.4788H69.8559L68.7586 71.0414L67.6439 74.4868L64.0559 74.4788L66.9666 76.5734L65.8812 79.9614L68.7586 77.8548Z" fill="#FFF200"/>
<path d="M73.8417 89.3572L72.7363 85.9292L71.6417 89.3572H68.0457L70.9563 91.4625L69.8683 94.8398L72.7363 92.7425L75.6137 94.8398L74.519 91.4625L77.4377 89.3572H73.8417Z" fill="#FFF200"/>
<path d="M84.728 100.249L83.6307 96.821L82.5253 100.258L78.9307 100.249L81.8507 102.346L80.7627 105.732L83.6307 103.634L86.508 105.732L85.4133 102.346L88.3333 100.249H84.728Z" fill="#FFF200"/>
<path d="M99.5685 104.195L98.4725 100.758L97.3751 104.195H93.7725L96.6911 106.286L95.5951 109.678L98.4725 107.58L101.348 109.678L100.243 106.286L103.174 104.195H99.5685Z" fill="#FFF200"/>
<path d="M114.41 100.249L113.304 96.821L112.198 100.258L108.62 100.249L111.523 102.346L110.436 105.732L113.304 103.634L116.182 105.732L115.084 102.346L118.015 100.249H114.41Z" fill="#FFF200"/>
<path d="M125.304 89.3572L124.199 85.9292L123.104 89.3572H119.515L122.427 91.4625L121.322 94.8398L124.199 92.7425L127.076 94.8398L125.979 91.4625L128.9 89.3572H125.304Z" fill="#FFF200"/>
<path d="M132.837 74.4358H129.241L128.153 70.9985L127.04 74.4358H123.457L126.373 76.5331L125.267 79.9185L128.153 77.8211L131.021 79.9185L129.927 76.5331L132.837 74.4358Z" fill="#FFF200"/>
<path d="M121.323 65.0723L124.201 62.9869L127.078 65.0723L125.981 61.6869L128.901 59.6003H125.306L124.201 56.1563L123.106 59.6096L119.517 59.6003L122.429 61.6869L121.323 65.0723Z" fill="#FFF200"/>
<path d="M113.347 45.308L112.262 48.7533L108.656 48.7453L111.576 50.8413L110.488 54.2346L113.366 52.128L116.224 54.2346L115.136 50.8413L118.047 48.7453H114.452L113.347 45.308Z" fill="#FFF200"/>
<path d="M196.864 89.5137V74.5443H206.001V76.3377H198.96V80.787H205.224V82.5377H198.96V87.7203H206.541V89.5137H196.864Z" fill="#231F20"/>
<mask id="mask0_115_443" style="mask-type:luminance" maskUnits="userSpaceOnUse" x="-30" y="-30" width="523" height="212">
<path d="M-30 -30H492.748V181.644H-30V-30Z" fill="white"/>
</mask>
<g mask="url(#mask0_115_443)">
<path d="M217.492 88.9519C217.031 89.0679 216.423 89.1892 215.667 89.3185C214.911 89.4479 214.036 89.5132 213.043 89.5132C212.179 89.5132 211.451 89.3879 210.86 89.1359C210.269 88.8839 209.795 88.5279 209.435 88.0665C209.075 87.6052 208.816 87.0625 208.657 86.4359C208.499 85.8092 208.42 85.1145 208.42 84.3519V78.0439H210.429V83.9199C210.429 85.2879 210.644 86.2665 211.076 86.8572C211.509 87.4479 212.236 87.7425 213.259 87.7425C213.475 87.7425 213.697 87.7359 213.928 87.7212C214.157 87.7065 214.375 87.6879 214.576 87.6665C214.777 87.6452 214.961 87.6239 215.127 87.6025C215.292 87.5812 215.411 87.5559 215.483 87.5265V78.0439H217.492V88.9519Z" fill="#231F20"/>
<path d="M224.987 78.0443C225.16 78.0443 225.358 78.055 225.582 78.0763C225.804 78.099 226.024 78.127 226.24 78.163C226.456 78.199 226.654 78.235 226.834 78.271C227.014 78.307 227.147 78.339 227.234 78.3683L226.888 80.1177C226.73 80.0603 226.467 79.991 226.099 79.9123C225.732 79.8337 225.26 79.7937 224.684 79.7937C224.31 79.7937 223.939 79.8337 223.572 79.9123C223.204 79.991 222.963 80.0457 222.848 80.0737V89.5137H220.84V78.7577C221.315 78.5843 221.906 78.4217 222.611 78.271C223.316 78.1203 224.108 78.0443 224.987 78.0443Z" fill="#231F20"/>
<path d="M236.888 83.6387C236.888 82.372 236.604 81.3667 236.035 80.6253C235.467 79.884 234.692 79.5133 233.713 79.5133C232.733 79.5133 231.96 79.884 231.392 80.6253C230.823 81.3667 230.537 82.372 230.537 83.6387C230.537 84.9053 230.823 85.9107 231.392 86.652C231.96 87.3933 232.733 87.764 233.713 87.764C234.692 87.764 235.467 87.3933 236.035 86.652C236.604 85.9107 236.888 84.9053 236.888 83.6387ZM238.984 83.6387C238.984 84.5307 238.855 85.3373 238.595 86.0573C238.335 86.7773 237.972 87.3973 237.504 87.9147C237.036 88.4333 236.477 88.8333 235.831 89.1133C235.181 89.3947 234.476 89.5347 233.713 89.5347C232.949 89.5347 232.244 89.3947 231.596 89.1133C230.949 88.8333 230.389 88.4333 229.923 87.9147C229.455 87.3973 229.091 86.7773 228.832 86.0573C228.572 85.3373 228.443 84.5307 228.443 83.6387C228.443 82.76 228.572 81.9573 228.832 81.2293C229.091 80.5027 229.455 79.88 229.923 79.3613C230.389 78.8427 230.949 78.444 231.596 78.1627C232.244 77.8827 232.949 77.7413 233.713 77.7413C234.476 77.7413 235.181 77.8827 235.831 78.1627C236.477 78.444 237.036 78.8427 237.504 79.3613C237.972 79.88 238.335 80.5027 238.595 81.2293C238.855 81.9573 238.984 82.76 238.984 83.6387Z" fill="#231F20"/>
<path d="M249.502 83.9193C249.502 82.61 249.178 81.6007 248.53 80.8953C247.882 80.19 247.018 79.8367 245.938 79.8367C245.334 79.8367 244.862 79.8593 244.524 79.902C244.185 79.9447 243.916 79.9953 243.714 80.0527V87.138C243.958 87.3393 244.31 87.534 244.772 87.7207C245.233 87.9087 245.737 88.002 246.284 88.002C246.86 88.002 247.353 87.8967 247.764 87.6887C248.174 87.4793 248.509 87.1913 248.768 86.8247C249.026 86.4567 249.214 86.026 249.33 85.5287C249.445 85.0313 249.502 84.4953 249.502 83.9193ZM251.598 83.9193C251.598 84.7687 251.486 85.554 251.262 86.274C251.04 86.994 250.712 87.6127 250.28 88.1313C249.848 88.65 249.318 89.0527 248.693 89.3407C248.066 89.6287 247.349 89.7727 246.544 89.7727C245.896 89.7727 245.322 89.686 244.826 89.514C244.329 89.3407 243.958 89.1753 243.714 89.0167V93.51H241.705V78.6273C242.18 78.5127 242.774 78.386 243.486 78.2487C244.2 78.1127 245.024 78.0447 245.96 78.0447C246.824 78.0447 247.602 78.1807 248.293 78.454C248.984 78.7273 249.574 79.1167 250.064 79.6207C250.554 80.1247 250.932 80.7407 251.198 81.4673C251.465 82.194 251.598 83.0127 251.598 83.9193Z" fill="#231F20"/>
<path d="M261.403 82.5588C261.419 81.6508 261.192 80.9068 260.723 80.3228C260.255 79.7401 259.611 79.4481 258.791 79.4481C258.33 79.4481 257.924 79.5388 257.57 79.7188C257.218 79.8988 256.919 80.1321 256.674 80.4201C256.43 80.7081 256.239 81.0388 256.1 81.4134C255.963 81.7881 255.875 82.1708 255.83 82.5588H261.403ZM253.692 83.6601C253.692 82.6668 253.836 81.7988 254.124 81.0574C254.414 80.3161 254.794 79.7001 255.27 79.2108C255.744 78.7214 256.291 78.3548 256.911 78.1094C257.531 77.8641 258.163 77.7414 258.812 77.7414C260.324 77.7414 261.484 78.2134 262.288 79.1561C263.096 80.1001 263.499 81.5361 263.499 83.4654V83.8014C263.499 83.9374 263.491 84.0628 263.479 84.1788H255.788C255.875 85.3454 256.212 86.2308 256.804 86.8361C257.392 87.4401 258.315 87.7428 259.567 87.7428C260.272 87.7428 260.867 87.6814 261.351 87.5588C261.832 87.4374 262.195 87.3174 262.439 87.2028L262.72 88.8881C262.476 89.0174 262.048 89.1534 261.436 89.2974C260.824 89.4428 260.13 89.5134 259.351 89.5134C258.372 89.5134 257.528 89.3654 256.815 89.0708C256.1 88.7761 255.515 88.3694 255.054 87.8508C254.594 87.3321 254.25 86.7174 254.028 86.0041C253.804 85.2908 253.692 84.5094 253.692 83.6601Z" fill="#231F20"/>
<path d="M270.088 87.8503C270.562 87.8503 270.984 87.8396 271.35 87.8183C271.718 87.797 272.024 87.757 272.269 87.6996V84.3516C272.125 84.2796 271.892 84.2183 271.566 84.1676C271.242 84.117 270.85 84.0916 270.39 84.0916C270.088 84.0916 269.766 84.1143 269.429 84.157C269.09 84.1996 268.781 84.2903 268.5 84.4276C268.22 84.5636 267.985 84.7503 267.797 84.989C267.61 85.2263 267.517 85.5396 267.517 85.929C267.517 86.649 267.746 87.149 268.209 87.429C268.669 87.7103 269.294 87.8503 270.088 87.8503ZM269.914 77.785C270.721 77.785 271.401 77.889 271.956 78.0983C272.509 78.3076 272.956 78.6023 273.294 78.9836C273.633 79.365 273.874 79.8196 274.018 80.345C274.162 80.8703 274.234 81.4503 274.234 82.0836V89.1036C274.061 89.1316 273.821 89.1716 273.51 89.2223C273.201 89.273 272.852 89.3196 272.464 89.3623C272.074 89.4063 271.653 89.445 271.2 89.481C270.746 89.517 270.296 89.5356 269.849 89.5356C269.216 89.5356 268.633 89.4703 268.101 89.341C267.566 89.2116 267.106 89.0063 266.718 88.725C266.329 88.445 266.026 88.0743 265.81 87.613C265.594 87.153 265.486 86.5983 265.486 85.9503C265.486 85.3303 265.613 84.797 265.865 84.3516C266.116 83.905 266.458 83.545 266.892 83.2716C267.322 82.9983 267.826 82.797 268.402 82.6663C268.978 82.537 269.582 82.4716 270.217 82.4716C270.418 82.4716 270.626 82.4836 270.842 82.505C271.06 82.5263 271.265 82.5556 271.458 82.5916C271.653 82.6276 271.822 82.6596 271.966 82.6876C272.11 82.717 272.212 82.7396 272.269 82.753V82.1916C272.269 81.8596 272.232 81.533 272.161 81.209C272.089 80.885 271.958 80.597 271.773 80.345C271.585 80.093 271.33 79.8903 271.005 79.7396C270.681 79.589 270.26 79.513 269.741 79.513C269.08 79.513 268.5 79.5596 268.004 79.653C267.505 79.7476 267.136 79.845 266.892 79.945L266.653 78.2823C266.912 78.1663 267.344 78.0543 267.949 77.9463C268.554 77.8396 269.209 77.785 269.914 77.785Z" fill="#231F20"/>
<path d="M277.452 78.6054C277.914 78.4908 278.526 78.3681 279.288 78.2388C280.051 78.1094 280.93 78.0441 281.924 78.0441C282.816 78.0441 283.558 78.1708 284.148 78.4214C284.739 78.6748 285.21 79.0268 285.563 79.4801C285.916 79.9348 286.164 80.4774 286.31 81.1108C286.452 81.7441 286.524 82.4428 286.524 83.2068V89.5134H284.516V83.6388C284.516 82.9468 284.47 82.3561 284.375 81.8668C284.282 81.3774 284.127 80.9814 283.911 80.6788C283.695 80.3774 283.407 80.1574 283.047 80.0201C282.687 79.8828 282.24 79.8148 281.707 79.8148C281.491 79.8148 281.268 79.8228 281.038 79.8361C280.808 79.8521 280.588 79.8694 280.379 79.8908C280.17 79.9121 279.983 79.9374 279.818 79.9668C279.651 79.9948 279.534 80.0174 279.462 80.0308V89.5134H277.452V78.6054Z" fill="#231F20"/>
<path d="M298.902 76.2299C298.008 76.2299 297.324 76.2512 296.85 76.2939V81.9326H298.339C299.059 81.9326 299.707 81.8966 300.283 81.8246C300.86 81.7526 301.346 81.6152 301.742 81.4139C302.138 81.2126 302.443 80.9272 302.659 80.5606C302.875 80.1939 302.983 79.7072 302.983 79.1019C302.983 78.5406 302.875 78.0726 302.659 77.6992C302.443 77.3246 302.152 77.0286 301.784 76.8126C301.418 76.5966 300.986 76.4459 300.488 76.3592C299.991 76.2726 299.463 76.2299 298.902 76.2299ZM302.076 83.2499C302.307 83.5379 302.598 83.9166 302.951 84.3832C303.304 84.8512 303.667 85.3699 304.042 85.9392C304.416 86.5086 304.787 87.1019 305.154 87.7206C305.522 88.3406 305.835 88.9379 306.095 89.5139H303.804C303.516 88.9672 303.203 88.4126 302.866 87.8499C302.527 87.2886 302.184 86.7526 301.839 86.2419C301.492 85.7312 301.151 85.2512 300.814 84.8046C300.475 84.3592 300.168 83.9699 299.895 83.6392C299.707 83.6526 299.516 83.6606 299.322 83.6606H298.728H296.85V89.5139H294.755V74.7606C295.344 74.6166 296.003 74.5206 296.731 74.4699C297.458 74.4192 298.123 74.3939 298.728 74.3939C300.831 74.3939 302.432 74.7899 303.535 75.5819C304.636 76.3739 305.187 77.5552 305.187 79.1246C305.187 80.1179 304.924 80.9672 304.399 81.6739C303.874 82.3792 303.098 82.9046 302.076 83.2499Z" fill="#231F20"/>
<path d="M315.187 82.5588C315.201 81.6508 314.975 80.9068 314.507 80.3228C314.039 79.7401 313.393 79.4481 312.573 79.4481C312.112 79.4481 311.707 79.5388 311.353 79.7188C311 79.8988 310.701 80.1321 310.456 80.4201C310.211 80.7081 310.021 81.0388 309.884 81.4134C309.747 81.7881 309.656 82.1708 309.613 82.5588H315.187ZM307.476 83.6601C307.476 82.6668 307.619 81.7988 307.908 81.0574C308.196 80.3161 308.577 79.7001 309.052 79.2108C309.528 78.7214 310.075 78.3548 310.695 78.1094C311.313 77.8641 311.947 77.7414 312.596 77.7414C314.107 77.7414 315.265 78.2134 316.072 79.1561C316.879 80.1001 317.281 81.5361 317.281 83.4654V83.8014C317.281 83.9374 317.275 84.0628 317.261 84.1788H309.571C309.656 85.3454 309.995 86.2308 310.587 86.8361C311.176 87.4401 312.099 87.7428 313.351 87.7428C314.056 87.7428 314.651 87.6814 315.133 87.5588C315.615 87.4374 315.979 87.3174 316.223 87.2028L316.504 88.8881C316.26 89.0174 315.831 89.1534 315.219 89.2974C314.607 89.4428 313.912 89.5134 313.135 89.5134C312.155 89.5134 311.311 89.3654 310.597 89.0708C309.884 88.7761 309.297 88.3694 308.836 87.8508C308.376 87.3321 308.033 86.7174 307.811 86.0041C307.588 85.2908 307.476 84.5094 307.476 83.6601Z" fill="#231F20"/>
<path d="M327.088 80.0529C326.886 79.9956 326.616 79.9422 326.278 79.8902C325.94 79.8409 325.482 79.8156 324.906 79.8156C323.828 79.8156 322.996 80.1689 322.412 80.8742C321.829 81.5796 321.537 82.5156 321.537 83.6822C321.537 84.3302 321.621 84.8849 321.785 85.3449C321.95 85.8062 322.174 86.1876 322.454 86.4902C322.736 86.7929 323.06 87.0156 323.428 87.1596C323.794 87.3036 324.173 87.3756 324.561 87.3756C325.094 87.3756 325.584 87.2996 326.03 87.1489C326.476 86.9969 326.829 86.8209 327.088 86.6196V80.0529ZM327.11 88.3902C326.937 88.5062 326.602 88.6542 326.106 88.8329C325.609 89.0142 325.029 89.1036 324.366 89.1036C323.689 89.1036 323.053 88.9956 322.454 88.7796C321.857 88.5636 321.336 88.2289 320.889 87.7756C320.444 87.3209 320.09 86.7569 319.832 86.0796C319.572 85.4022 319.442 84.5969 319.442 83.6609C319.442 82.8396 319.564 82.0876 319.809 81.4036C320.054 80.7196 320.41 80.1289 320.878 79.6316C321.345 79.1356 321.918 78.7462 322.596 78.4649C323.273 78.1849 324.036 78.0449 324.885 78.0449C325.821 78.0449 326.638 78.1129 327.337 78.2489C328.036 78.3862 328.621 78.5129 329.097 78.6276V88.6502C329.097 90.3782 328.65 91.6302 327.758 92.4089C326.865 93.1862 325.51 93.5742 323.697 93.5742C322.992 93.5742 322.326 93.5169 321.7 93.4022C321.072 93.2862 320.529 93.1502 320.068 92.9916L320.436 91.2422C320.84 91.3996 321.333 91.5409 321.914 91.6636C322.498 91.7849 323.106 91.8462 323.74 91.8462C324.936 91.8462 325.796 91.6089 326.322 91.1342C326.846 90.6582 327.11 89.9022 327.11 88.8662V88.3902Z" fill="#231F20"/>
<path d="M334.453 89.5134H332.444V78.2814H334.453V89.5134ZM333.438 76.2508C333.079 76.2508 332.772 76.1321 332.52 75.8948C332.27 75.6574 332.143 75.3374 332.143 74.9334C332.143 74.5308 332.27 74.2108 332.52 73.9721C332.772 73.7348 333.079 73.6161 333.438 73.6161C333.798 73.6161 334.104 73.7348 334.356 73.9721C334.608 74.2108 334.735 74.5308 334.735 74.9334C334.735 75.3374 334.608 75.6574 334.356 75.8948C334.104 76.1321 333.798 76.2508 333.438 76.2508Z" fill="#231F20"/>
<path d="M345.62 83.6387C345.62 82.372 345.336 81.3667 344.767 80.6253C344.199 79.884 343.424 79.5133 342.446 79.5133C341.466 79.5133 340.692 79.884 340.123 80.6253C339.554 81.3667 339.27 82.372 339.27 83.6387C339.27 84.9053 339.554 85.9107 340.123 86.652C340.692 87.3933 341.466 87.764 342.446 87.764C343.424 87.764 344.199 87.3933 344.767 86.652C345.336 85.9107 345.62 84.9053 345.62 83.6387ZM347.715 83.6387C347.715 84.5307 347.587 85.3373 347.327 86.0573C347.068 86.7773 346.703 87.3973 346.236 87.9147C345.768 88.4333 345.21 88.8333 344.562 89.1133C343.915 89.3947 343.208 89.5347 342.446 89.5347C341.682 89.5347 340.976 89.3947 340.328 89.1133C339.68 88.8333 339.123 88.4333 338.654 87.9147C338.187 87.3973 337.823 86.7773 337.564 86.0573C337.306 85.3373 337.175 84.5307 337.175 83.6387C337.175 82.76 337.306 81.9573 337.564 81.2293C337.823 80.5027 338.187 79.88 338.654 79.3613C339.123 78.8427 339.68 78.444 340.328 78.1627C340.976 77.8827 341.682 77.7413 342.446 77.7413C343.208 77.7413 343.915 77.8827 344.562 78.1627C345.21 78.444 345.768 78.8427 346.236 79.3613C346.703 79.88 347.068 80.5027 347.327 81.2293C347.587 81.9573 347.715 82.76 347.715 83.6387Z" fill="#231F20"/>
<path d="M350.437 78.6054C350.898 78.4908 351.51 78.3681 352.273 78.2388C353.035 78.1094 353.914 78.0441 354.907 78.0441C355.801 78.0441 356.542 78.1708 357.133 78.4214C357.723 78.6748 358.194 79.0268 358.547 79.4801C358.901 79.9348 359.149 80.4774 359.293 81.1108C359.437 81.7441 359.509 82.4428 359.509 83.2068V89.5134H357.501V83.6388C357.501 82.9468 357.454 82.3561 357.359 81.8668C357.266 81.3774 357.111 80.9814 356.895 80.6788C356.679 80.3774 356.391 80.1574 356.031 80.0201C355.671 79.8828 355.225 79.8148 354.691 79.8148C354.475 79.8148 354.253 79.8228 354.022 79.8361C353.793 79.8521 353.571 79.8694 353.363 79.8908C353.154 79.9121 352.967 79.9374 352.802 79.9668C352.635 79.9948 352.517 80.0174 352.446 80.0308V89.5134H350.437V78.6054Z" fill="#231F20"/>
<path d="M366.529 87.8503C367.004 87.8503 367.425 87.8396 367.792 87.8183C368.16 87.797 368.465 87.757 368.71 87.6996V84.3516C368.566 84.2796 368.333 84.2183 368.008 84.1676C367.684 84.117 367.292 84.0916 366.832 84.0916C366.529 84.0916 366.208 84.1143 365.87 84.157C365.532 84.1996 365.222 84.2903 364.941 84.4276C364.661 84.5636 364.426 84.7503 364.238 84.989C364.052 85.2263 363.958 85.5396 363.958 85.929C363.958 86.649 364.188 87.149 364.65 87.429C365.11 87.7103 365.736 87.8503 366.529 87.8503ZM366.356 77.785C367.162 77.785 367.842 77.889 368.397 78.0983C368.95 78.3076 369.397 78.6023 369.736 78.9836C370.074 79.365 370.316 79.8196 370.46 80.345C370.604 80.8703 370.676 81.4503 370.676 82.0836V89.1036C370.502 89.1316 370.262 89.1716 369.952 89.2223C369.642 89.273 369.293 89.3196 368.905 89.3623C368.516 89.4063 368.094 89.445 367.641 89.481C367.188 89.517 366.737 89.5356 366.29 89.5356C365.657 89.5356 365.074 89.4703 364.542 89.341C364.008 89.2116 363.548 89.0063 363.16 88.725C362.77 88.445 362.468 88.0743 362.252 87.613C362.036 87.153 361.928 86.5983 361.928 85.9503C361.928 85.3303 362.054 84.797 362.306 84.3516C362.558 83.905 362.9 83.545 363.333 83.2716C363.764 82.9983 364.268 82.797 364.844 82.6663C365.42 82.537 366.024 82.4716 366.658 82.4716C366.86 82.4716 367.068 82.4836 367.284 82.505C367.501 82.5263 367.706 82.5556 367.9 82.5916C368.094 82.6276 368.264 82.6596 368.408 82.6876C368.552 82.717 368.653 82.7396 368.71 82.753V82.1916C368.71 81.8596 368.673 81.533 368.602 81.209C368.53 80.885 368.4 80.597 368.214 80.345C368.026 80.093 367.772 79.8903 367.448 79.7396C367.122 79.589 366.701 79.513 366.182 79.513C365.521 79.513 364.941 79.5596 364.445 79.653C363.948 79.7476 363.577 79.845 363.333 79.945L363.094 78.2823C363.353 78.1663 363.785 78.0543 364.39 77.9463C364.996 77.8396 365.65 77.785 366.356 77.785Z" fill="#231F20"/>
<path d="M377.264 89.5137C376.025 89.4857 375.146 89.219 374.628 88.7137C374.11 88.2097 373.85 87.4257 373.85 86.3603V72.8817L375.86 72.5363V86.0363C375.86 86.367 375.889 86.6403 375.946 86.8563C376.004 87.0723 376.097 87.2457 376.228 87.375C376.356 87.5043 376.529 87.6017 376.745 87.667C376.961 87.7323 377.228 87.7857 377.545 87.8283L377.264 89.5137Z" fill="#231F20"/>
<path d="M201.011 114.144C202.999 114.144 204.482 113.636 205.46 112.622C206.44 111.607 206.93 110.184 206.93 108.355C206.93 106.527 206.44 105.104 205.46 104.09C204.482 103.074 202.999 102.567 201.011 102.567C200.42 102.567 199.963 102.574 199.64 102.588C199.316 102.603 199.09 102.618 198.96 102.631V114.079C199.09 114.094 199.316 114.108 199.64 114.123C199.963 114.138 200.42 114.144 201.011 114.144ZM209.154 108.355C209.154 109.651 208.952 110.779 208.55 111.736C208.147 112.694 207.578 113.486 206.843 114.112C206.108 114.738 205.231 115.206 204.208 115.516C203.186 115.826 202.063 115.98 200.839 115.98C200.234 115.98 199.567 115.955 198.84 115.904C198.114 115.855 197.455 115.758 196.864 115.614V101.098C197.455 100.954 198.114 100.856 198.84 100.807C199.567 100.755 200.234 100.731 200.839 100.731C202.063 100.731 203.186 100.886 204.208 101.195C205.231 101.506 206.108 101.972 206.843 102.599C207.578 103.226 208.147 104.018 208.55 104.975C208.952 105.932 209.154 107.06 209.154 108.355Z" fill="#231F20"/>
<path d="M219.112 109.026C219.126 108.118 218.9 107.374 218.432 106.79C217.964 106.207 217.32 105.915 216.498 105.915C216.037 105.915 215.63 106.006 215.277 106.186C214.925 106.366 214.626 106.599 214.382 106.887C214.137 107.175 213.946 107.506 213.809 107.88C213.672 108.255 213.582 108.636 213.54 109.026H219.112ZM211.401 110.127C211.401 109.134 211.545 108.266 211.833 107.524C212.121 106.783 212.502 106.167 212.977 105.678C213.453 105.188 214 104.822 214.62 104.576C215.238 104.331 215.872 104.208 216.52 104.208C218.032 104.208 219.192 104.68 219.998 105.623C220.804 106.567 221.208 108.003 221.208 109.932V110.268C221.208 110.404 221.2 110.53 221.186 110.646H213.496C213.582 111.812 213.921 112.698 214.512 113.302C215.101 113.907 216.024 114.21 217.276 114.21C217.981 114.21 218.576 114.148 219.058 114.026C219.54 113.904 219.904 113.784 220.149 113.67L220.429 115.354C220.185 115.484 219.756 115.62 219.144 115.764C218.532 115.91 217.837 115.98 217.06 115.98C216.081 115.98 215.234 115.832 214.522 115.538C213.809 115.243 213.222 114.836 212.761 114.318C212.301 113.799 211.958 113.184 211.736 112.471C211.512 111.758 211.401 110.976 211.401 110.127Z" fill="#231F20"/>
<path d="M232.763 104.749C232.202 106.851 231.543 108.867 230.787 110.797C230.031 112.726 229.299 114.454 228.595 115.981H226.78C226.074 114.454 225.344 112.726 224.588 110.797C223.831 108.867 223.172 106.851 222.611 104.749H224.771C224.944 105.454 225.15 106.206 225.387 107.006C225.624 107.805 225.876 108.597 226.143 109.382C226.408 110.167 226.679 110.926 226.954 111.661C227.226 112.395 227.486 113.05 227.731 113.626C227.975 113.05 228.235 112.395 228.508 111.661C228.782 110.926 229.051 110.167 229.318 109.382C229.584 108.597 229.836 107.805 230.074 107.006C230.312 106.206 230.516 105.454 230.69 104.749H232.763Z" fill="#231F20"/>
<path d="M241.511 109.026C241.526 108.118 241.299 107.374 240.831 106.79C240.363 106.207 239.719 105.915 238.898 105.915C238.436 105.915 238.03 106.006 237.676 106.186C237.324 106.366 237.026 106.599 236.782 106.887C236.536 107.175 236.346 107.506 236.208 107.88C236.071 108.255 235.982 108.636 235.939 109.026H241.511ZM233.8 110.127C233.8 109.134 233.944 108.266 234.232 107.524C234.52 106.783 234.902 106.167 235.376 105.678C235.852 105.188 236.399 104.822 237.019 104.576C237.638 104.331 238.271 104.208 238.919 104.208C240.431 104.208 241.591 104.68 242.398 105.623C243.203 106.567 243.607 108.003 243.607 109.932V110.268C243.607 110.404 243.599 110.53 243.586 110.646H235.895C235.982 111.812 236.319 112.698 236.911 113.302C237.5 113.907 238.423 114.21 239.675 114.21C240.38 114.21 240.975 114.148 241.458 114.026C241.939 113.904 242.303 113.784 242.548 113.67L242.828 115.354C242.584 115.484 242.155 115.62 241.543 115.764C240.931 115.91 240.236 115.98 239.46 115.98C238.48 115.98 237.634 115.832 236.922 115.538C236.208 115.243 235.622 114.836 235.16 114.318C234.7 113.799 234.358 113.184 234.135 112.471C233.911 111.758 233.8 110.976 233.8 110.127Z" fill="#231F20"/>
<path d="M249.762 115.98C248.524 115.952 247.646 115.686 247.126 115.18C246.609 114.676 246.349 113.892 246.349 112.827V99.3485L248.358 99.0031V112.503C248.358 112.834 248.386 113.107 248.445 113.323C248.502 113.539 248.596 113.712 248.725 113.842C248.854 113.971 249.028 114.068 249.244 114.134C249.46 114.198 249.726 114.252 250.044 114.295L249.762 115.98Z" fill="#231F20"/>
<path d="M259.999 110.105C259.999 108.839 259.715 107.833 259.147 107.092C258.578 106.351 257.805 105.98 256.825 105.98C255.846 105.98 255.073 106.351 254.502 107.092C253.934 107.833 253.65 108.839 253.65 110.105C253.65 111.372 253.934 112.377 254.502 113.119C255.073 113.86 255.846 114.231 256.825 114.231C257.805 114.231 258.578 113.86 259.147 113.119C259.715 112.377 259.999 111.372 259.999 110.105ZM262.095 110.105C262.095 110.997 261.966 111.804 261.707 112.524C261.447 113.244 261.082 113.864 260.617 114.383C260.147 114.9 259.59 115.3 258.942 115.58C258.294 115.861 257.587 116.001 256.825 116.001C256.062 116.001 255.357 115.861 254.707 115.58C254.061 115.3 253.502 114.9 253.034 114.383C252.566 113.864 252.202 113.244 251.943 112.524C251.685 111.804 251.555 110.997 251.555 110.105C251.555 109.227 251.685 108.424 251.943 107.696C252.202 106.969 252.566 106.347 253.034 105.828C253.502 105.309 254.061 104.911 254.707 104.629C255.357 104.349 256.062 104.208 256.825 104.208C257.587 104.208 258.294 104.349 258.942 104.629C259.59 104.911 260.147 105.309 260.617 105.828C261.082 106.347 261.447 106.969 261.707 107.696C261.966 108.424 262.095 109.227 262.095 110.105Z" fill="#231F20"/>
<path d="M272.615 110.386C272.615 109.077 272.291 108.067 271.642 107.362C270.995 106.657 270.131 106.303 269.051 106.303C268.446 106.303 267.975 106.326 267.636 106.369C267.298 106.411 267.027 106.462 266.826 106.519V113.603C267.071 113.806 267.423 114.001 267.884 114.187C268.346 114.375 268.85 114.469 269.396 114.469C269.972 114.469 270.466 114.363 270.875 114.155C271.286 113.946 271.622 113.658 271.88 113.291C272.139 112.923 272.326 112.493 272.442 111.995C272.556 111.498 272.615 110.962 272.615 110.386ZM274.71 110.386C274.71 111.235 274.598 112.021 274.375 112.741C274.151 113.461 273.824 114.079 273.392 114.598C272.96 115.117 272.431 115.519 271.806 115.807C271.179 116.095 270.462 116.239 269.655 116.239C269.007 116.239 268.435 116.153 267.938 115.981C267.442 115.807 267.071 115.642 266.826 115.483V119.977H264.816V105.094C265.292 104.979 265.886 104.853 266.599 104.715C267.311 104.579 268.136 104.511 269.072 104.511C269.936 104.511 270.714 104.647 271.406 104.921C272.096 105.194 272.687 105.583 273.176 106.087C273.666 106.591 274.043 107.207 274.31 107.934C274.576 108.661 274.71 109.479 274.71 110.386Z" fill="#231F20"/>
<path d="M277.432 105.072C277.893 104.958 278.501 104.835 279.257 104.706C280.013 104.576 280.888 104.511 281.881 104.511C282.601 104.511 283.206 104.608 283.696 104.803C284.185 104.996 284.596 105.282 284.926 105.655C285.028 105.584 285.185 105.483 285.402 105.354C285.618 105.224 285.885 105.098 286.201 104.975C286.517 104.852 286.87 104.744 287.26 104.651C287.649 104.558 288.066 104.511 288.513 104.511C289.377 104.511 290.081 104.638 290.629 104.888C291.177 105.142 291.605 105.498 291.914 105.959C292.225 106.419 292.433 106.966 292.541 107.6C292.649 108.234 292.702 108.924 292.702 109.674V115.98H290.694V110.106C290.694 109.443 290.662 108.875 290.597 108.399C290.532 107.924 290.409 107.528 290.23 107.211C290.05 106.895 289.805 106.66 289.496 106.51C289.185 106.358 288.786 106.282 288.296 106.282C287.62 106.282 287.062 106.372 286.624 106.552C286.182 106.732 285.885 106.895 285.726 107.038C285.842 107.412 285.928 107.823 285.985 108.27C286.042 108.715 286.072 109.183 286.072 109.674V115.98H284.064V110.106C284.064 109.443 284.026 108.875 283.956 108.399C283.882 107.924 283.757 107.528 283.577 107.211C283.397 106.895 283.152 106.66 282.844 106.51C282.533 106.358 282.14 106.282 281.666 106.282C281.464 106.282 281.248 106.29 281.017 106.303C280.788 106.319 280.568 106.336 280.358 106.358C280.149 106.379 279.96 106.404 279.786 106.434C279.614 106.462 279.498 106.484 279.441 106.498V115.98H277.432V105.072Z" fill="#231F20"/>
<path d="M303.006 109.026C303.02 108.118 302.794 107.374 302.326 106.79C301.858 106.207 301.212 105.915 300.392 105.915C299.931 105.915 299.526 106.006 299.172 106.186C298.819 106.366 298.52 106.599 298.275 106.887C298.031 107.175 297.84 107.506 297.703 107.88C297.566 108.255 297.476 108.636 297.432 109.026H303.006ZM295.295 110.127C295.295 109.134 295.438 108.266 295.727 107.524C296.015 106.783 296.396 106.167 296.871 105.678C297.347 105.188 297.894 104.822 298.514 104.576C299.132 104.331 299.766 104.208 300.415 104.208C301.927 104.208 303.086 104.68 303.891 105.623C304.699 106.567 305.1 108.003 305.1 109.932V110.268C305.1 110.404 305.094 110.53 305.08 110.646H297.39C297.476 111.812 297.815 112.698 298.406 113.302C298.995 113.907 299.918 114.21 301.17 114.21C301.875 114.21 302.47 114.148 302.952 114.026C303.434 113.904 303.798 113.784 304.042 113.67L304.323 115.354C304.079 115.484 303.65 115.62 303.038 115.764C302.427 115.91 301.731 115.98 300.954 115.98C299.975 115.98 299.13 115.832 298.416 115.538C297.703 115.243 297.116 114.836 296.655 114.318C296.195 113.799 295.852 113.184 295.63 112.471C295.407 111.758 295.295 110.976 295.295 110.127Z" fill="#231F20"/>
<path d="M307.887 105.072C308.349 104.958 308.961 104.835 309.723 104.706C310.486 104.576 311.365 104.511 312.358 104.511C313.251 104.511 313.993 104.638 314.583 104.888C315.174 105.142 315.645 105.494 315.998 105.947C316.351 106.402 316.599 106.944 316.743 107.578C316.887 108.212 316.959 108.91 316.959 109.674V115.98H314.951V110.106C314.951 109.414 314.905 108.824 314.81 108.334C314.717 107.844 314.562 107.448 314.346 107.146C314.13 106.844 313.842 106.624 313.482 106.487C313.122 106.35 312.675 106.282 312.142 106.282C311.926 106.282 311.703 106.29 311.473 106.303C311.243 106.319 311.023 106.336 310.814 106.358C310.605 106.379 310.418 106.404 310.253 106.434C310.086 106.462 309.969 106.484 309.897 106.498V115.98H307.887V105.072Z" fill="#231F20"/>
<path d="M322.055 104.49H326.31V106.174H322.055V111.358C322.055 111.92 322.099 112.384 322.186 112.751C322.271 113.119 322.402 113.407 322.574 113.615C322.747 113.824 322.963 113.971 323.222 114.058C323.48 114.144 323.783 114.187 324.13 114.187C324.734 114.187 325.22 114.12 325.587 113.983C325.955 113.846 326.21 113.748 326.355 113.691L326.743 115.354C326.54 115.455 326.188 115.58 325.684 115.732C325.18 115.883 324.604 115.959 323.956 115.959C323.194 115.959 322.563 115.862 322.067 115.667C321.57 115.472 321.17 115.182 320.867 114.792C320.566 114.404 320.352 113.926 320.231 113.356C320.107 112.787 320.047 112.128 320.047 111.379V101.358L322.055 101.012V104.49Z" fill="#231F20"/>
<path d="M333.764 115.98V101.011H342.792V102.804H335.858V107.319H342.016V109.09H335.858V115.98H333.764Z" fill="#231F20"/>
<path d="M353.527 115.419C353.065 115.535 352.457 115.656 351.701 115.785C350.945 115.915 350.071 115.98 349.077 115.98C348.213 115.98 347.485 115.855 346.895 115.603C346.305 115.351 345.831 114.995 345.469 114.533C345.111 114.072 344.851 113.529 344.692 112.903C344.533 112.276 344.455 111.581 344.455 110.819V104.511H346.463V110.387C346.463 111.755 346.679 112.733 347.112 113.324C347.544 113.915 348.271 114.209 349.292 114.209C349.508 114.209 349.732 114.203 349.963 114.188C350.192 114.173 350.408 114.155 350.609 114.133C350.812 114.112 350.996 114.091 351.161 114.069C351.327 114.048 351.445 114.023 351.517 113.993V104.511H353.527V115.419Z" fill="#231F20"/>
<path d="M356.874 105.072C357.336 104.958 357.948 104.835 358.71 104.706C359.473 104.576 360.352 104.511 361.345 104.511C362.238 104.511 362.98 104.638 363.57 104.888C364.161 105.142 364.632 105.494 364.985 105.947C365.338 106.402 365.586 106.944 365.732 107.578C365.874 108.212 365.946 108.91 365.946 109.674V115.98H363.938V110.106C363.938 109.414 363.892 108.824 363.797 108.334C363.704 107.844 363.549 107.448 363.333 107.146C363.117 106.844 362.829 106.624 362.469 106.487C362.109 106.35 361.662 106.282 361.129 106.282C360.913 106.282 360.69 106.29 360.46 106.303C360.23 106.319 360.01 106.336 359.801 106.358C359.592 106.379 359.405 106.404 359.24 106.434C359.073 106.462 358.954 106.484 358.884 106.498V115.98H356.874V105.072Z" fill="#231F20"/>
<path d="M376.422 106.865C376.177 106.664 375.825 106.469 375.364 106.283C374.902 106.095 374.398 106.001 373.852 106.001C373.276 106.001 372.782 106.107 372.373 106.315C371.961 106.524 371.626 106.812 371.368 107.179C371.109 107.545 370.921 107.981 370.806 108.485C370.69 108.989 370.633 109.529 370.633 110.105C370.633 111.416 370.957 112.427 371.606 113.14C372.253 113.853 373.117 114.209 374.197 114.209C374.744 114.209 375.202 114.184 375.569 114.133C375.937 114.084 376.221 114.029 376.422 113.972V106.865ZM376.422 99.3052L378.432 98.9599V115.397C377.97 115.527 377.38 115.656 376.66 115.787C375.94 115.916 375.112 115.981 374.176 115.981C373.312 115.981 372.534 115.844 371.842 115.571C371.152 115.297 370.561 114.908 370.072 114.404C369.582 113.9 369.204 113.284 368.938 112.557C368.67 111.831 368.538 111.012 368.538 110.105C368.538 109.241 368.65 108.449 368.873 107.729C369.096 107.009 369.424 106.391 369.856 105.872C370.288 105.353 370.817 104.951 371.444 104.663C372.069 104.375 372.785 104.229 373.593 104.229C374.24 104.229 374.813 104.316 375.31 104.489C375.806 104.663 376.177 104.828 376.422 104.987V99.3052Z" fill="#231F20"/>
<path d="M197.042 59.2859V36.6032H211.608V40.1059H201.166V45.7019H210.461V49.1392H201.166V55.7832H212.393V59.2859H197.042Z" fill="#231F20"/>
<path d="M229.314 58.4024C228.55 58.5984 227.558 58.801 226.336 59.0077C225.113 59.2157 223.772 59.3184 222.309 59.3184C220.936 59.3184 219.784 59.1224 218.857 58.729C217.929 58.337 217.188 57.7917 216.632 57.093C216.074 56.3944 215.676 55.5597 215.436 54.589C215.196 53.6184 215.076 52.5544 215.076 51.3984V41.8077H219.037V50.7757C219.037 52.609 219.304 53.9184 219.838 54.7037C220.373 55.489 221.306 55.881 222.637 55.881C223.117 55.881 223.624 55.8597 224.16 55.817C224.694 55.773 225.092 55.7184 225.354 55.653V41.8077H229.314V58.4024Z" fill="#231F20"/>
<path d="M243.912 45.735C243.584 45.6256 243.132 45.5123 242.555 45.3923C241.975 45.2723 241.304 45.211 240.541 45.211C240.104 45.211 239.64 45.2563 239.149 45.343C238.659 45.4296 238.315 45.5056 238.119 45.571V59.2856H234.159V42.9856C234.921 42.703 235.877 42.435 237.023 42.1843C238.168 41.9336 239.439 41.807 240.835 41.807C241.097 41.807 241.403 41.8243 241.752 41.8563C242.101 41.8896 242.449 41.9336 242.799 41.987C243.148 42.0416 243.487 42.1083 243.813 42.1843C244.141 42.2603 244.403 42.331 244.6 42.3963L243.912 45.735Z" fill="#231F20"/>
<path d="M258.575 50.2853C258.575 48.5826 258.211 47.2359 257.479 46.2426C256.748 45.2506 255.728 44.7533 254.419 44.7533C253.11 44.7533 252.09 45.2506 251.358 46.2426C250.627 47.2359 250.262 48.5826 250.262 50.2853C250.262 52.0093 250.627 53.3733 251.358 54.3759C252.09 55.3799 253.11 55.8813 254.419 55.8813C255.728 55.8813 256.748 55.3799 257.479 54.3759C258.211 53.3733 258.575 52.0093 258.575 50.2853ZM262.634 50.2853C262.634 51.6386 262.438 52.8706 262.044 53.9839C261.652 55.0959 261.096 56.0453 260.376 56.8306C259.656 57.6173 258.788 58.2279 257.774 58.6639C256.759 59.1013 255.64 59.3186 254.419 59.3186C253.196 59.3186 252.083 59.1013 251.08 58.6639C250.076 58.2279 249.215 57.6173 248.494 56.8306C247.774 56.0453 247.212 55.0959 246.808 53.9839C246.404 52.8706 246.203 51.6386 246.203 50.2853C246.203 48.9319 246.404 47.7053 246.808 46.6026C247.212 45.5013 247.779 44.5573 248.511 43.7719C249.242 42.9853 250.108 42.3799 251.112 41.9546C252.116 41.5293 253.218 41.3159 254.419 41.3159C255.618 41.3159 256.726 41.5293 257.74 41.9546C258.756 42.3799 259.623 42.9853 260.343 43.7719C261.063 44.5573 261.624 45.5013 262.028 46.6026C262.432 47.7053 262.634 48.9319 262.634 50.2853Z" fill="#231F20"/>
<path d="M277.886 50.8086C277.886 49.0406 277.487 47.6672 276.693 46.6846C275.895 45.7019 274.613 45.2112 272.846 45.2112C272.474 45.2112 272.087 45.2272 271.685 45.2606C271.279 45.2939 270.882 45.3646 270.489 45.4739V55.2592C270.838 55.5006 271.302 55.7246 271.879 55.9312C272.458 56.1392 273.075 56.2419 273.73 56.2419C275.17 56.2419 276.222 55.7512 276.887 54.7686C277.553 53.7872 277.886 52.4672 277.886 50.8086ZM281.945 50.7432C281.945 52.0526 281.775 53.2526 281.438 54.3432C281.099 55.4352 280.614 56.3726 279.981 57.1579C279.349 57.9446 278.557 58.5552 277.607 58.9912C276.659 59.4272 275.583 59.6459 274.383 59.6459C273.577 59.6459 272.834 59.5472 272.158 59.3512C271.482 59.1552 270.925 58.9366 270.489 58.6966V65.3406H266.529V42.7246C267.335 42.5059 268.329 42.2992 269.507 42.1019C270.686 41.9059 271.929 41.8072 273.239 41.8072C274.591 41.8072 275.803 42.0152 276.871 42.4299C277.941 42.8446 278.853 43.4392 279.605 44.2139C280.358 44.9886 280.935 45.9259 281.339 47.0286C281.743 48.1299 281.945 49.3686 281.945 50.7432Z" fill="#231F20"/>
<path d="M296.379 48.6485C296.379 48.1032 296.302 47.5845 296.15 47.0939C295.997 46.6032 295.774 46.1765 295.478 45.8165C295.185 45.4565 294.825 45.1739 294.399 44.9659C293.973 44.7592 293.466 44.6552 292.877 44.6552C292.266 44.6552 291.731 44.7699 291.273 44.9992C290.814 45.2272 290.427 45.5285 290.111 45.8992C289.794 46.2699 289.549 46.6965 289.374 47.1752C289.199 47.6552 289.079 48.1459 289.015 48.6485H296.379ZM284.891 50.4165C284.891 48.9099 285.114 47.5899 285.562 46.4552C286.009 45.3205 286.603 44.3765 287.346 43.6245C288.086 42.8712 288.938 42.3045 289.899 41.9219C290.858 41.5405 291.841 41.3499 292.845 41.3499C295.201 41.3499 297.038 42.0805 298.359 43.5419C299.679 45.0045 300.339 47.1872 300.339 50.0885C300.339 50.3072 300.334 50.5525 300.323 50.8245C300.311 51.0979 300.297 51.3432 300.274 51.5605H288.982C289.09 52.9365 289.577 54.0005 290.438 54.7525C291.299 55.5045 292.55 55.8819 294.186 55.8819C295.146 55.8819 296.023 55.7952 296.821 55.6205C297.618 55.4459 298.245 55.2592 298.702 55.0632L299.227 58.3045C299.009 58.4139 298.707 58.5285 298.326 58.6472C297.945 58.7672 297.509 58.8765 297.018 58.9752C296.526 59.0725 295.997 59.1552 295.43 59.2205C294.862 59.2859 294.285 59.3179 293.694 59.3179C292.189 59.3179 290.881 59.0952 289.767 58.6472C288.654 58.2005 287.739 57.5792 287.019 56.7819C286.298 55.9859 285.763 55.0472 285.414 53.9672C285.066 52.8872 284.891 51.7032 284.891 50.4165Z" fill="#231F20"/>
<path d="M310.355 56.1764C311.576 56.1764 312.503 56.1111 313.136 55.9804V51.5951C312.919 51.5284 312.603 51.4631 312.187 51.3978C311.773 51.3324 311.315 51.2991 310.813 51.2991C310.376 51.2991 309.935 51.3324 309.488 51.3978C309.04 51.4631 308.636 51.5831 308.276 51.7578C307.916 51.9324 307.627 52.1791 307.408 52.4938C307.191 52.8111 307.081 53.2098 307.081 53.6884C307.081 54.6271 307.376 55.2764 307.965 55.6364C308.555 55.9964 309.351 56.1764 310.355 56.1764ZM310.027 41.4151C311.336 41.4151 312.437 41.5791 313.332 41.9058C314.227 42.2338 314.941 42.6911 315.477 43.2804C316.011 43.8698 316.393 44.5844 316.623 45.4244C316.852 46.2644 316.967 47.1871 316.967 48.1898V58.5658C316.355 58.6964 315.433 58.8551 314.2 59.0404C312.967 59.2258 311.576 59.3191 310.027 59.3191C309.001 59.3191 308.063 59.2204 307.213 59.0244C306.361 58.8271 305.636 58.5124 305.036 58.0751C304.436 57.6391 303.967 57.0711 303.628 56.3738C303.289 55.6751 303.12 54.8138 303.12 53.7871C303.12 52.8058 303.312 51.9764 303.693 51.2991C304.075 50.6244 304.595 50.0724 305.248 49.6471C305.903 49.2218 306.661 48.9164 307.523 48.7311C308.385 48.5444 309.285 48.4524 310.223 48.4524C310.66 48.4524 311.117 48.4804 311.599 48.5338C312.077 48.5884 312.591 48.6818 313.136 48.8124V48.1578C313.136 47.6991 313.081 47.2631 312.973 46.8484C312.864 46.4338 312.672 46.0684 312.4 45.7524C312.127 45.4351 311.768 45.1898 311.32 45.0151C310.873 44.8418 310.311 44.7538 309.635 44.7538C308.719 44.7538 307.879 44.8191 307.113 44.9498C306.349 45.0804 305.728 45.2338 305.248 45.4084L304.757 42.2004C305.26 42.0258 305.991 41.8511 306.951 41.6764C307.911 41.5031 308.936 41.4151 310.027 41.4151Z" fill="#231F20"/>
<path d="M321.615 42.7241C322.378 42.5067 323.37 42.2987 324.593 42.1027C325.814 41.9054 327.167 41.8081 328.651 41.8081C330.047 41.8081 331.215 41.9987 332.154 42.3801C333.091 42.7627 333.839 43.2974 334.397 43.9841C334.953 44.6707 335.346 45.5014 335.575 46.4721C335.805 47.4427 335.919 48.5067 335.919 49.6627V59.2854H331.958V50.2854C331.958 49.3681 331.898 48.5881 331.778 47.9441C331.657 47.3014 331.462 46.7774 331.189 46.3734C330.915 45.9707 330.545 45.6761 330.077 45.4894C329.606 45.3054 329.033 45.2121 328.358 45.2121C327.855 45.2121 327.331 45.2441 326.786 45.3094C326.241 45.3747 325.837 45.4294 325.575 45.4734V59.2854H321.615V42.7241Z" fill="#231F20"/>
<path d="M356.93 59.3184C355.381 59.3184 354.05 59.0957 352.937 58.6477C351.825 58.201 350.901 57.573 350.172 56.765C349.441 55.9584 348.901 55.009 348.552 53.9184C348.202 52.8264 348.028 51.6264 348.028 50.317V36.145H352.184V49.925C352.184 50.9504 352.298 51.829 352.528 52.5597C352.757 53.2904 353.084 53.885 353.51 54.3437C353.936 54.801 354.437 55.1397 355.016 55.3584C355.593 55.5757 356.242 55.685 356.962 55.685C357.682 55.685 358.338 55.5757 358.926 55.3584C359.516 55.1397 360.022 54.801 360.449 54.3437C360.874 53.885 361.201 53.2904 361.43 52.5597C361.66 51.829 361.774 50.9504 361.774 49.925V36.145H365.932V50.317C365.932 51.6264 365.75 52.8264 365.392 53.9184C365.03 55.009 364.485 55.9584 363.754 56.765C363.022 57.573 362.09 58.201 360.957 58.6477C359.821 59.0957 358.48 59.3184 356.93 59.3184Z" fill="#231F20"/>
<path d="M370.808 42.7241C371.571 42.5067 372.563 42.2987 373.785 42.1027C375.007 41.9054 376.36 41.8081 377.844 41.8081C379.24 41.8081 380.408 41.9987 381.347 42.3801C382.284 42.7627 383.032 43.2974 383.589 43.9841C384.145 44.6707 384.539 45.5014 384.768 46.4721C384.997 47.4427 385.112 48.5067 385.112 49.6627V59.2854H381.151V50.2854C381.151 49.3681 381.091 48.5881 380.971 47.9441C380.849 47.3014 380.655 46.7774 380.381 46.3734C380.108 45.9707 379.737 45.6761 379.269 45.4894C378.799 45.3054 378.227 45.2121 377.551 45.2121C377.048 45.2121 376.524 45.2441 375.979 45.3094C375.433 45.3747 375.029 45.4294 374.768 45.4734V59.2854H370.808V42.7241Z" fill="#231F20"/>
<path d="M393.751 59.2854H389.791V42.1681H393.751V59.2854ZM394.176 37.1601C394.176 37.9014 393.936 38.4907 393.456 38.9267C392.976 39.3641 392.409 39.5814 391.755 39.5814C391.077 39.5814 390.499 39.3641 390.02 38.9267C389.54 38.4907 389.3 37.9014 389.3 37.1601C389.3 36.3961 389.54 35.7961 390.02 35.3601C390.499 34.9227 391.077 34.7054 391.755 34.7054C392.409 34.7054 392.976 34.9227 393.456 35.3601C393.936 35.7961 394.176 36.3961 394.176 37.1601Z" fill="#231F20"/>
<path d="M410.017 50.2853C410.017 48.5826 409.653 47.2359 408.921 46.2426C408.191 45.2506 407.171 44.7533 405.861 44.7533C404.552 44.7533 403.532 45.2506 402.801 46.2426C402.069 47.2359 401.705 48.5826 401.705 50.2853C401.705 52.0093 402.069 53.3733 402.801 54.3759C403.532 55.3799 404.552 55.8813 405.861 55.8813C407.171 55.8813 408.191 55.3799 408.921 54.3759C409.653 53.3733 410.017 52.0093 410.017 50.2853ZM414.076 50.2853C414.076 51.6386 413.88 52.8706 413.488 53.9839C413.095 55.0959 412.539 56.0453 411.819 56.8306C411.099 57.6173 410.231 58.2279 409.216 58.6639C408.201 59.1013 407.083 59.3186 405.861 59.3186C404.639 59.3186 403.527 59.1013 402.523 58.6639C401.519 58.2279 400.656 57.6173 399.937 56.8306C399.216 56.0453 398.655 55.0959 398.252 53.9839C397.847 52.8706 397.647 51.6386 397.647 50.2853C397.647 48.9319 397.847 47.7053 398.252 46.6026C398.655 45.5013 399.221 44.5573 399.953 43.7719C400.684 42.9853 401.551 42.3799 402.555 41.9546C403.559 41.5293 404.66 41.3159 405.861 41.3159C407.06 41.3159 408.168 41.5293 409.183 41.9546C410.199 42.3799 411.065 42.9853 411.785 43.7719C412.505 44.5573 413.067 45.5013 413.471 46.6026C413.875 47.7053 414.076 48.9319 414.076 50.2853Z" fill="#231F20"/>
<path d="M417.972 42.7241C418.735 42.5067 419.727 42.2987 420.949 42.1027C422.171 41.9054 423.524 41.8081 425.008 41.8081C426.404 41.8081 427.572 41.9987 428.511 42.3801C429.449 42.7627 430.196 43.2974 430.753 43.9841C431.309 44.6707 431.703 45.5014 431.932 46.4721C432.161 47.4427 432.276 48.5067 432.276 49.6627V59.2854H428.315V50.2854C428.315 49.3681 428.255 48.5881 428.135 47.9441C428.013 47.3014 427.819 46.7774 427.545 46.3734C427.272 45.9707 426.901 45.6761 426.433 45.4894C425.963 45.3054 425.391 45.2121 424.715 45.2121C424.212 45.2121 423.688 45.2441 423.143 45.3094C422.597 45.3747 422.193 45.4294 421.932 45.4734V59.2854H417.972V42.7241Z" fill="#231F20"/>
</g>
</g>
<defs>
<clipPath id="clip0_115_443">
<rect width="463" height="151" fill="white"/>
</clipPath>
</defs>
</svg>
