<svg role="img" viewBox="0 0 290 182" fill="none" xmlns="http://www.w3.org/2000/svg">
<title>Logo of the European Funds - Smart Growth Programme</title>
<g clip-path="url(#clip0_114_276)">
<path d="M90.9533 151.417L30.4719 140.078V49.3703L90.9533 30.473V151.417Z" fill="#074EA2"/>
<mask id="mask0_114_276" style="mask-type:luminance" maskUnits="userSpaceOnUse" x="-30" y="-30" width="351" height="242">
<path d="M-30 -29.9999H320.523V211.889H-30V-29.9999Z" fill="white"/>
</mask>
<g mask="url(#mask0_114_276)">
<path d="M30.4808 118.278V94.7274C33.5262 95.5567 36.9142 95.9447 39.1475 94.5967C44.0328 91.6834 51.4315 82.7634 51.4315 82.7634C51.4315 82.7634 47.5302 92.3834 49.0022 95.9167C50.5568 99.666 59.8008 99.8674 59.8008 99.8674C59.8008 99.8674 49.3515 106.219 44.4888 110.431C39.4875 114.726 36.0155 130.515 36.0155 130.515C36.0155 130.515 33.5902 120.395 30.4808 118.278Z" fill="#FFF200"/>
<path d="M90.9533 76.7304C88.8613 78.0478 86.8079 79.0851 85.2653 79.3864C80.4053 80.3238 75.2039 74.7411 75.2039 74.7411C75.2039 74.7411 76.4253 82.9038 73.3693 87.9318C70.1506 93.2304 59.8013 99.8664 59.8013 99.8664C59.8013 99.8664 71.2413 97.6531 73.4653 101.201C75.8306 105.006 76.1466 118.26 76.1466 118.26C76.1466 118.26 81.9759 102.348 87.2639 100.18C88.2933 99.7424 89.5799 99.3371 90.9533 98.9464V76.7304Z" fill="#ED1C24"/>
<path d="M51.4322 82.7629C51.4322 82.7629 57.2776 73.6043 56.9242 70.3443C56.5776 67.2496 50.5149 66.1336 50.5149 66.1336C50.5149 66.1336 58.4522 64.1843 61.9136 61.0723C65.2536 58.0656 68.1722 51.8283 68.1722 51.8283C68.1722 51.8283 68.9109 56.9896 71.8802 57.7296C74.9442 58.5003 83.1296 55.1949 83.1296 55.1949C83.1296 55.1949 76.6682 61.3096 74.1322 64.6443C71.4829 68.1216 75.2042 74.7416 75.2042 74.7416C75.2042 74.7416 68.3456 72.3549 64.5096 73.0723C60.7322 73.7896 51.4322 82.7629 51.4322 82.7629Z" fill="white"/>
<path d="M121.173 75.8247V53.142H135.739V56.6447H125.297V62.2407H134.592V65.678H125.297V72.3234H136.524V75.8247H121.173Z" fill="#231F20"/>
<path d="M153.446 74.9414C152.682 75.1374 151.69 75.3401 150.467 75.5468C149.244 75.7548 147.903 75.8574 146.442 75.8574C145.067 75.8574 143.915 75.6614 142.988 75.2681C142.06 74.8761 141.319 74.3308 140.763 73.6321C140.206 72.9334 139.807 72.0988 139.567 71.1281C139.327 70.1574 139.207 69.0934 139.207 67.9374V58.3468H143.168V67.3148C143.168 69.1481 143.435 70.4574 143.97 71.2428C144.504 72.0281 145.438 72.4201 146.768 72.4201C147.248 72.4201 147.755 72.3988 148.291 72.3561C148.826 72.3121 149.223 72.2574 149.486 72.1921V58.3468H153.446V74.9414Z" fill="#231F20"/>
<path d="M168.044 62.274C167.716 62.1647 167.264 62.0514 166.685 61.9314C166.106 61.8114 165.436 61.75 164.673 61.75C164.236 61.75 163.772 61.7954 163.281 61.882C162.79 61.9687 162.446 62.0447 162.25 62.11V75.8247H158.29V59.5247C159.053 59.242 160.009 58.974 161.154 58.7234C162.3 58.4727 163.57 58.346 164.966 58.346C165.229 58.346 165.534 58.3634 165.884 58.3954C166.233 58.4287 166.581 58.4727 166.932 58.526C167.28 58.5807 167.618 58.6474 167.945 58.7234C168.273 58.7994 168.534 58.87 168.732 58.9354L168.044 62.274Z" fill="#231F20"/>
<path d="M182.707 66.8241C182.707 65.1214 182.343 63.7748 181.611 62.7814C180.879 61.7894 179.861 61.2921 178.551 61.2921C177.241 61.2921 176.221 61.7894 175.49 62.7814C174.759 63.7748 174.394 65.1214 174.394 66.8241C174.394 68.5481 174.759 69.9121 175.49 70.9148C176.221 71.9188 177.241 72.4201 178.551 72.4201C179.861 72.4201 180.879 71.9188 181.611 70.9148C182.343 69.9121 182.707 68.5481 182.707 66.8241ZM186.765 66.8241C186.765 68.1774 186.569 69.4094 186.177 70.5228C185.783 71.6348 185.229 72.5841 184.507 73.3694C183.789 74.1561 182.921 74.7668 181.905 75.2028C180.89 75.6401 179.773 75.8574 178.551 75.8574C177.329 75.8574 176.215 75.6401 175.211 75.2028C174.207 74.7668 173.346 74.1561 172.626 73.3694C171.906 72.5841 171.345 71.6348 170.941 70.5228C170.537 69.4094 170.335 68.1774 170.335 66.8241C170.335 65.4708 170.537 64.2441 170.941 63.1414C171.345 62.0401 171.911 61.0961 172.643 60.3108C173.374 59.5241 174.241 58.9188 175.245 58.4934C176.249 58.0681 177.35 57.8548 178.551 57.8548C179.749 57.8548 180.858 58.0681 181.871 58.4934C182.887 58.9188 183.754 59.5241 184.475 60.3108C185.194 61.0961 185.757 62.0401 186.161 63.1414C186.565 64.2441 186.765 65.4708 186.765 66.8241Z" fill="#231F20"/>
<path d="M202.018 67.3476C202.018 65.5796 201.62 64.2063 200.824 63.2236C200.028 62.241 198.745 61.7503 196.978 61.7503C196.606 61.7503 196.22 61.7663 195.817 61.7996C195.412 61.833 195.014 61.9036 194.621 62.013V71.7983C194.97 72.0396 195.434 72.2636 196.012 72.4703C196.59 72.6783 197.208 72.781 197.862 72.781C199.302 72.781 200.354 72.2903 201.02 71.3076C201.685 70.3263 202.018 69.0063 202.018 67.3476ZM206.077 67.2823C206.077 68.5916 205.908 69.7916 205.57 70.8823C205.232 71.9743 204.746 72.9116 204.113 73.697C203.481 74.4836 202.689 75.0943 201.74 75.5303C200.792 75.9663 199.716 76.185 198.516 76.185C197.709 76.185 196.966 76.0863 196.29 75.8903C195.614 75.6943 195.057 75.4756 194.621 75.2356V81.8796H190.661V59.2636C191.468 59.045 192.461 58.8383 193.64 58.641C194.818 58.445 196.061 58.3463 197.372 58.3463C198.724 58.3463 199.936 58.5543 201.004 58.969C202.073 59.3836 202.985 59.9783 203.737 60.753C204.49 61.5276 205.068 62.465 205.472 63.5676C205.876 64.669 206.077 65.9076 206.077 67.2823Z" fill="#231F20"/>
<path d="M220.512 65.1874C220.512 64.642 220.435 64.1234 220.283 63.6327C220.129 63.142 219.907 62.7154 219.611 62.3554C219.317 61.9954 218.957 61.7127 218.532 61.5047C218.105 61.298 217.599 61.194 217.009 61.194C216.399 61.194 215.864 61.3087 215.405 61.538C214.947 61.7674 214.56 62.0674 214.244 62.438C213.928 62.8087 213.681 63.2354 213.507 63.714C213.332 64.194 213.212 64.686 213.148 65.1874H220.512ZM209.024 66.9554C209.024 65.4487 209.247 64.13 209.695 62.994C210.141 61.8594 210.736 60.9154 211.479 60.1634C212.219 59.41 213.071 58.8434 214.032 58.4607C214.991 58.0794 215.973 57.8887 216.977 57.8887C219.333 57.8887 221.171 58.6194 222.492 60.0807C223.812 61.5434 224.472 63.726 224.472 66.6274C224.472 66.846 224.467 67.0914 224.456 67.3634C224.444 67.6367 224.429 67.882 224.407 68.1007H213.115C213.223 69.4754 213.708 70.5394 214.571 71.2914C215.432 72.0447 216.683 72.4207 218.319 72.4207C219.279 72.4207 220.156 72.334 220.953 72.1594C221.751 71.9847 222.377 71.798 222.835 71.6034L223.36 74.8434C223.141 74.9527 222.84 75.0674 222.459 75.1874C222.077 75.306 221.641 75.4154 221.151 75.514C220.659 75.6114 220.129 75.694 219.563 75.7594C218.995 75.8247 218.417 75.8567 217.827 75.8567C216.321 75.8567 215.013 75.634 213.9 75.1874C212.787 74.7394 211.872 74.118 211.151 73.3207C210.429 72.5247 209.896 71.586 209.547 70.506C209.199 69.426 209.024 68.2434 209.024 66.9554Z" fill="#231F20"/>
<path d="M234.487 72.7154C235.709 72.7154 236.635 72.65 237.269 72.5194V68.1327C237.051 68.0674 236.735 68.002 236.319 67.9367C235.905 67.8714 235.447 67.838 234.946 67.838C234.509 67.838 234.067 67.8714 233.621 67.9367C233.173 68.002 232.769 68.122 232.409 68.2967C232.049 68.4714 231.759 68.7167 231.541 69.0327C231.323 69.35 231.214 69.7474 231.214 70.2274C231.214 71.166 231.509 71.8154 232.098 72.1754C232.686 72.5354 233.483 72.7154 234.487 72.7154ZM234.159 57.954C235.469 57.954 236.57 58.118 237.465 58.4447C238.359 58.7714 239.074 59.23 239.61 59.8194C240.143 60.4087 240.526 61.1234 240.755 61.9634C240.985 62.8034 241.099 63.726 241.099 64.7287V75.1047C240.487 75.2354 239.566 75.394 238.333 75.5794C237.099 75.7647 235.709 75.8567 234.159 75.8567C233.134 75.8567 232.195 75.7594 231.346 75.5634C230.494 75.366 229.769 75.05 229.169 74.614C228.569 74.178 228.099 73.61 227.761 72.9114C227.422 72.214 227.253 71.3527 227.253 70.326C227.253 69.3447 227.445 68.5154 227.826 67.838C228.207 67.162 228.727 66.6114 229.381 66.186C230.035 65.7607 230.793 65.4554 231.655 65.27C232.517 65.0834 233.418 64.9914 234.355 64.9914C234.793 64.9914 235.25 65.0194 235.731 65.0727C236.21 65.1274 236.723 65.2194 237.269 65.3514V64.6967C237.269 64.238 237.214 63.802 237.106 63.3874C236.997 62.9727 236.805 62.6074 236.533 62.2914C236.259 61.974 235.901 61.7287 235.453 61.554C235.006 61.3807 234.443 61.2927 233.767 61.2927C232.85 61.2927 232.011 61.358 231.246 61.4887C230.482 61.6194 229.861 61.7727 229.381 61.9474L228.89 58.7394C229.393 58.5647 230.123 58.39 231.083 58.2154C232.043 58.042 233.069 57.954 234.159 57.954Z" fill="#231F20"/>
<path d="M245.746 59.2629C246.509 59.0456 247.501 58.8376 248.724 58.6416C249.945 58.4442 251.298 58.3469 252.782 58.3469C254.178 58.3469 255.346 58.5376 256.285 58.9189C257.222 59.3016 257.97 59.8362 258.528 60.5229C259.084 61.2096 259.477 62.0402 259.706 63.0109C259.936 63.9816 260.05 65.0456 260.05 66.2016V75.8242H256.089V66.8242C256.089 65.9069 256.029 65.1269 255.909 64.4842C255.788 63.8402 255.593 63.3162 255.32 62.9122C255.046 62.5096 254.676 62.2149 254.208 62.0282C253.737 61.8442 253.164 61.7509 252.489 61.7509C251.986 61.7509 251.462 61.7829 250.917 61.8482C250.372 61.9136 249.968 61.9682 249.706 62.0122V75.8242H245.746V59.2629Z" fill="#231F20"/>
<path d="M121.173 106.061V83.3786H135.509V86.8813H125.297V92.6746H134.364V96.1759H125.297V106.061H121.173Z" fill="#231F20"/>
<path d="M152.137 105.178C151.373 105.374 150.381 105.576 149.158 105.783C147.936 105.991 146.594 106.094 145.133 106.094C143.758 106.094 142.606 105.898 141.68 105.504C140.752 105.112 140.01 104.567 139.454 103.868C138.897 103.17 138.498 102.335 138.258 101.364C138.018 100.394 137.898 99.3298 137.898 98.1738V88.5831H141.86V97.5511C141.86 99.3844 142.126 100.694 142.661 101.479C143.196 102.264 144.129 102.656 145.46 102.656C145.94 102.656 146.446 102.635 146.982 102.592C147.517 102.548 147.914 102.494 148.177 102.428V88.5831H152.137V105.178Z" fill="#231F20"/>
<path d="M156.981 89.4992C157.745 89.2819 158.737 89.0739 159.96 88.8779C161.181 88.6805 162.535 88.5832 164.019 88.5832C165.415 88.5832 166.583 88.7739 167.52 89.1552C168.459 89.5379 169.207 90.0725 169.763 90.7592C170.319 91.4459 170.712 92.2765 170.941 93.2472C171.171 94.2179 171.285 95.2819 171.285 96.4379V106.061H167.324V97.0605C167.324 96.1432 167.264 95.3632 167.144 94.7205C167.024 94.0765 166.828 93.5525 166.555 93.1485C166.283 92.7459 165.911 92.4512 165.443 92.2645C164.973 92.0805 164.4 91.9872 163.724 91.9872C163.221 91.9872 162.699 92.0192 162.152 92.0845C161.607 92.1499 161.204 92.2045 160.941 92.2485V106.061H156.981V89.4992Z" fill="#231F20"/>
<path d="M179.042 97.0604C179.042 98.8057 179.457 100.175 180.286 101.168C181.114 102.16 182.259 102.656 183.722 102.656C184.354 102.656 184.895 102.63 185.343 102.575C185.79 102.522 186.155 102.46 186.439 102.395V92.5764C186.089 92.3364 185.625 92.1124 185.047 91.9044C184.469 91.6977 183.853 91.5937 183.198 91.5937C181.758 91.5937 180.705 92.0857 180.039 93.0671C179.374 94.0484 179.042 95.3804 179.042 97.0604ZM190.399 105.144C189.614 105.386 188.625 105.603 187.437 105.799C186.247 105.995 184.999 106.094 183.689 106.094C182.337 106.094 181.125 105.887 180.057 105.472C178.987 105.058 178.075 104.463 177.323 103.688C176.57 102.914 175.991 101.975 175.589 100.874C175.185 99.7711 174.983 98.5324 174.983 97.1577C174.983 95.8057 175.151 94.5777 175.49 93.4764C175.829 92.3737 176.325 91.4297 176.979 90.6444C177.634 89.8591 178.43 89.2538 179.369 88.8284C180.306 88.4031 181.387 88.1898 182.61 88.1898C183.438 88.1898 184.169 88.2884 184.802 88.4844C185.435 88.6804 185.981 88.8991 186.439 89.1391V84.0324L190.399 83.3791V105.144Z" fill="#231F20"/>
<path d="M199.532 102.821C200.578 102.821 201.341 102.696 201.822 102.445C202.302 102.194 202.542 101.764 202.542 101.152C202.542 100.585 202.285 100.116 201.773 99.7436C201.26 99.3742 200.414 98.9702 199.236 98.5329C198.516 98.2716 197.856 97.9929 197.257 97.6982C196.656 97.4036 196.138 97.0609 195.701 96.6676C195.265 96.2742 194.921 95.7996 194.67 95.2436C194.42 94.6876 194.294 94.0062 194.294 93.1982C194.294 91.6262 194.872 90.3889 196.029 89.4836C197.185 88.5782 198.756 88.1249 200.742 88.1249C201.745 88.1249 202.706 88.2182 203.622 88.4036C204.54 88.5889 205.226 88.7689 205.684 88.9436L204.964 92.1502C204.528 91.9542 203.972 91.7742 203.294 91.6102C202.618 91.4462 201.833 91.3649 200.938 91.3649C200.13 91.3649 199.477 91.5022 198.974 91.7742C198.473 92.0476 198.222 92.4676 198.222 93.0342C198.222 93.3182 198.272 93.5689 198.369 93.7876C198.468 94.0062 198.636 94.2076 198.877 94.3929C199.116 94.5782 199.433 94.7636 199.826 94.9489C200.218 95.1342 200.698 95.3249 201.266 95.5222C202.204 95.8716 203.001 96.2142 203.656 96.5529C204.31 96.8916 204.849 97.2729 205.276 97.6982C205.701 98.1236 206.012 98.6102 206.209 99.1542C206.404 99.7009 206.504 100.356 206.504 101.12C206.504 102.756 205.897 103.994 204.686 104.834C203.476 105.674 201.745 106.094 199.498 106.094C197.993 106.094 196.781 105.969 195.865 105.717C194.948 105.466 194.305 105.265 193.934 105.112L194.621 101.806C195.21 102.046 195.914 102.276 196.732 102.493C197.552 102.712 198.484 102.821 199.532 102.821Z" fill="#231F20"/>
<path d="M124.677 134.504C126.866 134.504 127.959 133.755 127.959 132.257C127.959 131.797 127.863 131.404 127.669 131.08C127.474 130.756 127.211 130.476 126.879 130.239C126.549 130.001 126.17 129.795 125.746 129.623C125.321 129.449 124.871 129.277 124.397 129.104C123.849 128.917 123.33 128.704 122.841 128.467C122.351 128.229 121.926 127.948 121.566 127.624C121.206 127.3 120.922 126.916 120.713 126.469C120.505 126.023 120.399 125.483 120.399 124.849C120.399 123.539 120.846 122.516 121.739 121.781C122.631 121.047 123.863 120.68 125.433 120.68C126.341 120.68 127.163 120.777 127.906 120.972C128.647 121.167 129.191 121.379 129.537 121.609L128.867 123.315C128.565 123.128 128.114 122.945 127.517 122.764C126.919 122.585 126.225 122.495 125.433 122.495C125.03 122.495 124.655 122.537 124.31 122.624C123.963 122.711 123.662 122.84 123.402 123.013C123.143 123.185 122.938 123.405 122.787 123.672C122.635 123.939 122.559 124.252 122.559 124.612C122.559 125.015 122.639 125.353 122.797 125.627C122.955 125.9 123.178 126.141 123.467 126.351C123.755 126.559 124.09 126.749 124.471 126.923C124.853 127.095 125.274 127.268 125.735 127.441C126.383 127.7 126.977 127.959 127.517 128.219C128.057 128.477 128.525 128.787 128.921 129.147C129.317 129.507 129.623 129.936 129.839 130.432C130.055 130.929 130.163 131.531 130.163 132.236C130.163 133.547 129.683 134.555 128.727 135.26C127.769 135.965 126.419 136.319 124.677 136.319C124.086 136.319 123.542 136.279 123.046 136.2C122.549 136.12 122.106 136.027 121.718 135.919C121.329 135.811 120.994 135.696 120.713 135.573C120.431 135.451 120.213 135.347 120.054 135.26L120.681 133.532C121.011 133.72 121.515 133.928 122.193 134.159C122.87 134.389 123.697 134.504 124.677 134.504Z" fill="#231F20"/>
<path d="M132.452 125.41C132.913 125.295 133.521 125.173 134.277 125.043C135.033 124.913 135.908 124.849 136.901 124.849C137.621 124.849 138.227 124.946 138.716 125.141C139.205 125.334 139.616 125.619 139.948 125.993C140.048 125.922 140.207 125.821 140.423 125.691C140.639 125.562 140.905 125.435 141.221 125.313C141.539 125.19 141.892 125.082 142.28 124.989C142.669 124.895 143.087 124.849 143.533 124.849C144.396 124.849 145.103 124.975 145.649 125.226C146.197 125.479 146.625 125.835 146.935 126.297C147.244 126.757 147.453 127.303 147.561 127.938C147.669 128.571 147.724 129.262 147.724 130.011V136.318H145.715V130.443C145.715 129.781 145.681 129.213 145.617 128.737C145.552 128.262 145.429 127.866 145.251 127.549C145.069 127.233 144.825 126.998 144.516 126.847C144.205 126.695 143.807 126.619 143.317 126.619C142.64 126.619 142.083 126.71 141.643 126.89C141.203 127.07 140.905 127.233 140.747 127.375C140.861 127.75 140.948 128.161 141.007 128.607C141.063 129.053 141.092 129.521 141.092 130.011V136.318H139.084V130.443C139.084 129.781 139.047 129.213 138.976 128.737C138.903 128.262 138.777 127.866 138.597 127.549C138.417 127.233 138.173 126.998 137.863 126.847C137.553 126.695 137.161 126.619 136.685 126.619C136.484 126.619 136.268 126.627 136.037 126.641C135.808 126.657 135.588 126.674 135.379 126.695C135.171 126.717 134.98 126.742 134.807 126.771C134.633 126.799 134.519 126.822 134.461 126.835V136.318H132.452V125.41Z" fill="#231F20"/>
<path d="M154.743 134.655C155.218 134.655 155.639 134.644 156.007 134.623C156.374 134.6 156.68 134.562 156.924 134.504V131.156C156.78 131.084 156.547 131.023 156.223 130.972C155.899 130.922 155.507 130.896 155.046 130.896C154.743 130.896 154.423 130.919 154.084 130.962C153.746 131.004 153.436 131.095 153.156 131.232C152.875 131.368 152.64 131.555 152.454 131.794C152.267 132.031 152.172 132.344 152.172 132.734C152.172 133.454 152.403 133.954 152.864 134.234C153.326 134.515 153.951 134.655 154.743 134.655ZM154.571 124.59C155.378 124.59 156.058 124.694 156.611 124.903C157.166 125.112 157.612 125.407 157.951 125.788C158.29 126.17 158.53 126.624 158.675 127.15C158.819 127.675 158.891 128.255 158.891 128.888V135.908C158.718 135.936 158.476 135.976 158.167 136.027C157.856 136.078 157.508 136.124 157.119 136.167C156.731 136.211 156.31 136.25 155.855 136.286C155.402 136.322 154.952 136.34 154.506 136.34C153.872 136.34 153.288 136.275 152.756 136.146C152.223 136.016 151.763 135.811 151.374 135.53C150.986 135.25 150.683 134.879 150.466 134.418C150.251 133.958 150.143 133.403 150.143 132.755C150.143 132.135 150.268 131.602 150.52 131.156C150.772 130.71 151.115 130.35 151.547 130.076C151.979 129.803 152.483 129.6 153.059 129.471C153.634 129.342 154.239 129.276 154.874 129.276C155.075 129.276 155.283 129.288 155.499 129.31C155.715 129.331 155.92 129.36 156.115 129.396C156.31 129.432 156.479 129.464 156.623 129.492C156.767 129.522 156.867 129.544 156.924 129.558V128.996C156.924 128.664 156.888 128.338 156.818 128.014C156.744 127.69 156.615 127.402 156.428 127.15C156.242 126.898 155.986 126.695 155.662 126.544C155.338 126.394 154.916 126.318 154.398 126.318C153.735 126.318 153.156 126.364 152.659 126.458C152.162 126.552 151.791 126.65 151.547 126.75L151.308 125.087C151.568 124.971 152 124.859 152.604 124.751C153.21 124.644 153.864 124.59 154.571 124.59Z" fill="#231F20"/>
<path d="M166.255 124.849C166.429 124.849 166.626 124.86 166.85 124.881C167.073 124.904 167.293 124.932 167.509 124.968C167.725 125.004 167.922 125.04 168.102 125.076C168.282 125.112 168.415 125.144 168.502 125.173L168.157 126.922C167.998 126.865 167.735 126.796 167.367 126.717C167.001 126.638 166.529 126.598 165.953 126.598C165.578 126.598 165.207 126.638 164.841 126.717C164.474 126.796 164.231 126.85 164.117 126.878V136.318H162.109V125.562C162.583 125.389 163.174 125.226 163.879 125.076C164.585 124.925 165.377 124.849 166.255 124.849Z" fill="#231F20"/>
<path d="M172.217 124.828H176.472V126.512H172.217V131.696C172.217 132.258 172.26 132.722 172.346 133.089C172.433 133.457 172.562 133.745 172.736 133.953C172.908 134.162 173.124 134.309 173.384 134.396C173.642 134.482 173.945 134.525 174.29 134.525C174.896 134.525 175.381 134.458 175.748 134.321C176.116 134.184 176.372 134.086 176.516 134.029L176.904 135.692C176.702 135.793 176.349 135.918 175.845 136.07C175.341 136.221 174.766 136.297 174.117 136.297C173.354 136.297 172.724 136.2 172.228 136.005C171.73 135.81 171.33 135.52 171.029 135.13C170.726 134.742 170.514 134.264 170.392 133.694C170.269 133.125 170.208 132.466 170.208 131.717V121.696L172.217 121.35V124.828Z" fill="#231F20"/>
<path d="M193.061 128.65H195.155V135.649C194.982 135.706 194.734 135.772 194.41 135.844C194.087 135.916 193.711 135.986 193.287 136.06C192.863 136.132 192.398 136.193 191.894 136.242C191.39 136.293 190.878 136.318 190.361 136.318C189.31 136.318 188.351 136.146 187.487 135.8C186.623 135.454 185.882 134.95 185.262 134.288C184.645 133.625 184.165 132.812 183.826 131.846C183.487 130.882 183.318 129.773 183.318 128.521C183.318 127.268 183.51 126.156 183.891 125.184C184.273 124.212 184.787 123.394 185.435 122.732C186.085 122.069 186.843 121.566 187.714 121.22C188.586 120.874 189.518 120.702 190.511 120.702C191.189 120.702 191.79 120.745 192.314 120.832C192.841 120.917 193.29 121.018 193.665 121.133C194.039 121.249 194.346 121.364 194.583 121.48C194.821 121.594 194.982 121.681 195.069 121.738L194.399 123.488C193.981 123.214 193.427 122.988 192.737 122.808C192.045 122.628 191.339 122.538 190.619 122.538C189.857 122.538 189.161 122.674 188.534 122.948C187.909 123.221 187.375 123.618 186.937 124.136C186.497 124.654 186.155 125.285 185.911 126.026C185.666 126.768 185.543 127.6 185.543 128.521C185.543 129.414 185.647 130.228 185.857 130.961C186.066 131.696 186.382 132.326 186.807 132.852C187.231 133.377 187.757 133.784 188.383 134.072C189.01 134.36 189.749 134.504 190.598 134.504C191.202 134.504 191.717 134.472 192.143 134.406C192.567 134.342 192.873 134.281 193.061 134.224V128.65Z" fill="#231F20"/>
<path d="M202.349 124.849C202.522 124.849 202.719 124.86 202.942 124.881C203.166 124.904 203.385 124.932 203.601 124.968C203.818 125.004 204.015 125.04 204.195 125.076C204.377 125.112 204.509 125.144 204.595 125.173L204.25 126.922C204.091 126.865 203.827 126.796 203.461 126.717C203.094 126.638 202.622 126.598 202.046 126.598C201.671 126.598 201.302 126.638 200.934 126.717C200.567 126.796 200.325 126.85 200.21 126.878V136.318H198.202V125.562C198.677 125.389 199.266 125.226 199.973 125.076C200.678 124.925 201.47 124.849 202.349 124.849Z" fill="#231F20"/>
<path d="M214.25 130.443C214.25 129.177 213.966 128.171 213.396 127.43C212.828 126.689 212.055 126.318 211.075 126.318C210.095 126.318 209.322 126.689 208.752 127.43C208.183 128.171 207.899 129.177 207.899 130.443C207.899 131.71 208.183 132.715 208.752 133.457C209.322 134.198 210.095 134.569 211.075 134.569C212.055 134.569 212.828 134.198 213.396 133.457C213.966 132.715 214.25 131.71 214.25 130.443ZM216.344 130.443C216.344 131.335 216.216 132.142 215.956 132.862C215.698 133.582 215.332 134.202 214.866 134.721C214.398 135.238 213.839 135.638 213.191 135.918C212.544 136.199 211.838 136.339 211.075 136.339C210.311 136.339 209.607 136.199 208.958 135.918C208.31 135.638 207.752 135.238 207.283 134.721C206.816 134.202 206.452 133.582 206.194 132.862C205.935 132.142 205.804 131.335 205.804 130.443C205.804 129.565 205.935 128.762 206.194 128.034C206.452 127.307 206.816 126.685 207.283 126.166C207.752 125.647 208.31 125.249 208.958 124.967C209.607 124.687 210.311 124.546 211.075 124.546C211.838 124.546 212.544 124.687 213.191 124.967C213.839 125.249 214.398 125.647 214.866 126.166C215.332 126.685 215.698 127.307 215.956 128.034C216.216 128.762 216.344 129.565 216.344 130.443Z" fill="#231F20"/>
<path d="M227.967 136.318C227.564 135.281 227.136 134.097 226.682 132.765C226.228 131.433 225.815 130.048 225.439 128.608C225.066 130.048 224.656 131.433 224.21 132.765C223.763 134.097 223.338 135.281 222.935 136.318H221.184C220.523 134.836 219.875 133.144 219.24 131.242C218.607 129.342 218.01 127.29 217.448 125.086H219.607C219.752 125.764 219.926 126.498 220.127 127.29C220.328 128.081 220.54 128.874 220.764 129.665C220.987 130.457 221.22 131.221 221.466 131.956C221.711 132.689 221.94 133.33 222.158 133.877C222.402 133.201 222.643 132.485 222.882 131.729C223.118 130.973 223.344 130.209 223.56 129.438C223.776 128.669 223.983 127.913 224.176 127.17C224.371 126.429 224.54 125.734 224.684 125.086H226.347C226.478 125.734 226.635 126.429 226.823 127.17C227.01 127.913 227.212 128.669 227.428 129.438C227.644 130.209 227.871 130.973 228.107 131.729C228.346 132.485 228.587 133.201 228.831 133.877C229.048 133.33 229.274 132.689 229.511 131.956C229.75 131.221 229.984 130.457 230.215 129.665C230.443 128.874 230.66 128.081 230.862 127.29C231.063 126.498 231.236 125.764 231.38 125.086H233.454C232.892 127.29 232.295 129.342 231.662 131.242C231.027 133.144 230.38 134.836 229.716 136.318H227.967Z" fill="#231F20"/>
<path d="M237.341 124.828H241.595V126.512H237.341V131.696C237.341 132.258 237.385 132.722 237.471 133.089C237.557 133.457 237.687 133.745 237.859 133.953C238.033 134.162 238.249 134.309 238.507 134.396C238.766 134.482 239.069 134.525 239.415 134.525C240.019 134.525 240.506 134.458 240.873 134.321C241.241 134.184 241.495 134.086 241.641 134.029L242.029 135.692C241.826 135.793 241.474 135.918 240.97 136.07C240.466 136.221 239.89 136.297 239.242 136.297C238.479 136.297 237.849 136.2 237.353 136.005C236.855 135.81 236.455 135.52 236.153 135.13C235.851 134.742 235.638 134.264 235.517 133.694C235.393 133.125 235.333 132.466 235.333 131.717V121.696L237.341 121.35V124.828Z" fill="#231F20"/>
<path d="M244.037 136.318V119.902L246.047 119.557V125.302C246.42 125.158 246.82 125.046 247.245 124.968C247.671 124.889 248.091 124.849 248.509 124.849C249.401 124.849 250.143 124.976 250.733 125.226C251.324 125.48 251.795 125.832 252.148 126.285C252.501 126.738 252.749 127.282 252.895 127.916C253.037 128.549 253.109 129.248 253.109 130.012V136.318H251.101V130.444C251.101 129.752 251.055 129.161 250.96 128.672C250.867 128.182 250.712 127.786 250.496 127.484C250.28 127.181 249.992 126.962 249.632 126.825C249.272 126.688 248.825 126.62 248.292 126.62C248.076 126.62 247.853 126.634 247.623 126.664C247.393 126.692 247.173 126.725 246.964 126.761C246.755 126.796 246.568 126.836 246.403 126.878C246.236 126.922 246.119 126.958 246.047 126.986V136.318H244.037Z" fill="#231F20"/>
</g>
</g>
<defs>
<clipPath id="clip0_114_276">
<rect width="290" height="182" fill="white"/>
</clipPath>
</defs>
</svg>
