<svg role="img" viewBox="0 0 340 182" fill="none" xmlns="http://www.w3.org/2000/svg">
<title>Logo Funduszy Europejskich - Program Inteligenty Rozwój</title>
<g clip-path="url(#clip0_114_221)">
<path d="M90.9533 151.417L30.4719 140.078V49.3703L90.9533 30.473V151.417Z" fill="#074EA2"/>
<mask id="mask0_114_221" style="mask-type:luminance" maskUnits="userSpaceOnUse" x="-30" y="-30" width="401" height="242">
<path d="M-30 -29.9999H370.713V211.889H-30V-29.9999Z" fill="white"/>
</mask>
<g mask="url(#mask0_114_221)">
<path d="M30.4808 118.278V94.7274C33.5262 95.5567 36.9142 95.9447 39.1475 94.5967C44.0328 91.6834 51.4315 82.7634 51.4315 82.7634C51.4315 82.7634 47.5302 92.3834 49.0022 95.9167C50.5568 99.666 59.8008 99.8674 59.8008 99.8674C59.8008 99.8674 49.3515 106.219 44.4888 110.431C39.4875 114.726 36.0155 130.515 36.0155 130.515C36.0155 130.515 33.5902 120.395 30.4808 118.278Z" fill="#FFF200"/>
<path d="M90.9533 76.7304C88.8613 78.0478 86.8079 79.0851 85.2653 79.3864C80.4053 80.3238 75.2039 74.7411 75.2039 74.7411C75.2039 74.7411 76.4266 82.9038 73.3693 87.9318C70.1506 93.2304 59.8013 99.8664 59.8013 99.8664C59.8013 99.8664 71.2413 97.6531 73.4653 101.201C75.8306 105.006 76.1466 118.26 76.1466 118.26C76.1466 118.26 81.9759 102.348 87.2639 100.18C88.2933 99.7424 89.5799 99.3371 90.9533 98.9464V76.7304Z" fill="#ED1C24"/>
<path d="M51.4322 82.7629C51.4322 82.7629 57.2776 73.6043 56.9242 70.3443C56.5776 67.2496 50.5149 66.1336 50.5149 66.1336C50.5149 66.1336 58.4522 64.1843 61.9136 61.0723C65.2536 58.0656 68.1722 51.8283 68.1722 51.8283C68.1722 51.8283 68.9109 56.9896 71.8802 57.7296C74.9442 58.5003 83.1296 55.1949 83.1296 55.1949C83.1296 55.1949 76.6682 61.3096 74.1322 64.6443C71.4829 68.1216 75.2042 74.7416 75.2042 74.7416C75.2042 74.7416 68.3456 72.3549 64.5096 73.0723C60.7322 73.7896 51.4322 82.7629 51.4322 82.7629Z" fill="white"/>
<path d="M121.174 75.8242V53.1416H135.51V56.6442H125.298V62.4376H134.365V65.9389H125.298V75.8242H121.174Z" fill="#231F20"/>
<path d="M152.138 74.9407C151.374 75.1367 150.382 75.3394 149.159 75.546C147.937 75.754 146.595 75.8567 145.134 75.8567C143.759 75.8567 142.607 75.6607 141.681 75.2674C140.753 74.8754 140.011 74.33 139.455 73.6314C138.898 72.9327 138.499 72.098 138.259 71.1274C138.019 70.1567 137.899 69.0927 137.899 67.9367V58.346H141.861V67.314C141.861 69.1474 142.127 70.4567 142.662 71.242C143.197 72.0274 144.13 72.4194 145.461 72.4194C145.941 72.4194 146.447 72.398 146.983 72.3554C147.518 72.3114 147.915 72.2567 148.178 72.1914V58.346H152.138V74.9407Z" fill="#231F20"/>
<path d="M156.982 59.2622C157.746 59.0448 158.738 58.8368 159.961 58.6408C161.182 58.4435 162.536 58.3462 164.02 58.3462C165.416 58.3462 166.584 58.5368 167.521 58.9182C168.46 59.3008 169.208 59.8355 169.764 60.5222C170.32 61.2088 170.713 62.0395 170.942 63.0102C171.172 63.9808 171.286 65.0448 171.286 66.2008V75.8235H167.325V66.8235C167.325 65.9062 167.265 65.1262 167.145 64.4835C167.025 63.8395 166.829 63.3155 166.556 62.9115C166.284 62.5088 165.912 62.2142 165.444 62.0275C164.974 61.8435 164.401 61.7502 163.725 61.7502C163.222 61.7502 162.7 61.7822 162.153 61.8475C161.608 61.9128 161.205 61.9675 160.942 62.0115V75.8235H156.982V59.2622Z" fill="#231F20"/>
<path d="M179.043 66.8234C179.043 68.5687 179.457 69.938 180.287 70.9314C181.115 71.9234 182.26 72.4194 183.723 72.4194C184.355 72.4194 184.896 72.3927 185.344 72.338C185.791 72.2847 186.156 72.2234 186.44 72.158V62.3394C186.089 62.0994 185.625 61.8754 185.048 61.6674C184.469 61.4607 183.853 61.3567 183.199 61.3567C181.759 61.3567 180.705 61.8487 180.04 62.83C179.375 63.8114 179.043 65.1434 179.043 66.8234ZM190.4 74.9074C189.615 75.1487 188.625 75.366 187.437 75.562C186.248 75.758 185 75.8567 183.689 75.8567C182.337 75.8567 181.125 75.65 180.057 75.2354C178.988 74.8207 178.076 74.226 177.324 73.4514C176.571 72.6767 175.992 71.738 175.589 70.6367C175.185 69.534 174.984 68.2954 174.984 66.9207C174.984 65.5687 175.152 64.3407 175.491 63.2394C175.829 62.1367 176.325 61.1927 176.98 60.4074C177.635 59.622 178.431 59.0167 179.369 58.5914C180.307 58.166 181.388 57.9527 182.611 57.9527C183.439 57.9527 184.169 58.0514 184.803 58.2474C185.436 58.4434 185.981 58.662 186.44 58.902V53.7954L190.4 53.142V74.9074Z" fill="#231F20"/>
<path d="M209.285 74.9407C208.522 75.1367 207.529 75.3394 206.308 75.546C205.085 75.754 203.744 75.8567 202.281 75.8567C200.906 75.8567 199.756 75.6607 198.828 75.2674C197.901 74.8754 197.158 74.33 196.602 73.6314C196.045 72.9327 195.646 72.098 195.408 71.1274C195.168 70.1567 195.048 69.0927 195.048 67.9367V58.346H199.008V67.314C199.008 69.1474 199.274 70.4567 199.81 71.242C200.345 72.0274 201.277 72.4194 202.608 72.4194C203.089 72.4194 203.594 72.398 204.13 72.3554C204.665 72.3114 205.064 72.2567 205.325 72.1914V58.346H209.285V74.9407Z" fill="#231F20"/>
<path d="M218.418 72.5838C219.465 72.5838 220.227 72.4585 220.709 72.2078C221.189 71.9572 221.429 71.5265 221.429 70.9145C221.429 70.3478 221.171 69.8785 220.659 69.5065C220.146 69.1372 219.301 68.7332 218.122 68.2958C217.402 68.0345 216.742 67.7558 216.143 67.4612C215.542 67.1665 215.025 66.8238 214.587 66.4305C214.151 66.0372 213.807 65.5625 213.557 65.0065C213.306 64.4505 213.181 63.7692 213.181 62.9612C213.181 61.3892 213.758 60.1518 214.915 59.2465C216.071 58.3412 217.642 57.8878 219.629 57.8878C220.631 57.8878 221.593 57.9812 222.509 58.1665C223.426 58.3518 224.113 58.5318 224.57 58.7065L223.85 61.9132C223.414 61.7172 222.858 61.5372 222.181 61.3732C221.505 61.2092 220.719 61.1278 219.825 61.1278C219.017 61.1278 218.363 61.2652 217.861 61.5372C217.359 61.8105 217.109 62.2305 217.109 62.7972C217.109 63.0812 217.158 63.3318 217.255 63.5505C217.354 63.7692 217.522 63.9705 217.763 64.1558C218.002 64.3412 218.319 64.5265 218.713 64.7118C219.105 64.8972 219.585 65.0878 220.153 65.2852C221.09 65.6345 221.887 65.9772 222.542 66.3158C223.197 66.6545 223.735 67.0358 224.162 67.4612C224.587 67.8865 224.898 68.3732 225.095 68.9172C225.29 69.4638 225.39 70.1185 225.39 70.8825C225.39 72.5185 224.783 73.7572 223.573 74.5972C222.362 75.4372 220.631 75.8572 218.385 75.8572C216.879 75.8572 215.667 75.7318 214.751 75.4798C213.834 75.2292 213.191 75.0278 212.821 74.8745L213.507 71.5692C214.097 71.8092 214.801 72.0385 215.618 72.2558C216.438 72.4745 217.37 72.5838 218.418 72.5838Z" fill="#231F20"/>
<path d="M240.87 61.4882C240.432 61.9469 239.859 62.5909 239.151 63.4189C238.442 64.2482 237.683 65.1709 236.876 66.1842C236.067 67.2002 235.255 68.2589 234.438 69.3602C233.619 70.4616 232.883 71.5149 232.228 72.5176H241.066V75.8242H227.451V73.3696C227.93 72.4962 228.53 71.5469 229.25 70.5216C229.97 69.4962 230.712 68.4656 231.475 67.4296C232.239 66.3922 232.998 65.4056 233.75 64.4669C234.504 63.5282 235.175 62.7109 235.763 62.0122H227.875V58.7069H240.87V61.4882Z" fill="#231F20"/>
<path d="M254.518 65.1869C254.518 64.6415 254.441 64.1229 254.289 63.6322C254.135 63.1415 253.913 62.7149 253.617 62.3549C253.323 61.9949 252.963 61.7122 252.538 61.5042C252.111 61.2975 251.605 61.1935 251.015 61.1935C250.405 61.1935 249.87 61.3082 249.411 61.5375C248.953 61.7669 248.566 62.0669 248.25 62.4375C247.934 62.8082 247.687 63.2349 247.513 63.7135C247.338 64.1935 247.218 64.6855 247.154 65.1869H254.518ZM243.03 66.9549C243.03 65.4482 243.253 64.1295 243.701 62.9935C244.147 61.8589 244.742 60.9149 245.485 60.1629C246.225 59.4095 247.077 58.8429 248.038 58.4602C248.997 58.0789 249.979 57.8882 250.983 57.8882C253.339 57.8882 255.177 58.6189 256.498 60.0802C257.818 61.5429 258.478 63.7255 258.478 66.6269C258.478 66.8455 258.473 67.0909 258.462 67.3629C258.45 67.6362 258.435 67.8815 258.413 68.1002H247.121C247.229 69.4749 247.714 70.5389 248.577 71.2909C249.438 72.0442 250.689 72.4202 252.325 72.4202C253.285 72.4202 254.162 72.3335 254.959 72.1589C255.757 71.9842 256.383 71.7975 256.841 71.6029L257.366 74.8429C257.147 74.9522 256.846 75.0669 256.465 75.1869C256.083 75.3055 255.647 75.4149 255.157 75.5135C254.665 75.6109 254.135 75.6935 253.569 75.7589C253.001 75.8242 252.423 75.8562 251.833 75.8562C250.327 75.8562 249.019 75.6335 247.906 75.1869C246.793 74.7389 245.878 74.1175 245.157 73.3202C244.435 72.5242 243.902 71.5855 243.553 70.5055C243.205 69.4255 243.03 68.2429 243.03 66.9549Z" fill="#231F20"/>
<path d="M121.174 106.061V83.3779H135.74V86.8805H125.298V92.4765H134.593V95.9139H125.298V102.559H136.525V106.061H121.174Z" fill="#231F20"/>
<path d="M153.446 105.177C152.682 105.373 151.69 105.576 150.468 105.782C149.245 105.99 147.904 106.093 146.442 106.093C145.068 106.093 143.916 105.897 142.989 105.504C142.061 105.112 141.32 104.566 140.764 103.868C140.206 103.169 139.808 102.334 139.568 101.364C139.328 100.393 139.208 99.329 139.208 98.173V88.5823H143.169V97.5504C143.169 99.3837 143.436 100.693 143.97 101.478C144.505 102.264 145.438 102.656 146.769 102.656C147.249 102.656 147.756 102.634 148.292 102.592C148.826 102.548 149.224 102.493 149.486 102.428V88.5823H153.446V105.177Z" fill="#231F20"/>
<path d="M168.045 92.5096C167.717 92.4003 167.265 92.287 166.686 92.167C166.108 92.047 165.437 91.9856 164.674 91.9856C164.237 91.9856 163.773 92.031 163.282 92.1176C162.792 92.2043 162.448 92.2803 162.252 92.3456V106.06H158.292V89.7603C159.054 89.4776 160.01 89.2096 161.156 88.959C162.301 88.7083 163.572 88.5816 164.968 88.5816C165.23 88.5816 165.536 88.599 165.885 88.631C166.234 88.6643 166.582 88.7083 166.933 88.7616C167.281 88.8163 167.62 88.883 167.946 88.959C168.274 89.035 168.536 89.1056 168.733 89.171L168.045 92.5096Z" fill="#231F20"/>
<path d="M182.708 97.0599C182.708 95.3573 182.344 94.0106 181.612 93.0173C180.88 92.0253 179.862 91.5279 178.552 91.5279C177.242 91.5279 176.222 92.0253 175.491 93.0173C174.76 94.0106 174.395 95.3573 174.395 97.0599C174.395 98.7839 174.76 100.148 175.491 101.151C176.222 102.155 177.242 102.656 178.552 102.656C179.862 102.656 180.88 102.155 181.612 101.151C182.344 100.148 182.708 98.7839 182.708 97.0599ZM186.766 97.0599C186.766 98.4133 186.57 99.6453 186.178 100.759C185.784 101.871 185.23 102.82 184.508 103.605C183.79 104.392 182.922 105.003 181.906 105.439C180.891 105.876 179.774 106.093 178.552 106.093C177.33 106.093 176.216 105.876 175.212 105.439C174.208 105.003 173.347 104.392 172.627 103.605C171.907 102.82 171.346 101.871 170.942 100.759C170.538 99.6453 170.336 98.4133 170.336 97.0599C170.336 95.7066 170.538 94.4799 170.942 93.3773C171.346 92.2759 171.912 91.3319 172.644 90.5466C173.375 89.7599 174.242 89.1546 175.246 88.7293C176.25 88.3039 177.351 88.0906 178.552 88.0906C179.75 88.0906 180.859 88.3039 181.872 88.7293C182.888 89.1546 183.755 89.7599 184.476 90.5466C185.195 91.3319 185.758 92.2759 186.162 93.3773C186.566 94.4799 186.766 95.7066 186.766 97.0599Z" fill="#231F20"/>
<path d="M202.019 97.5832C202.019 95.8152 201.621 94.4419 200.825 93.4592C200.029 92.4766 198.746 91.9859 196.979 91.9859C196.607 91.9859 196.221 92.0019 195.818 92.0352C195.413 92.0686 195.015 92.1392 194.622 92.2486V102.034C194.971 102.275 195.435 102.499 196.013 102.706C196.591 102.914 197.209 103.017 197.863 103.017C199.303 103.017 200.355 102.526 201.021 101.543C201.686 100.562 202.019 99.2419 202.019 97.5832ZM206.078 97.5179C206.078 98.8272 205.909 100.027 205.571 101.118C205.233 102.21 204.747 103.147 204.114 103.933C203.482 104.719 202.69 105.33 201.741 105.766C200.793 106.202 199.717 106.421 198.517 106.421C197.71 106.421 196.967 106.322 196.291 106.126C195.615 105.93 195.058 105.711 194.622 105.471V112.115H190.662V89.4992C191.469 89.2806 192.462 89.0739 193.641 88.8766C194.819 88.6806 196.062 88.5819 197.373 88.5819C198.725 88.5819 199.937 88.7899 201.005 89.2046C202.074 89.6192 202.986 90.2139 203.738 90.9886C204.491 91.7632 205.069 92.7006 205.473 93.8032C205.877 94.9046 206.078 96.1432 206.078 97.5179Z" fill="#231F20"/>
<path d="M220.513 95.423C220.513 94.8776 220.435 94.359 220.283 93.8683C220.13 93.3776 219.907 92.951 219.611 92.591C219.318 92.231 218.958 91.9483 218.533 91.7403C218.106 91.5336 217.599 91.4296 217.01 91.4296C216.399 91.4296 215.865 91.5443 215.406 91.7736C214.947 92.003 214.561 92.303 214.245 92.6736C213.929 93.0443 213.682 93.471 213.507 93.9496C213.333 94.4296 213.213 94.9216 213.149 95.423H220.513ZM209.025 97.191C209.025 95.6843 209.247 94.3656 209.695 93.2296C210.142 92.095 210.737 91.151 211.479 90.399C212.219 89.6456 213.071 89.079 214.033 88.6963C214.991 88.315 215.974 88.1243 216.978 88.1243C219.334 88.1243 221.171 88.855 222.493 90.3163C223.813 91.779 224.473 93.9616 224.473 96.863C224.473 97.0816 224.467 97.327 224.457 97.599C224.445 97.8723 224.43 98.1176 224.407 98.3363H213.115C213.223 99.711 213.709 100.775 214.571 101.527C215.433 102.28 216.683 102.656 218.319 102.656C219.279 102.656 220.157 102.57 220.954 102.395C221.751 102.22 222.378 102.034 222.835 101.839L223.361 105.079C223.142 105.188 222.841 105.303 222.459 105.423C222.078 105.542 221.642 105.651 221.151 105.75C220.659 105.847 220.13 105.93 219.563 105.995C218.995 106.06 218.418 106.092 217.827 106.092C216.322 106.092 215.014 105.87 213.901 105.423C212.787 104.975 211.873 104.354 211.151 103.556C210.43 102.76 209.897 101.822 209.547 100.742C209.199 99.6616 209.025 98.479 209.025 97.191Z" fill="#231F20"/>
<path d="M232.851 83.9349C232.851 84.6762 232.61 85.2655 232.131 85.7015C231.651 86.1389 231.085 86.3562 230.43 86.3562C229.753 86.3562 229.174 86.1389 228.695 85.7015C228.214 85.2655 227.975 84.6762 227.975 83.9349C227.975 83.1709 228.214 82.5709 228.695 82.1335C229.174 81.6975 229.753 81.4802 230.43 81.4802C231.085 81.4802 231.651 81.6975 232.131 82.1335C232.61 82.5709 232.851 83.1709 232.851 83.9349ZM226.271 112.148C225.989 112.148 225.591 112.122 225.078 112.067C224.565 112.012 224.111 111.908 223.719 111.756L224.243 108.516C224.723 108.668 225.302 108.744 225.978 108.744C226.894 108.744 227.538 108.478 227.909 107.943C228.279 107.407 228.466 106.606 228.466 105.538V88.9429H232.426V105.602C232.426 107.828 231.897 109.475 230.838 110.546C229.779 111.614 228.258 112.148 226.271 112.148Z" fill="#231F20"/>
<path d="M241.558 102.82C242.605 102.82 243.368 102.695 243.849 102.444C244.329 102.194 244.569 101.763 244.569 101.151C244.569 100.584 244.312 100.115 243.8 99.7428C243.286 99.3735 242.441 98.9695 241.262 98.5322C240.542 98.2708 239.882 97.9922 239.284 97.6975C238.682 97.4028 238.165 97.0602 237.728 96.6668C237.292 96.2735 236.948 95.7988 236.697 95.2428C236.446 94.6868 236.321 94.0055 236.321 93.1975C236.321 91.6255 236.898 90.3882 238.056 89.4828C239.212 88.5775 240.782 88.1242 242.769 88.1242C243.772 88.1242 244.733 88.2175 245.649 88.4028C246.566 88.5882 247.253 88.7682 247.71 88.9428L246.99 92.1495C246.554 91.9535 245.998 91.7735 245.321 91.6095C244.645 91.4455 243.86 91.3642 242.965 91.3642C242.157 91.3642 241.504 91.5015 241.001 91.7735C240.5 92.0468 240.249 92.4668 240.249 93.0335C240.249 93.3175 240.298 93.5682 240.396 93.7868C240.494 94.0055 240.662 94.2068 240.904 94.3922C241.142 94.5775 241.46 94.7628 241.853 94.9482C242.245 95.1335 242.725 95.3242 243.293 95.5215C244.23 95.8708 245.028 96.2135 245.682 96.5522C246.337 96.8908 246.876 97.2722 247.302 97.6975C247.728 98.1228 248.038 98.6095 248.236 99.1535C248.43 99.7002 248.53 100.355 248.53 101.119C248.53 102.755 247.924 103.994 246.713 104.834C245.502 105.674 243.772 106.094 241.525 106.094C240.02 106.094 238.808 105.968 237.892 105.716C236.974 105.466 236.332 105.264 235.961 105.111L236.648 101.806C237.237 102.046 237.941 102.275 238.758 102.492C239.578 102.711 240.51 102.82 241.558 102.82Z" fill="#231F20"/>
<path d="M255.991 95.619C256.492 95.095 257.027 94.535 257.595 93.9336C258.161 93.3336 258.719 92.7336 259.264 92.1336C259.809 91.5336 260.328 90.955 260.819 90.399C261.309 89.8416 261.729 89.3576 262.079 88.943H266.759C265.668 90.1643 264.517 91.4296 263.305 92.739C262.095 94.0483 260.879 95.3243 259.657 96.5683C260.311 97.115 260.999 97.775 261.719 98.5483C262.439 99.323 263.136 100.147 263.813 101.02C264.489 101.894 265.123 102.766 265.712 103.639C266.3 104.511 266.792 105.319 267.185 106.06H262.603C262.209 105.384 261.756 104.675 261.244 103.932C260.732 103.191 260.181 102.471 259.591 101.772C259.003 101.075 258.403 100.415 257.792 99.7923C257.18 99.171 256.58 98.6416 255.991 98.2043V106.06H252.031V84.0323L255.991 83.3776V95.619Z" fill="#231F20"/>
<path d="M273.861 106.06H269.901V88.9427H273.861V106.06ZM274.288 83.9347C274.288 84.6761 274.047 85.2654 273.568 85.7014C273.087 86.1387 272.521 86.3574 271.865 86.3574C271.188 86.3574 270.611 86.1387 270.132 85.7014C269.651 85.2654 269.411 84.6761 269.411 83.9347C269.411 83.1707 269.651 82.5707 270.132 82.1347C270.611 81.6974 271.188 81.4801 271.865 81.4801C272.521 81.4801 273.087 81.6974 273.568 82.1347C274.047 82.5707 274.288 83.1707 274.288 83.9347Z" fill="#231F20"/>
<path d="M289.246 95.423C289.246 94.8776 289.169 94.359 289.017 93.8683C288.863 93.3776 288.641 92.951 288.345 92.591C288.051 92.231 287.691 91.9483 287.266 91.7403C286.839 91.5336 286.333 91.4296 285.743 91.4296C285.133 91.4296 284.598 91.5443 284.139 91.7736C283.681 92.003 283.294 92.303 282.978 92.6736C282.662 93.0443 282.415 93.471 282.241 93.9496C282.066 94.4296 281.946 94.9216 281.882 95.423H289.246ZM277.758 97.191C277.758 95.6843 277.981 94.3656 278.429 93.2296C278.875 92.095 279.47 91.151 280.213 90.399C280.953 89.6456 281.805 89.079 282.766 88.6963C283.725 88.315 284.707 88.1243 285.711 88.1243C288.067 88.1243 289.905 88.855 291.226 90.3163C292.546 91.779 293.206 93.9616 293.206 96.863C293.206 97.0816 293.201 97.327 293.19 97.599C293.178 97.8723 293.163 98.1176 293.141 98.3363H281.849C281.957 99.711 282.442 100.775 283.305 101.527C284.166 102.28 285.417 102.656 287.053 102.656C288.013 102.656 288.89 102.57 289.687 102.395C290.485 102.22 291.111 102.034 291.569 101.839L292.094 105.079C291.875 105.188 291.574 105.303 291.193 105.423C290.811 105.542 290.375 105.651 289.885 105.75C289.393 105.847 288.863 105.93 288.297 105.995C287.729 106.06 287.151 106.092 286.561 106.092C285.055 106.092 283.747 105.87 282.634 105.423C281.521 104.975 280.606 104.354 279.885 103.556C279.163 102.76 278.63 101.822 278.281 100.742C277.933 99.6616 277.758 98.479 277.758 97.191Z" fill="#231F20"/>
<path d="M121.2 121.349H123.296V136.319H121.2V121.349Z" fill="#231F20"/>
<path d="M126.773 125.409C127.234 125.295 127.846 125.172 128.609 125.043C129.371 124.912 130.25 124.848 131.245 124.848C132.137 124.848 132.878 124.975 133.469 125.225C134.059 125.479 134.53 125.831 134.883 126.284C135.237 126.739 135.485 127.281 135.629 127.915C135.773 128.548 135.845 129.247 135.845 130.011V136.317H133.835V130.443C133.835 129.751 133.789 129.16 133.695 128.671C133.602 128.181 133.447 127.785 133.231 127.483C133.015 127.181 132.727 126.961 132.367 126.824C132.007 126.687 131.561 126.619 131.027 126.619C130.811 126.619 130.589 126.627 130.358 126.64C130.129 126.656 129.909 126.673 129.699 126.695C129.491 126.716 129.303 126.741 129.138 126.771C128.973 126.799 128.854 126.821 128.782 126.835V136.317H126.773V125.409Z" fill="#231F20"/>
<path d="M140.943 124.827H145.197V126.511H140.943V131.695C140.943 132.257 140.985 132.721 141.072 133.088C141.159 133.456 141.288 133.744 141.461 133.952C141.633 134.161 141.849 134.308 142.109 134.395C142.368 134.481 142.671 134.524 143.016 134.524C143.621 134.524 144.107 134.457 144.473 134.32C144.841 134.183 145.097 134.085 145.241 134.028L145.629 135.691C145.428 135.792 145.075 135.917 144.571 136.069C144.067 136.22 143.492 136.296 142.843 136.296C142.08 136.296 141.449 136.199 140.953 136.004C140.456 135.809 140.056 135.519 139.755 135.129C139.452 134.741 139.24 134.263 139.117 133.693C138.995 133.124 138.933 132.465 138.933 131.716V121.695L140.943 121.349V124.827Z" fill="#231F20"/>
<path d="M154.506 129.362C154.521 128.454 154.294 127.71 153.826 127.126C153.358 126.544 152.714 126.252 151.893 126.252C151.432 126.252 151.025 126.342 150.673 126.522C150.32 126.702 150.021 126.936 149.777 127.224C149.532 127.512 149.34 127.842 149.204 128.217C149.066 128.592 148.977 128.973 148.934 129.362H154.506ZM146.796 130.464C146.796 129.47 146.94 128.602 147.228 127.861C147.516 127.12 147.897 126.504 148.372 126.014C148.848 125.525 149.394 125.158 150.014 124.913C150.633 124.668 151.266 124.545 151.914 124.545C153.426 124.545 154.586 125.017 155.393 125.96C156.198 126.904 156.602 128.34 156.602 130.269V130.605C156.602 130.741 156.594 130.866 156.581 130.982H148.89C148.977 132.149 149.314 133.034 149.906 133.64C150.496 134.244 151.418 134.546 152.67 134.546C153.376 134.546 153.97 134.485 154.453 134.362C154.934 134.241 155.298 134.121 155.544 134.006L155.824 135.692C155.58 135.821 155.15 135.957 154.538 136.101C153.926 136.246 153.232 136.317 152.454 136.317C151.476 136.317 150.629 136.169 149.917 135.874C149.204 135.58 148.617 135.173 148.156 134.654C147.696 134.136 147.353 133.521 147.13 132.808C146.906 132.094 146.796 131.313 146.796 130.464Z" fill="#231F20"/>
<path d="M162.758 136.318C161.519 136.29 160.642 136.023 160.122 135.518C159.604 135.014 159.344 134.23 159.344 133.164V119.686L161.354 119.34V132.84C161.354 133.171 161.382 133.444 161.44 133.66C161.498 133.876 161.591 134.05 161.72 134.179C161.85 134.308 162.023 134.406 162.239 134.471C162.455 134.536 162.722 134.59 163.038 134.632L162.758 136.318Z" fill="#231F20"/>
<path d="M167.187 136.317H165.177V125.085H167.187V136.317ZM166.171 123.055C165.811 123.055 165.504 122.936 165.252 122.699C165 122.461 164.875 122.141 164.875 121.737C164.875 121.335 165 121.015 165.252 120.776C165.504 120.539 165.811 120.42 166.171 120.42C166.531 120.42 166.836 120.539 167.088 120.776C167.34 121.015 167.467 121.335 167.467 121.737C167.467 122.141 167.34 122.461 167.088 122.699C166.836 122.936 166.531 123.055 166.171 123.055Z" fill="#231F20"/>
<path d="M177.554 126.857C177.353 126.799 177.082 126.746 176.745 126.694C176.406 126.645 175.947 126.619 175.373 126.619C174.293 126.619 173.461 126.973 172.878 127.678C172.294 128.383 172.002 129.319 172.002 130.486C172.002 131.134 172.085 131.689 172.251 132.149C172.417 132.61 172.639 132.991 172.921 133.294C173.202 133.597 173.526 133.819 173.893 133.963C174.259 134.107 174.638 134.179 175.026 134.179C175.559 134.179 176.049 134.103 176.495 133.953C176.942 133.801 177.295 133.625 177.554 133.423V126.857ZM177.575 135.194C177.403 135.31 177.067 135.458 176.571 135.637C176.074 135.818 175.495 135.907 174.833 135.907C174.155 135.907 173.518 135.799 172.921 135.583C172.323 135.367 171.801 135.033 171.355 134.579C170.909 134.125 170.555 133.561 170.297 132.883C170.037 132.206 169.907 131.401 169.907 130.465C169.907 129.643 170.03 128.891 170.275 128.207C170.519 127.523 170.875 126.933 171.343 126.435C171.811 125.939 172.385 125.55 173.061 125.27C173.738 124.989 174.501 124.849 175.351 124.849C176.286 124.849 177.103 124.917 177.802 125.053C178.502 125.19 179.087 125.317 179.562 125.431V135.454C179.562 137.182 179.117 138.434 178.223 139.213C177.331 139.99 175.977 140.378 174.163 140.378C173.457 140.378 172.791 140.321 172.165 140.206C171.538 140.09 170.995 139.954 170.534 139.795L170.901 138.046C171.305 138.203 171.798 138.345 172.381 138.467C172.965 138.589 173.573 138.65 174.206 138.65C175.401 138.65 176.261 138.413 176.787 137.938C177.313 137.462 177.575 136.706 177.575 135.67V135.194Z" fill="#231F20"/>
<path d="M189.994 129.362C190.009 128.454 189.782 127.71 189.314 127.126C188.846 126.544 188.201 126.252 187.381 126.252C186.919 126.252 186.514 126.342 186.161 126.522C185.807 126.702 185.509 126.936 185.263 127.224C185.019 127.512 184.829 127.842 184.691 128.217C184.554 128.592 184.465 128.973 184.421 129.362H189.994ZM182.283 130.464C182.283 129.47 182.426 128.602 182.715 127.861C183.003 127.12 183.385 126.504 183.859 126.014C184.335 125.525 184.882 125.158 185.502 124.913C186.121 124.668 186.754 124.545 187.403 124.545C188.914 124.545 190.074 125.017 190.879 125.96C191.687 126.904 192.089 128.34 192.089 130.269V130.605C192.089 130.741 192.082 130.866 192.069 130.982H184.378C184.465 132.149 184.802 133.034 185.394 133.64C185.983 134.244 186.906 134.546 188.158 134.546C188.863 134.546 189.458 134.485 189.941 134.362C190.422 134.241 190.786 134.121 191.03 134.006L191.311 135.692C191.067 135.821 190.638 135.957 190.026 136.101C189.414 136.246 188.719 136.317 187.942 136.317C186.963 136.317 186.118 136.169 185.405 135.874C184.691 135.58 184.105 135.173 183.643 134.654C183.183 134.136 182.841 133.521 182.618 132.808C182.395 132.094 182.283 131.313 182.283 130.464Z" fill="#231F20"/>
<path d="M194.875 125.409C195.337 125.295 195.949 125.172 196.711 125.043C197.474 124.912 198.353 124.848 199.347 124.848C200.239 124.848 200.981 124.975 201.571 125.225C202.162 125.479 202.633 125.831 202.986 126.284C203.339 126.739 203.587 127.281 203.733 127.915C203.875 128.548 203.947 129.247 203.947 130.011V136.317H201.939V130.443C201.939 129.751 201.893 129.16 201.798 128.671C201.705 128.181 201.55 127.785 201.334 127.483C201.118 127.181 200.83 126.961 200.47 126.824C200.11 126.687 199.663 126.619 199.13 126.619C198.914 126.619 198.691 126.627 198.461 126.64C198.231 126.656 198.011 126.673 197.802 126.695C197.593 126.716 197.406 126.741 197.241 126.771C197.074 126.799 196.957 126.821 196.885 126.835V136.317H194.875V125.409Z" fill="#231F20"/>
<path d="M209.046 124.827H213.301V126.511H209.046V131.695C209.046 132.257 209.09 132.721 209.177 133.088C209.262 133.456 209.393 133.744 209.565 133.952C209.738 134.161 209.954 134.308 210.213 134.395C210.471 134.481 210.774 134.524 211.121 134.524C211.725 134.524 212.211 134.457 212.578 134.32C212.946 134.183 213.201 134.085 213.346 134.028L213.734 135.691C213.531 135.792 213.179 135.917 212.675 136.069C212.171 136.22 211.595 136.296 210.947 136.296C210.185 136.296 209.554 136.199 209.058 136.004C208.561 135.809 208.161 135.519 207.858 135.129C207.557 134.741 207.343 134.263 207.222 133.693C207.098 133.124 207.038 132.465 207.038 131.716V121.695L209.046 121.349V124.827Z" fill="#231F20"/>
<path d="M215.743 125.409C216.204 125.295 216.816 125.172 217.579 125.043C218.341 124.912 219.22 124.848 220.215 124.848C221.107 124.848 221.848 124.975 222.439 125.225C223.029 125.479 223.5 125.831 223.853 126.284C224.207 126.739 224.455 127.281 224.6 127.915C224.743 128.548 224.815 129.247 224.815 130.011V136.317H222.807V130.443C222.807 129.751 222.76 129.16 222.665 128.671C222.572 128.181 222.417 127.785 222.201 127.483C221.985 127.181 221.697 126.961 221.337 126.824C220.977 126.687 220.531 126.619 219.997 126.619C219.781 126.619 219.559 126.627 219.328 126.64C219.099 126.656 218.879 126.673 218.669 126.695C218.46 126.716 218.273 126.741 218.108 126.771C217.941 126.799 217.824 126.821 217.752 126.835V136.317H215.743V125.409Z" fill="#231F20"/>
<path d="M226.327 138.413C226.486 138.485 226.69 138.553 226.943 138.618C227.194 138.683 227.443 138.715 227.689 138.715C228.479 138.715 229.099 138.539 229.546 138.186C229.993 137.833 230.395 137.261 230.755 136.469C229.849 134.741 229.002 132.909 228.218 130.971C227.433 129.035 226.782 127.073 226.262 125.086H228.422C228.581 125.734 228.771 126.433 228.995 127.181C229.218 127.93 229.466 128.701 229.741 129.493C230.014 130.285 230.309 131.077 230.626 131.867C230.942 132.661 231.274 133.423 231.619 134.158C232.167 132.646 232.642 131.149 233.045 129.665C233.449 128.182 233.83 126.655 234.19 125.086H236.263C235.745 127.202 235.169 129.237 234.535 131.187C233.902 133.139 233.218 134.965 232.483 136.663C232.195 137.311 231.897 137.869 231.587 138.337C231.278 138.805 230.935 139.19 230.562 139.493C230.187 139.795 229.765 140.018 229.298 140.162C228.83 140.306 228.299 140.378 227.71 140.378C227.551 140.378 227.386 140.367 227.213 140.346C227.041 140.325 226.87 140.295 226.705 140.259C226.539 140.223 226.389 140.185 226.251 140.141C226.115 140.098 226.018 140.062 225.961 140.033L226.327 138.413Z" fill="#231F20"/>
<path d="M247.431 123.034C246.538 123.034 245.854 123.055 245.379 123.098V128.736H246.869C247.589 128.736 248.237 128.7 248.813 128.628C249.39 128.556 249.875 128.419 250.271 128.218C250.667 128.016 250.973 127.731 251.189 127.364C251.405 126.998 251.514 126.511 251.514 125.906C251.514 125.344 251.405 124.876 251.189 124.503C250.973 124.128 250.682 123.832 250.314 123.616C249.947 123.4 249.515 123.25 249.018 123.163C248.521 123.076 247.993 123.034 247.431 123.034ZM250.606 130.054C250.837 130.342 251.127 130.72 251.481 131.187C251.834 131.655 252.197 132.174 252.571 132.743C252.946 133.311 253.317 133.906 253.683 134.524C254.051 135.144 254.365 135.742 254.625 136.318H252.334C252.046 135.771 251.733 135.216 251.395 134.654C251.057 134.092 250.714 133.556 250.369 133.046C250.022 132.534 249.681 132.055 249.343 131.608C249.005 131.163 248.698 130.774 248.425 130.443C248.237 130.456 248.046 130.464 247.851 130.464H247.258H245.379V136.318H243.285V121.564C243.874 121.422 244.533 121.324 245.261 121.274C245.987 121.223 246.653 121.198 247.258 121.198C249.361 121.198 250.962 121.594 252.065 122.386C253.166 123.178 253.717 124.359 253.717 125.928C253.717 126.922 253.454 127.771 252.929 128.478C252.403 129.183 251.627 129.708 250.606 130.054Z" fill="#231F20"/>
<path d="M264.451 130.443C264.451 129.176 264.167 128.171 263.598 127.429C263.03 126.688 262.256 126.317 261.276 126.317C260.296 126.317 259.523 126.688 258.954 127.429C258.384 128.171 258.1 129.176 258.1 130.443C258.1 131.709 258.384 132.715 258.954 133.456C259.523 134.197 260.296 134.568 261.276 134.568C262.256 134.568 263.03 134.197 263.598 133.456C264.167 132.715 264.451 131.709 264.451 130.443ZM266.546 130.443C266.546 131.335 266.418 132.141 266.158 132.861C265.899 133.581 265.534 134.201 265.067 134.72C264.599 135.237 264.04 135.637 263.392 135.917C262.746 136.199 262.039 136.339 261.276 136.339C260.512 136.339 259.808 136.199 259.159 135.917C258.511 135.637 257.954 135.237 257.484 134.72C257.018 134.201 256.654 133.581 256.395 132.861C256.136 132.141 256.006 131.335 256.006 130.443C256.006 129.564 256.136 128.761 256.395 128.033C256.654 127.307 257.018 126.684 257.484 126.165C257.954 125.647 258.511 125.248 259.159 124.967C259.808 124.687 260.512 124.545 261.276 124.545C262.039 124.545 262.746 124.687 263.392 124.967C264.04 125.248 264.599 125.647 265.067 126.165C265.534 126.684 265.899 127.307 266.158 128.033C266.418 128.761 266.546 129.564 266.546 130.443Z" fill="#231F20"/>
<path d="M276.287 126.598C275.984 126.93 275.586 127.398 275.09 128.002C274.592 128.607 274.059 129.276 273.49 130.011C272.922 130.744 272.352 131.515 271.783 132.322C271.214 133.128 270.714 133.899 270.283 134.632H276.46V136.318H267.884V134.979C268.231 134.346 268.655 133.647 269.159 132.883C269.663 132.12 270.192 131.36 270.747 130.604C271.302 129.848 271.842 129.135 272.367 128.466C272.892 127.796 273.35 127.232 273.739 126.771H268.187V125.086H276.287V126.598Z" fill="#231F20"/>
<path d="M288.08 136.318C287.677 135.28 287.249 134.096 286.795 132.764C286.341 131.432 285.928 130.047 285.552 128.607C285.179 130.047 284.769 131.432 284.323 132.764C283.876 134.096 283.451 135.28 283.048 136.318H281.297C280.636 134.835 279.988 133.143 279.353 131.242C278.72 129.342 278.123 127.29 277.561 125.086H279.72C279.865 125.763 280.039 126.498 280.24 127.29C280.441 128.08 280.653 128.874 280.877 129.664C281.1 130.456 281.333 131.22 281.579 131.955C281.824 132.688 282.053 133.33 282.271 133.876C282.515 133.2 282.756 132.484 282.995 131.728C283.231 130.972 283.457 130.208 283.673 129.438C283.889 128.668 284.096 127.912 284.289 127.17C284.484 126.428 284.653 125.734 284.797 125.086H286.46C286.591 125.734 286.748 126.428 286.936 127.17C287.123 127.912 287.325 128.668 287.541 129.438C287.757 130.208 287.984 130.972 288.22 131.728C288.459 132.484 288.7 133.2 288.944 133.876C289.161 133.33 289.387 132.688 289.624 131.955C289.863 131.22 290.097 130.456 290.328 129.664C290.556 128.874 290.773 128.08 290.975 127.29C291.176 126.498 291.349 125.763 291.493 125.086H293.567C293.005 127.29 292.408 129.342 291.775 131.242C291.14 133.143 290.493 134.835 289.829 136.318H288.08Z" fill="#231F20"/>
<path d="M302.573 120.831L299.528 123.789L298.512 122.883L301.277 119.556L302.573 120.831ZM303.135 130.443C303.135 129.176 302.851 128.171 302.281 127.429C301.712 126.688 300.939 126.317 299.96 126.317C298.98 126.317 298.207 126.688 297.637 127.429C297.068 128.171 296.784 129.176 296.784 130.443C296.784 131.709 297.068 132.715 297.637 133.456C298.207 134.197 298.98 134.568 299.96 134.568C300.939 134.568 301.712 134.197 302.281 133.456C302.851 132.715 303.135 131.709 303.135 130.443ZM305.229 130.443C305.229 131.335 305.101 132.141 304.841 132.861C304.583 133.581 304.217 134.201 303.751 134.72C303.283 135.237 302.724 135.637 302.076 135.917C301.429 136.199 300.723 136.339 299.96 136.339C299.196 136.339 298.491 136.199 297.843 135.917C297.195 135.637 296.637 135.237 296.168 134.72C295.701 134.201 295.337 133.581 295.079 132.861C294.82 132.141 294.689 131.335 294.689 130.443C294.689 129.564 294.82 128.761 295.079 128.033C295.337 127.307 295.701 126.684 296.168 126.165C296.637 125.647 297.195 125.248 297.843 124.967C298.491 124.687 299.196 124.545 299.96 124.545C300.723 124.545 301.429 124.687 302.076 124.967C302.724 125.248 303.283 125.647 303.751 126.165C304.217 126.684 304.583 127.307 304.841 128.033C305.101 128.761 305.229 129.564 305.229 130.443Z" fill="#231F20"/>
<path d="M308.945 123.055C308.585 123.055 308.279 122.937 308.027 122.699C307.775 122.462 307.649 122.141 307.649 121.738C307.649 121.334 307.775 121.014 308.027 120.777C308.279 120.539 308.585 120.419 308.945 120.419C309.305 120.419 309.611 120.539 309.862 120.777C310.115 121.014 310.242 121.334 310.242 121.738C310.242 122.141 310.115 122.462 309.862 122.699C309.611 122.937 309.305 123.055 308.945 123.055ZM306.115 140.357C305.942 140.357 305.719 140.335 305.446 140.293C305.173 140.249 304.942 140.191 304.754 140.119L305.014 138.478C305.158 138.521 305.323 138.557 305.511 138.586C305.697 138.614 305.87 138.629 306.029 138.629C306.721 138.629 307.213 138.417 307.509 137.991C307.805 137.567 307.951 136.945 307.951 136.123V125.086H309.961V136.102C309.961 137.542 309.633 138.611 308.977 139.309C308.322 140.007 307.367 140.357 306.115 140.357Z" fill="#231F20"/>
</g>
</g>
<defs>
<clipPath id="clip0_114_221">
<rect width="340" height="182" fill="white"/>
</clipPath>
</defs>
</svg>
