<svg role="img" viewBox="0 0 541 221" fill="none" xmlns="http://www.w3.org/2000/svg">
<title>Logotype of the Republic of Poland</title>
<g clip-path="url(#clip0_113_2)">
<path d="M43.8706 110.235H242.715V43.8973H43.8706V110.235Z" fill="white"/>
<path d="M43.8706 176.516H242.715V110.235H43.8706V176.516Z" fill="#B72132"/>
<path d="M43.8706 176.517H242.715V43.8973H43.8706V176.517ZM44.4906 44.5253H242.093V175.891H44.4906V44.5253Z" fill="#808285"/>
<mask id="mask0_113_2" style="mask-type:luminance" maskUnits="userSpaceOnUse" x="-38" y="-38" width="618" height="297">
<path d="M-38 -38.0001H579.149V258.423H-38V-38.0001Z" fill="white"/>
</mask>
<g mask="url(#mask0_113_2)">
<path d="M291.366 70.6403C289.673 70.7523 288.077 70.9723 286.581 71.2977V104.635H292.73V91.847H295.709H296.637C296.958 91.847 297.353 91.8297 297.807 91.799C298.426 92.579 299.091 93.4643 299.81 94.4577C300.526 95.451 301.25 96.5083 301.981 97.631C302.711 98.751 303.438 99.911 304.153 101.096C304.867 102.283 305.533 103.464 306.155 104.635H313.038C312.451 103.368 311.785 102.072 311.035 100.754C310.285 99.4377 309.505 98.1537 308.693 96.8977C307.879 95.647 307.081 94.4817 306.301 93.411C305.521 92.3337 304.821 91.4243 304.205 90.6763C308.725 89.0497 310.986 85.9403 310.986 81.355C310.986 77.675 309.695 74.9417 307.106 73.1523C304.519 71.363 300.785 70.471 295.903 70.471C294.57 70.471 293.057 70.5257 291.366 70.6403ZM299.661 76.0563C300.67 76.235 301.541 76.5377 302.271 76.959C303.005 77.383 303.567 77.955 303.957 78.6683C304.349 79.383 304.545 80.2617 304.545 81.3017C304.545 82.4123 304.349 83.3217 303.957 84.035C303.567 84.7523 302.99 85.323 302.226 85.7443C301.458 86.1683 300.51 86.4617 299.37 86.623C298.231 86.787 296.913 86.867 295.418 86.867H292.73V75.935C293.838 75.8377 295.042 75.7883 296.342 75.7883C297.547 75.7883 298.651 75.879 299.661 76.0563ZM316.89 97.291C317.413 98.9003 318.211 100.299 319.283 101.486C320.358 102.676 321.725 103.602 323.385 104.268C325.046 104.936 326.998 105.27 329.243 105.27C330.119 105.27 330.983 105.22 331.829 105.123C332.675 105.024 333.463 104.904 334.197 104.756C334.929 104.611 335.579 104.447 336.15 104.268C336.719 104.091 337.167 103.919 337.493 103.755L336.711 98.923C336.027 99.2177 335.094 99.4937 333.903 99.755C332.715 100.016 331.407 100.143 329.974 100.143C327.533 100.143 325.67 99.5843 324.383 98.463C323.098 97.3377 322.375 95.751 322.211 93.7003H339.055C339.086 93.3763 339.11 93.0097 339.127 92.6043C339.143 92.1977 339.151 91.8297 339.151 91.5057C339.151 87.1763 338.167 83.923 336.195 81.7443C334.23 79.5657 331.487 78.4737 327.975 78.4737C326.477 78.4737 325.014 78.759 323.582 79.327C322.149 79.8977 320.879 80.743 319.773 81.8643C318.667 82.9883 317.777 84.3963 317.111 86.087C316.446 87.7803 316.11 89.7457 316.11 91.9937C316.11 93.9123 316.37 95.6777 316.89 97.291ZM322.261 89.3563C322.359 88.611 322.537 87.8777 322.798 87.1603C323.059 86.4457 323.425 85.8097 323.895 85.2563C324.37 84.7057 324.945 84.2563 325.631 83.9163C326.314 83.5723 327.111 83.403 328.023 83.403C328.901 83.403 329.657 83.5577 330.291 83.8657C330.926 84.175 331.462 84.599 331.902 85.1363C332.341 85.6723 332.675 86.3057 332.902 87.039C333.131 87.7723 333.245 88.5443 333.245 89.3563H322.261ZM360.846 97.9003C359.853 99.363 358.283 100.096 356.135 100.096C355.159 100.096 354.238 99.943 353.379 99.6323C352.518 99.3217 351.823 98.991 351.303 98.6337V84.035C351.891 83.8737 352.485 83.7683 353.087 83.719C353.686 83.6723 354.265 83.6443 354.819 83.6443C357.455 83.6443 359.367 84.3777 360.554 85.8443C361.741 87.307 362.335 89.3563 362.335 91.9937C362.335 94.467 361.838 96.4337 360.846 97.9003ZM367.486 86.355C366.882 84.7123 366.019 83.3123 364.895 82.1577C363.777 81.0043 362.418 80.115 360.825 79.499C359.227 78.8817 357.423 78.5723 355.403 78.5723C353.45 78.5723 351.601 78.7163 349.838 79.011C348.083 79.3017 346.601 79.6123 345.401 79.935V113.667H351.303V103.755C351.955 104.114 352.785 104.442 353.791 104.734C354.801 105.024 355.909 105.172 357.113 105.172C358.899 105.172 360.505 104.846 361.922 104.195C363.337 103.544 364.513 102.632 365.458 101.462C366.405 100.291 367.126 98.8923 367.629 97.2643C368.134 95.6363 368.387 93.847 368.387 91.8963C368.387 89.8443 368.087 88.0017 367.486 86.355ZM395.43 79.1083H389.522V99.755C389.13 99.8523 388.538 99.9337 387.739 99.999C386.947 100.063 386.187 100.096 385.471 100.096C383.489 100.096 382.093 99.511 381.298 98.3377C380.501 97.167 380.102 95.215 380.102 92.4803V79.1083H374.195V93.411C374.195 95.1337 374.375 96.7217 374.731 98.1683C375.091 99.6163 375.685 100.86 376.514 101.9C377.341 102.944 378.45 103.755 379.835 104.343C381.215 104.928 382.933 105.22 384.982 105.22C387.162 105.22 389.165 105.066 390.987 104.756C392.809 104.447 394.291 104.146 395.43 103.854V79.1083ZM418.026 97.923C416.787 99.4043 415.081 100.143 412.902 100.143C411.955 100.143 411.154 100.104 410.487 100.024C409.817 99.943 409.275 99.8523 408.85 99.755V85.063C409.37 84.7057 410.062 84.3777 410.927 84.087C411.786 83.7937 412.706 83.6443 413.682 83.6443C415.831 83.6443 417.398 84.3777 418.394 85.8443C419.385 87.307 419.882 89.2937 419.882 91.799C419.882 94.4017 419.265 96.443 418.026 97.923ZM425.177 86.4537C424.671 84.8097 423.95 83.403 423.005 82.2323C422.061 81.0603 420.881 80.1563 419.466 79.5243C418.053 78.8883 416.447 78.5723 414.658 78.5723C413.455 78.5723 412.357 78.7163 411.366 79.011C410.373 79.3017 409.535 79.6283 408.85 79.987V66.7577L402.942 67.7363V103.854C404.117 104.214 405.59 104.536 407.363 104.831C409.134 105.123 410.997 105.27 412.95 105.27C414.966 105.27 416.777 104.959 418.369 104.343C419.963 103.724 421.321 102.83 422.446 101.658C423.569 100.487 424.429 99.0803 425.031 97.4363C425.634 95.7923 425.934 93.9457 425.934 91.8963C425.934 89.911 425.682 88.0977 425.177 86.4537ZM441.746 100.243C440.967 100.143 440.326 100.007 439.818 99.8283C439.314 99.6483 438.918 99.3883 438.623 99.047C438.331 98.7043 438.125 98.2883 438.013 97.8003C437.898 97.3123 437.843 96.7137 437.843 95.9963V66.7577L431.939 67.7363V97.119C431.939 98.3897 432.074 99.519 432.351 100.51C432.626 101.503 433.109 102.335 433.79 103C434.474 103.667 435.393 104.18 436.55 104.536C437.703 104.896 439.161 105.091 440.921 105.123L441.746 100.243ZM452.486 79.1083H446.581V104.635H452.486V79.1083ZM452.046 68.9563C451.331 68.3057 450.482 67.979 449.506 67.979C448.499 67.979 447.639 68.3057 446.921 68.9563C446.206 69.6083 445.847 70.5003 445.847 71.639C445.847 72.7483 446.206 73.6257 446.921 74.2763C447.639 74.927 448.499 75.251 449.506 75.251C450.482 75.251 451.331 74.927 452.046 74.2763C452.765 73.6257 453.119 72.7483 453.119 71.639C453.119 70.5003 452.765 69.6083 452.046 68.9563ZM459.366 97.239C459.887 98.8843 460.678 100.299 461.735 101.486C462.791 102.676 464.126 103.602 465.737 104.268C467.347 104.936 469.243 105.27 471.423 105.27C472.823 105.27 474.181 105.14 475.501 104.879C476.817 104.619 477.802 104.326 478.451 104L477.622 99.1217C476.909 99.4123 476.061 99.655 475.085 99.8523C474.11 100.046 473.115 100.143 472.107 100.143C469.407 100.143 467.489 99.4043 466.349 97.923C465.211 96.443 464.638 94.4337 464.638 91.8963C464.638 89.2603 465.242 87.219 466.445 85.7697C467.65 84.3217 469.407 83.5977 471.717 83.5977C472.695 83.5977 473.613 83.695 474.473 83.8897C475.335 84.087 476.113 84.331 476.793 84.6243L478.062 79.791C475.914 78.915 473.635 78.4737 471.227 78.4737C469.278 78.4737 467.519 78.8137 465.955 79.499C464.397 80.1817 463.067 81.1257 461.978 82.3283C460.889 83.5337 460.053 84.959 459.466 86.6003C458.881 88.2443 458.587 90.0097 458.587 91.8963C458.587 93.8177 458.847 95.5977 459.366 97.239Z" fill="#231F20"/>
<path d="M309.96 134.699C309.36 133.059 308.518 131.648 307.445 130.475C306.37 129.304 305.077 128.402 303.568 127.768C302.05 127.134 300.401 126.818 298.61 126.818C296.821 126.818 295.178 127.134 293.682 127.768C292.182 128.402 290.89 129.304 289.8 130.475C288.71 131.648 287.865 133.059 287.262 134.699C286.658 136.342 286.357 138.174 286.357 140.188C286.357 142.208 286.658 144.047 287.262 145.704C287.865 147.363 288.704 148.782 289.777 149.954C290.853 151.124 292.132 152.034 293.632 152.687C295.128 153.338 296.788 153.663 298.61 153.663C300.434 153.663 302.101 153.338 303.614 152.687C305.128 152.034 306.421 151.124 307.494 149.954C308.568 148.782 309.398 147.363 309.982 145.704C310.569 144.047 310.862 142.208 310.862 140.188C310.862 138.174 310.561 136.342 309.96 134.699ZM303.176 146.291C302.085 147.79 300.564 148.536 298.61 148.536C296.657 148.536 295.136 147.79 294.049 146.291C292.957 144.794 292.414 142.76 292.414 140.188C292.414 137.655 292.957 135.642 294.049 134.164C295.136 132.683 296.657 131.944 298.61 131.944C300.564 131.944 302.085 132.683 303.176 134.164C304.265 135.642 304.81 137.655 304.81 140.188C304.81 142.76 304.265 144.794 303.176 146.291ZM319.55 117.91C317.824 119.78 316.962 122.359 316.962 125.644V152.978H322.869V132.382H332.144V127.451H322.869V125.747C322.869 124.928 322.95 124.171 323.113 123.472C323.274 122.775 323.553 122.179 323.942 121.691C324.336 121.203 324.856 120.82 325.506 120.543C326.156 120.27 326.952 120.131 327.897 120.131C328.741 120.131 329.532 120.212 330.265 120.374C330.998 120.536 331.638 120.748 332.193 121.01L333.316 116.128C332.793 115.934 332.017 115.714 330.97 115.468C329.929 115.226 328.728 115.102 327.358 115.102C323.878 115.102 321.276 116.038 319.55 117.91ZM352.913 118.983C351.172 119.099 349.585 119.319 348.154 119.642V152.978H354.304V141.067H357.377C359.85 141.067 362.049 140.859 363.969 140.434C365.886 140.011 367.512 139.355 368.849 138.459C370.184 137.563 371.2 136.407 371.9 134.992C372.598 133.574 372.948 131.878 372.948 129.894C372.948 126.083 371.64 123.284 369.021 121.496C366.4 119.708 362.634 118.808 357.718 118.808C356.257 118.808 354.65 118.87 352.913 118.983ZM361.452 124.399C362.478 124.579 363.365 124.882 364.113 125.304C364.862 125.727 365.448 126.315 365.868 127.06C366.292 127.81 366.505 128.736 366.505 129.843C366.505 132.155 365.708 133.724 364.113 134.554C362.52 135.383 360.24 135.798 357.281 135.798H354.304V124.279C355.313 124.178 356.598 124.132 358.16 124.132C359.33 124.132 360.426 124.224 361.452 124.399ZM399.572 134.699C398.969 133.059 398.137 131.648 397.06 130.475C395.986 129.304 394.694 128.402 393.177 127.768C391.668 127.134 390.016 126.818 388.225 126.818C386.437 126.818 384.793 127.134 383.294 127.768C381.797 128.402 380.505 129.304 379.416 130.475C378.322 131.648 377.478 133.059 376.877 134.699C376.272 136.342 375.976 138.174 375.976 140.188C375.976 142.208 376.272 144.047 376.877 145.704C377.478 147.363 378.318 148.782 379.392 149.954C380.465 151.124 381.75 152.034 383.246 152.687C384.744 153.338 386.404 153.663 388.225 153.663C390.049 153.663 391.714 153.338 393.233 152.687C394.74 152.034 396.036 151.124 397.109 149.954C398.184 148.782 399.013 147.363 399.598 145.704C400.185 144.047 400.478 142.208 400.478 140.188C400.478 138.174 400.174 136.342 399.572 134.699ZM392.79 146.291C391.7 147.79 390.176 148.536 388.225 148.536C386.273 148.536 384.752 147.79 383.662 146.291C382.573 144.794 382.026 142.76 382.026 140.188C382.026 137.655 382.573 135.642 383.662 134.164C384.752 132.683 386.273 131.944 388.225 131.944C390.176 131.944 391.7 132.683 392.79 134.164C393.88 135.642 394.424 137.655 394.424 140.188C394.424 142.76 393.88 144.794 392.79 146.291ZM416.292 148.586C415.51 148.486 414.866 148.352 414.362 148.171C413.86 147.994 413.458 147.732 413.166 147.392C412.874 147.05 412.669 146.632 412.56 146.144C412.442 145.658 412.384 145.055 412.384 144.339V115.102L406.48 116.076V145.462C406.48 146.731 406.616 147.862 406.896 148.852C407.17 149.847 407.652 150.676 408.336 151.346C409.017 152.011 409.938 152.526 411.093 152.882C412.248 153.238 413.705 153.432 415.461 153.464L416.292 148.586ZM426.492 148.023C425.613 147.488 425.174 146.52 425.174 145.123C425.174 144.403 425.336 143.811 425.661 143.338C425.986 142.867 426.417 142.5 426.953 142.239C427.493 141.98 428.096 141.8 428.765 141.703C429.426 141.606 430.086 141.558 430.74 141.558C431.486 141.558 432.17 141.606 432.789 141.703C433.408 141.8 433.876 141.896 434.206 141.995V148.536C433.258 148.73 431.877 148.83 430.054 148.83C428.558 148.83 427.373 148.56 426.492 148.023ZM424.98 127.207C423.548 127.467 422.458 127.727 421.71 127.988L422.442 132.772C423.157 132.511 424.082 132.283 425.224 132.086C426.361 131.894 427.613 131.796 428.982 131.796C429.992 131.796 430.828 131.926 431.496 132.187C432.162 132.447 432.698 132.814 433.105 133.284C433.51 133.755 433.798 134.302 433.96 134.92C434.124 135.536 434.206 136.186 434.206 136.87V137.847C433.389 137.655 432.624 137.516 431.91 137.434C431.192 137.351 430.51 137.31 429.861 137.31C428.462 137.31 427.116 137.451 425.833 137.727C424.548 138.002 423.417 138.459 422.442 139.094C421.462 139.727 420.69 140.551 420.122 141.558C419.552 142.566 419.269 143.8 419.269 145.267C419.269 146.794 419.518 148.08 420.022 149.12C420.53 150.166 421.226 151.01 422.125 151.662C423.018 152.312 424.1 152.783 425.37 153.074C426.638 153.368 428.036 153.516 429.568 153.516C431.877 153.516 433.952 153.376 435.788 153.1C437.628 152.824 439.004 152.587 439.913 152.394V136.919C439.913 135.424 439.742 134.05 439.4 132.795C439.057 131.546 438.489 130.475 437.693 129.599C436.894 128.722 435.828 128.035 434.494 127.548C433.164 127.06 431.52 126.818 429.568 126.818C427.938 126.818 426.412 126.947 424.98 127.207ZM447.14 152.978H453.045V132.382C453.436 132.315 454.038 132.234 454.852 132.139C455.664 132.039 456.444 131.99 457.192 131.99C458.202 131.99 459.058 132.131 459.757 132.404C460.457 132.683 461.008 133.12 461.416 133.724C461.821 134.326 462.114 135.108 462.292 136.066C462.472 137.026 462.561 138.188 462.561 139.558V152.978H468.469V138.628C468.469 136.903 468.296 135.319 467.953 133.87C467.613 132.42 467.03 131.184 466.198 130.159C465.37 129.136 464.257 128.338 462.854 127.768C461.454 127.199 459.714 126.912 457.632 126.912C455.42 126.912 453.402 127.06 451.58 127.355C449.757 127.647 448.276 127.955 447.14 128.282V152.978ZM481.814 134.188C482.808 132.723 484.378 131.99 486.528 131.99C487.504 131.99 488.424 132.147 489.286 132.454C490.149 132.766 490.838 133.098 491.357 133.452V148.096C490.937 148.196 490.39 148.283 489.724 148.366C489.061 148.447 488.252 148.486 487.309 148.486C485.128 148.486 483.417 147.748 482.184 146.266C480.945 144.787 480.328 142.744 480.328 140.142C480.328 137.635 480.822 135.65 481.814 134.188ZM497.266 115.102L491.357 116.076V128.331C490.677 127.97 489.861 127.647 488.921 127.355C487.974 127.06 486.882 126.912 485.652 126.912C483.825 126.912 482.214 127.232 480.816 127.866C479.417 128.503 478.229 129.403 477.254 130.575C476.277 131.746 475.536 133.155 475.033 134.796C474.526 136.442 474.274 138.27 474.274 140.287C474.274 142.339 474.574 144.186 475.178 145.83C475.78 147.472 476.642 148.871 477.765 150.024C478.886 151.182 480.246 152.067 481.84 152.687C483.437 153.303 485.242 153.614 487.26 153.614C489.212 153.614 491.076 153.464 492.848 153.175C494.622 152.882 496.094 152.558 497.266 152.196V115.102Z" fill="#231F20"/>
</g>
</g>
<defs>
<clipPath id="clip0_113_2">
<rect width="541" height="221" fill="white"/>
</clipPath>
</defs>
</svg>
