<svg role="img" viewBox="0 0 662 220" fill="none" xmlns="http://www.w3.org/2000/svg">
<title>Logotyp Rzeczpospolitej Polskiej</title>
<g clip-path="url(#clip0_113_29)">
<mask id="mask0_113_29" style="mask-type:luminance" maskUnits="userSpaceOnUse" x="-38" y="-39" width="738" height="297">
<path d="M-38 -39.0001H699.665V257.423H-38V-39.0001Z" fill="white"/>
</mask>
<g mask="url(#mask0_113_29)">
<path d="M296.012 70.8232C300.844 70.8232 304.531 71.7045 307.09 73.4778C309.647 75.2392 310.928 77.9445 310.928 81.5845C310.928 86.1205 308.694 89.1898 304.215 90.7992C304.83 91.5432 305.519 92.4378 306.296 93.5045C307.064 94.5658 307.854 95.7192 308.659 96.9538C309.462 98.1912 310.23 99.4645 310.972 100.77C311.716 102.072 312.374 103.348 312.96 104.604H306.152C305.538 103.446 304.876 102.276 304.168 101.104C303.46 99.9312 302.75 98.7885 302.02 97.6765C301.295 96.5685 300.582 95.5245 299.875 94.5392C299.167 93.5605 298.507 92.6832 297.894 91.9085C297.446 91.9472 297.06 91.9578 296.738 91.9578H295.82H292.878V104.604H286.79V71.6405C288.274 71.3205 289.851 71.0992 291.528 70.9858C293.198 70.8725 294.694 70.8232 296.012 70.8232ZM296.444 76.0792C295.156 76.0792 293.968 76.1312 292.878 76.2218V87.0365H295.531C297.011 87.0365 298.311 86.9552 299.436 86.7912C300.567 86.6365 301.508 86.3432 302.262 85.9245C303.014 85.5112 303.588 84.9458 303.978 84.2392C304.362 83.5298 304.554 82.6285 304.554 81.5325C304.554 80.5085 304.362 79.6352 303.978 78.9298C303.588 78.2232 303.035 77.6592 302.307 77.2378C301.594 76.8192 300.73 76.5192 299.726 76.3472C298.728 76.1712 297.632 76.0792 296.444 76.0792Z" fill="#231F20"/>
<path d="M335.447 83.4644C334.797 84.1337 333.963 85.0897 332.913 86.3097C331.867 87.535 330.751 88.8897 329.553 90.3884C328.363 91.8857 327.169 93.447 325.964 95.0737C324.755 96.6964 323.669 98.2497 322.707 99.731H335.729V104.603H315.657V100.988C316.364 99.6937 317.253 98.299 318.313 96.783C319.375 95.2724 320.471 93.751 321.592 92.2217C322.721 90.6964 323.839 89.2417 324.949 87.8577C326.056 86.4737 327.051 85.263 327.916 84.2404H316.284V79.3604H335.447V83.4644Z" fill="#231F20"/>
<path d="M338.92 92.1018C338.92 89.8871 339.244 87.9391 339.91 86.2644C340.566 84.5858 341.447 83.1978 342.535 82.0858C343.638 80.9804 344.883 80.1378 346.306 79.5751C347.718 79.0164 349.171 78.7351 350.648 78.7351C354.128 78.7351 356.836 79.8111 358.784 81.9684C360.736 84.1271 361.703 87.3444 361.703 91.6178C361.703 91.9471 361.695 92.3058 361.676 92.7058C361.662 93.1098 361.631 93.4738 361.606 93.7911H344.954C345.11 95.8231 345.832 97.3898 347.099 98.4938C348.371 99.6071 350.218 100.167 352.63 100.167C354.042 100.167 355.338 100.032 356.511 99.7778C357.686 99.5204 358.615 99.2431 359.286 98.9564L360.064 103.732C359.739 103.898 359.298 104.067 358.731 104.244C358.17 104.422 357.523 104.584 356.81 104.727C356.08 104.871 355.303 104.994 354.46 105.086C353.627 105.184 352.77 105.232 351.908 105.232C349.68 105.232 347.755 104.903 346.114 104.244C344.472 103.578 343.122 102.668 342.055 101.488C340.994 100.319 340.208 98.9351 339.692 97.3364C339.176 95.7484 338.92 94.0058 338.92 92.1018ZM355.862 89.4964C355.862 88.6951 355.748 87.9298 355.522 87.2058C355.303 86.4831 354.971 85.8524 354.54 85.3244C354.099 84.7938 353.57 84.3724 352.94 84.0644C352.316 83.7604 351.568 83.6071 350.696 83.6071C349.794 83.6071 349.004 83.7751 348.33 84.1138C347.658 84.4551 347.083 84.8951 346.619 85.4431C346.151 85.9924 345.788 86.6191 345.535 87.3231C345.274 88.0311 345.103 88.7578 344.996 89.4964H355.862Z" fill="#231F20"/>
<path d="M366.479 92.0073C366.479 90.1433 366.771 88.394 367.355 86.7713C367.93 85.146 368.756 83.7366 369.832 82.5473C370.912 81.3593 372.23 80.426 373.771 79.7486C375.323 79.0726 377.048 78.7326 378.986 78.7326C381.36 78.7326 383.618 79.1633 385.739 80.038L384.49 84.814C383.81 84.526 383.044 84.2846 382.198 84.0966C381.34 83.9006 380.435 83.8046 379.468 83.8046C377.179 83.8046 375.444 84.514 374.254 85.9513C373.064 87.3833 372.471 89.406 372.471 92.0073C372.471 94.5193 373.031 96.5073 374.164 97.9673C375.282 99.434 377.179 100.167 379.854 100.167C380.854 100.167 381.828 100.063 382.798 99.8753C383.766 99.6846 384.6 99.4393 385.31 99.1526L386.128 103.978C385.483 104.295 384.508 104.589 383.207 104.845C381.907 105.105 380.563 105.23 379.176 105.23C377.018 105.23 375.144 104.901 373.552 104.246C371.962 103.579 370.644 102.669 369.599 101.49C368.552 100.319 367.767 98.9166 367.258 97.2886C366.74 95.6673 366.479 93.9046 366.479 92.0073Z" fill="#231F20"/>
<path d="M408.327 83.4644C407.688 84.1337 406.832 85.0897 405.794 86.3097C404.747 87.535 403.627 88.8897 402.44 90.3884C401.251 91.8857 400.051 93.447 398.843 95.0737C397.638 96.6964 396.547 98.2497 395.579 99.731H408.614V104.603H388.542V100.988C389.247 99.6937 390.128 98.299 391.192 96.783C392.252 95.2724 393.344 93.751 394.476 92.2217C395.603 90.6964 396.72 89.2417 397.827 87.8577C398.944 86.4737 399.93 85.263 400.799 84.2404H389.164V79.3604H408.327V83.4644Z" fill="#231F20"/>
<path d="M436.751 92.0075C436.751 93.9342 436.505 95.7088 436.002 97.3182C435.502 98.9262 434.794 100.31 433.862 101.467C432.926 102.626 431.759 103.527 430.358 104.169C428.957 104.814 427.371 105.138 425.605 105.138C424.407 105.138 423.313 104.994 422.323 104.702C421.327 104.41 420.507 104.091 419.862 103.73V113.531H414.021V80.1808C415.206 79.8622 416.67 79.5555 418.411 79.2702C420.153 78.9768 421.983 78.8275 423.913 78.8275C425.91 78.8275 427.693 79.1342 429.271 79.7488C430.845 80.3595 432.19 81.2368 433.303 82.3768C434.417 83.5195 435.267 84.9062 435.859 86.5288C436.455 88.1542 436.751 89.9795 436.751 92.0075ZM430.77 92.1022C430.77 89.4968 430.181 87.4675 429.006 86.0248C427.833 84.5768 425.938 83.8515 423.335 83.8515C422.791 83.8515 422.218 83.8742 421.625 83.9195C421.029 83.9728 420.443 84.0742 419.862 84.2382V98.6715C420.379 99.0182 421.066 99.3515 421.911 99.6528C422.762 99.9622 423.675 100.115 424.634 100.115C426.757 100.115 428.323 99.3942 429.297 97.9435C430.275 96.4982 430.77 94.5488 430.77 92.1022Z" fill="#231F20"/>
<path d="M465.62 91.9579C465.62 93.9579 465.329 95.7699 464.749 97.4099C464.17 99.0552 463.348 100.454 462.286 101.613C461.225 102.767 459.945 103.673 458.454 104.318C456.954 104.958 455.305 105.281 453.5 105.281C451.706 105.281 450.056 104.958 448.581 104.318C447.1 103.673 445.828 102.767 444.766 101.613C443.705 100.454 442.878 99.0552 442.286 97.4099C441.682 95.7699 441.388 93.9579 441.388 91.9579C441.388 89.9619 441.682 88.1539 442.286 86.5285C442.878 84.9045 443.713 83.5099 444.789 82.3525C445.869 81.1952 447.142 80.3019 448.637 79.6779C450.105 79.0485 451.733 78.7352 453.5 78.7352C455.278 78.7352 456.902 79.0485 458.405 79.6779C459.896 80.3019 461.176 81.1952 462.237 82.3525C463.298 83.5099 464.133 84.9045 464.729 86.5285C465.321 88.1539 465.62 89.9619 465.62 91.9579ZM459.628 91.9579C459.628 89.4459 459.098 87.4632 458.016 86.0019C456.932 84.5365 455.433 83.8045 453.5 83.8045C451.57 83.8045 450.064 84.5365 448.988 86.0019C447.916 87.4632 447.369 89.4459 447.369 91.9579C447.369 94.4965 447.916 96.5112 448.988 97.9939C450.064 99.4699 451.57 100.211 453.5 100.211C455.433 100.211 456.932 99.4699 458.016 97.9939C459.098 96.5112 459.628 94.4965 459.628 91.9579Z" fill="#231F20"/>
<path d="M477.967 100.402C479.519 100.402 480.645 100.217 481.35 99.8491C482.055 99.4811 482.419 98.8451 482.419 97.9425C482.419 97.1065 482.038 96.4158 481.278 95.8718C480.523 95.3185 479.27 94.7238 477.537 94.0838C476.475 93.6985 475.501 93.2891 474.618 92.8465C473.73 92.4171 472.967 91.9105 472.323 91.3331C471.681 90.7518 471.17 90.0491 470.805 89.2305C470.435 88.4091 470.253 87.4065 470.253 86.2171C470.253 83.9011 471.099 82.0771 472.806 80.7385C474.509 79.3998 476.83 78.7331 479.761 78.7331C481.237 78.7331 482.649 78.8691 484.001 79.1425C485.361 79.4225 486.373 79.6825 487.051 79.9438L485.983 84.6691C485.337 84.3811 484.518 84.1131 483.521 83.8745C482.533 83.6345 481.373 83.5105 480.049 83.5105C478.858 83.5105 477.891 83.7158 477.155 84.1131C476.403 84.5131 476.038 85.1411 476.038 85.9718C476.038 86.3905 476.109 86.7611 476.257 87.0811C476.403 87.4065 476.654 87.7051 477.003 87.9798C477.359 88.2505 477.821 88.5238 478.409 88.7998C478.979 89.0731 479.697 89.3518 480.527 89.6411C481.917 90.1571 483.091 90.6651 484.053 91.1611C485.021 91.6598 485.821 92.2238 486.443 92.8465C487.062 93.4785 487.531 94.1945 487.814 95.0011C488.111 95.8051 488.253 96.7678 488.253 97.8958C488.253 100.31 487.361 102.136 485.571 103.374C483.789 104.614 481.237 105.23 477.926 105.23C475.706 105.23 473.915 105.045 472.563 104.677C471.213 104.309 470.265 104.01 469.714 103.784L470.733 98.9051C471.602 99.2638 472.635 99.6011 473.843 99.9198C475.049 100.248 476.427 100.402 477.967 100.402Z" fill="#231F20"/>
<path d="M516.439 92.0075C516.439 93.9342 516.185 95.7088 515.691 97.3182C515.196 98.9262 514.475 100.31 513.539 101.467C512.613 102.626 511.439 103.527 510.045 104.169C508.645 104.814 507.06 105.138 505.293 105.138C504.095 105.138 503.008 104.994 502.004 104.702C501.007 104.41 500.188 104.091 499.549 103.73V113.531H493.708V80.1808C494.901 79.8622 496.359 79.5555 498.099 79.2702C499.84 78.9768 501.672 78.8275 503.6 78.8275C505.597 78.8275 507.388 79.1342 508.967 79.7488C510.532 80.3595 511.877 81.2368 512.987 82.3768C514.097 83.5195 514.947 84.9062 515.547 86.5288C516.144 88.1542 516.439 89.9795 516.439 92.0075ZM510.457 92.1022C510.457 89.4968 509.86 87.4675 508.693 86.0248C507.517 84.5768 505.633 83.8515 503.023 83.8515C502.471 83.8515 501.899 83.8742 501.3 83.9195C500.708 83.9728 500.132 84.0742 499.549 84.2382V98.6715C500.059 99.0182 500.743 99.3515 501.6 99.6528C502.457 99.9622 503.363 100.115 504.321 100.115C506.452 100.115 507.992 99.3942 508.985 97.9435C509.967 96.4982 510.457 94.5488 510.457 92.1022Z" fill="#231F20"/>
<path d="M545.305 91.9579C545.305 93.9579 545.017 95.7699 544.437 97.4099C543.854 99.0552 543.035 100.454 541.974 101.613C540.905 102.767 539.633 103.673 538.134 104.318C536.643 104.958 534.993 105.281 533.187 105.281C531.387 105.281 529.745 104.958 528.269 104.318C526.787 103.673 525.515 102.767 524.454 101.613C523.393 100.454 522.566 99.0552 521.974 97.4099C521.37 95.7699 521.075 93.9579 521.075 91.9579C521.075 89.9619 521.37 88.1539 521.974 86.5285C522.566 84.9045 523.401 83.5099 524.481 82.3525C525.557 81.1952 526.837 80.3019 528.31 79.6779C529.793 79.0485 531.421 78.7352 533.187 78.7352C534.95 78.7352 536.59 79.0485 538.093 79.6779C539.585 80.3019 540.865 81.1952 541.925 82.3525C542.994 83.5099 543.813 84.9045 544.406 86.5285C545.01 88.1539 545.305 89.9619 545.305 91.9579ZM539.323 91.9579C539.323 89.4459 538.777 87.4632 537.703 86.0019C536.627 84.5365 535.121 83.8045 533.187 83.8045C531.258 83.8045 529.751 84.5365 528.675 86.0019C527.597 87.4632 527.063 89.4459 527.063 91.9579C527.063 94.4965 527.597 96.5112 528.675 97.9939C529.751 99.4699 531.258 100.211 533.187 100.211C535.121 100.211 536.627 99.4699 537.703 97.9939C538.777 96.5112 539.323 94.4965 539.323 91.9579Z" fill="#231F20"/>
<path d="M560.117 105.086C558.376 105.054 556.941 104.862 555.801 104.506C554.657 104.154 553.744 103.652 553.074 102.985C552.398 102.329 551.92 101.509 551.65 100.525C551.376 99.5422 551.24 98.4235 551.24 97.1715V72.4502L557.077 71.4862V96.0622C557.077 96.7688 557.134 97.3688 557.244 97.8502C557.361 98.3342 557.557 98.7435 557.856 99.0808C558.134 99.4168 558.532 99.6742 559.029 99.8515C559.532 100.029 560.165 100.168 560.936 100.26L560.117 105.086Z" fill="#231F20"/>
<path d="M572.183 71.9808C572.183 73.0715 571.829 73.9382 571.123 74.5835C570.417 75.2302 569.575 75.5489 568.611 75.5489C567.622 75.5489 566.766 75.2302 566.059 74.5835C565.354 73.9382 564.998 73.0715 564.998 71.9808C564.998 70.8515 565.354 69.9662 566.059 69.3262C566.766 68.6782 567.622 68.3582 568.611 68.3582C569.575 68.3582 570.417 68.6782 571.123 69.3262C571.829 69.9662 572.183 70.8515 572.183 71.9808ZM571.553 104.604H565.719V79.3608H571.553V104.604Z" fill="#231F20"/>
<path d="M578.698 72.4507L584.542 71.4881V79.3601H593.516V84.2401H584.542V94.5201C584.542 96.5414 584.859 97.9921 585.504 98.8587C586.147 99.7321 587.246 100.167 588.786 100.167C589.854 100.167 590.794 100.053 591.615 99.8281C592.438 99.6014 593.087 99.3947 593.566 99.1961L594.536 103.837C593.856 104.121 592.966 104.42 591.875 104.728C590.78 105.032 589.492 105.184 588.015 105.184C586.211 105.184 584.704 104.943 583.507 104.461C582.299 103.98 581.336 103.276 580.63 102.36C579.916 101.443 579.426 100.331 579.139 99.0281C578.84 97.7281 578.698 96.2414 578.698 94.5667V72.4507Z" fill="#231F20"/>
<path d="M607.56 78.7332C609.496 78.7332 611.116 78.9745 612.437 79.4559C613.754 79.9439 614.809 80.6159 615.601 81.4799C616.386 82.3519 616.953 83.4079 617.293 84.6492C617.625 85.8879 617.792 87.2412 617.792 88.7279V104.025C616.897 104.216 615.537 104.452 613.717 104.728C611.894 104.997 609.848 105.137 607.56 105.137C606.053 105.137 604.67 104.992 603.414 104.704C602.16 104.408 601.088 103.948 600.204 103.303C599.316 102.656 598.626 101.823 598.132 100.791C597.629 99.7612 597.38 98.4919 597.38 96.9799C597.38 95.5332 597.662 94.3105 598.221 93.3092C598.788 92.3145 599.55 91.5012 600.521 90.8705C601.484 90.2452 602.597 89.7945 603.873 89.5225C605.146 89.2505 606.469 89.1105 607.858 89.1105C608.492 89.1105 609.172 89.1492 609.877 89.2319C610.588 89.3132 611.342 89.4439 612.15 89.6412V88.6772C612.15 87.9985 612.072 87.3532 611.909 86.7492C611.746 86.1332 611.472 85.5959 611.06 85.1319C610.654 84.6652 610.126 84.3012 609.47 84.0439C608.812 83.7879 607.981 83.6545 606.985 83.6545C605.634 83.6545 604.396 83.7585 603.265 83.9479C602.141 84.1345 601.228 84.3612 600.521 84.6225L599.793 79.8932C600.529 79.6332 601.608 79.3812 603.025 79.1239C604.444 78.8639 605.95 78.7332 607.56 78.7332ZM608.046 100.507C609.848 100.507 611.214 100.403 612.15 100.212V93.7452C611.821 93.6479 611.358 93.5545 610.75 93.4532C610.134 93.3625 609.462 93.3092 608.718 93.3092C608.085 93.3092 607.43 93.3625 606.766 93.4532C606.109 93.5545 605.513 93.7292 604.977 93.9852C604.452 94.2425 604.029 94.6052 603.704 95.0732C603.378 95.5372 603.221 96.1279 603.221 96.8345C603.221 98.2185 603.654 99.1719 604.524 99.7052C605.388 100.239 606.57 100.507 608.046 100.507Z" fill="#231F20"/>
<path d="M296.253 115.571C301.109 115.571 304.829 116.451 307.421 118.225C310.017 119.994 311.304 122.761 311.304 126.529C311.304 128.49 310.958 130.171 310.273 131.571C309.574 132.97 308.572 134.111 307.258 134.993C305.936 135.885 304.328 136.531 302.43 136.951C300.525 137.373 298.36 137.577 295.912 137.577H292.868V149.353H286.788V116.39C288.202 116.074 289.773 115.85 291.493 115.741C293.217 115.627 294.804 115.571 296.253 115.571ZM296.68 120.826C295.142 120.826 293.873 120.879 292.868 120.973V132.37H295.821C298.744 132.37 300.994 131.959 302.577 131.133C304.153 130.317 304.942 128.765 304.942 126.477C304.942 125.386 304.725 124.467 304.309 123.729C303.898 122.986 303.31 122.407 302.577 121.987C301.837 121.571 300.957 121.277 299.937 121.095C298.926 120.922 297.837 120.826 296.68 120.826Z" fill="#231F20"/>
<path d="M338.531 136.712C338.531 138.704 338.24 140.523 337.662 142.163C337.088 143.808 336.268 145.201 335.202 146.363C334.147 147.52 332.863 148.42 331.364 149.067C329.868 149.712 328.218 150.031 326.412 150.031C324.61 150.031 322.97 149.712 321.498 149.067C320.007 148.42 318.739 147.52 317.686 146.363C316.616 145.201 315.784 143.808 315.192 142.163C314.596 140.523 314.3 138.704 314.3 136.712C314.3 134.716 314.596 132.903 315.192 131.284C315.784 129.653 316.626 128.265 317.703 127.108C318.782 125.944 320.06 125.051 321.546 124.427C323.022 123.8 324.642 123.485 326.412 123.485C328.188 123.485 329.815 123.8 331.315 124.427C332.811 125.051 334.09 125.944 335.15 127.108C336.211 128.265 337.048 129.653 337.64 131.284C338.232 132.903 338.531 134.716 338.531 136.712ZM332.547 136.712C332.547 134.201 332.01 132.217 330.926 130.752C329.851 129.285 328.343 128.559 326.412 128.559C324.488 128.559 322.983 129.285 321.907 130.752C320.828 132.217 320.287 134.201 320.287 136.712C320.287 139.251 320.828 141.265 321.907 142.743C322.983 144.224 324.488 144.965 326.412 144.965C328.343 144.965 329.851 144.224 330.926 142.743C332.01 141.265 332.547 139.251 332.547 136.712Z" fill="#231F20"/>
<path d="M353.351 149.837C351.61 149.805 350.175 149.61 349.029 149.262C347.887 148.902 346.978 148.399 346.298 147.739C345.626 147.077 345.154 146.258 344.877 145.273C344.607 144.295 344.467 143.178 344.467 141.922V117.261L350.309 116.294V140.815C350.309 141.522 350.373 142.117 350.478 142.599C350.591 143.082 350.791 143.49 351.082 143.829C351.377 144.165 351.766 144.421 352.269 144.602C352.759 144.782 353.393 144.915 354.17 145.015L353.351 149.837Z" fill="#231F20"/>
<path d="M365.222 145.156C366.77 145.156 367.896 144.971 368.601 144.603C369.306 144.229 369.662 143.595 369.662 142.699C369.662 141.86 369.289 141.165 368.529 140.623C367.774 140.072 366.521 139.479 364.788 138.837C363.726 138.449 362.752 138.037 361.869 137.603C360.977 137.167 360.22 136.667 359.574 136.081C358.924 135.509 358.421 134.803 358.056 133.985C357.686 133.159 357.501 132.155 357.501 130.967C357.501 128.648 358.35 126.825 360.057 125.492C361.768 124.156 364.082 123.483 367.005 123.483C368.488 123.483 369.905 123.624 371.262 123.893C372.612 124.171 373.624 124.437 374.304 124.693L373.234 129.423C372.588 129.129 371.769 128.865 370.78 128.628C369.776 128.383 368.617 128.267 367.3 128.267C366.113 128.267 365.142 128.465 364.4 128.865C363.662 129.269 363.297 129.889 363.297 130.725C363.297 131.144 363.368 131.515 363.508 131.836C363.654 132.155 363.897 132.453 364.258 132.731C364.606 133.004 365.08 133.277 365.652 133.548C366.238 133.827 366.948 134.101 367.778 134.396C369.168 134.911 370.334 135.412 371.308 135.916C372.272 136.413 373.065 136.977 373.702 137.603C374.325 138.232 374.782 138.949 375.073 139.749C375.357 140.56 375.504 141.521 375.504 142.649C375.504 145.06 374.613 146.884 372.822 148.124C371.04 149.364 368.488 149.984 365.169 149.984C362.957 149.984 361.174 149.793 359.822 149.425C358.468 149.057 357.516 148.759 356.973 148.532L357.984 143.66C358.857 144.013 359.894 144.352 361.088 144.673C362.3 144.997 363.67 145.156 365.222 145.156Z" fill="#231F20"/>
<path d="M386.793 133.957C387.538 133.191 388.322 132.361 389.164 131.475C389.998 130.587 390.825 129.706 391.626 128.819C392.424 127.933 393.193 127.082 393.922 126.261C394.64 125.442 395.264 124.723 395.776 124.114H402.674C401.073 125.911 399.385 127.778 397.602 129.715C395.821 131.643 394.024 133.529 392.226 135.362C393.193 136.162 394.209 137.137 395.264 138.278C396.322 139.421 397.354 140.637 398.352 141.923C399.344 143.213 400.277 144.495 401.138 145.785C402.01 147.073 402.724 148.262 403.309 149.353H396.542C395.969 148.358 395.305 147.314 394.545 146.219C393.79 145.125 392.978 144.063 392.105 143.029C391.237 142.003 390.35 141.031 389.456 140.114C388.549 139.194 387.673 138.419 386.793 137.77V149.353H380.952V117.262L386.793 116.294V133.957Z" fill="#231F20"/>
<path d="M415.951 123.483C417.883 123.483 419.503 123.729 420.824 124.211C422.145 124.693 423.196 125.369 423.984 126.233C424.771 127.107 425.336 128.157 425.676 129.399C426.016 130.636 426.187 131.996 426.187 133.476V148.78C425.288 148.969 423.924 149.205 422.104 149.476C420.277 149.751 418.235 149.888 415.951 149.888C414.444 149.888 413.057 149.741 411.797 149.456C410.547 149.164 409.472 148.696 408.588 148.051C407.707 147.404 407.009 146.573 406.515 145.54C406.012 144.513 405.771 143.245 405.771 141.728C405.771 140.284 406.049 139.064 406.608 138.059C407.172 137.065 407.941 136.255 408.905 135.624C409.868 134.993 410.984 134.548 412.257 134.277C413.535 133.999 414.848 133.864 416.233 133.864C416.875 133.864 417.555 133.901 418.264 133.985C418.971 134.061 419.725 134.199 420.541 134.396V133.427C420.541 132.747 420.459 132.108 420.292 131.5C420.131 130.883 419.855 130.351 419.451 129.88C419.041 129.419 418.517 129.049 417.853 128.792C417.196 128.537 416.368 128.408 415.368 128.408C414.021 128.408 412.783 128.508 411.649 128.701C410.525 128.889 409.615 129.117 408.905 129.376L408.176 124.643C408.92 124.388 409.996 124.128 411.416 123.872C412.831 123.617 414.337 123.483 415.951 123.483ZM416.433 145.255C418.235 145.255 419.593 145.156 420.541 144.965V138.5C420.209 138.396 419.749 138.303 419.133 138.207C418.517 138.111 417.845 138.059 417.101 138.059C416.46 138.059 415.813 138.111 415.157 138.207C414.492 138.303 413.9 138.477 413.36 138.735C412.831 138.996 412.412 139.359 412.084 139.821C411.763 140.291 411.6 140.876 411.6 141.584C411.6 142.965 412.037 143.925 412.915 144.455C413.771 144.987 414.953 145.255 416.433 145.255Z" fill="#231F20"/>
<path d="M43.8555 109.236H242.721V42.8678H43.8555V109.236Z" fill="white"/>
<path d="M43.8545 175.585H242.72V109.235L43.8545 109.236V175.585Z" fill="#B72132"/>
<path d="M43.8545 175.585H242.72V42.8681H43.8545V175.585ZM44.4745 43.4948H242.099V174.957H44.4745V43.4948Z" fill="#808285"/>
</g>
</g>
<defs>
<clipPath id="clip0_113_29">
<rect width="662" height="220" fill="white"/>
</clipPath>
</defs>
</svg>
