<svg viewBox="0 0 74 35" fill="currentColor" xmlns="http://www.w3.org/2000/svg">
<path d="M67.9023 8.70594H37.1965C36.4906 7.64712 35.6965 6.58829 34.8141 5.70594V5.6177H34.7259C33.4906 4.38241 31.9023 3.32359 31.6376 3.23535C28.4612 1.20594 24.5788 0.235352 20.4318 0.235352C9.57881 0.235352 0.843517 8.00006 0.843517 17.5295C0.843517 27.0589 9.57881 34.8236 20.4318 34.8236C21.1376 34.8236 21.8435 34.7353 22.4612 34.6471C23.167 34.5589 23.7847 34.4706 24.4906 34.3824C25.1082 34.2942 25.8141 34.1177 26.4318 33.9412C27.0494 33.7648 27.667 33.5001 28.2847 33.2354C28.9023 32.9706 29.4317 32.7059 30.0494 32.353C30.5788 32.0883 31.1965 31.7353 31.7259 31.3824C32.2553 31.0295 32.7847 30.6765 33.2259 30.3236C33.7553 29.9706 34.1965 29.5295 34.6376 29.0883C35.0788 28.6471 35.52 28.2059 35.8729 27.6765C36.2259 27.2353 36.5788 26.7942 36.9318 26.2648C37.1965 25.9118 37.3729 25.4706 37.6376 25.0295C37.9023 24.5001 38.2553 23.8824 38.4317 23.353C39.0494 23.7059 39.5788 24.2353 39.9318 24.853L40.1965 24.7648C39.9317 23.1765 39.667 21.5883 39.5788 19.9118H67.9023C70.9023 19.9118 73.3729 17.353 73.3729 14.2648C73.3729 11.2648 70.9906 8.70594 67.9023 8.70594ZM37.1965 13.9118V15.5001H35.2553V17.9706H33.5788V13.4706C33.5788 11.9706 34.3729 11.1765 35.9612 11.1765H37.1965V12.7648H36.0494C35.6082 12.7648 35.3435 13.0295 35.3435 13.4706V13.9118H37.1965ZM28.02 13.1177V11.1765H29.6965V13.2942C29.6965 13.8236 29.9612 14.1765 30.4023 14.1765C30.8435 14.1765 31.1082 13.9118 31.1082 13.2942V11.1765H32.7847V13.1177C32.7847 14.353 32.2553 15.2354 31.2847 15.5883V17.9706H29.6082V15.5883C28.5494 15.1471 28.02 14.353 28.02 13.1177ZM16.7259 13.3824H14.3435L16.5494 9.67653H18.5788L18.4023 10.2942C17.52 11.0883 16.9906 12.1471 16.7259 13.3824ZM17.7847 17.7942H16.1965L16.9023 15.7648C16.9906 16.4706 17.3435 17.1765 17.7847 17.7942ZM16.7259 13.6471C16.7259 13.9118 16.6376 14.0883 16.6376 14.353C16.6376 14.6177 16.6376 14.8824 16.7259 15.1471L15.8435 17.7059H11.7847L14.2553 13.6471H16.7259ZM16.02 18.0589H17.9612C18.4023 18.5883 18.9318 19.0295 19.5494 19.3824L19.1965 22.3824H14.52L16.02 18.0589ZM18.8435 9.853L18.9318 9.67653H19.1082C19.02 9.76476 18.9318 9.76476 18.8435 9.853ZM19.8141 19.4706C20.52 19.8236 21.3141 20.0001 22.1082 20.0001H24.4906L24.8435 22.2942H19.4612L19.8141 19.4706ZM24.667 8.70594H23.167L22.7259 5.88241H23.6082L24.667 8.70594ZM23.9612 5.88241H24.8435L26.52 8.70594H24.9318L23.9612 5.88241ZM24.4906 11.7059C25.1082 11.353 25.9906 11.1765 27.1376 11.1765H27.3141V12.7648H26.9612C25.4612 12.7648 24.667 13.3824 24.667 14.5295C24.667 15.6765 25.4612 16.3824 26.9612 16.3824H27.3141V17.9706H27.1376C25.9906 17.9706 25.1082 17.7942 24.4906 17.4412C23.52 16.8236 22.9023 15.7648 22.9023 14.6177C22.9906 13.3824 23.52 12.4118 24.4906 11.7059ZM24.8435 20.0001H28.9023L29.7847 22.2942H25.1965L24.8435 20.0001ZM29.9612 8.70594L27.2259 5.88241H30.0494L34.5494 8.70594H29.9612ZM29.6082 8.70594H26.9612L25.2847 5.88241H26.8729L29.6082 8.70594ZM25.02 5.6177L22.6376 1.64712L26.52 5.6177H25.02ZM24.667 5.6177H23.7847L22.5494 2.00006L24.667 5.6177ZM23.52 5.6177H22.7259L22.1965 2.00006L23.52 5.6177ZM22.9023 8.70594H22.1965C21.8435 8.70594 21.4906 8.70594 21.1376 8.79417L21.4906 5.88241H22.5494L22.9023 8.70594ZM20.7847 8.88241C20.3435 8.97064 19.9906 9.14712 19.6376 9.32359H19.1082L20.2553 5.88241H21.1376L20.7847 8.88241ZM18.667 9.41182H16.7259L18.8435 5.97065H19.9023L18.667 9.41182ZM16.4612 9.41182H13.5494L16.9023 5.97065H18.4906L16.4612 9.41182ZM13.1082 9.41182H7.46116L13.3729 5.97065H16.5494L13.1082 9.41182ZM13.1965 9.67653H16.2847L14.0788 13.3824H9.66705L13.1965 9.67653ZM13.8141 13.6471L11.4318 17.7942H5.34352L9.31411 13.7353H13.8141V13.6471ZM11.6082 18.0589H15.7553L14.2553 22.3824H9.0494L11.6082 18.0589ZM14.4318 22.6471H19.1082L18.5788 26.8824H12.9318L14.4318 22.6471ZM19.4612 22.6471H24.8435L25.4612 26.8824H18.9318L19.4612 22.6471ZM25.1965 22.6471H29.8729L31.4612 26.8824H25.9023L25.1965 22.6471ZM29.167 20.0001H33.4023L34.8141 22.2942H30.0494L29.167 20.0001ZM36.8435 8.70594H35.0788L30.5788 5.88241H34.6376C35.4318 6.76476 36.2259 7.73535 36.8435 8.70594ZM27.4023 1.55888C30.0494 2.353 32.3435 3.76476 34.2847 5.6177H30.0494L22.9906 1.1177C24.4906 1.1177 25.9906 1.29418 27.4023 1.55888ZM29.52 5.6177H26.8729L22.7259 1.38241L29.52 5.6177ZM22.4612 5.6177H21.4906L21.9318 1.73535L22.4612 5.6177ZM21.1376 5.6177H20.2553L21.4906 1.91182L21.1376 5.6177ZM19.9906 5.6177H19.02L21.2259 1.91182L19.9906 5.6177ZM18.667 5.6177H17.167L21.0494 1.64712L18.667 5.6177ZM16.7259 5.6177H13.7259L20.6965 1.47065L16.7259 5.6177ZM20.6965 1.20594L13.2847 5.6177H10.2847C13.02 3.23535 16.6376 1.55888 20.6965 1.20594ZM9.93175 5.88241H12.7553L7.28469 9.14712C7.99057 7.91182 8.87293 6.853 9.93175 5.88241ZM6.93175 9.67653H12.7553L9.13763 13.3824H5.43175C5.78469 12.0589 6.31411 10.8236 6.93175 9.67653ZM5.16705 16.4706C5.16705 15.5001 5.25528 14.5295 5.43175 13.6471H8.87293L5.16705 17.4412V16.4706ZM5.25528 18.0589H11.2553L8.69646 22.3824H6.49058C5.78469 21.0589 5.43175 19.5589 5.25528 18.0589ZM6.57881 22.6471H8.51999L7.5494 24.3236C7.19646 23.7942 6.84352 23.1765 6.57881 22.6471ZM7.72587 24.5883L8.87293 22.6471H14.167L12.7553 26.8824H9.66705C8.96116 26.1765 8.25528 25.3824 7.72587 24.5883ZM10.02 27.1471H12.5788L12.0494 28.7353C11.3435 28.2942 10.6376 27.7648 10.02 27.1471ZM12.3141 29.0001L12.9318 27.2353H18.667L18.2259 31.4706C16.02 30.9412 14.0788 30.0589 12.3141 29.0001ZM22.5494 31.9118C21.1376 31.9118 19.8141 31.7354 18.4906 31.4706L19.02 27.1471H25.5494L26.167 31.5589C25.02 31.8236 23.7847 31.9118 22.5494 31.9118ZM26.4318 31.4706L25.8141 27.1471H31.4612L32.2553 29.1765C30.5788 30.3236 28.5494 31.0295 26.4318 31.4706ZM32.52 29.0883L31.8141 27.1471H35.0788C34.2847 27.853 33.4023 28.5589 32.52 29.0883ZM36.2259 26.0001C35.9612 26.2648 35.6965 26.6177 35.3435 26.8824H31.7259L30.1376 22.6471H34.9906L36.667 25.3824C36.4023 25.7353 36.2259 26.0001 36.2259 26.0001ZM35.3435 22.6471H36.0494C35.8729 22.7353 35.7847 22.9118 35.6082 23.0001L35.3435 22.6471ZM36.7553 25.1177L35.6965 23.353C36.1376 23.1765 36.5788 23.1765 37.02 23.1765C37.2847 23.1765 37.5494 23.1765 37.8141 23.2648C37.3729 23.9706 37.02 24.5883 36.7553 25.1177ZM36.3141 22.3824H35.0788L33.667 20.0883H38.9612C38.167 20.8824 37.2847 21.5883 36.3141 22.3824ZM42.9318 17.9706H41.2553V16.2942C41.2553 15.5001 40.9906 15.3236 40.1965 15.3236H40.02V13.8236H40.2847C40.8141 13.8236 41.0788 13.5589 41.0788 13.2059C41.0788 12.853 40.8141 12.5883 40.4612 12.5883C40.02 12.5883 39.667 12.9412 39.667 13.4706V17.8824H37.9906V13.4706C37.9906 11.9706 38.9612 11.0001 40.3729 11.0001C41.6965 11.0001 42.7553 11.8824 42.7553 12.9412C42.7553 13.6471 42.4023 14.1765 41.6082 14.4412C42.4906 14.5295 42.8435 14.9706 42.8435 15.853V17.9706H42.9318ZM49.4612 17.0001C48.8435 17.7059 47.9612 18.0589 46.9906 18.0589C46.02 18.0589 45.2259 17.7059 44.52 17.0001C43.8141 16.2942 43.4612 15.5001 43.4612 14.5295C43.4612 13.5589 43.8141 12.7648 44.52 12.0589C45.1376 11.4412 46.02 11.0001 46.9906 11.0001C47.9612 11.0001 48.7553 11.353 49.4612 12.0589C50.0788 12.6765 50.4317 13.5589 50.4317 14.5295C50.4317 15.5001 50.0788 16.3824 49.4612 17.0001ZM56.6965 17.9706H54.9318V13.8236C54.9318 13.1177 54.5788 12.6765 53.9612 12.6765C53.3435 12.6765 52.9906 13.0295 52.9906 13.8236V17.9706H51.2259V13.9118C51.2259 12.0589 52.3729 11.0001 53.9612 11.0001C55.5494 11.0001 56.6965 12.0589 56.6965 13.9118V17.9706ZM61.7259 12.6765H61.3729C60.2259 12.6765 59.52 13.0295 59.167 13.7353H61.7259V15.2354H59.167C59.4317 15.9412 60.1376 16.3824 61.3729 16.3824H61.7259V17.9706H61.5494C60.4023 17.9706 59.52 17.7942 58.9023 17.4412C57.9318 16.8236 57.3141 15.7648 57.3141 14.6177C57.3141 13.4706 57.8435 12.4118 58.9023 11.7942C59.52 11.4412 60.4023 11.2648 61.5494 11.2648H61.7259V12.6765ZM66.8435 12.7648H65.4317V17.9706H63.7553V12.7648H62.3435V11.1765H66.9318V12.7648H66.8435ZM46.9906 12.6765C46.02 12.6765 45.2259 13.4706 45.2259 14.5295C45.2259 15.5883 46.02 16.3824 46.9906 16.3824C47.9612 16.3824 48.7553 15.5883 48.7553 14.5295C48.7553 13.4706 47.9612 12.6765 46.9906 12.6765Z"/>
</svg>
