<svg viewBox="0 0 49 32" fill="currentColor" xmlns="http://www.w3.org/2000/svg">
<path d="M14.8992 24.3305C13.8976 24.2051 13.0211 23.9543 12.0195 23.578C6.00977 21.4458 2.12847 17.056 3.25529 13.6695C4.38212 10.5339 9.39025 9.53055 14.774 11.0356C14.774 11.1611 14.774 11.1611 14.774 11.2865C14.774 12.2899 15.6504 13.1678 16.652 13.1678H16.7772C17.7789 13.2933 18.6553 12.4153 18.7805 11.4119C18.9057 10.4085 18.0293 9.53055 17.0277 9.40512C16.9024 9.40512 16.9024 9.40512 16.7772 9.40512C15.9008 9.2797 15.0244 10.0322 14.8992 10.9102C8.38863 8.90343 2.25367 10.1577 1.00164 13.795C-0.250396 17.5577 4.13172 22.5746 10.8927 24.8322C12.3951 25.3339 13.8976 25.7102 15.4 25.9611C13.522 27.8424 11.3935 28.8458 9.64066 28.8458C6.88619 28.7204 5.13334 26.3373 4.88294 22.8255L4.38212 22.4492C4.13172 27.717 6.26017 31.6051 10.0163 31.7305C13.1464 31.856 16.7772 29.2221 19.6569 25.0831C19.1561 25.0831 18.4049 24.9577 17.6537 24.8322C16.2764 24.5814 15.2748 24.456 14.8992 24.3305ZM45.1984 13.795C44.5724 13.795 43.8211 13.9204 43.3203 14.2966C42.6943 14.6729 42.1935 15.0492 41.8179 15.5509C41.3171 14.2966 40.065 13.6695 38.813 13.795C37.561 13.795 36.3089 14.2966 35.5577 15.4255H35.4325L35.3073 14.0458H32.052C32.052 15.0492 32.1772 16.3034 32.1772 17.6831V24.8322H36.0585V18.6865C36.0585 18.4356 36.0585 18.1848 36.1837 17.9339C36.3089 17.4322 36.8098 17.056 37.4358 17.056C38.3122 17.056 38.6878 17.8085 38.6878 19.0627V24.9577H42.5691V18.8119C42.5691 18.5611 42.5691 18.3102 42.6943 17.9339C42.8195 17.4322 43.3203 17.056 43.9463 17.056C44.8228 17.056 45.1984 17.8085 45.1984 19.1882V24.9577H48.8293V18.5611C48.8293 15.4255 47.5772 13.795 45.1984 13.795ZM28.2959 16.8051C28.922 16.8051 29.4228 16.9305 30.0488 17.056L30.5496 14.1712C29.7984 13.9204 28.922 13.795 28.0455 13.795C26.7935 13.795 25.5415 14.0458 24.4146 14.6729C26.5431 6.52038 24.5398 0.374614 19.5317 0.876309C16.026 1.25258 12.1447 4.38817 9.13985 8.778H9.26505C11.7691 5.26614 14.8992 2.88309 17.7789 2.50682C22.2862 2.13055 24.039 7.77461 21.6602 15.3C21.0342 17.4322 20.0325 19.439 18.9057 21.3204V14.2966H14.8992V22.9509C16.652 23.4526 18.4049 23.8289 20.2829 23.9543C20.909 23.0763 21.4098 22.0729 21.9106 21.0695C22.5366 23.578 24.5398 24.9577 27.5447 24.9577C28.5463 24.9577 29.548 24.8322 30.4244 24.456L30.0488 21.6966C29.548 21.9475 28.922 21.9475 28.2959 21.9475C26.9187 22.0729 25.7919 21.0695 25.6667 19.6899C25.6667 19.5644 25.6667 19.439 25.6667 19.3136C25.5415 17.9339 26.5431 16.8051 27.9203 16.8051C28.0455 16.8051 28.1707 16.8051 28.2959 16.8051Z" />
</svg>
