<svg viewBox="0 0 37 21" fill="currentColor" xmlns="http://www.w3.org/2000/svg">
<path d="M4.92455 11.6406C6.59019 13.1589 8.16065 14.206 10.3974 14.939C10.2546 15.4102 10.0167 16.0908 10.0167 16.0908C6.16189 14.5202 3.63963 12.1118 2.59266 10.9076C0.927022 8.97042 0.165586 7.0856 0.784252 5.93377C1.40292 4.72958 3.73481 4.10131 8.06547 6.19555C4.63902 5.25314 3.21133 6.2479 2.8782 7.24267C2.21194 9.12749 4.63902 11.3788 4.92455 11.6406ZM8.54137 9.33691C9.30281 9.33691 9.92147 10.0175 9.92147 10.9076C9.92147 11.7453 9.30281 12.4783 8.54137 12.4783C7.77994 12.4783 7.16127 11.7976 7.16127 10.9076C7.16127 10.0175 7.77994 9.33691 8.54137 9.33691ZM7.68476 11.3264C7.68476 11.4835 7.82753 11.6406 7.97029 11.6406C8.11306 11.6406 8.25583 11.4835 8.25583 11.3264C8.25583 11.1694 8.11306 11.0123 7.97029 11.0123C7.82753 10.9599 7.68476 11.117 7.68476 11.3264ZM14.5377 10.8552C14.2521 10.5411 13.3955 9.59869 12.5389 8.97042C14.8708 12.0594 14.728 13.8919 14.3473 14.5202C14.0142 15.1484 13.2052 15.4102 12.1106 15.3055C12.1106 15.3579 11.9202 16.2479 11.8251 16.6668C14.0618 17.2427 15.7274 17.0332 16.3461 15.8814C16.9647 14.6772 16.2033 12.7924 14.5377 10.8552Z" />
<path d="M5.11492 16.6146C2.78302 17.2429 1.35533 17.0858 0.736666 15.8816C0.118 14.7298 0.736666 13.0544 2.30713 11.2219C2.54507 11.536 2.92579 11.9025 3.25892 12.1643C2.64025 13.1591 2.64025 13.9968 2.78302 14.6774C3.02097 15.8292 3.97276 16.4052 5.11492 16.6146ZM16.3461 5.8816C15.7274 4.67741 13.8714 4.46798 11.5395 5.14861C11.1588 5.25332 7.63717 6.14338 3.73482 9.65123C3.92518 9.96537 4.35348 10.4889 4.44866 10.5936C7.20886 7.71406 10.445 6.77165 10.7305 6.66694C12.8244 6.09102 13.8714 6.56222 14.3473 7.13814C15.2515 8.23762 14.9184 10.0177 14.8708 10.3842C16.4413 8.60411 16.9647 7.03343 16.3461 5.8816Z" />
<path d="M5.78123 4.62499C6.44748 2.05955 7.35169 0.907715 8.54143 0.907715C9.73117 0.907715 10.7306 2.26897 11.3968 4.7297C11.0637 4.83442 10.1595 5.14855 10.1595 5.14855C9.68358 4.10143 9.30287 3.63023 8.6842 3.31609C7.58964 2.74018 6.49507 3.36845 5.78123 4.62499ZM11.8727 6.92866C11.8727 6.92866 11.5396 6.92866 10.8257 7.13808C11.8727 12.3213 10.445 15.9862 10.3498 16.248C9.92153 17.2428 9.20768 18.0805 8.49384 18.2899C6.68543 18.8135 5.63846 15.2009 5.06738 13.7873C5.73364 19.0229 7.35169 20.9077 8.58902 20.9077C9.82635 20.9077 10.9209 19.2323 11.5872 16.6669C12.6817 11.9025 12.0631 7.76635 11.8727 6.92866ZM19.8678 2.42604L20.534 3.7873L20.6768 4.10143V2.42604H21.0575V4.67735H20.5816L19.963 3.36845C19.8678 3.31609 19.8202 3.21138 19.7726 3.05431C19.7726 3.21138 19.8202 3.4208 19.8202 3.57787V4.7297H19.3919V2.42604H19.8678ZM22.4376 2.42604L23.0563 3.7873C23.1039 3.94436 23.1515 4.04908 23.1515 4.20614V4.67735H22.7232V4.2585H21.8665V4.67735H21.4382V4.20614C21.4382 4.04908 21.4858 3.89201 21.5334 3.7873L22.1521 2.42604H22.4376ZM21.8665 3.94436H22.6756L22.39 3.26374C22.3424 3.10667 22.2473 3.00196 22.2473 2.89724C22.2473 3.00196 22.1521 3.15902 22.1045 3.26374L21.8665 3.94436ZM24.484 2.42604C24.8647 2.42604 25.0551 2.68782 25.0551 3.10667C25.0551 3.52552 24.9123 3.73494 24.7219 3.83965L25.1026 4.67735H24.6267L24.2936 3.89201H23.9605V4.67735H23.5322V2.42604H24.484ZM23.9129 3.52552H24.4364C24.5792 3.52552 24.6267 3.36845 24.6267 3.15902C24.6267 2.9496 24.5792 2.79253 24.484 2.79253H23.9605V3.52552H23.9129ZM25.4358 3.15902C25.4358 2.63546 25.7213 2.42604 26.2448 2.42604C26.7683 2.42604 27.0538 2.68782 27.0538 3.15902V3.99672C27.0538 4.52028 26.7683 4.7297 26.2448 4.7297C25.7213 4.7297 25.4358 4.46792 25.4358 3.99672V3.15902ZM25.8641 3.99672C25.8641 4.2585 26.0068 4.36321 26.2448 4.36321C26.4827 4.36321 26.6255 4.2585 26.6255 3.99672V3.10667C26.6255 2.84489 26.4827 2.74018 26.2448 2.74018C26.0068 2.74018 25.8641 2.84489 25.8641 3.10667V3.99672ZM28.2911 2.42604C28.8146 2.42604 29.0526 2.74018 29.0526 3.4208V3.68258C29.0526 4.36321 28.8146 4.67735 28.2911 4.67735H27.4821V2.42604H28.2911ZM27.9104 4.31086H28.2436C28.4815 4.31086 28.5767 4.10143 28.5767 3.68258V3.36845C28.5767 3.00196 28.4815 2.79253 28.2436 2.79253H27.9104V4.31086ZM29.4333 3.15902C29.4333 2.63546 29.7188 2.42604 30.2423 2.42604C30.7658 2.42604 31.0514 2.68782 31.0514 3.15902V3.99672C31.0514 4.52028 30.7658 4.7297 30.2423 4.7297C29.7188 4.7297 29.4333 4.46792 29.4333 3.99672V3.15902ZM29.8616 3.99672C29.8616 4.2585 30.0044 4.36321 30.2423 4.36321C30.4803 4.36321 30.623 4.2585 30.623 3.99672V3.10667C30.623 2.84489 30.4803 2.74018 30.2423 2.74018C30.0044 2.74018 29.8616 2.84489 29.8616 3.10667V3.99672ZM31.8128 2.42604V3.15902C31.8128 3.31609 31.8128 3.36845 31.8604 3.47316L31.9556 3.68258C32.0031 3.7873 32.0507 3.94436 32.0507 4.04908C32.0983 3.94436 32.1459 3.7873 32.1935 3.68258L32.2887 3.4208C32.3363 3.26374 32.3839 3.15902 32.3839 3.00196V2.42604H32.8122V3.05431C32.8122 3.21138 32.8598 3.31609 32.9073 3.47316L33.0025 3.73494C33.0501 3.83965 33.0977 3.99672 33.1453 4.10143C33.1453 4.04908 33.1929 3.83965 33.2405 3.73494L33.3357 3.52552C33.3832 3.4208 33.3832 3.36845 33.3832 3.21138V2.42604H33.764V3.21138C33.764 3.36845 33.7164 3.52552 33.6688 3.68258L33.2881 4.67735H33.0025L32.717 3.99672C32.6694 3.89201 32.6218 3.7873 32.6218 3.68258C32.5742 3.7873 32.5742 3.89201 32.5266 3.99672L32.2411 4.67735H31.9556L31.5748 3.68258C31.5272 3.52552 31.4797 3.36845 31.4797 3.21138V2.42604H31.8128ZM35.382 2.42604V2.79253H34.5254V3.31609H35.3344V3.68258H34.5254V4.31086H35.382V4.67735H34.0971V2.42604H35.382ZM19.7726 7.55693C19.7726 7.81871 19.9154 7.92342 20.1533 7.92342C20.3913 7.92342 20.534 7.81871 20.534 7.60929H20.9148C20.8672 8.08049 20.6292 8.28991 20.1533 8.28991C19.5822 8.28991 19.2967 8.02813 19.2967 7.55693V6.71923C19.2967 6.19567 19.5822 5.98625 20.1533 5.98625C20.6292 5.98625 20.8672 6.24803 20.9148 6.71923H20.534C20.534 6.45745 20.3913 6.4051 20.1533 6.4051C19.9154 6.4051 19.7726 6.50981 19.7726 6.77159V7.55693ZM22.628 5.98625V6.4051H21.7714V6.8763H22.5804V7.24279H21.7714V7.87107H22.628V8.28991H21.2955V5.98625H22.628ZM23.4846 5.98625L24.1508 7.34751L24.2936 7.66164V5.93389H24.6743V8.28991H24.1984L23.5798 6.98101C23.5322 6.92866 23.4846 6.77159 23.437 6.61452C23.437 6.77159 23.4846 6.98101 23.4846 7.13808V8.28991H23.1039V6.03861H23.4846V5.98625ZM26.4827 5.98625V6.4051H25.9593V8.28991H25.5309V6.4051H24.9599V5.98625H26.4827ZM27.7677 5.98625C28.1484 5.98625 28.3387 6.24803 28.3387 6.66688C28.3387 7.08573 28.196 7.29515 28.0056 7.39986L28.4339 8.28991H27.958L27.6249 7.50457H27.2918V8.28991H26.8635V6.03861H27.7677V5.98625ZM27.1966 7.13808H27.7201C27.8628 7.13808 27.9104 6.98101 27.9104 6.77159C27.9104 6.56217 27.8628 6.4051 27.7677 6.4051H27.2442V7.13808H27.1966ZM29.1954 5.98625V7.55693C29.1954 7.81871 29.3381 7.92342 29.5761 7.92342C29.814 7.92342 29.9568 7.81871 29.9568 7.55693V5.98625H30.3851V7.55693C30.3851 8.08049 30.0996 8.28991 29.5761 8.28991C29.0526 8.28991 28.767 8.02813 28.767 7.55693V5.98625H29.1954ZM31.3369 5.98625L31.8128 7.34751C31.8604 7.50457 31.908 7.60929 31.9556 7.76635C32.0031 7.60929 32.0507 7.45222 32.0983 7.34751L32.5742 5.98625H33.0025V8.28991H32.6218V7.34751C32.6218 7.13808 32.6218 6.92866 32.6694 6.66688C32.6218 6.8763 32.5266 7.08573 32.479 7.29515L32.1459 8.28991H31.7652L31.3845 7.24279C31.2893 7.03337 31.2417 6.82395 31.1941 6.61452C31.2417 6.8763 31.2417 7.13808 31.2417 7.29515V8.28991H30.861V6.03861H31.3369V5.98625ZM20.6292 10.0177V10.3318C20.6292 10.3842 20.6292 10.3842 20.5816 10.4365C20.5816 10.4889 20.534 10.4889 20.534 10.4889L20.4864 10.5412C20.534 10.5412 20.5816 10.5936 20.6292 10.5936C20.6768 10.5936 20.7244 10.6459 20.7244 10.6983L20.8196 10.803V11.3266C20.8196 11.6931 20.5816 11.9025 20.1533 11.9025H19.3919V9.54646H20.1057C20.4389 9.4941 20.6292 9.70353 20.6292 10.0177ZM20.0581 10.4889C20.1533 10.4889 20.2009 10.4365 20.2009 10.2794V10.07C20.2009 9.96531 20.1533 9.91295 20.0581 9.91295H19.725V10.4889H20.0581ZM20.1533 11.4836C20.2961 11.4836 20.3913 11.4313 20.3913 11.2742V10.9601C20.3913 10.8554 20.3437 10.803 20.2009 10.803H19.7726V11.4836H20.1533ZM22.1997 9.59881L22.8183 10.9601C22.8659 11.1171 22.9135 11.2219 22.9135 11.3789V11.8501H22.4852V11.4313H21.6286V11.8501H21.2003V11.3789C21.2003 11.2219 21.2479 11.0648 21.2955 10.9601L21.9141 9.59881H22.1997ZM21.6286 11.0648H22.4376L22.1521 10.3842C22.1045 10.2794 22.0569 10.1224 22.0093 10.0177C22.0093 10.1224 21.9141 10.2794 21.8665 10.3842L21.6286 11.0648ZM24.0557 9.59881C24.5792 9.59881 24.8171 9.91295 24.8171 10.5936V10.8554C24.8171 11.536 24.5792 11.8501 24.0557 11.8501H23.2466V9.59881H24.0557ZM23.7225 11.4836H24.0557C24.2936 11.4836 24.3888 11.2742 24.3888 10.8554V10.4889C24.3888 10.1224 24.2936 9.91295 24.0557 9.91295H23.7225V11.4836ZM26.1496 9.59881L26.7683 10.9601C26.8159 11.1171 26.8635 11.2219 26.8635 11.3789V11.8501H26.4352V11.4313H25.5785V11.8501H25.1502V11.3789C25.1502 11.2219 25.1978 11.0648 25.2454 10.9601L25.8641 9.59881H26.1496ZM25.5785 11.0648H26.3876L26.102 10.3842C26.0544 10.2794 26.0068 10.1224 25.9593 10.0177C25.9593 10.1224 25.8641 10.2794 25.8165 10.3842L25.5785 11.0648ZM27.7201 9.59881L28.3863 10.9601L28.5291 11.2742V9.54646H28.9098V11.7978H28.4339L27.8153 10.4889C27.7677 10.4365 27.7201 10.2794 27.6725 10.1224C27.6725 10.2794 27.7201 10.4889 27.7201 10.6459V11.7978H27.3394V9.54646H27.7201V9.59881ZM28.3387 8.86583L28.5291 9.12761L27.958 9.44175L27.8153 9.23232L28.3387 8.86583ZM20.5816 13.159V14.8868C20.5816 15.2533 20.3437 15.4627 19.9154 15.4627C19.4871 15.4627 19.2967 15.2533 19.2967 14.8868V14.6773H19.6774V14.9391C19.6774 15.0438 19.7726 15.0962 19.9154 15.0962C20.1057 15.0962 20.1533 15.0438 20.1533 14.9391V13.159H20.5816ZM22.2473 15.4103V14.9915H21.3906V15.4103H20.9623V14.9391C20.9623 14.7821 21.0099 14.625 21.0575 14.5203L21.6762 13.159H22.0093L22.628 14.5203C22.6756 14.6773 22.7232 14.7821 22.7232 14.9391V15.4103L22.6756 15.4627C22.4852 15.6721 22.5328 15.7245 22.5328 15.7245C22.5328 15.7768 22.5804 15.7768 22.6756 15.7768C22.7707 15.7768 22.8659 15.7245 22.9611 15.6721L22.9135 15.9339C22.8183 15.9862 22.7232 15.9862 22.5804 15.9862C22.4376 15.9862 22.3424 15.9339 22.2948 15.8292C22.2948 15.7768 22.2473 15.6721 22.3424 15.515C22.39 15.4627 22.4852 15.4103 22.4852 15.358L22.5328 15.3056H22.2473V15.4103ZM21.3906 14.6773H22.1997L21.9141 13.9967C21.8665 13.892 21.819 13.7349 21.7714 13.6302C21.7714 13.7349 21.6762 13.892 21.6286 13.9967L21.3906 14.6773ZM23.8177 13.159C24.3412 13.159 24.5792 13.4732 24.5792 14.1538V14.4156C24.5792 15.0962 24.3412 15.4103 23.8177 15.4103H23.0087V13.159H23.8177ZM23.4846 15.0438H23.8177C24.0557 15.0438 24.1508 14.8344 24.1508 14.4156V14.0491C24.1508 13.6826 24.0557 13.4732 23.8177 13.4732H23.4846V15.0438ZM26.0068 13.159C26.3876 13.159 26.5779 13.4208 26.5779 13.8397C26.5779 14.2585 26.4352 14.4679 26.2448 14.5726L26.6731 15.4627H26.1972L25.8641 14.6773H25.5309V15.4627H25.1026V13.2114H26.0068V13.159ZM25.4834 14.2585H26.0068C26.1496 14.2585 26.1972 14.1014 26.1972 13.892C26.1972 13.6826 26.1496 13.5255 26.0544 13.5255H25.5309V14.2585H25.4834ZM26.9586 13.892C26.9586 13.3684 27.2442 13.159 27.7677 13.159C28.2911 13.159 28.5767 13.4208 28.5767 13.892V14.7297C28.5767 15.2533 28.2911 15.4627 27.7677 15.4627C27.2442 15.4627 26.9586 15.2009 26.9586 14.7297V13.892ZM27.3869 14.7297C27.3869 14.9915 27.5297 15.0962 27.7677 15.0962C28.0056 15.0962 28.1484 14.9915 28.1484 14.7297V13.8397C28.1484 13.5779 28.0056 13.4732 27.7677 13.4732C27.5297 13.4732 27.3869 13.5779 27.3869 13.8397V14.7297ZM29.3857 13.159V13.892C29.3857 14.0491 29.3857 14.1014 29.4333 14.2061L29.5285 14.4156C29.5761 14.5203 29.6237 14.6773 29.6237 14.7821C29.6712 14.6773 29.7188 14.5203 29.7664 14.4156L29.8616 14.1538C29.9092 13.9967 29.9568 13.892 29.9568 13.7349V13.1067H30.3375V13.7349C30.3375 13.892 30.3851 13.9967 30.4327 14.1538L30.5279 14.4156C30.5755 14.5203 30.623 14.6773 30.6706 14.7821C30.6706 14.7297 30.7182 14.5203 30.7658 14.4156L30.861 14.2061C30.9086 14.1014 30.9086 14.0491 30.9086 13.892V13.159H31.2893V13.9444C31.2893 14.1014 31.2417 14.2585 31.1941 14.4156L30.8134 15.4103H30.5279L30.2423 14.7297C30.1947 14.625 30.1471 14.5203 30.1471 14.4156C30.0996 14.5203 30.0996 14.625 30.052 14.7297L29.7664 15.4103H29.3857L29.005 14.4156C28.9574 14.2585 28.9098 14.1014 28.9098 13.9444V13.159H29.3857ZM31.9556 13.159V13.4732C31.9556 13.5255 31.9556 13.5779 32.0031 13.5779L32.2411 13.9967C32.2887 14.1014 32.3363 14.2061 32.3839 14.2585C32.4315 14.2061 32.479 14.1014 32.5266 13.9967L32.7646 13.5779C32.7646 13.5255 32.8122 13.4732 32.8122 13.4732V13.159H33.2405V13.4208C33.2405 13.5255 33.1929 13.6302 33.1453 13.7349L32.6694 14.625V15.4103H32.2411V14.625L31.7176 13.7349C31.67 13.6302 31.6224 13.5255 31.6224 13.4208V13.159H31.9556ZM33.9067 14.7297C33.9067 14.9915 34.0495 15.0962 34.2875 15.0962C34.5254 15.0962 34.6682 14.9915 34.6682 14.7821H35.0489C35.0013 15.2533 34.7633 15.4627 34.2875 15.4627C33.7164 15.4627 33.4308 15.2009 33.4308 14.7297V13.892C33.4308 13.3684 33.7164 13.159 34.2875 13.159C34.7633 13.159 35.0013 13.4208 35.0489 13.892H34.6682C34.6682 13.6302 34.5254 13.5779 34.2875 13.5779C34.0495 13.5779 33.9067 13.6826 33.9067 13.9444V14.7297ZM35.8579 13.159V14.0491H36.5242V13.159H37.0001V15.4103H36.5242V14.4156H35.8579V15.4103H35.4296V13.159H35.8579ZM20.1533 18.2376C20.3913 18.3423 20.6292 18.447 20.6292 18.8135C20.6292 19.1276 20.3913 19.3894 19.9154 19.3894C19.5346 19.3894 19.2967 19.18 19.2491 18.8135H19.4871C19.5346 19.0229 19.6298 19.18 19.8678 19.18C20.2009 19.18 20.3437 19.0229 20.3437 18.8135C20.3437 18.5517 20.2009 18.4993 20.0105 18.447L19.725 18.3423C19.4871 18.2376 19.2491 18.0805 19.2491 17.7664C19.2491 17.4522 19.4871 17.2428 19.8678 17.2428C20.2961 17.2428 20.4864 17.3999 20.4864 17.7664H20.2485C20.2485 17.5046 20.1057 17.4522 19.8678 17.4522C19.5822 17.4522 19.4871 17.5569 19.4871 17.714C19.4871 17.9234 19.6298 17.9758 19.7726 18.0281L20.1533 18.2376ZM20.2009 16.6669L20.3437 16.8239L19.8678 17.1904L19.7726 17.0857L20.2009 16.6669ZM21.7714 17.3475V18.0805C21.7714 18.1852 21.7714 18.2376 21.819 18.3423L21.9617 18.8135L22.0569 19.0753L22.1521 18.8135L22.3424 18.2899C22.39 18.1328 22.4376 18.0281 22.4376 17.8711V17.3475H22.7232V17.8711C22.7232 18.0281 22.7707 18.1328 22.8183 18.2899L23.0087 18.8135L23.1039 19.0753L23.1991 18.7611L23.3418 18.2899C23.3894 18.1852 23.3894 18.1328 23.3894 18.0281V17.2952H23.6274V17.9758C23.6274 18.1328 23.5798 18.2376 23.5322 18.3946L23.1991 19.2847H22.9611L22.628 18.4993C22.5804 18.447 22.5804 18.2899 22.5328 18.2376C22.5328 18.2899 22.4852 18.447 22.4376 18.4993L22.1045 19.2847H21.8665L21.5334 18.3946C21.4858 18.2376 21.4382 18.0805 21.4382 17.9758V17.2952H21.7714V17.3475ZM24.5792 17.3475H24.8171V19.337H24.5792V17.3475ZM26.8635 17.3475V17.5569H26.0544V18.1852H26.8159V18.3946H26.0544V19.1276H26.8635V19.337H25.8165V17.3475H26.8635ZM28.6719 17.3475C29.005 17.3475 29.1002 17.5569 29.1002 17.9234C29.1002 18.3423 28.9574 18.5517 28.767 18.604L29.1478 19.3894H28.8622L28.5291 18.6564H28.1008V19.3894H27.8628V17.3999H28.6719V17.3475ZM28.0532 18.3946H28.6243C28.8146 18.3946 28.8622 18.2376 28.8622 17.9758C28.8622 17.7664 28.8146 17.6093 28.6243 17.6093H28.0532V18.3946ZM30.3375 17.3475V18.447C30.3851 18.3946 30.4327 18.2899 30.5279 18.2376L31.0038 17.6616C31.0514 17.6093 31.0989 17.5046 31.0989 17.4522V17.3475H31.2893V17.3999C31.2893 17.5569 31.2417 17.6616 31.1465 17.8187L30.8134 18.1852L31.2893 18.8658C31.3845 18.9705 31.4321 19.1276 31.4321 19.2847V19.337H31.1941V19.2847C31.1941 19.18 31.1465 19.1276 31.1465 19.0229L30.7182 18.3423L30.5279 18.604L30.3851 18.7611V19.3894H30.1471V17.3999H30.3375V17.3475Z" />
</svg>
