<svg viewBox="0 0 73 28" fill="currentColor" xmlns="http://www.w3.org/2000/svg">
<g clip-path="url(#clip0_28_1558)">
<path d="M25.0497 18.5154V21.7094C25.0497 24.0303 27.453 23.4558 27.453 23.4558V27.4771H26.7366C23.3397 27.4771 20.7515 25.7767 20.7515 22.169V18.5154H18.5562V14.4941H20.7515V10.7026H25.0497V14.4711H28.1694V18.4924H25.0497V18.5154Z" />
<path d="M34.6166 14.2412C36.812 14.2412 38.2216 15.3901 38.7531 16.677L39.0073 14.494H43.0513V27.2472H39.0073L38.7531 25.0642C38.2216 26.351 36.8351 27.4999 34.6166 27.4999C30.9424 27.4999 28.6546 24.5357 28.6546 20.8821C28.6546 17.2055 30.9424 14.2412 34.6166 14.2412ZM35.6334 23.4557C37.2741 23.4557 38.2447 22.2378 38.2447 20.8591C38.2447 19.4804 37.2741 18.2625 35.6334 18.2625C33.9927 18.2625 32.9759 19.4804 32.9759 20.8591C32.9759 22.2608 33.9927 23.4557 35.6334 23.4557Z" />
<path d="M49.1289 22.9501C49.1289 23.5706 49.9377 23.9612 51.1393 23.9612C51.6246 23.9612 52.4334 23.8923 52.4334 23.4327C52.4334 22.9501 51.7633 22.8812 49.2906 22.2378C46.7487 21.5944 45.2235 20.3765 45.2235 18.2395C45.2235 15.7348 47.7424 14.2412 50.4923 14.2412C54.1665 14.2412 56.2463 16.2633 56.2463 18.5382H51.9481C51.9481 17.8948 51.07 17.757 50.654 17.757C50.1457 17.757 49.5448 17.8718 49.5448 18.2395C49.5448 18.5842 50.007 18.6072 52.8725 19.5033C56.2694 20.5374 56.7778 22.2378 56.7778 23.5246C56.7778 26.1672 54.0972 27.477 51.07 27.477C47.4188 27.477 44.8538 26.0753 44.8538 22.9501H49.1289Z" />
<path d="M67.2229 20.0319L73 27.2472H67.6388L64.1725 22.9272L62.5549 24.4897V27.2472H58.2567V8.33569H62.5549V18.7451L66.9918 14.494H73L67.2229 20.0319Z" />
<path d="M15.76 2.82085C15.76 1.53404 14.7202 0.5 13.4261 0.5C12.132 0.5 11.069 1.53404 11.069 2.82085C11.069 4.10766 12.1089 5.1417 13.403 5.1417C14.697 5.1417 15.76 4.10766 15.76 2.82085Z" />
<path d="M6.33175 8.56562C4.09022 8.56562 2.07977 10.335 2.07977 12.7018C2.07977 15.1375 4.11333 16.8839 6.33175 16.8839C7.64894 16.8839 8.71194 16.3784 9.65939 15.4133V17.3435C8.75815 18.2167 7.51029 18.7452 6.03134 18.7452C2.63438 18.7452 0 16.0337 0 12.7018C0 9.46179 2.63438 6.70435 6.03134 6.70435C7.5334 6.70435 8.75815 7.23286 9.65939 8.10605V10.0133C8.68883 9.07115 7.64894 8.56562 6.33175 8.56562Z" />
<path d="M14.8357 18.5154H12.8946V8.79536L11.9933 8.70344V6.93408H14.8357V18.5154Z" />
</g>
<defs>
<clipPath id="clip0_28_1558">
<rect width="73" height="27" transform="translate(0 0.5)"/>
</clipPath>
</defs>
</svg>
