<svg viewBox="0 0 80 30" fill="currentColor" xmlns="http://www.w3.org/2000/svg">
<g clip-path="url(#clip0_28_1525)">
<path d="M2.09 22.2501C3.23972 24.0981 4.80448 25.6526 6.66 26.7901V19.6301C5.06791 20.3777 3.5395 21.2539 2.09 22.2501Z" />
<path d="M25.91 22.1899C24.4217 21.1788 22.8251 20.3369 21.15 19.6799V26.8799C23.054 25.682 24.672 24.0811 25.89 22.1899H25.91Z" />
<path d="M17.84 18.5601V22.7901C18.047 22.8596 18.2255 22.9951 18.3483 23.1756C18.4711 23.3562 18.5314 23.572 18.52 23.7901C18.525 23.9315 18.5 24.0723 18.4466 24.2033C18.3931 24.3343 18.3125 24.4525 18.21 24.5501C18.1071 24.6602 17.9806 24.7457 17.84 24.8001V28.4601C18.7641 28.2087 19.6442 27.8176 20.45 27.3001V19.4501C19.6057 19.0828 18.7328 18.7851 17.84 18.5601Z" />
<path d="M14.43 29.0099C15.3176 29.0289 16.2024 28.9039 17.05 28.6399V24.7499C16.8483 24.6787 16.6769 24.5407 16.5642 24.3589C16.4515 24.1771 16.4041 23.9623 16.43 23.7499C16.43 23.5336 16.5002 23.323 16.63 23.1499C16.7598 22.9768 16.9423 22.8505 17.15 22.7899V18.4099C16.2716 18.257 15.3816 18.1801 14.49 18.1799V29.0099H14.43Z" />
<path d="M13.7 18.15C12.7593 18.1465 11.8197 18.2167 10.89 18.36V22.79C10.994 22.8445 11.0886 22.9154 11.17 23C11.3308 23.1053 11.4578 23.2547 11.5359 23.4304C11.614 23.606 11.6398 23.8004 11.6102 23.9903C11.5807 24.1802 11.497 24.3576 11.3693 24.5012C11.2416 24.6448 11.0752 24.7485 10.89 24.8V28.6C11.8041 28.8736 12.7563 28.9985 13.71 28.97L13.7 18.15Z" />
<path d="M7.43 27.25C8.26519 27.7956 9.18398 28.201 10.15 28.45V24.79C9.94862 24.7153 9.77667 24.5777 9.6596 24.3975C9.54253 24.2174 9.48657 24.0044 9.5 23.79C9.49818 23.5779 9.55885 23.37 9.67444 23.1922C9.79003 23.0143 9.95543 22.8745 10.15 22.79V18.54C9.19868 18.694 8.27108 18.9696 7.39 19.36V27.25H7.43Z" />
<path d="M13.55 0.98999C11.6697 1.05964 9.81852 1.47667 8.08999 2.21999L7.23999 2.69999L13.49 6.23999C13.6474 4.49426 13.6674 2.73886 13.55 0.98999Z" />
<path d="M1.68999 21.46C3.34271 20.7811 4.89664 19.8831 6.30999 18.79L0.0399933 15.28C0.113177 17.4387 0.677472 19.5522 1.68999 21.46Z" />
<path d="M0.29999 11.6001C0.066334 12.5276 -0.0247098 13.4852 0.0299903 14.4401L6.87999 18.2901C7.59467 17.7384 8.26353 17.1297 8.87999 16.4701L5.16999 14.3701L5.03999 14.4701C4.92667 14.5489 4.79657 14.6002 4.65999 14.6201H4.51999C4.24996 14.6204 3.9902 14.5167 3.79466 14.3304C3.59912 14.1442 3.48285 13.8898 3.46999 13.6201C3.4652 13.5602 3.4652 13.5 3.46999 13.4401L0.29999 11.6001Z" />
<path d="M1.49998 8.36987C1.03421 9.13318 0.696414 9.96752 0.499985 10.8399L3.87998 12.7899C3.96031 12.7191 4.05147 12.6617 4.14998 12.6199H4.21999H4.31998H4.52998C4.70139 12.6205 4.87008 12.6627 5.0216 12.7428C5.17313 12.8229 5.30297 12.9386 5.39998 13.0799C5.53593 13.2638 5.59671 13.4927 5.56998 13.7199V13.7899L9.42998 15.9699C9.99888 15.2815 10.5074 14.5455 10.95 13.7699L1.49998 8.36987Z" />
<path d="M3.59999 5.46997C2.90977 6.12673 2.32909 6.88971 1.87999 7.72997L11.31 13.08C11.7755 12.2659 12.1768 11.4166 12.51 10.54L8.64999 8.34997C8.50208 8.49347 8.31345 8.58777 8.10989 8.61996C7.90634 8.65216 7.69782 8.62068 7.51284 8.52983C7.32786 8.43899 7.17547 8.29321 7.07651 8.11244C6.97755 7.93168 6.93685 7.72475 6.95999 7.51997C6.95999 7.51997 6.95999 7.43997 6.95999 7.39997L3.59999 5.46997Z" />
<path d="M6.48 3.1499C5.59141 3.60865 4.78404 4.20995 4.09 4.9299L7.3 6.7899C7.43865 6.62337 7.62764 6.50638 7.83853 6.45655C8.04942 6.40671 8.27079 6.42673 8.46932 6.51359C8.66785 6.60044 8.83279 6.74944 8.93932 6.93814C9.04585 7.12685 9.0882 7.34505 9.06 7.5599C9.06669 7.62974 9.06669 7.70006 9.06 7.7699L12.71 9.7899C13.0426 8.8879 13.2577 7.94684 13.35 6.9899L6.48 3.1499Z" />
<path d="M26.43 21.38L26.57 21.12C27.3563 19.5955 27.8129 17.9225 27.91 16.21V15.21L21.7 18.84C23.1377 19.9231 24.7329 20.7797 26.43 21.38Z" />
<path d="M14.32 1.02002C14.1646 2.79598 14.2082 4.58375 14.45 6.35002L20.65 2.69002C18.6904 1.66971 16.5279 1.0992 14.32 1.02002Z" />
<path d="M21.38 3.11011L14.61 7.11011C14.7177 8.01649 14.8983 8.91272 15.15 9.79011L18.83 7.64011C18.8262 7.58684 18.8262 7.53337 18.83 7.48011C18.8119 7.28683 18.8504 7.09247 18.9409 6.92072C19.0314 6.74898 19.1699 6.60728 19.3395 6.51292C19.5092 6.41856 19.7026 6.37561 19.8962 6.38931C20.0899 6.40302 20.2753 6.47279 20.43 6.59011L20.53 6.66011L23.7 4.79011C23.0173 4.11451 22.2348 3.5479 21.38 3.11011Z" />
<path d="M24.25 5.3501L20.9 7.2901C20.9041 7.34669 20.9041 7.4035 20.9 7.4601C20.9034 7.66427 20.8472 7.86501 20.7383 8.03772C20.6293 8.21044 20.4724 8.34765 20.2867 8.43255C20.101 8.51745 19.8945 8.54635 19.6926 8.51572C19.4907 8.48509 19.3022 8.39626 19.15 8.2601L15.35 10.4901C15.6605 11.3245 16.0419 12.1308 16.49 12.9001L25.86 7.4301C25.4371 6.65569 24.8937 5.95356 24.25 5.3501Z" />
<path d="M26.26 8.08008L16.9 13.5501C17.3713 14.3644 17.9063 15.1402 18.5 15.8701L22.28 13.6501C22.2746 13.5902 22.2746 13.53 22.28 13.4701C22.28 13.2049 22.3854 12.9505 22.5729 12.763C22.7604 12.5754 23.0148 12.4701 23.28 12.4701C23.3663 12.4594 23.4537 12.4594 23.54 12.4701C23.6914 12.4948 23.8332 12.5605 23.95 12.6601L27.33 10.6601C27.1098 9.74964 26.7487 8.87916 26.26 8.08008Z" />
<path d="M27.58 11.3899L24.39 13.2499C24.4438 13.4807 24.4224 13.7226 24.3288 13.9403C24.2353 14.1581 24.0745 14.3401 23.87 14.4599C23.6706 14.564 23.4435 14.6027 23.2209 14.5704C22.9983 14.5381 22.7915 14.4364 22.63 14.2799L19.01 16.3899C19.6234 17.1454 20.3328 17.8177 21.12 18.3899L27.92 14.3899C27.9738 13.378 27.8589 12.3641 27.58 11.3899Z" />
<path d="M47.42 9.61008H48.66V18.6101C48.6311 19.0735 48.4327 19.51 48.1025 19.8365C47.7724 20.1629 47.3337 20.3564 46.87 20.3801H43.78C42.63 20.3801 42.2 19.8301 42.19 19.5501C42.19 19.8301 41.62 20.3801 40.66 20.3801H37.46C37.0067 20.3465 36.5801 20.1531 36.256 19.8345C35.9319 19.5159 35.7313 19.0927 35.69 18.6401V9.61008H36.95V17.3401C36.95 17.7601 36.95 17.8501 36.95 18.3401C36.9747 18.571 37.079 18.7862 37.2451 18.9486C37.4111 19.111 37.6285 19.2105 37.86 19.2301C38.16 19.2301 38.21 19.2301 38.86 19.2301H40.62C40.8402 19.2296 41.0528 19.1493 41.2182 19.004C41.3837 18.8587 41.4909 18.6584 41.52 18.4401C41.5338 18.1703 41.5338 17.8999 41.52 17.6301V9.58008H42.77C42.77 10.9401 42.77 9.53008 42.77 18.4501C42.7854 18.6702 42.8859 18.8758 43.0501 19.0232C43.2143 19.1706 43.4294 19.2484 43.65 19.2401H46.42C46.5457 19.2511 46.6723 19.2361 46.792 19.1961C46.9116 19.156 47.0218 19.0918 47.1156 19.0074C47.2094 18.923 47.2848 18.8202 47.3372 18.7054C47.3895 18.5906 47.4177 18.4662 47.42 18.3401V9.61008Z" />
<path d="M52.49 11.6001C52.5283 11.3988 52.6274 11.2141 52.7741 11.071C52.9207 10.9279 53.1078 10.8334 53.31 10.8001H56.96C57.36 10.8001 57.96 11.2601 57.96 11.6001V13.0701H59.15V11.4901C59.0767 11.0097 58.8519 10.5654 58.5083 10.2218C58.1647 9.8782 57.7203 9.65337 57.24 9.58008H53.15C52.6528 9.63368 52.1872 9.84997 51.8256 10.1954C51.4639 10.5407 51.2264 10.9959 51.15 11.4901V18.4901C51.2157 18.9779 51.4322 19.4329 51.7693 19.7915C52.1064 20.1501 52.5472 20.3944 53.03 20.4901H57.22C57.7184 20.4237 58.1792 20.1894 58.5265 19.8258C58.8737 19.4621 59.0866 18.991 59.13 18.4901V17.0101H57.93V18.4001C57.93 18.7501 57.42 19.1801 56.93 19.1801H53.28C53.0581 19.1161 52.8609 18.9862 52.7145 18.8076C52.568 18.629 52.4793 18.4102 52.46 18.1801" />
<path d="M67.3 20.4301C67.8455 20.4189 68.3683 20.2099 68.7711 19.842C69.174 19.4741 69.4295 18.9723 69.49 18.4301V15.8901C69.43 14.8901 68.29 14.2701 67.37 14.2401H63.42C62.98 14.2401 62.69 13.6601 62.69 13.1201C62.69 12.1201 62.69 11.9501 62.69 11.8301C62.689 11.5798 62.7819 11.3382 62.9504 11.153C63.1189 10.9679 63.3507 10.8526 63.6 10.8301H67.44C67.89 10.8301 68.33 11.4401 68.33 11.8301V13.1201H69.49V11.5001C69.4077 11.0215 69.1755 10.5815 68.8267 10.2436C68.478 9.90565 68.0309 9.68731 67.55 9.62012H63.4C62.9263 9.69508 62.4881 9.91685 62.1472 10.2542C61.8063 10.5915 61.58 11.0273 61.5 11.5001V13.5901C61.539 14.1001 61.7645 14.5777 62.1335 14.9319C62.5024 15.2861 62.9889 15.4919 63.5 15.5101H67.5C67.7457 15.5373 67.9726 15.6546 68.137 15.8392C68.3014 16.0239 68.3915 16.2629 68.39 16.5101V18.2801C68.3503 18.543 68.2231 18.7847 68.0289 18.9662C67.8347 19.1477 67.5849 19.2583 67.32 19.2801H63.6C63.3817 19.2647 63.1744 19.1781 63.01 19.0336C62.8456 18.8891 62.7332 18.6947 62.69 18.4801V17.0801H61.5V18.5601C61.5474 19.0818 61.788 19.5669 62.1747 19.9203C62.5614 20.2737 63.0662 20.4698 63.59 20.4701H67.3" />
<path d="M77.81 20.4301C78.3555 20.4189 78.8783 20.2099 79.2811 19.842C79.684 19.4741 79.9395 18.9723 80 18.4301V15.8901C79.94 14.8901 78.8 14.2701 77.88 14.2401H73.93C73.49 14.2401 73.2 13.6601 73.2 13.1201C73.2 12.1201 73.2 11.9501 73.2 11.8301C73.1992 11.5782 73.2935 11.3353 73.464 11.1499C73.6346 10.9645 73.8689 10.8503 74.12 10.8301H77.95C78.4 10.8301 78.84 11.4401 78.84 11.8301V13.1201H80V11.5001C79.9192 11.0209 79.6874 10.5801 79.3384 10.2419C78.9894 9.90366 78.5415 9.68582 78.06 9.62012H73.91C73.4363 9.69508 72.9981 9.91685 72.6572 10.2542C72.3163 10.5915 72.0899 11.0273 72.01 11.5001V13.5901C72.049 14.1001 72.2745 14.5777 72.6434 14.9319C73.0124 15.2861 73.4989 15.4919 74.01 15.5101H78.01C78.2557 15.5373 78.4826 15.6546 78.647 15.8392C78.8114 16.0239 78.9015 16.2629 78.9 16.5101V18.2801C78.8587 18.5422 78.7309 18.783 78.537 18.9642C78.3432 19.1454 78.0943 19.2566 77.83 19.2801H74.15C73.9299 19.2669 73.7203 19.1812 73.554 19.0365C73.3876 18.8919 73.2737 18.6962 73.23 18.4801V17.0501H72.01V18.5301C72.0581 19.0596 72.3062 19.5508 72.7038 19.9038C73.1014 20.2568 73.6185 20.445 74.15 20.4301H77.86" />
</g>
<defs>
<clipPath id="clip0_28_1525">
<rect width="79.98" height="28.02" transform="translate(0.019989 0.98999)"/>
</clipPath>
</defs>
</svg>
